<?xml version="1.0" encoding="utf-8"?>
<!-- Generator: Adobe Illustrator 15.0.0, SVG Export Plug-In . SVG Version: 6.00 Build 0)  -->
<!DOCTYPE svg PUBLIC "-//W3C//DTD SVG 1.1//EN" "http://www.w3.org/Graphics/SVG/1.1/DTD/svg11.dtd">
<svg version="1.1" id="Layer_1" xmlns="http://www.w3.org/2000/svg" xmlns:xlink="http://www.w3.org/1999/xlink" x="0px" y="0px"
	 width="76.557px" height="72px" viewBox="0 0 76.557 72" enable-background="new 0 0 76.557 72" xml:space="preserve">
<g>
	<path fill="#F40C5A" d="M52.656,29.373c0.076-1,0.548-3.24-0.258-4.096c-1.078-1.144-3.017-1.376-5.029-1.311
		c0.019-0.825,0.022-1.651-0.016-2.485c-0.014-0.3-1.777-0.011-1.755,0.47c0.034,0.715,0.032,1.425,0.021,2.133
		c-1.378,0.13-2.683,0.317-3.651,0.359c-0.033,0.002-0.068,0.003-0.104,0.004c0.027-0.985,0.041-1.97-0.006-2.966
		c-0.014-0.3-1.777-0.011-1.754,0.47c0.039,0.858,0.035,1.707,0.016,2.555c-1.344,0.037-2.69,0.054-4.037,0.065
		c0.03-1.026,0.046-2.053-0.002-3.09c-0.014-0.3-1.777-0.011-1.754,0.47c0.041,0.886,0.035,1.762,0.014,2.638
		c-1.252,0.012-2.504,0.032-3.754,0.064c0.031-1.054,0.05-2.106,0-3.171c-0.014-0.3-1.776-0.011-1.754,0.47
		c0.043,0.927,0.035,1.844,0.012,2.761c-1.288,0.054-2.573,0.13-3.854,0.253c-0.558,0.053-0.965,0.497-0.912,0.802
		c-0.079,0.084-0.14,0.175-0.147,0.279c-0.436,5.611-0.016,11.312-0.12,16.944c-0.045,2.436-0.849,6.826,2.495,7.247
		c5.768,0.728,11.625,0.298,17.423,0.037c2.495-0.113,7.183,0.55,8.513-2.203c0.75-1.554,0.056-4.349,0.056-5.994
		c0-1.789,0.03-3.57,0.091-5.356C52.47,34.275,52.468,31.812,52.656,29.373z M30.513,26.906c0.012-0.39,0.025-0.779,0.039-1.168
		c1.25-0.026,2.502-0.032,3.756-0.031c-0.02,0.556-0.04,1.111-0.056,1.67c-0.007,0.262,1.74,0.034,1.755-0.471
		c0.01-0.4,0.025-0.798,0.039-1.196c1.346,0.007,2.693,0.012,4.039,0.01c-0.02,0.551-0.039,1.102-0.055,1.657
		c-0.008,0.262,1.74,0.034,1.754-0.471c0.011-0.4,0.025-0.798,0.039-1.196c1.256-0.015,2.509-0.053,3.759-0.113
		c-0.021,0.591-0.042,1.184-0.059,1.78c-0.008,0.262,1.739,0.034,1.754-0.471c0.013-0.465,0.03-0.929,0.046-1.392
		c3.251-0.13,3.85,1.197,3.569,4.047c-0.065,0.665-0.097,1.335-0.118,2.007c-8.384,0.498-16.797,0.227-25.19,0.213
		c-0.037-1.935-0.042-3.869,0.101-5.8c1.039-0.083,2.082-0.144,3.126-0.184c-0.019,0.525-0.038,1.05-0.052,1.579
		C28.751,27.639,30.5,27.411,30.513,26.906z M49.662,48.747c-1.881,0.274-3.827,0.333-5.723,0.446
		c-4.697,0.277-9.627,0.548-14.326,0.28c-5.93-0.338-4.027-7.148-3.949-11.353c0.035-1.885-0.023-3.77-0.064-5.654
		c8.385,0.036,16.782,0.267,25.154-0.279c-0.02,0.856-0.025,1.714-0.054,2.566c-0.082,2.506-0.164,5.006-0.164,7.515
		C50.536,43.042,50.882,48.569,49.662,48.747z"/>
	<path fill="#F40C5A" d="M31.855,36.904c0.459-0.427,0.92-0.853,1.365-1.294c0.258-0.254,0.212-0.545-0.167-0.623
		c-0.395-0.082-0.948,0.042-1.24,0.332c-0.259,0.257-0.529,0.502-0.795,0.753c-0.337-0.34-0.676-0.678-1.014-1.017
		c-0.433-0.435-2.094,0.22-1.63,0.685c0.486,0.486,0.97,0.976,1.457,1.461c-0.474,0.443-0.947,0.888-1.398,1.356
		c-0.717,0.743,1.004,0.709,1.407,0.291c0.274-0.284,0.565-0.55,0.85-0.822c0.396,0.378,0.786,0.762,1.198,1.124
		c0.465,0.408,2.104-0.268,1.631-0.685C32.947,37.963,32.398,37.436,31.855,36.904z"/>
	<path fill="#F40C5A" d="M41.583,35.438c-0.222,0.127-0.464,0.356-0.493,0.612c-0.342,0.624-0.304,1.389,0.075,2
		c0.563,0.906,1.976,0.77,2.63,0.062c0.534-0.579,0.516-1.47,0.174-2.138C43.512,35.082,42.394,34.973,41.583,35.438z"/>
	<path fill="#F40C5A" d="M36.183,35.438c-0.222,0.127-0.463,0.356-0.493,0.612c-0.341,0.624-0.303,1.389,0.076,2
		c0.563,0.906,1.976,0.77,2.63,0.062c0.533-0.579,0.516-1.47,0.174-2.138C38.113,35.082,36.996,34.973,36.183,35.438z"/>
	<path fill="#F40C5A" d="M46.224,35.438c-0.223,0.127-0.463,0.356-0.494,0.612c-0.341,0.624-0.303,1.389,0.076,2
		c0.563,0.906,1.977,0.77,2.63,0.062c0.534-0.579,0.516-1.47,0.174-2.138C48.154,35.082,47.036,34.973,46.224,35.438z"/>
	<path fill="#F40C5A" d="M41.583,42.447c-0.222,0.128-0.464,0.356-0.493,0.611c-0.342,0.624-0.304,1.39,0.075,2
		c0.563,0.906,1.976,0.77,2.63,0.062c0.534-0.579,0.516-1.47,0.174-2.138C43.512,42.092,42.394,41.982,41.583,42.447z"/>
	<path fill="#F40C5A" d="M36.183,42.447c-0.222,0.128-0.463,0.356-0.493,0.611c-0.341,0.624-0.303,1.39,0.076,2
		c0.563,0.906,1.976,0.77,2.63,0.062c0.533-0.579,0.516-1.47,0.174-2.138C38.113,42.092,36.996,41.982,36.183,42.447z"/>
	<path fill="#F40C5A" d="M30.02,42.447c-0.222,0.128-0.464,0.356-0.493,0.611c-0.342,0.624-0.303,1.39,0.076,2
		c0.562,0.906,1.975,0.77,2.629,0.062c0.534-0.579,0.516-1.47,0.174-2.138C31.95,42.092,30.832,41.982,30.02,42.447z"/>
	<path fill="#F40C5A" d="M46.224,42.447c-0.223,0.128-0.463,0.356-0.494,0.611c-0.341,0.624-0.303,1.39,0.076,2
		c0.563,0.906,1.977,0.77,2.63,0.062c0.534-0.579,0.516-1.47,0.174-2.138C48.154,42.092,47.036,41.982,46.224,42.447z"/>
</g>
</svg>
