<?xml version="1.0" encoding="utf-8"?>
<!-- Generator: Adobe Illustrator 15.0.0, SVG Export Plug-In . SVG Version: 6.00 Build 0)  -->
<!DOCTYPE svg PUBLIC "-//W3C//DTD SVG 1.1//EN" "http://www.w3.org/Graphics/SVG/1.1/DTD/svg11.dtd">
<svg version="1.1" id="Layer_1" xmlns="http://www.w3.org/2000/svg" xmlns:xlink="http://www.w3.org/1999/xlink" x="0px" y="0px"
	 width="76.557px" height="72px" viewBox="0 0 76.557 72" enable-background="new 0 0 76.557 72" xml:space="preserve">
<path fill="#F40C5A" d="M48.777,31.194c-0.019-0.358-0.701-0.347-0.915-0.324c-2.739,0.285-5.474,0.63-8.217,0.865
	c2.151-1.22,5.009-0.836,7.137-2.343c1.571-1.113,1.884-4.258,0.059-5.345c-2.918-1.739-6.542,1.476-8.406,4.558
	c-1.527-3.372-4.5-7.927-7.593-5.905c-5.016,3.279,0.468,7.479,4.663,8.967c-2.023-0.014-4.046-0.034-6.069-0.04
	c-0.41,0-1.405,0.188-1.458,0.744c-0.53,5.622-0.435,11.201-0.328,16.838c0.005,0.263,0.478,0.328,0.649,0.337
	c6.491,0.333,12.997,0.422,19.471-0.232c0.319-0.031,1.191-0.281,1.192-0.73C48.974,42.783,49.079,36.987,48.777,31.194z
	 M42.365,48.188c0.043-5.186,0.149-10.369,0.158-15.555c1.388-0.147,2.775-0.303,4.164-0.453c0.26,5.34,0.186,10.682,0.17,16.026
	c-1.528,0.131-3.058,0.226-4.589,0.279C42.329,48.394,42.364,48.295,42.365,48.188z M41.455,27.215
	c1.692-2.111,4.923-3.028,4.431,0.752c-0.232,1.782-4.04,2.123-6.433,2.778C39.795,29.413,40.598,28.285,41.455,27.215z
	 M31.312,26.362c-0.16-0.413-0.191-3.164,0.838-2.688c2.253,1.046,3.989,4.572,4.843,7.086c-1.55-0.412-2.995-1.228-4.222-2.246
	C32.082,27.942,31.63,27.187,31.312,26.362z M29.633,41.137c-0.013-2.763,0.146-5.515,0.39-8.264
	c0.994,0.005,1.989,0.012,2.983,0.019c-0.236,5.186,0.045,10.396-0.312,15.573c-0.373-0.013-0.745-0.024-1.117-0.039
	C28.647,48.314,29.644,43.325,29.633,41.137z M34.775,48.522c0.001-0.011,0.01-0.018,0.011-0.027
	c0.374-5.081,0.113-10.194,0.309-15.286c1.773-0.063,3.541-0.195,5.306-0.361c-0.01,5.179-0.115,10.359-0.158,15.54
	c0,0.059,0.028,0.1,0.042,0.153C38.449,48.571,36.613,48.562,34.775,48.522z"/>
</svg>
