<?xml version="1.0" encoding="utf-8"?>
<!-- Generator: Adobe Illustrator 15.0.0, SVG Export Plug-In . SVG Version: 6.00 Build 0)  -->
<!DOCTYPE svg PUBLIC "-//W3C//DTD SVG 1.1//EN" "http://www.w3.org/Graphics/SVG/1.1/DTD/svg11.dtd">
<svg version="1.1" id="Layer_1" xmlns="http://www.w3.org/2000/svg" xmlns:xlink="http://www.w3.org/1999/xlink" x="0px" y="0px"
	 width="76.557px" height="72px" viewBox="0 0 76.557 72" enable-background="new 0 0 76.557 72" xml:space="preserve">
<path fill="#EDEDED" d="M51.585,28.81c-3.069-4.706-9.756-5.841-12.785-1.448c-3.519-4.076-9.785-4.759-13.359,0.015
	c-6.055,8.085,7.135,15.079,10.8,20.332c0.342,0.49,1.677,0.173,2.083-0.346C42.73,43.384,56.665,36.598,51.585,28.81z
	 M37.703,45.936c-3.163-3.973-7.868-6.543-10.419-11.04c-1.551-2.732-0.9-6.424,1.271-8.597c3.356-3.353,7.771,0.926,9.281,3.578
	c0.383,0.67,2.023-0.017,2.199-0.59c2.375-7.707,12.592-0.2,9.287,6.376C46.993,40.294,41.712,42.755,37.703,45.936z"/>
</svg>
