<?xml version="1.0" encoding="utf-8"?>
<!-- Generator: Adobe Illustrator 15.0.0, SVG Export Plug-In . SVG Version: 6.00 Build 0)  -->
<!DOCTYPE svg PUBLIC "-//W3C//DTD SVG 1.1//EN" "http://www.w3.org/Graphics/SVG/1.1/DTD/svg11.dtd">
<svg version="1.1" id="Layer_1" xmlns="http://www.w3.org/2000/svg" xmlns:xlink="http://www.w3.org/1999/xlink" x="0px" y="0px"
	 width="76.557px" height="72px" viewBox="0 0 76.557 72" enable-background="new 0 0 76.557 72" xml:space="preserve">
<path fill="#EDEDED" d="M53.113,35.444c-0.119-2.46-0.02-5.672-1.146-7.951c0.07-0.12,0.005-0.217-0.136-0.289
	c-1.237-2.181-5.688-1.757-7.65-1.963c-6.555-0.687-13.146,1.347-19.692,1.475c-0.862,0.016-1.289,0.839-0.935,1.284
	c0,2.858,0,5.715,0,8.572c0,2.357-0.453,4.914-0.119,7.256c0.359,2.513,2.187,2.963,4.487,3.023
	c5.09,0.133,10.146-0.024,15.226-0.336c2.574-0.158,7.053,0.812,8.75-1.61C53.626,42.441,53.25,38.259,53.113,35.444z
	 M49.105,27.479c0.145,0.045,0.272,0.112,0.393,0.19c-4.102,2.489-6.649,7.026-10.615,9.722c-3.278,2.226-9.507-6.263-12.087-9.249
	C34.125,27.539,42.027,25.25,49.105,27.479z M50.742,42.35c-0.314,1.946-0.756,2.353-2.642,2.385
	c-1.597,0.026-3.192,0.123-4.787,0.218c-3.381,0.202-6.756,0.378-10.144,0.407c-2.025,0.017-4.094,0.051-6.109-0.159
	c-1.963-0.205-1.612-2.58-1.561-3.985c0.142-3.826,0.144-7.656,0.141-11.488c1.793,1.952,3.51,3.97,5.416,5.821
	c1.537,1.494,3.893,3.673,6.252,3.427c5.579-0.584,8.567-7.192,12.941-10.356c0.714,1.586,0.471,4.29,0.638,5.438
	C51.283,36.76,51.176,39.656,50.742,42.35z"/>
</svg>
