<?xml version="1.0" encoding="utf-8"?>
<!-- Generator: Adobe Illustrator 15.0.0, SVG Export Plug-In . SVG Version: 6.00 Build 0)  -->
<!DOCTYPE svg PUBLIC "-//W3C//DTD SVG 1.1//EN" "http://www.w3.org/Graphics/SVG/1.1/DTD/svg11.dtd">
<svg version="1.1" id="Layer_1" xmlns="http://www.w3.org/2000/svg" xmlns:xlink="http://www.w3.org/1999/xlink" x="0px" y="0px"
	 width="76.557px" height="72px" viewBox="0 0 76.557 72" enable-background="new 0 0 76.557 72" xml:space="preserve">
<path fill="#F40C5A" d="M43.867,35.46c4.613-3.515,2.85-12.397-3.279-13.255c-2.911-0.407-6.761,2.152-8.091,4.587
	c-1.717,3.144-0.646,5.969,1.041,8.76c-6.011,1.696-13.83,7.978-7.879,13.727c0.019,0.073,0.11,0.129,0.286,0.16
	c0.137,0.038,0.298,0.053,0.477,0.041c4.66,0.313,9.337,0.357,14.005,0.301c3.18-0.041,7.953,0.544,10.808-1.289
	C56.794,44.917,48,37.253,43.867,35.46z M48.023,48.152c-6.556,0.532-13.282,0.437-19.844-0.011
	c-4.875-4.902,1.702-11.157,6.922-11.69c0.229-0.023,1.956-0.511,1.629-1.026c-0.748-1.182-1.442-2.333-1.951-3.644
	c-1.04-2.675,0.599-9.459,5.084-7.994c4.312,1.411,5.395,9.679,1.285,11.71c-0.286,0.141-0.935,0.732-0.294,0.916
	c2.742,0.787,4.83,2.589,6.678,4.694C48.814,42.566,52.248,47.809,48.023,48.152z"/>
</svg>
