<?xml version="1.0" encoding="utf-8"?>
<!-- Generator: Adobe Illustrator 15.0.0, SVG Export Plug-In . SVG Version: 6.00 Build 0)  -->
<!DOCTYPE svg PUBLIC "-//W3C//DTD SVG 1.1//EN" "http://www.w3.org/Graphics/SVG/1.1/DTD/svg11.dtd">
<svg version="1.1" id="Layer_1" xmlns="http://www.w3.org/2000/svg" xmlns:xlink="http://www.w3.org/1999/xlink" x="0px" y="0px"
	 width="76.557px" height="72px" viewBox="0 0 76.557 72" enable-background="new 0 0 76.557 72" xml:space="preserve">
<g>
	<path fill="#EDEDED" d="M35.397,32.281c1.914-2.841,3.923-5.819,4.191-9.323c-0.71,0.19-1.421,0.38-2.131,0.571
		c1.263,2.625,2.12,5.795,4.075,8.015c1.857,2.11,5.524,2.15,8.065,2.319c1.042,0.068,3.089-0.456,1.181,0.715
		c-0.97,0.594-1.929,1.203-2.872,1.839c-0.957,0.646-2.072,1.449-2.662,2.468c-1.676,2.899,0.616,7.072,1.549,9.854
		c0.645-0.243,1.289-0.486,1.933-0.729c-3.559-1.66-6.69-4.071-10.25-5.73c-0.448-0.208-1.556,0.093-1.841,0.493
		c-1.791,2.518-3.907,4.372-6.658,5.827c0.562,0.007,1.123,0.014,1.684,0.02c0.583-3.318,1.752-6.485,2.334-9.804
		c0.032-0.083,0.014-0.151-0.056-0.207c-3.451-2.076-6.554-4.636-9.804-7.002c-0.56,0.286-1.12,0.571-1.68,0.856
		c3.958,0.437,7.926,0.468,11.904,0.47c0.635,0,2.32-0.961,0.896-0.96c-3.825-0.002-7.634-0.045-11.439-0.464
		c-0.238-0.026-2.209,0.471-1.68,0.856c2.907,2.118,5.703,4.378,8.714,6.348c2.098,1.374-0.951,8.263-1.301,10.252
		c-0.112,0.641,1.459,0.139,1.684,0.021c2.983-1.578,5.379-3.542,7.348-6.311c-0.613,0.164-1.227,0.328-1.84,0.493
		c3.56,1.659,6.691,4.07,10.251,5.73c0.327,0.153,2.122-0.167,1.933-0.729c-0.851-2.539-2.503-5.729-2.056-8.49
		c0.458-2.831,5.314-4.802,7.42-6.09c0.353-0.215,0.262-0.538-0.147-0.552c-3.251-0.099-7.631,0.237-10.316-1.963
		c-2.178-1.784-3.065-5.678-4.238-8.115c-0.277-0.576-2.086-0.015-2.131,0.571c-0.261,3.395-2.324,6.354-4.172,9.095
		C33.072,32.942,35.03,32.825,35.397,32.281L35.397,32.281z"/>
</g>
</svg>
