<?xml version="1.0" encoding="utf-8"?>
<!-- Generator: Adobe Illustrator 15.0.0, SVG Export Plug-In . SVG Version: 6.00 Build 0)  -->
<!DOCTYPE svg PUBLIC "-//W3C//DTD SVG 1.1//EN" "http://www.w3.org/Graphics/SVG/1.1/DTD/svg11.dtd">
<svg version="1.1" id="Layer_1" xmlns="http://www.w3.org/2000/svg" xmlns:xlink="http://www.w3.org/1999/xlink" x="0px" y="0px"
	 width="76.557px" height="72px" viewBox="0 0 76.557 72" enable-background="new 0 0 76.557 72" xml:space="preserve">
<g>
	<path fill="#EDEDED" d="M48.529,27.481c-3.424-3.727-9.467-4.897-14.364-3.413c-0.048,0.011-0.085,0.01-0.136,0.025
		c-0.085,0.028-0.164,0.068-0.248,0.098c-1.314,0.441-2.543,1.069-3.598,1.909c-0.172,0.137-0.246,0.251-0.26,0.349
		c-4.352,3.781-6.215,10.562-3.925,15.883c3.217,7.477,13.294,7.362,19.354,4.125C52.074,42.865,53.613,33.014,48.529,27.481z
		 M45.523,44.556c-5.494,5.289-14.865,2.694-17.699-3.894c-2.173-5.051,1.201-13.645,6.532-15.347
		c0.173-0.055,0.317-0.124,0.437-0.201c4.56-1.332,10.196,1.15,12.873,4.798C50.93,34.359,49.152,41.062,45.523,44.556z"/>
	<path fill="#EDEDED" d="M35.96,28.527c-0.592,1.207,1.719,1.294,2.196,0.319c1.033-2.106,3.02,0.989,3.488,2.118
		c1.311,3.156-1.12,4.331-3.977,4.169c-0.618-0.035-1.453,0.222-1.541,0.951c-0.191,1.602-0.227,3.195-0.229,4.807
		c-0.001,1.258,2.317,0.962,2.319-0.142c0.002-1.298,0.028-2.584,0.138-3.872c3.925-0.271,7.439-2.57,5.321-7.087
		C42.186,26.614,37.912,24.546,35.96,28.527z"/>
	<path fill="#EDEDED" d="M37.22,42.617c-0.251-0.041-0.575-0.011-0.655,0.001c-0.414,0.066-1.127,0.241-1.322,0.673
		c-0.281,0.621-0.516,1.458-0.106,2.078c0.429,0.649,1.228,0.732,1.944,0.631c0.71-0.101,1.798-0.448,2.015-1.243
		c0.212-0.78-0.472-1.55-0.968-2.055C37.968,42.54,37.605,42.536,37.22,42.617z M36.744,45.314
		C36.709,45.347,36.682,45.365,36.744,45.314L36.744,45.314z"/>
</g>
</svg>
