<?xml version="1.0" encoding="utf-8"?>
<!-- Generator: Adobe Illustrator 15.0.0, SVG Export Plug-In . SVG Version: 6.00 Build 0)  -->
<!DOCTYPE svg PUBLIC "-//W3C//DTD SVG 1.1//EN" "http://www.w3.org/Graphics/SVG/1.1/DTD/svg11.dtd">
<svg version="1.1" id="Layer_1" xmlns="http://www.w3.org/2000/svg" xmlns:xlink="http://www.w3.org/1999/xlink" x="0px" y="0px"
	 width="76.557px" height="72px" viewBox="0 0 76.557 72" enable-background="new 0 0 76.557 72" xml:space="preserve">
<path fill="#F40C5A" d="M57.795,36.484c-3.665-3.877-7.667-7.428-11.53-11.105c-2.186-2.08-3.78-2.942-6.713-2.51
	c-1.581,0.234-3.059,1.032-4.458,1.974c-0.001-0.312-0.002-0.624-0.004-0.936c-0.005-0.798-0.057-1.595-0.138-2.388
	c-0.053-0.525-0.74-0.722-1.146-0.801c-2.029-0.395-4.276,0.07-6.322,0.141c-0.664,0.023-1.96,0.571-1.934,1.414
	c0.088,2.808-0.027,5.605-0.109,8.411c-0.008,0.264,0.065,0.474,0.187,0.643c-2.195,1.443-4.393,2.885-6.577,4.345
	c-1.445,0.968,2.073,0.482,2.68,0.077c0.959-0.642,1.92-1.275,2.882-1.912c0.037,5.054,0.213,10.106,0.234,15.16
	c0.003,0.704,0.517,1.136,1.192,1.229c7.627,1.034,15.707,1.712,23.373,0.767c2.281-0.281,2.252-2.409,2.325-4.256
	c0.155-3.936,0.081-7.896,0.04-11.845c0.916,0.917,1.823,1.842,2.71,2.779C55.09,38.31,58.315,37.034,57.795,36.484z M29.123,23.258
	c0.781-0.076,1.568-0.141,2.334-0.115c-0.031,1.289-0.263,3.179,0.572,3.91c-0.211,0.15-0.422,0.303-0.629,0.443
	c-0.784,0.529-1.576,1.045-2.364,1.569C29.095,27.129,29.146,25.194,29.123,23.258z M37.201,40.466
	c0.897,0.022,1.797,0.022,2.695,0.021c0.029,2.724,0.102,5.446,0.13,8.169c-1.017-0.027-2.032-0.066-3.048-0.127
	C36.997,45.841,37.084,43.154,37.201,40.466z M48.191,42.734c0.004,1.782,0.007,3.56-0.063,5.341
	c-0.04,0.143-0.069,0.264-0.093,0.372c-0.511,0.044-1.021,0.091-1.534,0.116c-0.97,0.061-1.943,0.093-2.919,0.111
	c-0.028-3.198-0.143-6.393-0.152-9.591c-0.004-0.9-0.848-1.142-1.614-1.12c-1.909,0.053-3.811-0.011-5.72-0.063
	c-0.813-0.022-2.339,0.318-2.389,1.394c-0.137,2.987-0.238,5.971-0.271,8.96c-1.688-0.157-3.368-0.347-5.036-0.562
	c-0.042-4.977-0.211-9.951-0.232-14.928c-0.002-0.442-0.195-0.752-0.486-0.955c0.103-0.067,0.206-0.135,0.309-0.204
	c0.256-0.11,0.486-0.254,0.661-0.436c2.833-1.865,5.662-3.737,8.456-5.661c3.564-2.453,5.455,0.747,7.989,3.039
	c1.05,0.949,2.089,1.916,3.124,2.892c-0.018,0.08-0.033,0.162-0.033,0.248C48.187,35.369,48.183,39.051,48.191,42.734z"/>
</svg>
