<?xml version="1.0" encoding="utf-8"?>
<!-- Generator: Adobe Illustrator 16.0.0, SVG Export Plug-In . SVG Version: 6.00 Build 0)  -->
<!DOCTYPE svg PUBLIC "-//W3C//DTD SVG 1.1//EN" "http://www.w3.org/Graphics/SVG/1.1/DTD/svg11.dtd">
<svg version="1.1" id="Layer_1" xmlns="http://www.w3.org/2000/svg" xmlns:xlink="http://www.w3.org/1999/xlink" x="0px" y="0px"
	 width="200px" height="100px" viewBox="0 0 200 100" enable-background="new 0 0 200 100" xml:space="preserve">
<path fill="#15BDDE" d="M60.37,60.137h-5.216c-0.144-0.145-0.226-0.226-0.37-0.37V40.716c0.144-0.145,0.226-0.226,0.37-0.37h5.216
	c0.145,0.145,0.226,0.226,0.37,0.37v19.051C60.595,59.911,60.514,59.992,60.37,60.137"/>
<path fill="#15BDDE" d="M156.05,60.137h-5.217c-0.144-0.145-0.225-0.226-0.369-0.37V40.716c0.145-0.145,0.226-0.226,0.369-0.37
	h5.217c0.145,0.145,0.225,0.226,0.369,0.37v19.051C156.274,59.911,156.194,59.992,156.05,60.137"/>
<path fill="#15BDDE" d="M73.835,47.818c0-1.443-0.703-2.405-2.109-2.405c-1.368,0-2.108,0.925-2.108,2.368v11.985
	c-0.144,0.145-0.225,0.226-0.37,0.37h-5.216c-0.145-0.145-0.226-0.226-0.37-0.37V40.716c0.145-0.145,0.226-0.226,0.37-0.37h5.216
	c0.145,0.145,0.226,0.226,0.37,0.37v0.887c0.444-0.407,1.591-1.479,3.996-1.479c4.661,0,6.178,3.182,6.178,6.992v12.651
	c-0.145,0.145-0.226,0.226-0.37,0.37h-5.216c-0.145-0.145-0.226-0.226-0.37-0.37V47.818z"/>
<path fill="#15BDDE" d="M130.249,47.818c0-1.443-0.702-2.405-2.107-2.405c-1.369,0-2.109,0.925-2.109,2.368v11.985
	c-0.145,0.145-0.225,0.226-0.369,0.37h-5.217c-0.144-0.145-0.226-0.226-0.37-0.37V40.716c0.145-0.145,0.227-0.226,0.37-0.37h5.217
	c0.145,0.145,0.225,0.226,0.369,0.37v0.887c0.444-0.407,1.591-1.479,3.995-1.479c4.661,0,6.178,3.182,6.178,6.992v12.651
	c-0.144,0.145-0.225,0.226-0.369,0.37h-5.216c-0.145-0.145-0.227-0.226-0.371-0.37V47.818z"/>
<path fill="#15BDDE" d="M90.149,52.628l3.547-12.017c0.131-0.098,0.224-0.167,0.355-0.265h5.351c0.147,0.205,0.203,0.282,0.35,0.487
	l-6.374,19.051c-0.128,0.093-0.222,0.16-0.351,0.253h-6.054c-0.129-0.092-0.222-0.159-0.35-0.251l-6.517-19.05
	c0.147-0.207,0.203-0.284,0.35-0.49h5.791c0.131,0.098,0.223,0.167,0.355,0.265L90.149,52.628z"/>
<path fill="#15BDDE" d="M168.528,52.628l3.547-12.017c0.131-0.098,0.223-0.167,0.354-0.265h5.352
	c0.147,0.205,0.203,0.282,0.351,0.487l-6.374,19.051c-0.129,0.093-0.222,0.16-0.352,0.253h-6.053
	c-0.13-0.092-0.223-0.159-0.351-0.251l-6.517-19.05c0.147-0.207,0.202-0.284,0.351-0.49h5.79c0.131,0.098,0.224,0.167,0.354,0.265
	L168.528,52.628z"/>
<path fill="#15BDDE" d="M105.805,52.184c-0.148,0.193-0.21,0.273-0.358,0.467c0.425,1.607,1.842,2.565,3.939,2.565
	c1.93,0,3.117-1.022,3.843-2.048c0.188-0.041,0.301-0.064,0.489-0.105l3.948,2.311c0.054,0.192,0.084,0.304,0.139,0.496
	c-1.19,2.211-3.764,4.6-8.456,4.6c-6.029,0-10.173-3.809-10.173-10.135c0-5.918,3.958-10.32,9.729-10.32
	c6.066,0,9.729,3.958,9.729,9.877c0,0.52,0,1.126-0.051,1.945c-0.142,0.134-0.227,0.214-0.369,0.349H105.805z M105.935,48.003h6.089
	c0.148-0.188,0.213-0.269,0.361-0.457c-0.323-1.425-1.538-2.577-3.48-2.577c-1.871,0-3.019,1.178-3.331,2.579
	C105.721,47.735,105.786,47.816,105.935,48.003"/>
<path fill="#15BDDE" d="M186.132,52.184c-0.148,0.193-0.211,0.273-0.359,0.467c0.425,1.607,1.842,2.565,3.939,2.565
	c1.931,0,3.117-1.022,3.843-2.048c0.188-0.041,0.302-0.064,0.489-0.105l3.948,2.311c0.055,0.192,0.085,0.304,0.139,0.496
	c-1.19,2.211-3.764,4.6-8.455,4.6c-6.03,0-10.174-3.809-10.174-10.135c0-5.918,3.959-10.32,9.729-10.32
	c6.066,0,9.729,3.958,9.729,9.877c0,0.52,0,1.126-0.051,1.945c-0.143,0.134-0.228,0.214-0.369,0.349H186.132z M186.261,48.003h6.089
	c0.148-0.188,0.213-0.269,0.36-0.457c-0.322-1.425-1.537-2.577-3.479-2.577c-1.872,0-3.02,1.178-3.332,2.579
	C186.048,47.735,186.112,47.816,186.261,48.003"/>
<path fill="#15BDDE" d="M147.6,40.346c0.145,0.145,0.225,0.226,0.369,0.37v4.254c-0.145,0.145-0.225,0.226-0.369,0.37h-1.888
	c-0.145,0.144-0.225,0.225-0.369,0.369v7.51c0,1.332,0.555,1.775,1.628,1.775h0.629c0.145,0.145,0.225,0.226,0.369,0.37v4.624
	c-0.145,0.145-0.225,0.227-0.369,0.37h-2.627c-3.773,0-5.586-1.96-5.586-5.364v-9.285c-0.145-0.144-0.226-0.225-0.37-0.369h-0.998
	c-0.145-0.145-0.227-0.226-0.371-0.37v-4.254c0.145-0.145,0.227-0.226,0.371-0.37H147.6z"/>
<path fill="#15BDDE" d="M23.611,60.414V41.362c-0.185-0.145-0.293-0.166-0.438-0.351h-5.215c-0.145,0.185-0.265,0.207-0.45,0.351
	v19.052c0.185,0.145,0.306,0.203,0.45,0.389h5.215C23.317,60.617,23.426,60.559,23.611,60.414"/>
<path fill="#15BDDE" d="M39.675,31.393H1.387c-0.145,0-0.157,0.171-0.342,0.315v15.907c0.185,0.144,0.197,0.239,0.342,0.424h5.179
	c0.145-0.185,0.213-0.28,0.398-0.424v-9.988c0.185-0.145,0.198-0.315,0.342-0.315h26.45c0.145,0,0.213,0.171,0.398,0.315v9.988
	c0.185,0.144,0.198,0.239,0.342,0.424h5.179c0.145-0.185,0.213-0.28,0.398-0.424V31.708C39.888,31.564,39.82,31.393,39.675,31.393"
	/>
<path fill="#15BDDE" d="M34.496,53.959c-0.144,0-0.157,0.171-0.342,0.315v9.988c-0.185,0.144-0.253,0.239-0.398,0.425H7.306
	c-0.144-0.186-0.157-0.281-0.342-0.425v-9.988c-0.185-0.145-0.253-0.315-0.398-0.315H1.387c-0.145,0-0.157,0.171-0.342,0.315v15.907
	c0.185,0.145,0.197,0.239,0.342,0.425h38.288c0.145-0.186,0.213-0.28,0.398-0.425V54.274c-0.185-0.145-0.253-0.315-0.398-0.315
	H34.496z"/>
</svg>
