<?xml version="1.0" encoding="utf-8"?>
<!-- Generator: Adobe Illustrator 15.0.0, SVG Export Plug-In . SVG Version: 6.00 Build 0)  -->
<!DOCTYPE svg PUBLIC "-//W3C//DTD SVG 1.1//EN" "http://www.w3.org/Graphics/SVG/1.1/DTD/svg11.dtd">
<svg version="1.1" id="Layer_1" xmlns="http://www.w3.org/2000/svg" xmlns:xlink="http://www.w3.org/1999/xlink" x="0px" y="0px"
	 width="200px" height="200px" viewBox="0 0 200 200" enable-background="new 0 0 200 200" xml:space="preserve">
<g>
	<g>
		<g>
			<path fill="#C9C9C9" d="M28.945,125.009c0.186,0.093,0.324,0.186,0.463,0.277c0.139,0.138,0.23,0.277,0.277,0.463
				c0.045,0.184,0.092,0.369,0.092,0.554v6.742c0,0.047,0,0.139-0.047,0.139c-0.045,0.047-0.092,0.047-0.139,0.047h-1.662
				c-0.047,0-0.092,0-0.139-0.047c-0.045-0.047-0.045-0.092-0.045-0.139v-6.097h-1.34v6.097c0,0.047,0,0.139-0.047,0.139
				c-0.047,0.047-0.092,0.047-0.139,0.047h-1.523c-0.047,0-0.139,0-0.139-0.047c-0.047-0.047-0.047-0.092-0.047-0.139v-6.097h-1.338
				v6.097c0,0.139-0.094,0.231-0.232,0.231h-1.662c-0.139,0-0.23-0.093-0.23-0.231v-7.897c0-0.139,0.092-0.23,0.23-0.23h7.205
				C28.623,124.87,28.806,124.917,28.945,125.009z"/>
			<path fill="#C9C9C9" d="M37.304,124.87c0.186,0,0.369,0.047,0.555,0.093c0.186,0.092,0.324,0.185,0.463,0.276
				c0.139,0.14,0.23,0.277,0.277,0.462c0.045,0.186,0.092,0.37,0.092,0.556v6.742c0,0.046,0,0.138-0.047,0.138
				c-0.045,0.047-0.092,0.047-0.139,0.047h-1.662c-0.047,0-0.139,0-0.139-0.047c-0.047-0.045-0.047-0.092-0.047-0.138v-2.125
				c0-0.045,0-0.138-0.045-0.138c-0.047-0.047-0.094-0.047-0.139-0.047h-2.355c-0.047,0-0.139,0-0.139,0.047
				c-0.047,0.045-0.047,0.093-0.047,0.138v2.125c0,0.138-0.092,0.231-0.23,0.231h-1.662c-0.139,0-0.232-0.094-0.232-0.231v-6.742
				c0-0.186,0.047-0.37,0.094-0.556c0.092-0.185,0.184-0.322,0.277-0.462c0.139-0.138,0.277-0.23,0.461-0.276
				c0.186-0.093,0.369-0.093,0.555-0.093H37.304z M36.566,128.843v-2.08h-2.818v2.08H36.566z"/>
			<path fill="#C9C9C9" d="M46.218,124.963c0.047,0.046,0.047,0.092,0.047,0.139v6.743c0,0.185-0.047,0.369-0.094,0.554
				c-0.092,0.186-0.184,0.323-0.277,0.463c-0.137,0.138-0.275,0.23-0.461,0.275c-0.184,0.094-0.369,0.094-0.555,0.094h-3.602
				c-0.184,0-0.369-0.047-0.555-0.094c-0.184-0.092-0.322-0.184-0.461-0.275c-0.139-0.14-0.232-0.277-0.277-0.463
				c-0.092-0.185-0.092-0.369-0.092-0.554v-2.54c0-0.14,0.092-0.231,0.23-0.231h1.662c0.139,0,0.23,0.092,0.23,0.231v1.708
				c0,0.046,0,0.094,0.047,0.139c0.045,0.046,0.092,0.046,0.139,0.046h1.709c0.045,0,0.139,0,0.139-0.046
				c0.045-0.045,0.045-0.093,0.045-0.139v-5.865c0-0.046,0-0.139,0.047-0.139c0.047-0.046,0.092-0.046,0.139-0.046h1.662
				C46.08,124.87,46.171,124.917,46.218,124.963z"/>
			<path fill="#C9C9C9" d="M53.746,124.87c0.186,0,0.371,0.047,0.555,0.093c0.186,0.092,0.324,0.185,0.463,0.276
				c0.139,0.14,0.23,0.277,0.277,0.462c0.045,0.186,0.092,0.37,0.092,0.556v5.541c0,0.185-0.047,0.369-0.092,0.555
				c-0.094,0.185-0.186,0.324-0.277,0.462c-0.139,0.139-0.277,0.23-0.463,0.277c-0.184,0.092-0.369,0.092-0.555,0.092h-4.203
				c-0.184,0-0.367-0.047-0.553-0.092c-0.186-0.093-0.322-0.186-0.461-0.277c-0.139-0.138-0.232-0.277-0.277-0.462
				c-0.094-0.186-0.094-0.37-0.094-0.555v-5.541c0-0.186,0.047-0.37,0.094-0.556c0.045-0.185,0.184-0.322,0.277-0.462
				c0.139-0.138,0.275-0.23,0.461-0.276c0.186-0.093,0.369-0.093,0.553-0.093H53.746z M53.007,126.902h-2.816v4.295h2.816V126.902z"
				/>
			<path fill="#C9C9C9" d="M64.277,133.045c0.047,0.047,0.047,0.092,0,0.139s-0.047,0.047-0.139,0.047h-1.893
				c-0.047,0-0.139,0-0.186-0.047c-0.045-0.047-0.092-0.092-0.139-0.139l-1.248-2.264c0-0.045-0.045-0.045-0.092-0.045H59.15
				c-0.047,0-0.047,0-0.047,0.045v2.218c0,0.138-0.092,0.231-0.23,0.231H57.21c-0.139,0-0.23-0.094-0.23-0.231v-7.897
				c0-0.139,0.092-0.231,0.23-0.231h5.404c0.184,0,0.369,0.047,0.555,0.093c0.184,0.092,0.322,0.185,0.461,0.276
				c0.139,0.14,0.23,0.277,0.277,0.462C64,125.887,64,126.071,64,126.257v3.14c0,0.323-0.092,0.555-0.277,0.831
				c-0.184,0.231-0.416,0.416-0.693,0.509h-0.045c-0.047,0-0.047,0.045-0.047,0.093v0.045L64.277,133.045z M61.921,126.811h-2.863
				v2.032h2.863V126.811z"/>
			<path fill="#C9C9C9" d="M75.5,131.197c0.047,0,0.092,0,0.139,0.047c0.047,0.046,0.047,0.092,0.047,0.139v1.57
				c0,0.046,0,0.139-0.047,0.139c-0.047,0.045-0.092,0.045-0.139,0.045h-5.125c-0.141,0-0.232-0.092-0.232-0.23v-7.897
				c0-0.139,0.092-0.23,0.232-0.23h1.662c0.139,0,0.23,0.092,0.23,0.23v5.865c0,0.047,0,0.093,0.045,0.139
				c0.047,0.046,0.094,0.046,0.139,0.046H75.5V131.197z"/>
			<path fill="#C9C9C9" d="M83.212,124.963c0.047,0.046,0.047,0.092,0.047,0.139v0.692v0.37v0.461c0,0.047,0,0.093-0.047,0.138
				c-0.045,0.048-0.092,0.048-0.139,0.048h-0.83H79.75h-0.646c-0.047,0-0.047,0-0.047,0.045v1.294c0,0.047,0,0.047,0.047,0.047
				h3.416c0.047,0,0.094,0,0.139,0.045c0.047,0.047,0.047,0.093,0.047,0.14v1.2c0,0.047,0,0.139-0.047,0.139
				c-0.045,0.046-0.092,0.046-0.139,0.046h-3.416c-0.047,0-0.047,0-0.047,0.047v0.601l0,0v0.693c0,0.045,0,0.045,0.047,0.045h0.506
				h2.68h0.785c0.047,0,0.139,0,0.139,0.046c0.047,0.047,0.047,0.093,0.047,0.139v0.462v0.601v0.416c0,0.047,0,0.139-0.047,0.139
				c-0.045,0.046-0.092,0.046-0.139,0.046H82.38h-4.525h-0.693c-0.139,0-0.23-0.093-0.23-0.23v-0.416v-6.929v-0.554
				c0-0.045,0-0.138,0.047-0.138c0.045-0.047,0.092-0.047,0.139-0.047h0.877h4.664h0.369
				C83.121,124.87,83.167,124.917,83.212,124.963z"/>
			<path fill="#C9C9C9" d="M90.787,124.87c0.186,0,0.369,0.047,0.555,0.093c0.186,0.092,0.322,0.185,0.461,0.276
				c0.141,0.14,0.232,0.277,0.277,0.462c0.047,0.186,0.094,0.37,0.094,0.556v6.742c0,0.046,0,0.138-0.047,0.138
				c-0.047,0.047-0.092,0.047-0.139,0.047h-1.709c-0.047,0-0.139,0-0.139-0.047c-0.045-0.045-0.045-0.092-0.045-0.138v-2.125
				c0-0.045,0-0.138-0.047-0.138c-0.047-0.047-0.094-0.047-0.139-0.047h-2.402c-0.045,0-0.139,0-0.139,0.047
				c-0.045,0.045-0.045,0.093-0.045,0.138v2.125c0,0.138-0.094,0.231-0.232,0.231h-1.662c-0.139,0-0.23-0.094-0.23-0.231v-6.742
				c0-0.186,0.047-0.37,0.092-0.556c0.094-0.185,0.186-0.322,0.277-0.462c0.139-0.138,0.277-0.23,0.461-0.276
				c0.186-0.093,0.371-0.093,0.555-0.093H90.787z M90.048,128.843v-2.08H87.23v2.08H90.048z"/>
			<path fill="#C9C9C9" d="M100.994,128.75c0.047,0.045,0.047,0.093,0.047,0.138v2.957c0,0.185-0.047,0.369-0.094,0.554
				c-0.092,0.186-0.184,0.323-0.277,0.463c-0.137,0.138-0.275,0.23-0.461,0.275c-0.186,0.094-0.369,0.094-0.555,0.094h-4.203
				c-0.184,0-0.369-0.047-0.553-0.094c-0.186-0.092-0.324-0.184-0.463-0.275c-0.137-0.14-0.23-0.277-0.277-0.463
				c-0.092-0.185-0.092-0.369-0.092-0.554v-5.542c0-0.185,0.047-0.37,0.092-0.554c0.047-0.186,0.186-0.325,0.277-0.463
				c0.139-0.139,0.277-0.231,0.463-0.277c0.184-0.093,0.369-0.093,0.553-0.093h4.943c0.045,0,0.139,0,0.139,0.047
				c0.045,0.046,0.045,0.092,0.045,0.139v1.57c0,0.046,0,0.139-0.045,0.139c-0.047,0.045-0.094,0.045-0.139,0.045h-3.973
				c-0.047,0-0.139,0-0.139,0.047c-0.045,0.046-0.045,0.093-0.045,0.139v3.88c0,0.046,0,0.092,0.045,0.138
				c0.047,0.047,0.092,0.047,0.139,0.047h2.355c0.047,0,0.092,0,0.139-0.047c0.047-0.046,0.047-0.092,0.047-0.138v-2.078
				c0-0.048,0-0.139,0.045-0.139c0.047-0.046,0.092-0.046,0.139-0.046h1.664C100.855,128.658,100.947,128.704,100.994,128.75z"/>
			<path fill="#C9C9C9" d="M109.77,124.963c0.047,0.046,0.047,0.092,0.047,0.139v6.743c0,0.185-0.047,0.369-0.094,0.554
				c-0.092,0.186-0.184,0.323-0.275,0.463c-0.141,0.138-0.279,0.23-0.463,0.275c-0.186,0.094-0.369,0.094-0.555,0.094h-4.201
				c-0.186,0-0.371-0.047-0.555-0.094c-0.186-0.092-0.324-0.184-0.463-0.275c-0.139-0.14-0.23-0.277-0.277-0.463
				c-0.092-0.185-0.092-0.369-0.092-0.554v-6.743c0-0.139,0.092-0.231,0.23-0.231h1.664c0.137,0,0.23,0.093,0.23,0.231v5.865
				c0,0.046,0,0.092,0.045,0.14c0.047,0.045,0.094,0.045,0.141,0.045h2.354c0.047,0,0.094,0,0.139-0.045
				c0.047-0.048,0.047-0.094,0.047-0.14v-5.865c0-0.047,0-0.139,0.047-0.139c0.045-0.046,0.092-0.046,0.137-0.046h1.664
				C109.678,124.87,109.723,124.917,109.77,124.963z"/>
			<path fill="#C9C9C9" d="M118.037,124.963c0.045,0.046,0.045,0.092,0.045,0.139v0.692v0.37v0.461c0,0.047,0,0.093-0.045,0.138
				c-0.047,0.048-0.092,0.048-0.139,0.048h-0.832h-2.494h-0.646c-0.045,0-0.045,0-0.045,0.045v1.294c0,0.047,0,0.047,0.045,0.047
				h3.418c0.047,0,0.092,0,0.139,0.045c0.047,0.047,0.047,0.093,0.047,0.14v1.2c0,0.047,0,0.139-0.047,0.139
				c-0.047,0.046-0.092,0.046-0.139,0.046h-3.418c-0.045,0-0.045,0-0.045,0.047v0.601l0,0v0.693c0,0.045,0,0.045,0.045,0.045h0.508
				h2.68h0.785c0.047,0,0.139,0,0.139,0.046c0.045,0.047,0.045,0.093,0.045,0.139v0.462v0.601v0.416c0,0.047,0,0.139-0.045,0.139
				c-0.047,0.046-0.092,0.046-0.139,0.046h-0.693h-4.525h-0.693c-0.139,0-0.23-0.093-0.23-0.23v-0.416v-6.929v-0.554
				c0-0.045,0-0.138,0.045-0.138c0.047-0.047,0.094-0.047,0.139-0.047h0.879h4.664h0.369
				C117.945,124.87,117.99,124.917,118.037,124.963z"/>
			<path fill="#C9C9C9" d="M130.83,124.87c0.047,0,0.139,0,0.139,0.047c0.047,0.046,0.047,0.092,0.047,0.138v7.898
				c0,0.046,0,0.139-0.047,0.139c-0.047,0.045-0.092,0.045-0.139,0.045h-1.664c-0.045,0-0.137,0-0.137-0.045
				c-0.047-0.047-0.047-0.093-0.047-0.139v-2.771c0-0.047,0-0.092-0.047-0.139c-0.045-0.046-0.092-0.046-0.139-0.046h-2.355
				c-0.045,0-0.139,0-0.139,0.046c-0.045,0.047-0.045,0.092-0.045,0.139v2.771c0,0.139-0.092,0.23-0.232,0.23h-1.662
				c-0.139,0-0.23-0.092-0.23-0.23v-7.898c0-0.138,0.092-0.229,0.23-0.229h1.662c0.141,0,0.232,0.092,0.232,0.229v2.68
				c0,0.138,0.092,0.23,0.23,0.23h2.355c0.047,0,0.092,0,0.139-0.046c0.047-0.047,0.047-0.093,0.047-0.139v-2.679
				c0-0.047,0-0.139,0.045-0.139c0.047-0.046,0.092-0.046,0.139-0.046h1.617V124.87z"/>
			<path fill="#C9C9C9" d="M138.543,124.87c0.184,0,0.369,0.047,0.553,0.093c0.186,0.092,0.324,0.185,0.463,0.276
				c0.139,0.14,0.23,0.277,0.277,0.462c0.047,0.186,0.092,0.37,0.092,0.556v6.742c0,0.046,0,0.138-0.045,0.138
				c-0.047,0.047-0.094,0.047-0.139,0.047h-1.664c-0.045,0-0.137,0-0.137-0.047c-0.047-0.045-0.047-0.092-0.047-0.138v-2.125
				c0-0.045,0-0.138-0.047-0.138c-0.045-0.047-0.092-0.047-0.139-0.047h-2.355c-0.047,0-0.139,0-0.139,0.047
				c-0.045,0.045-0.045,0.093-0.045,0.138v2.125c0,0.138-0.094,0.231-0.232,0.231h-1.662c-0.139,0-0.23-0.094-0.23-0.231v-6.742
				c0-0.186,0.047-0.37,0.092-0.556c0.092-0.185,0.186-0.322,0.277-0.462c0.139-0.138,0.277-0.23,0.463-0.276
				c0.184-0.093,0.369-0.093,0.553-0.093H138.543z M137.85,128.843v-2.08h-2.816v2.08H137.85z"/>
			<path fill="#C9C9C9" d="M143.947,126.948c-0.047,0.047-0.047,0.093-0.047,0.14v3.879c0,0.046,0,0.092,0.047,0.14
				c0.045,0.045,0.092,0.045,0.139,0.045h3.832c0.047,0,0.139,0,0.139,0.046c0.045,0.047,0.045,0.093,0.045,0.139v1.57
				c0,0.047,0,0.139-0.045,0.139c-0.047,0.047-0.092,0.047-0.139,0.047h-2.494h-2.031h-0.23c-0.186,0-0.371-0.047-0.555-0.093
				c-0.186-0.093-0.324-0.185-0.463-0.277c-0.139-0.138-0.23-0.277-0.277-0.462c-0.092-0.185-0.092-0.369-0.092-0.555v-0.23v-0.877
				v-2.771v-0.785v-0.923c0-0.186,0.047-0.369,0.092-0.555c0.094-0.185,0.186-0.324,0.277-0.462
				c0.139-0.139,0.277-0.231,0.463-0.277c0.184-0.092,0.369-0.092,0.555-0.092h0.23h4.525c0.047,0,0.139,0,0.139,0.046
				c0.045,0.046,0.045,0.092,0.045,0.138v1.57c0,0.046,0,0.139-0.045,0.139c-0.047,0.047-0.092,0.047-0.139,0.047h-3.832
				C144.039,126.902,143.992,126.948,143.947,126.948z"/>
			<path fill="#C9C9C9" d="M154.799,128.381c-0.045,0.046-0.045,0.046,0,0.092l2.771,4.572c0.047,0.047,0.047,0.092,0,0.139
				c-0.045,0.047-0.045,0.047-0.139,0.047h-1.984c-0.047,0-0.141,0-0.186-0.047c-0.047-0.047-0.092-0.092-0.139-0.139l-1.801-3.232
				c-0.047-0.047-0.047-0.047-0.047,0l-0.971,1.062c-0.045,0.047-0.092,0.093-0.092,0.185c-0.047,0.093-0.047,0.139-0.047,0.231
				v1.755c0,0.139-0.092,0.231-0.23,0.231h-1.615c-0.139,0-0.23-0.093-0.23-0.231v-7.897c0-0.139,0.092-0.231,0.23-0.231h1.662
				c0.139,0,0.23,0.093,0.23,0.231v3.557l3.094-3.603c0.047-0.047,0.094-0.093,0.186-0.139s0.139-0.046,0.186-0.046h1.986
				c0.045,0,0.092,0,0.092,0.046s0,0.092-0.047,0.139L154.799,128.381z"/>
			<path fill="#C9C9C9" d="M161.219,132.999c0,0.138-0.092,0.231-0.23,0.231h-1.662c-0.139,0-0.23-0.094-0.23-0.231v-7.897
				c0-0.139,0.092-0.231,0.23-0.231h1.662c0.139,0,0.23,0.093,0.23,0.231V132.999z"/>
			<path fill="#C9C9C9" d="M169.256,125.009c0.186,0.093,0.322,0.186,0.461,0.277c0.141,0.138,0.232,0.277,0.277,0.463
				c0.094,0.184,0.094,0.369,0.094,0.554v6.742c0,0.047,0,0.139-0.047,0.139c-0.047,0.047-0.092,0.047-0.139,0.047h-1.664
				c-0.045,0-0.092,0-0.137-0.047c-0.047-0.047-0.047-0.092-0.047-0.139v-5.865c0-0.047,0-0.092-0.047-0.139
				c-0.045-0.046-0.092-0.046-0.139-0.046h-2.354c-0.047,0-0.141,0-0.141,0.046c0,0.047-0.045,0.092-0.045,0.139v5.865
				c0,0.139-0.092,0.231-0.23,0.231h-1.662c-0.139,0-0.232-0.093-0.232-0.231v-7.897c0-0.139,0.094-0.23,0.232-0.23h5.402
				C168.934,124.87,169.117,124.917,169.256,125.009z"/>
			<path fill="#C9C9C9" d="M178.908,128.75c0.047,0.045,0.047,0.093,0.047,0.138v2.957c0,0.185-0.047,0.369-0.094,0.554
				c-0.092,0.186-0.184,0.323-0.277,0.463c-0.137,0.138-0.275,0.23-0.461,0.275c-0.186,0.094-0.369,0.094-0.555,0.094h-4.201
				c-0.186,0-0.371-0.047-0.555-0.094c-0.186-0.092-0.324-0.184-0.463-0.275c-0.139-0.14-0.23-0.277-0.277-0.463
				c-0.092-0.185-0.092-0.369-0.092-0.554v-5.542c0-0.185,0.047-0.37,0.092-0.554c0.047-0.186,0.186-0.325,0.277-0.463
				c0.139-0.139,0.277-0.231,0.463-0.277c0.184-0.093,0.369-0.093,0.555-0.093h4.941c0.045,0,0.139,0,0.139,0.047
				c0.045,0.046,0.045,0.092,0.045,0.139v1.57c0,0.046,0,0.139-0.045,0.139c-0.047,0.045-0.094,0.045-0.139,0.045h-3.973
				c-0.045,0-0.139,0-0.139,0.047c-0.047,0.046-0.047,0.093-0.047,0.139v3.88c0,0.046,0,0.092,0.047,0.138
				c0.047,0.047,0.094,0.047,0.139,0.047h2.355c0.047,0,0.092,0,0.139-0.047c0.047-0.046,0.047-0.092,0.047-0.138v-2.078
				c0-0.048,0-0.139,0.045-0.139c0.047-0.046,0.092-0.046,0.139-0.046h1.662C178.814,128.658,178.861,128.704,178.908,128.75z"/>
		</g>
	</g>
	<g id="Layer_2_1_">
		<g>
			<path fill="#C9C9C9" d="M71.296,67.416c1.062,0.463,1.986,1.062,2.771,1.802c0.785,0.738,1.387,1.663,1.895,2.679
				c0.461,1.016,0.738,2.125,0.738,3.278v44.2c0,0.369-0.139,0.691-0.416,0.969c-0.277,0.278-0.6,0.415-1.016,0.415H64.785
				c-0.416,0-0.738-0.137-0.969-0.415c-0.232-0.277-0.371-0.6-0.371-0.969v-40.32h-8.451v40.32c0,0.369-0.139,0.691-0.369,0.969
				c-0.23,0.278-0.602,0.415-0.971,0.415H44.14c-0.416,0-0.738-0.137-1.016-0.415c-0.277-0.277-0.416-0.6-0.416-0.969v-40.32h-8.451
				v40.32c0,0.923-0.463,1.384-1.432,1.384H22.433c-0.969,0-1.432-0.461-1.432-1.384V68.108c0-0.923,0.463-1.385,1.432-1.385h45.445
				C69.08,66.724,70.234,66.954,71.296,67.416z"/>
		</g>
		<g>
			<path fill="#C9C9C9" d="M122.332,107.598c0.416,0,0.785,0.138,1.016,0.415c0.277,0.276,0.416,0.646,0.416,1.062v10.207
				c0,0.416-0.139,0.739-0.416,1.016s-0.6,0.416-1.016,0.416H86.445c-1.016,0-1.523-0.509-1.523-1.479V68.201
				c0-0.97,0.508-1.478,1.523-1.478h10.992c1.018,0,1.525,0.508,1.525,1.478v38.057c0,0.415,0.137,0.74,0.461,1.016
				c0.277,0.277,0.646,0.37,1.062,0.37h21.846V107.598z"/>
		</g>
		<g>
			<path fill="#C9C9C9" d="M177.477,66.724c0.416,0,0.785,0.138,1.062,0.416c0.275,0.276,0.461,0.646,0.461,1.062v51.081
				c0,0.416-0.139,0.739-0.461,1.016c-0.277,0.276-0.646,0.416-1.062,0.416h-11.084c-0.416,0-0.785-0.14-1.062-0.416
				s-0.463-0.646-0.463-1.016v-17.827c0-0.416-0.137-0.739-0.416-1.016c-0.275-0.277-0.6-0.371-1.061-0.371h-15.795
				c-0.416,0-0.785,0.139-1.062,0.371c-0.277,0.276-0.463,0.6-0.463,1.016v17.827c0,0.97-0.508,1.477-1.523,1.477H133.51
				c-1.018,0-1.525-0.507-1.525-1.477V68.201c0-0.97,0.508-1.478,1.525-1.478h11.037c1.016,0,1.523,0.508,1.523,1.478v17.273
				c0,0.97,0.508,1.479,1.525,1.479h15.795c0.416,0,0.785-0.14,1.061-0.416c0.279-0.277,0.416-0.647,0.416-1.062V68.201
				c0-0.415,0.139-0.738,0.463-1.062c0.277-0.278,0.646-0.416,1.062-0.416H177.477L177.477,66.724z"/>
		</g>
	</g>
</g>
</svg>
