<?xml version="1.0" encoding="utf-8"?>
<!-- Generator: Adobe Illustrator 16.0.0, SVG Export Plug-In . SVG Version: 6.00 Build 0)  -->
<!DOCTYPE svg PUBLIC "-//W3C//DTD SVG 1.1//EN" "http://www.w3.org/Graphics/SVG/1.1/DTD/svg11.dtd">
<svg version="1.1" id="Layer_1" xmlns="http://www.w3.org/2000/svg" xmlns:xlink="http://www.w3.org/1999/xlink" x="0px" y="0px"
	 width="200px" height="77px" viewBox="0 61.5 200 77" enable-background="new 0 61.5 200 77" xml:space="preserve">
<g>
	<path fill="#0033A0" d="M75.183,84.515h-0.84c-0.072-0.292-0.204-0.638-0.396-1.039c-0.191-0.402-0.404-0.78-0.64-1.138
		c-0.244-0.372-0.51-0.699-0.799-0.979c-0.288-0.28-0.565-0.44-0.834-0.48c-0.252-0.032-0.568-0.057-0.952-0.073
		c-0.381-0.017-0.734-0.024-1.059-0.024h-0.707v13.8c0,0.269,0.056,0.514,0.17,0.737c0.114,0.222,0.312,0.395,0.596,0.517
		c0.146,0.058,0.451,0.132,0.917,0.23c0.467,0.097,0.828,0.15,1.089,0.158v0.864h-8.147v-0.864c0.226-0.017,0.573-0.049,1.04-0.097
		c0.466-0.047,0.788-0.11,0.966-0.183c0.268-0.105,0.464-0.257,0.59-0.456c0.125-0.198,0.188-0.465,0.188-0.796v-13.91H65.66
		c-0.251,0-0.563,0.006-0.937,0.018c-0.372,0.012-0.729,0.039-1.07,0.079c-0.267,0.032-0.545,0.192-0.832,0.48
		c-0.288,0.288-0.554,0.614-0.797,0.979c-0.243,0.365-0.458,0.752-0.645,1.16c-0.186,0.411-0.316,0.749-0.389,1.017h-0.852v-4.682
		h15.041v4.682H75.183z"/>
	<path fill="#0033A0" d="M82.575,94.521c-1.618,2.03-3.392,2.493-4.188,2.493c-3.16,0-5.01-2.57-5.01-5.473
		c0-1.773,0.643-3.339,1.696-4.496c1.053-1.183,2.44-1.875,3.777-1.875c2.131,0,3.854,1.901,3.854,3.904
		c0,0.514-0.128,0.72-0.591,0.822c-0.438,0.078-3.648,0.334-6.706,0.438c0.026,3.494,2.029,4.933,3.828,4.933
		c1.028,0,2.003-0.411,2.929-1.285L82.575,94.521z M75.535,89.281c1.439,0,2.851-0.025,4.342-0.077c0.462,0,0.616-0.154,0.616-0.513
		c0.026-1.336-0.848-2.57-2.261-2.57C77.05,86.12,75.92,87.2,75.535,89.281"/>
	<path fill="#0033A0" d="M94.514,94.369c-1.141,1.503-2.879,2.646-4.409,2.646c-3.267,0-5.186-2.646-5.186-5.42
		c0-1.998,0.855-3.735,2.593-5.083c1.349-1.037,2.904-1.452,3.915-1.452c1.039,0,1.894,0.337,2.308,0.674
		c0.337,0.285,0.415,0.518,0.415,0.803c0,0.545-0.57,1.116-0.855,1.116c-0.13,0-0.26-0.078-0.494-0.285
		c-0.777-0.726-1.685-1.063-2.593-1.063c-1.712,0-3.216,1.426-3.216,4.149c0,3.605,2.463,4.797,3.916,4.797
		c1.116,0,1.971-0.311,3.164-1.426L94.514,94.369z"/>
	<path fill="#0033A0" d="M102.896,97.088v-0.689c1.562-0.159,1.748-0.372,1.748-2.2v-4.424c0-1.83-0.637-3.021-2.41-3.021
		c-1.062,0-2.094,0.662-2.889,1.35v6.229c0,1.801,0.159,1.908,1.721,2.067v0.689h-5.75V96.4c1.802-0.186,1.936-0.318,1.936-2.067
		v-5.486c0-1.696-0.16-1.775-1.591-2.041v-0.609c1.272-0.238,2.517-0.557,3.684-1.086v2.12c0.529-0.397,1.112-0.795,1.776-1.246
		c0.739-0.477,1.43-0.794,2.198-0.794c2.093,0,3.418,1.458,3.418,4.028v5.115c0,1.801,0.134,1.908,1.669,2.067v0.689h-5.511V97.088z
		"/>
	<path fill="#0033A0" d="M121.02,90.931c0,4.115-3.016,6.083-5.545,6.083c-3.502,0-5.599-2.811-5.599-5.648
		c0-4.218,3.271-6.134,5.599-6.134C118.645,85.231,121.02,87.761,121.02,90.931 M112.253,90.547c0,3.221,1.405,5.624,3.502,5.624
		c1.584,0,2.89-1.176,2.89-4.677c0-2.991-1.201-5.419-3.426-5.419C113.632,86.074,112.253,87.659,112.253,90.547"/>
	<path fill="#0033A0" d="M122.966,97.088v-0.665c1.609-0.153,1.841-0.307,1.841-1.993V82.347c0-1.737-0.154-1.813-1.763-1.942
		v-0.613c1.328-0.153,2.911-0.587,3.779-0.893V94.43c0,1.686,0.204,1.84,1.84,1.993v0.665H122.966z"/>
	<path fill="#0033A0" d="M141.387,90.856c0,4.166-3.054,6.157-5.615,6.157c-3.545,0-5.666-2.845-5.666-5.718
		c0-4.269,3.312-6.21,5.666-6.21C138.979,85.085,141.387,87.647,141.387,90.856 M132.512,90.466c0,3.262,1.424,5.694,3.545,5.694
		c1.604,0,2.924-1.19,2.924-4.736c0-3.027-1.217-5.484-3.467-5.484C133.908,85.94,132.512,87.544,132.512,90.466 M134.812,83.611
		c0.492-1.087,1.555-3.675,1.733-4.114c0.259-0.104,1.786-0.311,2.097-0.233l0.078,0.233l-3.234,4.451L134.812,83.611z"/>
	<path fill="#0033A0" d="M154.641,85.607c-0.232,0.416-0.754,1.095-1.172,1.329l-1.484-0.078c0.496,0.573,0.783,1.381,0.783,2.319
		c0,2.813-2.347,4.168-4.562,4.168c-0.44,0-0.912-0.079-1.328-0.131c-0.364,0.236-0.782,0.704-0.782,1.069
		c0,0.521,0.469,1.016,1.643,1.016c0.938,0,1.876-0.026,2.734-0.026c1.615,0,3.752,0.52,3.752,3.074
		c0,2.631-3.049,5.158-6.515,5.158c-2.892,0-4.481-1.694-4.506-3.178c0-0.574,0.235-1.069,0.626-1.46
		c0.521-0.52,1.536-1.355,2.161-1.823c-0.938-0.287-1.589-0.886-1.927-1.433c-0.234-0.391-0.312-0.833-0.287-1.094
		c1.041-0.391,1.875-1.068,2.293-1.59c-1.174-0.495-2.293-1.718-2.293-3.49c0-2.97,2.656-4.325,4.664-4.325
		c0.885,0,1.744,0.234,2.5,0.651c1.276-0.051,2.604-0.208,3.543-0.365L154.641,85.607z M146.46,97.669
		c-0.678,0.549-1.196,1.277-1.196,2.032c0,1.406,1.51,2.475,3.438,2.475c2.476,0,3.753-1.275,3.753-2.892
		c0-0.886-0.442-1.537-1.198-1.851c-0.65-0.26-1.406-0.338-2.502-0.338C147.504,97.096,146.932,97.253,146.46,97.669 M146.02,89.021
		c0,2.031,0.988,3.49,2.447,3.49c1.146-0.025,2.162-1.042,2.162-3.1c0-2.058-0.964-3.517-2.447-3.517
		C147.034,85.894,146.02,86.988,146.02,89.021"/>
	<path fill="#0033A0" d="M155.753,97.013v-0.691c1.675-0.16,1.86-0.319,1.86-2.127v-5.479c0-1.649-0.08-1.755-1.674-2.022v-0.638
		c1.354-0.212,2.604-0.559,3.773-1.038v9.176c0,1.808,0.188,1.967,1.891,2.127v0.691L155.753,97.013L155.753,97.013z
		 M157.162,81.402c0-0.798,0.639-1.383,1.355-1.383c0.744,0,1.328,0.584,1.328,1.383c0,0.719-0.584,1.357-1.354,1.357
		C157.801,82.759,157.162,82.121,157.162,81.402"/>
	<path fill="#0033A0" d="M172.686,94.375c-1.137,1.5-2.871,2.639-4.396,2.639c-3.262,0-5.174-2.639-5.174-5.406
		c0-1.993,0.854-3.726,2.587-5.072c1.344-1.035,2.897-1.449,3.905-1.449c1.035,0,1.889,0.337,2.303,0.674
		c0.337,0.284,0.414,0.516,0.414,0.801c0,0.543-0.568,1.112-0.854,1.112c-0.13,0-0.26-0.078-0.492-0.284
		c-0.775-0.725-1.683-1.062-2.586-1.062c-1.709,0-3.207,1.424-3.207,4.141c0,3.595,2.457,4.786,3.904,4.786
		c1.112,0,1.967-0.311,3.156-1.423L172.686,94.375z"/>
	<path fill="#0033A0" d="M185.271,90.88c0,4.199-3.078,6.208-5.66,6.208c-3.573,0-5.713-2.871-5.713-5.765
		c0-4.305,3.34-6.26,5.713-6.26C182.848,85.063,185.271,87.645,185.271,90.88 M176.325,90.488c0,3.286,1.435,5.739,3.571,5.739
		c1.619,0,2.949-1.201,2.949-4.774c0-3.052-1.228-5.53-3.496-5.53C177.732,85.923,176.325,87.542,176.325,90.488"/>
	<path fill="#0033A0" d="M74.309,120.154c-0.58,0.104-2.552,0.447-4.078,1v-1.711l-1.605,0.947
		c-1.025,0.604-1.735,0.764-2.051,0.764c-2.104,0-4.866-1.922-4.866-5.603c0-3.657,3.208-6.524,6.787-6.524
		c0.368,0,1.129,0.078,1.735,0.289v-3.709c0-1.736-0.132-1.815-2.025-1.947v-0.633c1.368-0.184,3.13-0.577,4.104-0.92v15.705
		c0,1.369,0.184,1.5,1.157,1.604l0.842,0.08V120.154z M70.231,111.343C69.6,110.422,68.522,110,67.522,110
		c-1.21,0-3.42,1.027-3.42,4.841c0,3.13,1.92,4.656,3.604,4.656c0.947,0,1.894-0.419,2.525-0.896V111.343L70.231,111.343z"/>
	<path fill="#0033A0" d="M84.902,118.562c-1.781,2.233-3.731,2.742-4.607,2.742c-3.477,0-5.512-2.826-5.512-6.021
		c0-1.949,0.706-3.675,1.865-4.944c1.159-1.302,2.685-2.064,4.155-2.064c2.347,0,4.241,2.091,4.241,4.298
		c0,0.565-0.142,0.79-0.65,0.903c-0.481,0.084-4.015,0.366-7.377,0.481c0.028,3.843,2.233,5.427,4.211,5.427
		c1.131,0,2.204-0.453,3.223-1.414L84.902,118.562z M77.158,112.797c1.583,0,3.138-0.027,4.776-0.084
		c0.509,0,0.679-0.17,0.679-0.564c0.028-1.471-0.933-2.826-2.487-2.826C78.825,109.32,77.582,110.507,77.158,112.797"/>
	<path fill="#0033A0" d="M106.018,121.191v-0.762c2.199-0.219,2.31-0.353,2.281-3.232l-0.082-11.086h-0.107l-6.629,14.89h-0.545
		l-6.084-14.509h-0.053l-0.409,7.744c-0.109,2.229-0.109,3.424-0.081,4.511c0.055,1.303,0.706,1.493,2.5,1.685v0.76h-6.33v-0.76
		c1.575-0.19,2.118-0.49,2.309-1.632c0.136-0.95,0.299-2.146,0.517-4.972l0.379-5.648c0.244-3.533,0.109-3.643-2.363-3.887v-0.761
		h4.455l6.196,13.583l6.274-13.583h4.62v0.761c-2.393,0.217-2.582,0.271-2.5,3.068l0.271,9.836c0.079,2.881,0.162,3.015,2.525,3.232
		v0.762H106.018z"/>
	<path fill="#0033A0" d="M124.689,114.632c0,4.411-3.232,6.522-5.944,6.522c-3.755,0-6.001-3.016-6.001-6.057
		c0-4.521,3.508-6.578,6.001-6.578C122.143,108.521,124.689,111.234,124.689,114.632 M115.292,114.219
		c0,3.454,1.507,6.03,3.754,6.03c1.699,0,3.097-1.261,3.097-5.015c0-3.207-1.287-5.81-3.672-5.81
		C116.771,109.426,115.292,111.124,115.292,114.219"/>
	<path fill="#0033A0" d="M133.189,121.191v-0.73c1.658-0.17,1.855-0.395,1.855-2.332v-4.693c0-1.938-0.675-3.203-2.559-3.203
		c-1.123,0-2.221,0.701-3.062,1.433v6.604c0,1.91,0.169,2.021,1.826,2.191v0.73h-6.099v-0.73c1.91-0.197,2.052-0.337,2.052-2.191
		v-5.817c0-1.798-0.169-1.884-1.687-2.163v-0.646c1.35-0.252,2.67-0.59,3.906-1.151v2.247c0.561-0.422,1.18-0.844,1.883-1.319
		c0.786-0.506,1.518-0.843,2.332-0.843c2.221,0,3.625,1.545,3.625,4.271v5.424c0,1.91,0.141,2.021,1.771,2.191v0.73h-5.846V121.191z
		"/>
	<path fill="#0033A0" d="M144.564,120.799c-0.465,0.247-0.898,0.355-1.145,0.355c-1.716,0-2.669-1.09-2.669-3.241v-7.927h-1.879
		l-0.108-0.271l0.735-0.79h1.252v-1.987l1.771-1.799l0.381,0.055v3.731h3.078c0.244,0.271,0.164,0.872-0.164,1.062h-2.914v7
		c0,2.205,0.899,2.615,1.58,2.615s1.308-0.273,1.688-0.463l0.245,0.707L144.564,120.799z"/>
	<path fill="#0033A0" d="M156.716,118.498c-1.724,2.162-3.612,2.656-4.461,2.656c-3.366,0-5.338-2.737-5.338-5.829
		c0-1.89,0.685-3.558,1.81-4.79c1.121-1.258,2.599-1.998,4.021-1.998c2.271,0,4.104,2.025,4.104,4.16
		c0,0.547-0.137,0.767-0.629,0.877c-0.466,0.08-3.886,0.355-7.144,0.465c0.026,3.721,2.162,5.255,4.078,5.255
		c1.095,0,2.134-0.438,3.118-1.37L156.716,118.498z M149.217,112.916c1.533,0,3.038-0.027,4.625-0.081
		c0.492,0,0.657-0.164,0.657-0.547c0.026-1.427-0.903-2.738-2.409-2.738C150.831,109.55,149.628,110.699,149.217,112.916"/>
	<path fill="#0033A0" d="M161.707,111.628c0.833-1.388,2.027-2.944,3.359-2.944c0.945,0,1.611,0.724,1.611,1.392
		c0,0.555-0.359,1.108-0.891,1.36c-0.332,0.139-0.582,0.11-0.748-0.058c-0.389-0.416-0.723-0.582-1.166-0.582
		c-0.723,0-1.611,0.832-2.223,2.388v5.082c0,1.834,0.139,2,2.276,2.166v0.723h-6.387v-0.723c1.721-0.166,1.915-0.332,1.915-2.166
		v-5.748c0-1.832-0.139-1.943-1.721-2.166v-0.61c1.36-0.222,2.582-0.556,3.914-1.14v3.026H161.707z"/>
	<path fill="#0033A0" d="M186.705,118.458c-1.708,2.144-3.581,2.632-4.422,2.632c-3.338,0-5.289-2.713-5.289-5.777
		c0-1.871,0.677-3.526,1.79-4.748c1.112-1.246,2.577-1.979,3.987-1.979c2.252,0,4.069,2.008,4.069,4.122
		c0,0.544-0.137,0.76-0.625,0.868c-0.46,0.082-3.853,0.354-7.079,0.461c0.026,3.689,2.143,5.21,4.041,5.21
		c1.086,0,2.116-0.437,3.094-1.356L186.705,118.458z M179.271,112.925c1.521,0,3.012-0.028,4.584-0.082
		c0.49,0,0.652-0.161,0.652-0.542c0.026-1.41-0.896-2.713-2.388-2.713C180.872,109.588,179.68,110.727,179.271,112.925"/>
	<path fill="#0033A0" d="M199.184,109.238c-1.406,0.213-1.646,0.425-2.361,1.936c-0.662,1.407-1.484,3.609-3.315,7.986
		c-1.776,4.242-2.36,5.755-2.731,7.188c-0.133,0.504-0.478,0.637-0.849,0.637c-0.743,0-1.513-0.637-1.513-1.271
		c0-0.426,0.238-0.666,0.689-0.956c0.822-0.53,1.353-1.194,1.963-2.36c0.504-0.93,0.717-1.485,0.822-1.83
		c0.133-0.397,0.133-0.742-0.027-1.193c-1.061-3.023-2.254-6.232-3.049-8.118c-0.559-1.459-0.822-1.803-2.281-2.017v-0.661h5.385
		v0.661c-1.221,0.214-1.354,0.478-1.008,1.46l2.412,6.657c0.744-1.803,1.885-4.934,2.441-6.604c0.317-1.008,0.133-1.3-1.379-1.514
		v-0.661h4.801V109.238L199.184,109.238z"/>
	<path fill="#0033A0" d="M172.053,111.628c0.833-1.388,2.027-2.944,3.361-2.944c0.943,0,1.609,0.724,1.609,1.392
		c0,0.555-0.36,1.108-0.89,1.36c-0.333,0.139-0.583,0.11-0.75-0.058c-0.388-0.416-0.721-0.582-1.165-0.582
		c-0.723,0-1.611,0.832-2.223,2.388v5.082c0,1.834,0.141,2,2.277,2.166v0.723h-6.389v-0.723c1.723-0.166,1.916-0.332,1.916-2.166
		v-5.748c0-1.832-0.138-1.943-1.722-2.166v-0.61c1.36-0.222,2.583-0.556,3.916-1.14v3.026H172.053z"/>
	<path fill="#0033A0" d="M52.849,94.636c-1.913-10.19-8.02-17.143-17.896-20.251c-9.807-3.089-18.765-0.929-26.169,6.225
		c-10.762,10.398-10.559,27.417,0.252,37.75c3.984,3.808,8.743,6.102,14.206,6.934c0.546,0.084,0.656-0.039,0.635-0.545
		c-0.034-0.812-0.042-1.628,0.003-2.438c0.03-0.55-0.165-0.748-0.705-0.824c-1.936-0.275-3.807-0.805-5.577-1.643
		c-2.028-0.96-3.78-2.27-5.174-4.199c3.691-0.207,28.617-0.103,29.261,0.125c-0.851,1.148-1.87,2.104-3.039,2.902
		c-2.255,1.541-4.792,2.355-7.456,2.786c-0.697,0.11-0.918,0.356-0.846,1.03c0.057,0.535,0.011,1.08,0.011,1.623
		c0,1.311,0,1.311,1.3,1.076C46.036,122.583,55.556,109.055,52.849,94.636 M12.309,105.021c0.031,0.156,0.12,0.306-0.001,0.529
		c-2.831-2.728-3.992-6.89-1.741-10.728c1.001-1.707,2.389-3.069,3.776-4.436c3.201-3.153,6.411-6.297,9.609-9.453
		c1.782-1.757,3.08-3.758,3.078-6.389c1.809,0.859,2.892,3.34,2.338,5.29c-0.35,1.232-1.064,2.244-1.957,3.128
		c-3.885,3.848-7.788,7.677-11.675,11.524c-1.964,1.943-3.48,4.131-3.751,6.994C11.87,102.688,12.072,103.854,12.309,105.021
		 M15.658,106.835c-0.842-1.085-1.293-2.136-1.467-3.308c-0.319-2.154,0.391-4.048,1.523-5.829c1.296-2.038,3.162-3.55,4.831-5.245
		c3.705-3.758,7.679-7.251,11.197-11.194c1.253-1.405,2.278-2.966,2.496-5c1.756,1.314,2.291,3.895,1.328,6.08
		c-0.533,1.213-1.386,2.187-2.308,3.111c-4.32,4.334-8.668,8.64-13.096,12.866c-1.042,0.994-1.929,2.122-2.715,3.329
		C16.458,103.16,15.749,104.779,15.658,106.835 M20.574,114.195c-1.6-1.326-2.43-2.825-2.638-4.627
		c-0.453-3.903,1.101-7.108,3.755-9.796c3.766-3.813,7.639-7.519,11.453-11.284c1.751-1.729,3.476-3.486,4.511-5.8
		c1.377,2.946,0.771,5.94-1.845,8.569c-3.474,3.492-7.017,6.917-10.515,10.386c-2.321,2.301-4.189,4.879-4.852,8.172
		C20.163,111.204,20.221,112.587,20.574,114.195 M41.609,102.271c-1.541,1.596-3.151,3.123-4.712,4.697
		c-2.035,2.055-3.842,4.262-4.55,7.266c-1.247-1.562-1.416-3.233-1.011-5.03c0.606-2.7,2.35-4.619,4.296-6.429
		c2.18-2.024,4.303-4.109,6.454-6.166c0.522-0.498,0.938-1.085,1.427-1.771C44.164,97.745,43.601,100.209,41.609,102.271
		 M43.518,91.57c-0.545,0.98-1.299,1.797-2.092,2.574c-3.194,3.122-6.417,6.213-9.59,9.356c-2.026,2.007-3.863,4.17-4.897,6.891
		c-0.202,0.53-0.371,1.073-0.421,1.645c0.005,0.609,0.016,1.217,0.015,1.826c0,0.26-0.075,0.392-0.296,0.117
		c-1.3-1.727-2.236-3.574-1.987-5.83c0.183-1.646,0.926-3.047,1.957-4.295c1.901-2.301,4.169-4.248,6.252-6.374
		c3.18-3.248,6.668-6.19,9.56-9.721c0.6-0.731,1.114-1.515,1.615-2.507C44.514,87.478,44.649,89.532,43.518,91.57"/>
</g>
</svg>
