<?xml version="1.0" encoding="utf-8"?>
<!-- Generator: Adobe Illustrator 16.0.0, SVG Export Plug-In . SVG Version: 6.00 Build 0)  -->
<!DOCTYPE svg PUBLIC "-//W3C//DTD SVG 1.1//EN" "http://www.w3.org/Graphics/SVG/1.1/DTD/svg11.dtd">
<svg version="1.1" id="Layer_1" xmlns="http://www.w3.org/2000/svg" xmlns:xlink="http://www.w3.org/1999/xlink" x="0px" y="0px"
	 width="200px" height="200px" viewBox="0 0 200 200" enable-background="new 0 0 200 200" xml:space="preserve">
<g>
	<g>
		<path fill="#231F20" d="M416.965,100.125c-0.311-0.391-0.732-0.683-1.262-0.87c-0.531-0.188-1.033-0.281-1.507-0.281
			c-0.278,0-0.563,0.033-0.856,0.098c-0.296,0.066-0.573,0.168-0.834,0.307c-0.262,0.14-0.475,0.323-0.638,0.551
			c-0.163,0.229-0.245,0.506-0.245,0.834c0,0.521,0.196,0.922,0.588,1.2c0.393,0.276,0.887,0.514,1.482,0.71
			c0.597,0.196,1.237,0.392,1.924,0.587c0.686,0.196,1.326,0.475,1.924,0.834c0.596,0.358,1.09,0.842,1.481,1.445
			s0.588,1.412,0.588,2.425c0,0.964-0.181,1.806-0.539,2.522c-0.358,0.72-0.845,1.315-1.458,1.789
			c-0.612,0.475-1.323,0.825-2.133,1.054c-0.807,0.229-1.66,0.344-2.559,0.344c-1.126,0-2.172-0.173-3.135-0.515
			c-0.965-0.343-1.862-0.898-2.695-1.667l2.719-2.987c0.393,0.522,0.886,0.927,1.482,1.212c0.596,0.285,1.213,0.429,1.85,0.429
			c0.311,0,0.625-0.037,0.943-0.11c0.319-0.073,0.604-0.184,0.857-0.332c0.254-0.146,0.456-0.333,0.613-0.562
			c0.154-0.229,0.232-0.497,0.232-0.81c0-0.521-0.2-0.933-0.601-1.236c-0.4-0.302-0.903-0.559-1.507-0.771
			c-0.605-0.212-1.258-0.425-1.961-0.638c-0.701-0.212-1.354-0.497-1.959-0.858c-0.604-0.358-1.106-0.832-1.507-1.42
			s-0.599-1.363-0.599-2.327c0-0.931,0.182-1.748,0.55-2.449c0.368-0.702,0.858-1.29,1.47-1.765c0.613-0.473,1.318-0.829,2.12-1.066
			c0.8-0.236,1.624-0.354,2.474-0.354c0.979,0,1.927,0.139,2.842,0.416c0.915,0.279,1.74,0.744,2.474,1.396L416.965,100.125z"/>
		<path fill="#231F20" d="M433.06,95.886h3.16l7.545,17.346h-4.312l-1.495-3.675h-6.736l-1.446,3.675h-4.213L433.06,95.886z
			 M434.529,100.934l-2.107,5.39h4.238L434.529,100.934z"/>
		<path fill="#231F20" d="M450.404,95.886h6.467c0.751,0,1.508,0.054,2.266,0.16c0.761,0.106,1.442,0.319,2.047,0.637
			c0.604,0.318,1.094,0.763,1.47,1.335c0.376,0.572,0.563,1.332,0.563,2.278c0,0.98-0.274,1.793-0.82,2.437
			c-0.548,0.646-1.271,1.107-2.169,1.386v0.048c0.572,0.083,1.091,0.242,1.556,0.479c0.467,0.238,0.866,0.54,1.201,0.906
			c0.334,0.368,0.592,0.797,0.771,1.286c0.18,0.49,0.27,1.013,0.27,1.568c0,0.914-0.196,1.678-0.588,2.291
			c-0.393,0.611-0.898,1.105-1.519,1.481c-0.622,0.377-1.32,0.646-2.096,0.808c-0.775,0.164-1.547,0.246-2.314,0.246h-7.104V95.886z
			 M454.226,102.819h2.769c0.294,0,0.584-0.032,0.87-0.098c0.284-0.065,0.543-0.172,0.771-0.319
			c0.229-0.146,0.412-0.342,0.551-0.588c0.139-0.244,0.208-0.539,0.208-0.881c0-0.358-0.077-0.657-0.232-0.895
			c-0.155-0.237-0.355-0.421-0.6-0.551c-0.245-0.13-0.522-0.224-0.834-0.281c-0.311-0.058-0.612-0.087-0.905-0.087h-2.598V102.819z
			 M454.226,109.997h3.43c0.294,0,0.592-0.032,0.895-0.098c0.302-0.065,0.576-0.179,0.82-0.343c0.246-0.163,0.445-0.375,0.601-0.638
			c0.154-0.261,0.233-0.578,0.233-0.955c0-0.408-0.103-0.738-0.307-0.992c-0.204-0.253-0.462-0.444-0.771-0.576
			c-0.311-0.129-0.646-0.219-1.005-0.269c-0.359-0.049-0.695-0.073-1.005-0.073h-2.891V109.997z"/>
		<path fill="#231F20" d="M471.325,95.886h3.821v13.816h7.08v3.529h-10.901V95.886z"/>
		<path fill="#231F20" d="M489.38,95.886h11.784v3.527h-7.963v3.235h7.521v3.528h-7.521v3.525h8.402v3.529H489.38V95.886z"/>
	</g>
	<rect x="381.377" y="109.763" fill="#0E0F0F" width="3.107" height="3.106"/>
	<rect x="524.213" y="109.763" fill="#0E0F0F" width="3.106" height="3.106"/>
</g>
<g>
	<circle fill="#151616" cx="300.083" cy="104.559" r="17.196"/>
	<g>
		<polygon fill="#FFFFFF" points="303.861,94.512 294.742,103.632 296.064,104.952 306.504,94.512 		"/>
		<linearGradient id="SVGID_1_" gradientUnits="userSpaceOnUse" x1="303.1484" y1="96.5308" x2="293.9054" y2="105.831">
			<stop  offset="0" style="stop-color:#FFFFFF;stop-opacity:0"/>
			<stop  offset="1" style="stop-color:#000000"/>
		</linearGradient>
		<polygon fill="url(#SVGID_1_)" points="303.861,94.512 294.742,103.632 296.064,104.952 306.504,94.512 		"/>
		<polygon fill="#FFFFFF" points="296.307,114.845 305.652,105.499 304.331,104.178 293.664,114.845 		"/>
		<linearGradient id="SVGID_2_" gradientUnits="userSpaceOnUse" x1="296.8115" y1="113.0684" x2="305.2134" y2="104.5171">
			<stop  offset="0" style="stop-color:#FFFFFF;stop-opacity:0"/>
			<stop  offset="1" style="stop-color:#000000"/>
		</linearGradient>
		<polygon fill="url(#SVGID_2_)" points="296.307,114.845 305.652,105.499 304.331,104.178 293.664,114.845 		"/>
		<rect x="294.742" y="103.633" fill="#FFFFFF" width="10.91" height="1.868"/>
	</g>
</g>
<g>
	<circle fill="#151616" cx="102.978" cy="63.266" r="30.23"/>
	<g>
		<polygon fill="#FFFFFF" points="109.619,45.604 93.588,61.635 95.911,63.957 114.263,45.604 		"/>
		<linearGradient id="SVGID_3_" gradientUnits="userSpaceOnUse" x1="108.3643" y1="49.1533" x2="92.1155" y2="65.5025">
			<stop  offset="0" style="stop-color:#FFFFFF;stop-opacity:0"/>
			<stop  offset="1" style="stop-color:#000000"/>
		</linearGradient>
		<polygon fill="url(#SVGID_3_)" points="109.619,45.604 93.588,61.635 95.911,63.957 114.263,45.604 		"/>
		<polygon fill="#FFFFFF" points="96.337,81.349 112.768,64.917 110.444,62.595 91.692,81.349 		"/>
		<linearGradient id="SVGID_4_" gradientUnits="userSpaceOnUse" x1="97.2256" y1="78.2266" x2="111.9962" y2="63.1933">
			<stop  offset="0" style="stop-color:#FFFFFF;stop-opacity:0"/>
			<stop  offset="1" style="stop-color:#000000"/>
		</linearGradient>
		<polygon fill="url(#SVGID_4_)" points="96.336,81.349 112.768,64.917 110.444,62.595 91.692,81.349 		"/>
		<rect x="93.588" y="61.638" fill="#FFFFFF" width="19.179" height="3.284"/>
	</g>
</g>
<g>
	<g>
		<path fill="#231F20" d="M48.866,119.296c-0.426-0.54-1.002-0.938-1.731-1.195c-0.73-0.259-1.419-0.387-2.068-0.387
			c-0.383,0-0.774,0.043-1.18,0.133c-0.402,0.092-0.784,0.23-1.143,0.42c-0.358,0.193-0.65,0.443-0.875,0.76
			c-0.224,0.313-0.336,0.694-0.336,1.143c0,0.717,0.27,1.267,0.808,1.648c0.538,0.382,1.216,0.705,2.035,0.977
			c0.818,0.271,1.7,0.536,2.641,0.806c0.942,0.271,1.822,0.651,2.64,1.145c0.819,0.493,1.497,1.155,2.036,1.984
			c0.538,0.83,0.808,1.939,0.808,3.33c0,1.325-0.247,2.479-0.742,3.464c-0.493,0.985-1.159,1.804-1.999,2.46
			c-0.842,0.648-1.817,1.131-2.928,1.443c-1.112,0.316-2.283,0.473-3.515,0.473c-1.548,0-2.983-0.236-4.307-0.708
			c-1.324-0.471-2.556-1.233-3.701-2.29l3.735-4.102c0.537,0.718,1.215,1.272,2.034,1.666s1.666,0.587,2.541,0.587
			c0.425,0,0.858-0.048,1.295-0.151c0.437-0.1,0.83-0.25,1.177-0.453c0.348-0.203,0.627-0.461,0.841-0.774s0.32-0.683,0.32-1.11
			c0-0.715-0.275-1.283-0.827-1.696c-0.547-0.417-1.238-0.771-2.068-1.061c-0.83-0.291-1.726-0.583-2.69-0.873
			c-0.964-0.294-1.861-0.687-2.692-1.182c-0.829-0.492-1.52-1.143-2.067-1.951c-0.551-0.807-0.825-1.87-0.825-3.194
			c0-1.278,0.252-2.398,0.757-3.363c0.504-0.964,1.177-1.771,2.018-2.423c0.841-0.648,1.81-1.139,2.91-1.462
			c1.099-0.325,2.231-0.488,3.397-0.488c1.346,0,2.646,0.191,3.902,0.573s2.388,1.02,3.398,1.917L48.866,119.296z"/>
		<path fill="#231F20" d="M70.968,113.475h4.341l10.36,23.817h-5.92l-2.052-5.048h-9.252l-1.985,5.048h-5.786L70.968,113.475z
			 M72.986,120.405l-2.893,7.4h5.819L72.986,120.405z"/>
		<path fill="#231F20" d="M94.787,113.475h8.881c1.029,0,2.066,0.072,3.111,0.218c1.043,0.148,1.979,0.438,2.809,0.875
			c0.83,0.438,1.5,1.048,2.017,1.833c0.518,0.785,0.775,1.831,0.775,3.131c0,1.344-0.376,2.46-1.126,3.347
			c-0.753,0.887-1.746,1.519-2.977,1.901v0.064c0.784,0.113,1.494,0.334,2.134,0.657c0.64,0.326,1.187,0.739,1.648,1.243
			c0.458,0.506,0.812,1.095,1.062,1.768c0.245,0.673,0.368,1.392,0.368,2.153c0,1.256-0.271,2.306-0.809,3.144
			c-0.538,0.842-1.233,1.518-2.081,2.035c-0.855,0.518-1.814,0.889-2.882,1.111c-1.061,0.225-2.122,0.337-3.176,0.337h-9.755
			V113.475z M100.034,122.993h3.801c0.401,0,0.802-0.045,1.195-0.132c0.391-0.091,0.743-0.238,1.059-0.439
			c0.313-0.2,0.568-0.469,0.756-0.809c0.19-0.335,0.286-0.738,0.286-1.208c0-0.494-0.105-0.904-0.32-1.229
			c-0.213-0.324-0.485-0.58-0.824-0.758c-0.335-0.179-0.716-0.307-1.141-0.385c-0.428-0.08-0.843-0.12-1.245-0.12h-3.567V122.993z
			 M100.034,132.851h4.708c0.404,0,0.811-0.046,1.229-0.133c0.414-0.091,0.789-0.247,1.125-0.474
			c0.338-0.223,0.612-0.516,0.827-0.873c0.209-0.359,0.316-0.798,0.316-1.312c0-0.56-0.139-1.015-0.418-1.364
			c-0.283-0.345-0.634-0.609-1.062-0.79c-0.426-0.178-0.885-0.303-1.376-0.368c-0.496-0.067-0.956-0.102-1.382-0.102h-3.969V132.851
			z"/>
		<path fill="#231F20" d="M123.515,113.475h5.247v18.973h9.721v4.845h-14.968V113.475z"/>
		<path fill="#231F20" d="M148.307,113.475h16.181v4.845h-10.933v4.44h10.326v4.842h-10.326v4.846h11.538v4.845h-16.786V113.475z"/>
	</g>
	<rect y="132.529" fill="#0E0F0F" width="4.266" height="4.265"/>
	<rect x="196.138" y="132.529" fill="#0E0F0F" width="4.265" height="4.265"/>
</g>
</svg>
