<?xml version="1.0" encoding="utf-8"?>
<!-- Generator: Adobe Illustrator 16.0.0, SVG Export Plug-In . SVG Version: 6.00 Build 0)  -->
<!DOCTYPE svg PUBLIC "-//W3C//DTD SVG 1.1//EN" "http://www.w3.org/Graphics/SVG/1.1/DTD/svg11.dtd">
<svg version="1.1" id="Layer_1" xmlns="http://www.w3.org/2000/svg" xmlns:xlink="http://www.w3.org/1999/xlink" x="0px" y="0px"
	 width="140px" height="141px" viewBox="0 0 140 141" enable-background="new 0 0 140 141" xml:space="preserve">
<g>
	<path fill="#2B6BB2" d="M126.876,71.457c0-31.354-25.521-56.876-56.876-56.876S13.124,40.102,13.124,71.457
		c0,31.477,25.521,56.875,56.876,56.875C101.356,128.332,126.876,102.934,126.876,71.457L126.876,71.457L126.876,71.457z
		 M124.163,71.457c0,29.936-24.225,54.163-54.162,54.163s-54.202-24.228-54.202-54.163c0-29.937,24.265-54.202,54.202-54.202
		S124.163,41.682,124.163,71.457L124.163,71.457L124.163,71.457z M120.719,71.457c0-17.986-9.154-36.581-28.844-42.536
		c-4.091-1.256-7.535-2.066-11.504-2.066c-9.114,0-9.439,5.186-13.693,5.186c-2.349,0-3.929-1.702-3.929-3.768
		c0-3.605,4.254-6.441,11.021-6.441c6.318,0,11.18,1.58,12.11,2.025l0.163-0.445c-1.701-0.648-7.697-2.714-16.043-2.714
		c-18.148-0.001-36.58,9.317-42.535,28.842c-1.256,4.092-2.066,7.576-2.066,11.506c0,9.155,5.186,9.6,5.186,13.854
		c0,2.228-1.702,3.807-3.768,3.807c-3.605,0-6.44-4.132-6.44-11.059c0-6.279,1.579-11.181,1.862-12.113l-0.445-0.163
		c-0.486,1.905-2.553,7.738-2.553,16.083c0,18.27,9.318,36.701,28.844,42.697c4.092,1.256,7.576,2.024,11.505,2.024
		c9.155,0,9.438-5.347,13.692-5.347c2.229,0,3.971,1.743,3.971,3.929c0,3.484-4.133,6.32-11.06,6.32
		c-6.279-0.002-11.343-1.58-12.113-1.904l-0.162,0.486c1.743,0.771,7.738,2.512,16.083,2.512
		c18.108-0.002,36.702-9.155,42.536-28.844c1.255-3.931,2.025-7.535,2.025-11.343c0-9.276-5.187-9.602-5.187-13.854
		c0-2.35,1.58-3.93,3.769-3.93c3.646,0,6.48,4.254,6.48,11.181c0,6.157-1.579,11.02-1.904,12.113l0.486,0.161
		C118.815,85.797,120.719,79.964,120.719,71.457L120.719,71.457L120.719,71.457z M101.639,86.566c0,7.09-6.117,14.502-15.109,14.502
		c-10.856,0-16.366-9.154-16.366-17.338c0-11.504,7.858-16.365,11.181-18.106c-0.648-0.486-1.134-1.094-1.58-1.905
		c-3.807,2.673-7.25,5.064-14.501,9.155c-0.324,5.022-0.771,10.532-2.066,14.34c-2.674,8.021-8.183,13.854-15.435,13.854
		c-6.117,0-9.114-4.414-9.114-9.154c0-3.443,2.025-7.857,5.672-11.18c4.577-4.092,9.6-6.604,16.527-10.25
		c0.161-0.932,0.324-1.863,0.486-2.999c-1.742,1.58-4.254,2.229-6.319,2.229c-3.281,0-5.996-2.835-6.604-5.833
		c-4.416-0.325-7.737-3.484-7.899-8.507c0-3.605,1.417-6.765,3.809-6.765c0.931,0,1.255,0.77,1.255,1.418
		c0,0.607-0.81,2.673-0.81,4.699c0,2.065,0.972,4.74,3.483,4.74c0-8.184,5.996-18.756,13.085-18.756
		c4.699,0,5.347,3.484,5.347,5.064c0,7.413-7.413,15.596-13.408,17.622c0.162,0.648,0.81,2.39,2.714,2.39
		c2.35,0,5.186-2.229,6.604-3.97c0.607-3.28,2.997-8.021,6.157-8.021c1.256,0,1.863,0.932,1.863,2.065
		c0,2.35-2.511,5.348-4.416,7.373c-0.284,1.58-0.446,3.322-0.446,4.74c5.511-3.322,8.348-5.024,12.438-8.022
		c-0.324-1.092-0.324-2.39-0.324-3.645c0-7.373,4.902-15.597,11.344-15.597c3.646,0,5.51,2.552,5.51,5.388
		c0,5.347-4.578,10.045-11.02,14.949c0.486,1.255,1.256,2.349,2.512,2.997c0.162-0.324,2.229-0.648,3.93-0.648
		c1.904,0,4.578,0.486,4.578,2.39c0,2.188-2.998,2.674-5.349,2.674c-1.255,0.163-3.32-0.324-3.32-0.324
		c-3.444,0.931-10.088,4.901-10.088,14.947c0.001,6.806,4.254,13.085,10.897,13.085c5.021,0,9.115-3.768,9.275-9.6
		c0.002-3.771-1.58-7.739-5.347-7.739c-1.903,0-3.606,1.418-3.606,3.483c-0.16,3.16,2.188,3.483,2.188,5.51
		c0,1.416-1.095,2.064-2.188,2.064c-3.158,0-5.55-3.158-5.55-7.09c0-4.74,4.134-8.669,9.479-8.669
		C98.034,74.13,101.639,80.126,101.639,86.566L101.639,86.566L101.639,86.566z M90.014,46.867c0-0.769-0.162-1.741-1.135-1.741
		c-2.352-0.001-6.117,5.062-6.117,11.504C87.46,52.539,90.014,49.054,90.014,46.867L90.014,46.867L90.014,46.867z M62.102,46.218
		c0-0.769-0.445-1.092-1.095-1.092c-3.321-0.001-8.022,8.668-8.022,13.854C58.171,56.143,62.102,49.703,62.102,46.218L62.102,46.218
		L62.102,46.218z M60.237,75.711c-7.09,3.443-16.083,9.602-16.083,16.365c0,2.512,1.256,4.092,3.605,4.092
		C54.688,96.168,58.94,85.148,60.237,75.711L60.237,75.711L60.237,75.711z"/>
</g>
</svg>
