<?xml version="1.0" encoding="utf-8"?>
<!-- Generator: Adobe Illustrator 15.0.0, SVG Export Plug-In . SVG Version: 6.00 Build 0)  -->
<!DOCTYPE svg PUBLIC "-//W3C//DTD SVG 1.1//EN" "http://www.w3.org/Graphics/SVG/1.1/DTD/svg11.dtd">
<svg version="1.1" id="Layer_1" xmlns="http://www.w3.org/2000/svg" xmlns:xlink="http://www.w3.org/1999/xlink" x="0px" y="0px"
	 width="326.018px" height="200px" viewBox="0 0 326.018 200" enable-background="new 0 0 326.018 200" xml:space="preserve">
<g>
	<path fill="#C9C9C9" d="M102.295,114.219h-8.142c-0.228-0.225-0.353-0.351-0.578-0.576V83.997c0.226-0.225,0.351-0.352,0.578-0.576
		h8.142c0.225,0.225,0.351,0.352,0.575,0.576v29.646C102.646,113.868,102.52,113.994,102.295,114.219"/>
	<path fill="#C9C9C9" d="M251.623,114.219h-8.139c-0.226-0.225-0.353-0.351-0.578-0.576V83.997c0.226-0.225,0.353-0.352,0.578-0.576
		h8.139c0.228,0.225,0.353,0.352,0.578,0.576v29.646C251.975,113.868,251.85,113.994,251.623,114.219"/>
	<path fill="#C9C9C9" d="M123.31,95.049c0-2.244-1.098-3.741-3.291-3.741c-2.138,0-3.291,1.438-3.291,3.684v18.651
		c-0.226,0.226-0.353,0.352-0.578,0.576h-8.141c-0.226-0.225-0.351-0.351-0.576-0.576V83.997c0.226-0.225,0.351-0.352,0.576-0.576
		h8.141c0.226,0.225,0.353,0.352,0.578,0.576v1.381c0.691-0.634,2.481-2.303,6.235-2.303c7.274,0,9.641,4.951,9.641,10.881v19.687
		c-0.225,0.226-0.351,0.352-0.577,0.576h-8.14c-0.225-0.225-0.353-0.351-0.577-0.576V95.049z"/>
	<path fill="#C9C9C9" d="M211.359,95.049c0-2.244-1.1-3.741-3.293-3.741c-2.136,0-3.289,1.438-3.289,3.684v18.651
		c-0.228,0.226-0.353,0.352-0.58,0.576h-8.141c-0.224-0.225-0.351-0.351-0.576-0.576V83.997c0.226-0.225,0.353-0.352,0.576-0.576
		h8.141c0.228,0.225,0.353,0.352,0.58,0.576v1.381c0.691-0.634,2.479-2.303,6.232-2.303c7.275,0,9.644,4.951,9.644,10.881v19.687
		c-0.225,0.226-0.353,0.352-0.577,0.576h-8.142c-0.225-0.225-0.351-0.351-0.575-0.576V95.049z"/>
	<path fill="#C9C9C9" d="M148.771,102.532l5.535-18.699c0.204-0.151,0.35-0.26,0.555-0.412h8.351
		c0.231,0.318,0.317,0.439,0.547,0.758l-9.947,29.646c-0.202,0.145-0.347,0.249-0.549,0.394h-9.447
		c-0.202-0.144-0.347-0.247-0.547-0.391l-10.172-29.646c0.233-0.32,0.317-0.44,0.549-0.762h9.036
		c0.205,0.152,0.349,0.261,0.554,0.412L148.771,102.532z"/>
	<path fill="#C9C9C9" d="M271.098,102.532l5.535-18.699c0.206-0.151,0.349-0.26,0.555-0.412h8.351
		c0.231,0.318,0.317,0.439,0.549,0.758l-9.949,29.646c-0.202,0.145-0.347,0.249-0.547,0.394h-9.449
		c-0.202-0.144-0.345-0.247-0.547-0.391l-10.17-29.646c0.23-0.32,0.315-0.44,0.546-0.762h9.038c0.204,0.152,0.349,0.261,0.553,0.412
		L271.098,102.532z"/>
	<path fill="#C9C9C9" d="M173.206,101.842c-0.233,0.301-0.329,0.427-0.561,0.727c0.664,2.501,2.876,3.995,6.149,3.995
		c3.013,0,4.863-1.594,5.998-3.188c0.294-0.064,0.468-0.103,0.764-0.167l6.161,3.597c0.084,0.3,0.133,0.473,0.217,0.772
		c-1.858,3.44-5.874,7.159-13.198,7.159c-9.411,0-15.877-5.93-15.877-15.773c0-9.21,6.179-16.061,15.186-16.061
		c9.467,0,15.183,6.159,15.183,15.369c0,0.811,0,1.754-0.078,3.027c-0.222,0.209-0.354,0.333-0.576,0.542H173.206z M173.408,95.337
		h9.504c0.231-0.292,0.331-0.418,0.562-0.711c-0.504-2.218-2.399-4.009-5.43-4.009c-2.921,0-4.711,1.832-5.201,4.013
		C173.075,94.92,173.176,95.047,173.408,95.337"/>
	<path fill="#C9C9C9" d="M298.573,101.842c-0.231,0.301-0.329,0.427-0.561,0.727c0.664,2.501,2.876,3.995,6.149,3.995
		c3.013,0,4.865-1.594,5.998-3.188c0.294-0.064,0.47-0.103,0.764-0.167l6.16,3.597c0.085,0.3,0.134,0.473,0.218,0.772
		c-1.858,3.44-5.873,7.159-13.196,7.159c-9.413,0-15.877-5.93-15.877-15.773c0-9.21,6.176-16.061,15.183-16.061
		c9.47,0,15.186,6.159,15.186,15.369c0,0.811,0,1.754-0.078,3.027c-0.224,0.209-0.356,0.333-0.578,0.542H298.573z M298.777,95.337
		h9.502c0.231-0.292,0.331-0.418,0.562-0.711c-0.504-2.218-2.399-4.009-5.431-4.009c-2.92,0-4.713,1.832-5.2,4.013
		C298.444,94.92,298.543,95.047,298.777,95.337"/>
	<path fill="#C9C9C9" d="M238.434,83.421c0.227,0.225,0.353,0.352,0.577,0.576v6.619c-0.225,0.225-0.351,0.352-0.577,0.576h-2.944
		c-0.226,0.224-0.351,0.352-0.576,0.575v11.687c0,2.072,0.866,2.763,2.541,2.763h0.979c0.227,0.225,0.353,0.351,0.577,0.576v7.195
		c-0.225,0.226-0.351,0.351-0.577,0.576h-4.099c-5.888,0-8.717-3.051-8.717-8.348V91.768c-0.227-0.224-0.353-0.352-0.577-0.575
		h-1.56c-0.226-0.225-0.353-0.352-0.578-0.576v-6.619c0.226-0.225,0.353-0.352,0.578-0.576H238.434z"/>
	<path fill="#C9C9C9" d="M44.924,114.649V85.003c-0.288-0.226-0.459-0.259-0.684-0.546h-8.142c-0.225,0.287-0.413,0.32-0.701,0.546
		v29.646c0.288,0.225,0.476,0.318,0.701,0.605h8.142C44.465,114.968,44.636,114.874,44.924,114.649"/>
	<path fill="#C9C9C9" d="M69.998,69.489H10.238c-0.225,0-0.245,0.266-0.533,0.491v24.754c0.288,0.224,0.308,0.372,0.533,0.66h8.084
		c0.223-0.288,0.331-0.437,0.619-0.66V79.19c0.29-0.224,0.31-0.49,0.535-0.49h41.281c0.226,0,0.333,0.267,0.621,0.49v15.544
		c0.29,0.224,0.31,0.372,0.535,0.66h8.084c0.223-0.288,0.331-0.437,0.619-0.66V69.98C70.329,69.755,70.22,69.489,69.998,69.489"/>
	<path fill="#C9C9C9" d="M61.914,104.605c-0.226,0-0.245,0.267-0.535,0.491v15.543c-0.288,0.225-0.396,0.372-0.621,0.66H19.477
		c-0.226-0.288-0.245-0.436-0.535-0.66v-15.543c-0.288-0.225-0.396-0.491-0.619-0.491h-8.084c-0.225,0-0.245,0.267-0.533,0.491
		v24.754c0.288,0.224,0.308,0.372,0.533,0.66h59.759c0.223-0.288,0.331-0.437,0.619-0.66v-24.754
		c-0.288-0.225-0.396-0.491-0.619-0.491H61.914z"/>
</g>
</svg>
