<?xml version="1.0" encoding="utf-8"?>
<!-- Generator: Adobe Illustrator 15.0.0, SVG Export Plug-In . SVG Version: 6.00 Build 0)  -->
<!DOCTYPE svg PUBLIC "-//W3C//DTD SVG 1.1//EN" "http://www.w3.org/Graphics/SVG/1.1/DTD/svg11.dtd">
<svg version="1.1" id="Layer_1" xmlns="http://www.w3.org/2000/svg" xmlns:xlink="http://www.w3.org/1999/xlink" x="0px" y="0px"
	 width="200px" height="200px" viewBox="0 0 200 200" enable-background="new 0 0 200 200" xml:space="preserve">
<g id="g4210" transform="translate(0,9.4484951)">
	<g id="g4184" transform="matrix(1.3619984,0,0,1.3619984,-14.861061,-14.571281)">
		<g id="g4032" transform="matrix(0.73816367,0,0,0.73816367,193.23997,39.816969)">
			<g id="XMLID_1_">
				<g>
					<path fill="#C9C9C9" d="M-126.92,79.45c-1.442,0-2.225-1.325-2.225-2.621c0-1.28,0.754-2.65,2.181-2.65
						c0.886,0,1.53,0.534,1.823,1.339l2.072-0.878c-0.681-1.472-1.889-2.24-3.463-2.335l0.11-1.23
						c0.797,0.073,1.603,0.11,2.416,0.11c6.068,0,11.646-2.057,16.082-5.541v5.541h9.391V44.871h1.31v32.42h-0.857v-4.722h-2.181
						v4.422c0,1.098-0.088,2.284-1.494,2.284c-1.406,0-1.471-1.186-1.471-2.284v-4.422h-2.196v2.592h-1.333
						c0-1.801-1.266-2.592-2.935-2.592h-3.25v4.722h-1.383v-4.722h-2.182v4.422c0,1.098-0.087,2.284-1.485,2.284
						c-1.406,0-1.479-1.186-1.479-2.284v-4.422h-2.181v3.711h-0.966h-4.334v1.713h1.786C-125.259,78.96-125.969,79.45-126.92,79.45z
						"/>
					<path fill="#C9C9C9" d="M-165.621,55.484c0,3.374-3.126,4.809-8.36,4.809c-3.462,0-6.317-0.424-7.949-2.224
						c-0.966-1.135-1.091-2.335-1.369-4.275h-14.179h-0.329V33.825h1.603c0,4.86,2.305,8.879,6.588,11.514
						c2.518,1.566,4.692,2.291,10.943,3.491c7.071,1.435,8.769,1.859,10.197,2.459C-166.705,52.015-165.621,53.625-165.621,55.484z"
						/>
					<polygon fill="#C9C9C9" points="-169.552,72.569 -169.552,72.863 -169.64,72.569 					"/>
					<path fill="#C9C9C9" d="M-197.808,80.139v0.131c-0.015-0.015-0.036-0.021-0.051-0.036L-197.808,80.139z"/>
					<path fill="#C9C9C9" d="M-146.106,74.246c0.702,0,1.515,0.124,1.515,1.039c0,0.915-0.813,1.054-1.515,1.054h-0.22v-2.093
						H-146.106z"/>
					<path fill="#C9C9C9" d="M-97.224,36.95v7.92h-1.31h-26.322v9.399h10.767c-2.452,2.68-5.995,4.355-9.918,4.355
						c-7.444,0-13.476-6.046-13.476-13.49c0-7.444,6.032-13.469,13.476-13.469c4.377,0,8.257,2.065,10.717,5.285h14.04H-97.224z"/>
					<path fill="#C9C9C9" d="M-110.765,76.339v-2.093h0.22c0.71,0,1.515,0.124,1.515,1.039c0,0.915-0.805,1.054-1.515,1.054
						H-110.765z"/>
					<path fill="#C9C9C9" d="M-146.326,77.745h0.021l2.064,3.221h2.716l-2.642-3.44c1.193-0.205,1.837-1.215,1.837-2.364
						c0-1.801-1.251-2.592-2.913-2.592h-3.265v8.396h2.182V77.745z M-154.737,72.569l-3.228,8.396h2.313l0.585-1.457h3.001
						l0.549,1.457h2.328l-3.162-8.396H-154.737z M-136.29,77.679v-1.859h-2.46v-1.406h2.592v-1.845h-4.772v8.396h4.772v-1.851
						h-2.592v-1.436H-136.29z M-186.396,81.244c2.701,0,4.648-1.918,4.648-4.634h1.017v4.355h2.181v-3.287h2.394v-1.859h-2.394
						v-1.406h2.635h0.571h1.801v6.552h2.188v-6.552h1.801v-1.551l2.416,8.103h2.218l1.647-4.861h0.022l1.471,4.861h2.233
						l2.687-8.396h-2.277l-1.581,5.425h-0.022l-1.647-5.425h-1.742l-1.757,5.425h-0.022l-1.464-5.425h-2.181h-0.088h-4.202v-1.53
						c7.949,0,13.93-1.735,17.876-5.095c3.125-2.716,4.758-6.551,4.758-11.046c0-5.534-2.452-9.559-7.342-12.253
						c-2.584-1.435-5.841-2.467-11.009-3.425c-8.023-1.435-8.023-1.435-9.384-1.984c-2.174-0.9-3.192-2.152-3.192-3.836
						c0-2.76,3.06-4.75,7.203-4.75c5.131,0,7.584,1.61,8.411,5.46v0.125h14.413l-0.007-0.381c-0.285-3.14-1.917-6.559-3.374-8.264
						c-3.667-4.495-10.263-6.845-18.9-6.845c-13.388,0-21.813,5.834-21.813,15.08h-1.603V0.475h100.584V36.95h-2.027
						c-3.434-10.38-13.22-17.86-24.757-17.86c-14.384,0-26.052,11.66-26.052,26.045c0,13.579,10.387,24.719,23.636,25.942
						l-0.11,1.23c-0.11-0.007-0.213-0.007-0.322-0.007c-2.708,0-4.559,1.785-4.559,4.516c0,2.635,1.845,4.429,4.48,4.429
						c1.405,0,2.635-0.498,3.462-1.641c0.754-1.054,0.842-2.093,0.857-3.323h0.966v1.01c0,1.083,0.036,2.159,0.87,2.965
						c0.71,0.689,1.815,0.944,2.79,0.944c0.98,0,2.085-0.255,2.781-0.944c0.834-0.805,0.886-1.881,0.886-2.965h1.383v3.675h2.175
						v-3.221h0.036l2.05,3.221h2.716l-2.642-3.44c1.201-0.205,1.851-1.215,1.851-2.364h1.333v2.13c0,1.083,0.051,2.159,0.886,2.965
						c0.71,0.689,1.815,0.944,2.781,0.944c0.989,0,2.094-0.255,2.79-0.944c0.834-0.805,0.885-1.881,0.885-2.965h0.857v23.468
						h-100.584V80.27c0.849,0.579,1.866,0.93,2.906,0.93c0.842,0,1.728-0.234,2.379-0.791c0.674-0.578,0.871-1.435,0.871-2.269
						c0-0.168-0.015-0.329-0.044-0.476l0.739-0.073C-190.546,79.773-188.753,81.244-186.396,81.244z"/>
					<path fill="#C9C9C9" d="M-186.396,74.414c1.31,0,2.372,1.047,2.372,2.211c0,1.449-1.062,2.511-2.372,2.511
						c-1.303,0-2.372-1.062-2.372-2.511C-188.767,75.461-187.699,74.414-186.396,74.414z"/>
					<polygon fill="#C9C9C9" points="-153.544,75.161 -152.651,77.84 -154.466,77.84 -153.566,75.161 					"/>
					<path fill="#C9C9C9" d="M-175.914,74.414v-1.845h-4.816v4.041h-1.017c0-2.54-2.225-4.311-4.648-4.311
						c-2.416,0-4.648,1.771-4.648,4.311c0,0.337,0.03,0.666,0.088,0.981l-0.739,0.073c-0.183-1.025-1.003-1.522-2.028-1.815
						l-0.556-0.168c-0.381-0.131-0.974-0.315-0.974-0.805c0-0.461,0.534-0.695,0.937-0.695c0.535,0,1.054,0.22,1.45,0.549
						l0.871-1.683c-0.746-0.424-1.786-0.695-2.628-0.695c-1.683,0-2.898,1.105-2.898,2.811c0,1.625,0.9,1.983,2.269,2.379
						c0.469,0.139,1.325,0.344,1.325,0.96c0,0.585-0.542,0.841-1.054,0.841c-0.747,0-1.391-0.381-1.94-0.871l-0.886,1.67V53.794
						h0.329c0.081,3.155,0.491,5.255,1.135,6.617c1.427,3.418,3.946,6.01,7.342,7.693c3.667,1.86,9.377,2.935,15.16,2.935v1.53
						h-1.501v1.845H-175.914z"/>
				</g>
				<g>
				</g>
			</g>
		</g>
	</g>
</g>
</svg>
