<?xml version="1.0" encoding="utf-8"?>
<!-- Generator: Adobe Illustrator 16.0.0, SVG Export Plug-In . SVG Version: 6.00 Build 0)  -->
<!DOCTYPE svg PUBLIC "-//W3C//DTD SVG 1.1//EN" "http://www.w3.org/Graphics/SVG/1.1/DTD/svg11.dtd">
<svg version="1.1" id="Layer_1" xmlns="http://www.w3.org/2000/svg" xmlns:xlink="http://www.w3.org/1999/xlink" x="0px" y="0px"
	 width="800px" height="540px" viewBox="0 -72.348 800 540" enable-background="new 0 -72.348 800 540" xml:space="preserve">
<g>
	<g>
		<path fill="#0086CB" d="M310.85,362.877c-10.171,0-19.362,4.104-26.041,10.783c-6.678,6.679-10.784,15.869-10.784,26.041
			c0,10.171,4.105,19.361,10.784,26.04c6.679,6.679,15.87,10.783,26.041,10.783s19.362-4.104,25.979-10.783
			c6.679-6.679,10.784-15.869,10.784-26.04c0-10.172-4.105-19.362-10.784-26.041S320.96,362.877,310.85,362.877 M339.832,370.659
			L339.832,370.659 M310.85,358.404c22.793,0,41.236,18.443,41.236,41.236s-18.443,41.235-41.236,41.235
			s-41.236-18.442-41.236-41.235C269.553,376.909,288.057,358.404,310.85,358.404 M281.808,370.659L281.808,370.659"/>
		<path fill="#0086CB" d="M291.305,399.333c0-2.39-1.593-3.799-3.86-3.799h-1.409v7.536h1.348
			C289.528,403.132,291.305,401.968,291.305,399.333 M315.936,402.03l-10.171,8.026l-9.313-7.353
			c-1.348,3.247-4.595,5.453-8.333,5.453h-7.965v-17.769h7.965c4.166,0,7.168,2.635,8.333,5.453l9.313-7.353l3.431,2.695
			l-8.517,6.74l1.654,1.287l8.517-6.679l3.431,2.695l-8.517,6.679l1.654,1.287l8.517-6.679v-6.127h6.188v12.561h6.188v5.208h-12.377
			V402.03z M336.094,403.01h6.188v5.208h-12.377V390.45h6.188V403.01z"/>
		<rect x="415.562" y="358.649" fill="#ADB2B7" width="2.084" height="82.533"/>
	</g>
	<g>
		<g>
			<polygon fill="#00AEEF" points="510.718,398.843 546.377,398.843 546.377,367.167 510.718,372.19 			"/>
			<polygon fill="#00AEEF" points="509.614,398.843 509.614,372.313 482.287,376.173 482.287,398.843 			"/>
			<polygon fill="#00AEEF" points="509.614,399.885 482.287,399.885 482.287,422.555 509.614,426.354 			"/>
			<polygon fill="#00AEEF" points="510.718,399.885 510.718,426.539 546.377,431.501 546.377,399.885 			"/>
		</g>
		<g>
			<path fill="#00AEEF" d="M623.273,382.667c0,0.797-0.307,1.471-0.858,2.022c-0.552,0.551-1.226,0.796-2.021,0.796
				c-0.797,0-1.471-0.245-2.022-0.796c-0.552-0.49-0.796-1.226-0.796-2.083c0-0.735,0.244-1.41,0.796-1.961
				c0.552-0.552,1.226-0.858,2.022-0.858c0.796,0,1.47,0.245,2.021,0.797C623.028,381.197,623.273,381.872,623.273,382.667z"/>
		</g>
		<g>
			<path fill="#00AEEF" d="M614.756,380.646l-10.722,38.05h-5.208l-8.456-30.146h-0.122l-8.456,30.146h-5.146l-11.09-38.05h4.84
				l8.762,31.738h0.123l9.129-31.738h4.289l8.64,31.861h0.122l8.456-31.861H614.756z"/>
			<path fill="#00AEEF" d="M622.66,418.696h-4.351v-27.144h4.351V418.696z"/>
			<path fill="#00AEEF" d="M651.642,418.696h-4.351v-15.502c0-5.76-2.083-8.64-6.311-8.64c-2.145,0-3.922,0.797-5.331,2.451
				c-1.409,1.593-2.145,3.676-2.145,6.188v15.502h-4.35v-27.144h4.35v4.534h0.123c2.021-3.432,4.963-5.147,8.884-5.147
				c3.003,0,5.27,0.98,6.802,2.941c1.531,1.961,2.328,4.718,2.328,8.271V418.696L651.642,418.696z"/>
			<path fill="#00AEEF" d="M681.48,418.696h-4.35V414.1h-0.123c-2.021,3.492-5.085,5.27-9.313,5.27
				c-3.431,0-6.127-1.226-8.148-3.677c-2.022-2.45-3.063-5.76-3.063-9.864c0-4.473,1.103-8.088,3.369-10.846
				c2.268-2.695,5.27-4.104,9.008-4.104c3.676,0,6.372,1.471,8.087,4.411h0.123v-16.788h4.351v40.194H681.48z M677.131,406.379
				v-3.982c0-2.267-0.735-4.105-2.206-5.575c-1.471-1.471-3.309-2.206-5.453-2.206c-2.635,0-4.656,0.98-6.188,2.88
				c-1.532,1.961-2.328,4.595-2.328,8.026c0,3.125,0.735,5.576,2.145,7.414c1.471,1.838,3.37,2.695,5.82,2.695
				c2.39,0,4.351-0.857,5.882-2.573C676.396,411.282,677.131,409.076,677.131,406.379z"/>
			<path fill="#00AEEF" d="M713.587,404.97c0,4.289-1.226,7.782-3.676,10.416c-2.451,2.635-5.698,3.922-9.804,3.922
				c-3.982,0-7.169-1.287-9.559-3.86s-3.554-5.943-3.554-10.109c0-4.473,1.226-8.026,3.677-10.661
				c2.45-2.635,5.82-3.922,10.109-3.922c4.044,0,7.169,1.287,9.436,3.799C712.484,397.127,713.587,400.621,713.587,404.97z
				 M709.176,405.155c0-3.432-0.735-6.005-2.268-7.843c-1.531-1.839-3.676-2.758-6.434-2.758c-2.757,0-4.963,0.919-6.617,2.818
				c-1.593,1.839-2.45,4.474-2.45,7.904c0,3.247,0.796,5.821,2.45,7.598c1.654,1.838,3.799,2.757,6.617,2.757
				s4.963-0.919,6.495-2.695C708.44,411.098,709.176,408.524,709.176,405.155z"/>
			<path fill="#00AEEF" d="M752.923,391.491l-8.088,27.144h-4.473l-6.065-21.077h-0.123l-6.556,21.077h-4.351l-8.148-27.144h4.534
				l5.943,21.874h0.184l6.679-21.874h3.982l6.005,21.874h0.184l5.943-21.874H752.923z"/>
			<path fill="#00AEEF" d="M771.305,411.404c0,2.328-0.919,4.289-2.696,5.698c-1.776,1.471-4.228,2.206-7.168,2.206
				c-2.574,0-4.779-0.552-6.679-1.654v-4.656c2.145,1.715,4.473,2.573,7.046,2.573c3.432,0,5.146-1.287,5.146-3.799
				c0-1.042-0.306-1.839-0.98-2.513c-0.674-0.674-2.205-1.531-4.595-2.635c-2.39-1.041-4.105-2.145-5.086-3.309
				s-1.471-2.757-1.471-4.656c0-2.268,0.92-4.105,2.696-5.637c1.777-1.532,4.105-2.268,6.862-2.268c2.145,0,4.044,0.429,5.76,1.287
				v4.35c-1.777-1.286-3.799-1.96-6.127-1.96c-1.409,0-2.573,0.367-3.432,1.041c-0.857,0.735-1.286,1.594-1.286,2.758
				c0,1.226,0.306,2.145,0.979,2.757c0.675,0.674,2.022,1.409,4.167,2.268c2.573,1.103,4.351,2.267,5.392,3.431
				C770.753,408.095,771.305,409.566,771.305,411.404z"/>
		</g>
	</g>
	<g>
		<path fill="#353535" d="M46.158,393.88c0,2.635-0.858,4.596-2.635,6.005s-4.289,2.083-7.536,2.083H31.82v11.151h-1.899v-27.021
			h6.617C42.972,386.099,46.158,388.672,46.158,393.88 M31.82,400.314h3.737c3.063,0,5.27-0.49,6.617-1.532
			c1.348-0.979,2.022-2.634,2.022-4.901c0-2.083-0.613-3.615-1.899-4.656c-1.287-0.98-3.248-1.532-5.943-1.532h-4.473v12.622H31.82z
			"/>
		<path fill="#353535" d="M74.771,399.579c0,4.289-1.042,7.659-3.186,10.171c-2.145,2.513-5.085,3.737-8.884,3.737
			c-3.738,0-6.74-1.225-8.823-3.737c-2.145-2.512-3.186-5.882-3.186-10.232c0-4.289,1.103-7.658,3.247-10.171
			c2.145-2.451,5.147-3.676,8.885-3.676c3.799,0,6.74,1.225,8.823,3.737C73.73,391.859,74.771,395.29,74.771,399.579
			 M52.652,399.579c0,3.86,0.858,6.862,2.574,8.945c1.715,2.084,4.228,3.187,7.414,3.187c3.248,0,5.76-1.042,7.475-3.125
			c1.716-2.083,2.573-5.085,2.573-9.007c0-3.921-0.857-6.862-2.573-8.945c-1.715-2.083-4.167-3.125-7.414-3.125
			c-3.187,0-5.698,1.042-7.414,3.125C53.51,392.716,52.652,395.718,52.652,399.579"/>
		<path fill="#353535" d="M102.527,413.12h-1.532l-5.943-20.832c-0.49-1.716-0.858-3.125-1.103-4.228
			c-0.184,1.041-0.49,2.328-0.857,3.676c-0.368,1.409-2.329,8.517-5.943,21.384h-1.593l-7.414-27.021h1.96L84.82,403.5
			c0.184,0.674,0.368,1.348,0.49,1.96c0.184,0.613,0.307,1.164,0.429,1.654c0.122,0.552,0.245,1.042,0.367,1.532
			s0.184,0.98,0.307,1.471c0.306-1.654,0.919-4.229,1.899-7.659l4.595-16.421h2.083l5.392,18.811
			c0.613,2.145,1.103,3.921,1.348,5.27c0.184-0.858,0.368-1.839,0.613-2.818c0.245-0.98,2.145-8.088,5.698-21.262h1.899
			L102.527,413.12z"/>
		<polygon fill="#353535" points="129.487,413.12 114.72,413.12 114.72,386.099 129.487,386.099 129.487,387.815 116.62,387.815 
			116.62,398.047 128.751,398.047 128.751,399.762 116.62,399.762 116.62,411.404 129.487,411.404 		"/>
		<path fill="#353535" d="M137.513,401.356v11.764h-1.899v-27.021h6.434c3.37,0,5.821,0.612,7.414,1.838
			c1.593,1.226,2.39,3.125,2.39,5.576c0,1.838-0.49,3.309-1.41,4.595c-0.98,1.226-2.389,2.145-4.35,2.696l7.353,12.315h-2.267
			l-6.985-11.764H137.513z M137.513,399.702h5.147c2.267,0,4.044-0.49,5.331-1.532c1.226-1.042,1.899-2.512,1.899-4.473
			c0-2.083-0.613-3.554-1.838-4.473c-1.226-0.919-3.248-1.409-6.005-1.409h-4.473v11.887H137.513z"/>
		<polygon fill="#353535" points="172.867,413.12 158.101,413.12 158.101,386.099 172.867,386.099 172.867,387.815 160,387.815 
			160,398.047 172.132,398.047 172.132,399.762 160,399.762 160,411.404 172.867,411.404 		"/>
		<path fill="#353535" d="M199.52,399.333c0,4.534-1.164,7.966-3.554,10.294s-5.882,3.492-10.478,3.492h-6.495v-27.021h7.291
			c4.289,0,7.598,1.103,9.865,3.37C198.356,391.736,199.52,395.044,199.52,399.333 M197.437,399.395c0-3.86-0.98-6.802-2.941-8.701
			c-1.96-1.96-4.84-2.94-8.639-2.94h-4.963v23.712h4.473C193.393,411.465,197.437,407.421,197.437,399.395"/>
		<path fill="#353535" d="M215.512,386.099h7.414c3.309,0,5.759,0.552,7.353,1.716c1.593,1.164,2.328,2.818,2.328,5.146
			c0,1.593-0.49,2.88-1.409,3.921c-0.98,1.042-2.328,1.716-4.167,2.022v0.122c2.145,0.307,3.738,0.98,4.779,2.022
			c1.042,1.041,1.532,2.512,1.532,4.351c0,2.512-0.796,4.411-2.451,5.759c-1.654,1.349-3.983,2.022-7.046,2.022h-8.271v-27.082
			H215.512z M217.411,398.108h5.943c2.512,0,4.351-0.429,5.515-1.286c1.164-0.858,1.715-2.145,1.715-3.983
			c0-1.776-0.674-3.124-1.96-3.921s-3.248-1.226-5.821-1.226h-5.392V398.108z M217.411,399.762v11.642h6.373
			c5.024,0,7.475-2.021,7.475-6.127c0-3.737-2.635-5.575-7.904-5.575h-5.943V399.762z"/>
		<polygon fill="#353535" points="245.474,400.866 253.377,386.099 255.399,386.099 246.393,402.704 246.393,413.12 244.493,413.12 
			244.493,402.826 235.425,386.099 237.631,386.099 		"/>
	</g>
	<g>
		<path fill="#353535" d="M47.567,249.954c0.858,0.368,1.593,0.858,2.206,1.471c0.613,0.613,1.103,1.348,1.471,2.206
			c0.368,0.857,0.551,1.716,0.551,2.695v33.332c0,0.307-0.123,0.552-0.306,0.797c-0.245,0.245-0.49,0.306-0.796,0.306H42.42
			c-0.306,0-0.551-0.122-0.735-0.306c-0.184-0.245-0.307-0.49-0.307-0.797v-30.207h-6.617v30.207c0,0.307-0.123,0.552-0.306,0.797
			c-0.184,0.245-0.429,0.306-0.797,0.306h-7.414c-0.307,0-0.552-0.122-0.797-0.306c-0.245-0.245-0.306-0.49-0.306-0.797v-30.207
			h-6.679v30.207c0,0.735-0.368,1.103-1.103,1.103H9.211c-0.735,0-1.103-0.367-1.103-1.103v-39.152c0-0.735,0.367-1.103,1.103-1.103
			h35.66C45.79,249.403,46.709,249.586,47.567,249.954"/>
		<path fill="#353535" d="M88.925,249.403c0.919,0,1.838,0.184,2.696,0.551c0.858,0.368,1.593,0.858,2.206,1.471
			c0.613,0.613,1.103,1.348,1.471,2.206c0.368,0.857,0.551,1.716,0.551,2.695v33.332c0,0.307-0.123,0.613-0.306,0.797
			c-0.245,0.245-0.49,0.306-0.796,0.306h-8.21c-0.307,0-0.552-0.122-0.796-0.306c-0.245-0.245-0.307-0.49-0.307-0.797v-10.6
			c0-0.307-0.123-0.552-0.306-0.797c-0.184-0.245-0.429-0.307-0.797-0.307H72.627c-0.306,0-0.551,0.123-0.796,0.307
			c-0.245,0.245-0.307,0.49-0.307,0.797v10.6c0,0.735-0.368,1.103-1.103,1.103h-8.21c-0.735,0-1.103-0.367-1.103-1.103v-33.332
			c0-0.919,0.184-1.838,0.551-2.695c0.368-0.858,0.858-1.593,1.471-2.206c0.613-0.612,1.348-1.103,2.206-1.471
			c0.858-0.367,1.716-0.551,2.696-0.551H88.925z M85.372,258.655H71.463v10.416h13.909V258.655z"/>
		<path fill="#353535" d="M133.102,249.708c0.245,0.245,0.307,0.49,0.307,0.797v33.332c0,0.919-0.184,1.838-0.551,2.695
			c-0.368,0.858-0.858,1.594-1.471,2.206s-1.348,1.103-2.206,1.471c-0.858,0.367-1.716,0.551-2.696,0.551h-17.83
			c-0.919,0-1.838-0.184-2.696-0.551c-0.858-0.368-1.593-0.858-2.206-1.471s-1.103-1.348-1.471-2.206
			c-0.368-0.857-0.551-1.716-0.551-2.695v-12.684c0-0.735,0.368-1.103,1.103-1.103h8.149c0.735,0,1.103,0.367,1.103,1.103v8.455
			c0,0.307,0.122,0.552,0.306,0.797c0.245,0.184,0.49,0.307,0.796,0.307h8.578c0.306,0,0.613-0.123,0.796-0.307
			c0.245-0.184,0.307-0.429,0.307-0.797v-29.165c0-0.306,0.123-0.612,0.306-0.796c0.184-0.245,0.429-0.307,0.796-0.307h8.272
			C132.612,249.403,132.857,249.525,133.102,249.708"/>
		<path fill="#353535" d="M170.478,249.403c0.919,0,1.838,0.184,2.696,0.551c0.858,0.368,1.593,0.858,2.206,1.471
			c0.613,0.613,1.103,1.348,1.471,2.206c0.368,0.857,0.551,1.716,0.551,2.695v27.572c0,0.919-0.184,1.839-0.551,2.696
			s-0.858,1.593-1.471,2.206c-0.612,0.612-1.348,1.103-2.206,1.471c-0.858,0.367-1.716,0.551-2.696,0.551h-20.955
			c-0.919,0-1.838-0.184-2.696-0.551c-0.858-0.368-1.593-0.858-2.206-1.471c-0.612-0.613-1.103-1.349-1.47-2.206
			s-0.552-1.716-0.552-2.696v-27.572c0-0.919,0.184-1.838,0.552-2.695c0.368-0.858,0.858-1.593,1.47-2.206
			c0.613-0.612,1.348-1.103,2.206-1.471c0.858-0.367,1.777-0.551,2.696-0.551H170.478z M166.924,259.451h-13.909v21.322h13.909
			V259.451z"/>
		<path fill="#353535" d="M222.742,289.841c0.184,0.307,0.184,0.49,0.062,0.674c-0.123,0.185-0.307,0.245-0.674,0.245h-9.375
			c-0.306,0-0.612-0.061-0.919-0.245c-0.306-0.184-0.551-0.429-0.735-0.674l-6.25-11.212c-0.061-0.185-0.245-0.245-0.429-0.245
			h-7.046c-0.184,0-0.306,0.122-0.306,0.306v11.029c0,0.735-0.368,1.103-1.103,1.103h-8.149c-0.735,0-1.103-0.367-1.103-1.103
			v-39.152c0-0.735,0.368-1.104,1.103-1.104h26.714c0.919,0,1.838,0.185,2.696,0.552c0.858,0.368,1.593,0.857,2.206,1.471
			c0.613,0.612,1.103,1.348,1.471,2.206c0.368,0.857,0.551,1.715,0.551,2.695v15.563c0,1.47-0.429,2.88-1.348,4.044
			c-0.858,1.225-2.022,2.021-3.432,2.45l-0.184,0.062c-0.245,0.062-0.306,0.184-0.184,0.368l0.061,0.122L222.742,289.841z
			 M210.978,259.022h-14.276v10.049h14.276V259.022z"/>
		<path fill="#353535" d="M278.56,280.712c0.306,0,0.551,0.122,0.796,0.306c0.184,0.245,0.307,0.49,0.307,0.797v7.781
			c0,0.307-0.123,0.552-0.307,0.797c-0.184,0.245-0.429,0.307-0.796,0.307h-25.55c-0.735,0-1.103-0.368-1.103-1.104v-39.152
			c0-0.735,0.368-1.103,1.103-1.103h8.149c0.735,0,1.103,0.367,1.103,1.103v29.165c0,0.307,0.123,0.552,0.307,0.797
			c0.245,0.184,0.49,0.307,0.796,0.307H278.56z"/>
		<path fill="#353535" d="M316.732,249.708c0.184,0.245,0.306,0.49,0.306,0.797v3.37v1.776v2.328c0,0.307-0.123,0.552-0.306,0.797
			c-0.245,0.184-0.49,0.307-0.797,0.307h-4.228h-12.315h-3.309c-0.184,0-0.306,0.122-0.306,0.307v6.433
			c0,0.185,0.123,0.245,0.306,0.245h16.911c0.306,0,0.551,0.123,0.735,0.307c0.184,0.245,0.306,0.49,0.306,0.797v5.943
			c0,0.306-0.123,0.551-0.306,0.796c-0.184,0.245-0.429,0.307-0.735,0.307h-16.911c-0.184,0-0.306,0.123-0.306,0.307v2.88v0.061
			v3.432c0,0.184,0.123,0.307,0.306,0.307h2.512h13.357h3.982c0.307,0,0.552,0.122,0.797,0.306c0.184,0.245,0.306,0.49,0.306,0.797
			v2.39v3.063v1.961c0,0.307-0.123,0.552-0.306,0.796c-0.245,0.245-0.49,0.307-0.797,0.307h-3.37h-22.487h-3.554
			c-0.735,0-1.103-0.367-1.103-1.103v-2.022v-34.312v-2.818c0-0.307,0.123-0.613,0.307-0.797c0.245-0.245,0.49-0.307,0.796-0.307
			h4.289h23.161h1.899C316.242,249.403,316.487,249.525,316.732,249.708"/>
		<path fill="#353535" d="M354.23,249.403c0.919,0,1.838,0.184,2.696,0.551c0.858,0.368,1.593,0.858,2.206,1.471
			c0.613,0.613,1.103,1.348,1.471,2.206c0.368,0.857,0.551,1.716,0.551,2.695v33.332c0,0.307-0.123,0.613-0.306,0.797
			c-0.245,0.245-0.49,0.306-0.796,0.306h-8.21c-0.307,0-0.613-0.122-0.797-0.306c-0.245-0.245-0.306-0.49-0.306-0.797v-10.6
			c0-0.307-0.123-0.552-0.306-0.797c-0.184-0.245-0.429-0.307-0.797-0.307h-11.703c-0.306,0-0.551,0.123-0.796,0.307
			c-0.245,0.245-0.307,0.49-0.307,0.797v10.6c0,0.735-0.368,1.103-1.103,1.103h-8.149c-0.735,0-1.103-0.367-1.103-1.103v-33.332
			c0-0.919,0.184-1.838,0.552-2.695c0.368-0.858,0.858-1.593,1.47-2.206c0.613-0.612,1.348-1.103,2.206-1.471
			c0.858-0.367,1.777-0.551,2.696-0.551H354.23z M350.677,258.655h-13.909v10.416h13.909V258.655z"/>
		<path fill="#353535" d="M404.841,268.519c0.245,0.245,0.306,0.49,0.306,0.797v14.521c0,0.919-0.184,1.838-0.551,2.695
			c-0.368,0.858-0.858,1.594-1.471,2.206c-0.613,0.612-1.348,1.103-2.206,1.471c-0.857,0.367-1.715,0.551-2.696,0.551H377.33
			c-0.919,0-1.838-0.184-2.696-0.551c-0.858-0.368-1.593-0.858-2.206-1.471s-1.103-1.348-1.47-2.206
			c-0.368-0.857-0.552-1.716-0.552-2.695v-27.572c0-0.919,0.184-1.839,0.552-2.696s0.857-1.593,1.47-2.206
			c0.613-0.612,1.348-1.103,2.206-1.47c0.857-0.368,1.777-0.552,2.696-0.552h24.448c0.306,0,0.612,0.122,0.796,0.307
			c0.245,0.245,0.307,0.49,0.307,0.796v7.781c0,0.307-0.123,0.552-0.307,0.797c-0.245,0.245-0.49,0.307-0.796,0.307h-19.791
			c-0.307,0-0.552,0.122-0.797,0.307c-0.245,0.184-0.306,0.429-0.306,0.796v19.178c0,0.307,0.123,0.552,0.306,0.797
			c0.245,0.184,0.49,0.307,0.797,0.307h11.703c0.307,0,0.552-0.123,0.735-0.307s0.306-0.429,0.306-0.797v-10.354
			c0-0.307,0.123-0.552,0.307-0.797c0.245-0.245,0.49-0.306,0.796-0.306h8.21C404.351,268.212,404.656,268.335,404.841,268.519"/>
		<path fill="#353535" d="M448.527,249.708c0.184,0.245,0.306,0.49,0.306,0.797v33.332c0,0.919-0.184,1.838-0.551,2.695
			c-0.368,0.858-0.858,1.594-1.471,2.206c-0.613,0.612-1.349,1.103-2.206,1.471c-0.857,0.367-1.776,0.551-2.696,0.551h-20.954
			c-0.919,0-1.839-0.184-2.696-0.551c-0.857-0.368-1.593-0.858-2.206-1.471c-0.612-0.612-1.103-1.348-1.47-2.206
			c-0.368-0.857-0.552-1.716-0.552-2.695v-33.332c0-0.735,0.367-1.103,1.103-1.103h8.149c0.735,0,1.103,0.367,1.103,1.103v29.165
			c0,0.307,0.123,0.552,0.307,0.797c0.245,0.184,0.49,0.306,0.797,0.306h11.702c0.307,0,0.552-0.122,0.797-0.306
			c0.184-0.184,0.307-0.429,0.307-0.797v-29.165c0-0.307,0.122-0.612,0.306-0.797c0.245-0.245,0.49-0.306,0.797-0.306h8.21
			C448.037,249.403,448.282,249.525,448.527,249.708"/>
		<path fill="#353535" d="M489.518,249.708c0.184,0.245,0.307,0.49,0.307,0.797v3.37v1.776v2.328c0,0.307-0.123,0.552-0.307,0.797
			c-0.245,0.184-0.49,0.307-0.797,0.307h-4.228h-12.315h-3.309c-0.184,0-0.307,0.122-0.307,0.307v6.433
			c0,0.185,0.123,0.245,0.307,0.245h16.911c0.306,0,0.551,0.123,0.735,0.307c0.184,0.245,0.306,0.49,0.306,0.797v5.943
			c0,0.306-0.122,0.551-0.306,0.796c-0.185,0.245-0.43,0.307-0.735,0.307h-16.911c-0.184,0-0.307,0.123-0.307,0.307v2.88v0.061
			v3.432c0,0.184,0.123,0.307,0.307,0.307h2.512h13.357h3.982c0.307,0,0.552,0.122,0.797,0.306c0.184,0.245,0.307,0.49,0.307,0.797
			v2.39v3.063v1.961c0,0.307-0.123,0.552-0.307,0.796c-0.245,0.245-0.49,0.307-0.797,0.307h-3.369h-22.487h-3.554
			c-0.735,0-1.103-0.367-1.103-1.103v-2.022v-34.312v-2.818c0-0.307,0.122-0.613,0.307-0.797c0.245-0.245,0.489-0.307,0.796-0.307
			h4.289h23.161h1.899C489.027,249.403,489.272,249.525,489.518,249.708"/>
		<path fill="#353535" d="M552.995,249.403c0.306,0,0.551,0.122,0.796,0.306c0.245,0.245,0.307,0.49,0.307,0.797v39.152
			c0,0.307-0.123,0.552-0.307,0.797c-0.245,0.245-0.49,0.306-0.796,0.306h-8.211c-0.307,0-0.552-0.122-0.797-0.306
			c-0.244-0.245-0.306-0.49-0.306-0.797v-13.663c0-0.307-0.123-0.552-0.307-0.797c-0.184-0.184-0.429-0.307-0.797-0.307h-11.702
			c-0.307,0-0.552,0.123-0.797,0.307s-0.307,0.429-0.307,0.797v13.663c0,0.735-0.367,1.103-1.103,1.103h-8.149
			c-0.735,0-1.103-0.367-1.103-1.103v-39.152c0-0.735,0.367-1.103,1.103-1.103h8.149c0.735,0,1.103,0.367,1.103,1.103v13.234
			c0,0.735,0.368,1.104,1.104,1.104h11.702c0.307,0,0.552-0.123,0.797-0.307c0.184-0.245,0.307-0.49,0.307-0.797v-13.234
			c0-0.307,0.122-0.552,0.306-0.797c0.245-0.245,0.49-0.306,0.797-0.306H552.995z"/>
		<path fill="#353535" d="M591.289,249.403c0.919,0,1.839,0.184,2.696,0.551c0.857,0.368,1.593,0.858,2.206,1.471
			c0.612,0.613,1.103,1.348,1.47,2.206c0.368,0.857,0.552,1.716,0.552,2.695v33.332c0,0.307-0.122,0.613-0.307,0.797
			c-0.245,0.245-0.49,0.306-0.796,0.306h-8.211c-0.306,0-0.551-0.122-0.796-0.306c-0.245-0.245-0.307-0.49-0.307-0.797v-10.6
			c0-0.307-0.123-0.552-0.307-0.797s-0.429-0.307-0.796-0.307h-11.703c-0.307,0-0.613,0.123-0.797,0.307
			c-0.245,0.245-0.306,0.49-0.306,0.797v10.6c0,0.735-0.368,1.103-1.104,1.103h-8.148c-0.735,0-1.104-0.367-1.104-1.103v-33.332
			c0-0.919,0.184-1.838,0.552-2.695c0.367-0.858,0.857-1.593,1.471-2.206c0.612-0.612,1.348-1.103,2.205-1.471
			c0.858-0.367,1.716-0.551,2.696-0.551H591.289z M587.735,258.655h-13.908v10.416h13.908V258.655z"/>
		<path fill="#353535" d="M618.126,259.757c-0.245,0.184-0.307,0.429-0.307,0.797v19.178c0,0.307,0.123,0.552,0.307,0.797
			c0.245,0.184,0.49,0.306,0.797,0.306h18.994c0.307,0,0.612,0.123,0.796,0.307c0.245,0.245,0.307,0.49,0.307,0.797v7.781
			c0,0.307-0.122,0.612-0.307,0.796c-0.244,0.245-0.489,0.307-0.796,0.307H625.54h-10.171h-1.042c-0.919,0-1.838-0.184-2.695-0.551
			c-0.858-0.368-1.594-0.858-2.206-1.471c-0.613-0.613-1.104-1.349-1.471-2.206s-0.552-1.777-0.552-2.696v-1.041v-4.289V264.72
			v-3.86v-4.534c0-0.919,0.185-1.838,0.552-2.695c0.367-0.858,0.857-1.593,1.471-2.206c0.612-0.612,1.348-1.103,2.206-1.471
			c0.857-0.367,1.715-0.551,2.695-0.551h1.042h22.548c0.307,0,0.612,0.122,0.796,0.306c0.245,0.245,0.307,0.49,0.307,0.797v7.781
			c0,0.307-0.122,0.552-0.307,0.797c-0.244,0.245-0.489,0.307-0.796,0.307h-18.994C618.616,259.451,618.371,259.574,618.126,259.757
			"/>
		<path fill="#353535" d="M671.983,266.865c-0.122,0.123-0.122,0.245-0.061,0.429l13.847,22.609c0.123,0.307,0.184,0.49,0.062,0.674
			s-0.307,0.245-0.674,0.245h-9.804c-0.307,0-0.612-0.062-0.919-0.245s-0.552-0.429-0.735-0.674l-8.945-16.176
			c-0.123-0.184-0.245-0.245-0.307-0.062l-4.901,5.393c-0.184,0.184-0.368,0.49-0.49,0.857c-0.123,0.368-0.184,0.735-0.184,1.042
			v8.762c0,0.735-0.368,1.103-1.104,1.103h-8.148c-0.735,0-1.104-0.367-1.104-1.103v-39.152c0-0.735,0.368-1.104,1.104-1.104h8.148
			c0.735,0,1.104,0.368,1.104,1.104v17.585l15.256-17.892c0.185-0.245,0.49-0.429,0.858-0.612c0.367-0.185,0.674-0.245,0.98-0.245
			h9.803c0.307,0,0.49,0.061,0.552,0.245c0.062,0.184,0,0.367-0.245,0.612L671.983,266.865z"/>
		<path fill="#353535" d="M703.845,289.658c0,0.735-0.367,1.103-1.103,1.103h-8.149c-0.735,0-1.103-0.367-1.103-1.103v-39.152
			c0-0.735,0.367-1.103,1.103-1.103h8.149c0.735,0,1.103,0.367,1.103,1.103V289.658z"/>
		<path fill="#353535" d="M743.732,249.954c0.858,0.368,1.593,0.858,2.206,1.471c0.612,0.613,1.103,1.348,1.471,2.206
			c0.367,0.857,0.551,1.716,0.551,2.695v33.332c0,0.307-0.122,0.552-0.306,0.797c-0.245,0.245-0.49,0.306-0.797,0.306h-8.21
			c-0.307,0-0.552-0.122-0.797-0.306c-0.184-0.245-0.307-0.49-0.307-0.797v-29.165c0-0.307-0.122-0.552-0.307-0.797
			c-0.244-0.184-0.489-0.306-0.796-0.306h-11.703c-0.307,0-0.612,0.122-0.797,0.306c-0.244,0.185-0.306,0.429-0.306,0.797v29.165
			c0,0.735-0.368,1.103-1.104,1.103h-8.148c-0.735,0-1.104-0.367-1.104-1.103v-39.152c0-0.735,0.368-1.103,1.104-1.103h26.714
			C741.956,249.403,742.875,249.586,743.732,249.954"/>
		<path fill="#353535" d="M791.586,268.519c0.245,0.245,0.306,0.49,0.306,0.797v14.521c0,0.919-0.184,1.838-0.551,2.695
			c-0.368,0.858-0.858,1.594-1.471,2.206c-0.613,0.612-1.349,1.103-2.206,1.471c-0.857,0.367-1.716,0.551-2.696,0.551h-20.954
			c-0.919,0-1.839-0.184-2.696-0.551c-0.857-0.368-1.593-0.858-2.206-1.471c-0.612-0.612-1.103-1.348-1.47-2.206
			c-0.368-0.857-0.552-1.716-0.552-2.695v-27.572c0-0.919,0.184-1.839,0.552-2.696c0.367-0.857,0.857-1.593,1.47-2.206
			c0.613-0.612,1.349-1.103,2.206-1.47c0.857-0.368,1.777-0.552,2.696-0.552h24.447c0.306,0,0.551,0.122,0.796,0.307
			c0.245,0.245,0.307,0.49,0.307,0.796v7.781c0,0.307-0.122,0.552-0.307,0.797c-0.245,0.245-0.49,0.307-0.796,0.307H768.67
			c-0.307,0-0.552,0.122-0.797,0.307c-0.245,0.184-0.306,0.429-0.306,0.796v19.178c0,0.307,0.122,0.552,0.306,0.797
			c0.245,0.184,0.49,0.307,0.797,0.307h11.703c0.306,0,0.551-0.123,0.735-0.307c0.184-0.184,0.306-0.429,0.306-0.797v-10.354
			c0-0.307,0.123-0.552,0.307-0.797c0.245-0.245,0.49-0.306,0.797-0.306h8.21C791.156,268.212,791.401,268.335,791.586,268.519"/>
	</g>
	<g>
		<g>
			<path fill="#C53C02" d="M257.544-35.63c5.331,2.39,9.987,5.453,13.848,9.313c3.86,3.86,6.985,8.456,9.374,13.786
				c2.39,5.331,3.554,11.029,3.554,16.972v217.206c0,2.021-0.674,3.676-2.083,5.023c-1.348,1.349-3.063,2.084-5.024,2.084h-51.958
				c-2.022,0-3.615-0.675-4.84-2.084c-1.226-1.348-1.899-3.063-1.899-5.023V24.232h-41.848v197.476c0,2.022-0.613,3.677-1.838,5.024
				s-2.88,2.083-4.84,2.083H122.87c-2.022,0-3.676-0.674-5.024-2.083c-1.348-1.348-2.083-3.063-2.083-5.024V24.232H73.914v197.476
				c0,4.718-2.39,7.107-7.107,7.107H15.154c-4.718,0-7.107-2.39-7.107-7.107V-32.077c0-4.718,2.39-7.107,7.107-7.107h225.417
				C246.577-39.184,252.213-37.958,257.544-35.63"/>
			<path fill="#751B00" d="M257.544-35.63c5.331,2.39,9.987,5.453,13.848,9.313c3.86,3.86,6.985,8.456,9.374,13.786
				c2.39,5.331,3.554,11.029,3.554,16.972v19.362l-65.806,0.429h-41.848h-60.965H73.853L8.047,23.803v-55.88
				c0-4.718,2.39-7.107,7.107-7.107h225.417C246.577-39.184,252.213-37.958,257.544-35.63"/>
			<path fill="#265A8F" d="M510.84,163.747c2.083,0,3.799,0.735,5.146,2.083c1.349,1.409,1.961,3.125,1.961,5.147v50.547
				c0,2.022-0.674,3.799-1.961,5.146c-1.348,1.409-3.063,2.084-5.146,2.084H332.908c-5.024,0-7.536-2.451-7.536-7.292V-31.893
				c0-4.84,2.512-7.292,7.536-7.292h54.654c5.024,0,7.536,2.451,7.536,7.292v188.716c0,2.022,0.735,3.676,2.206,4.963
				c1.47,1.287,3.248,1.899,5.331,1.899H510.84V163.747z"/>
			<path fill="#162F51" d="M394.485,228.815h-61.639c-5.024,0-7.537-2.45-7.537-7.291V-31.893c0-4.84,2.512-7.292,7.537-7.292
				h54.531c5.024,0,7.537,2.451,7.537,7.292v188.716C394.915,158.907,394.485,228.815,394.485,228.815"/>
			<path fill="#FDEE00" d="M784.355-39.184c2.145,0,3.921,0.735,5.392,2.083c1.471,1.409,2.206,3.125,2.206,5.208v254.152
				c0,2.021-0.735,3.799-2.206,5.208s-3.247,2.083-5.392,2.083h-55.328c-2.145,0-3.921-0.674-5.392-2.083s-2.206-3.125-2.206-5.208
				v-88.658c0-2.022-0.674-3.738-2.021-4.963c-1.349-1.287-3.064-1.899-5.147-1.899H636.63c-2.145,0-3.921,0.612-5.392,1.899
				c-1.471,1.287-2.206,2.941-2.206,4.963v88.658c0,4.841-2.512,7.291-7.598,7.291h-54.96c-5.024,0-7.536-2.45-7.536-7.291V-31.893
				c0-4.84,2.512-7.292,7.536-7.292h54.96c5.024,0,7.598,2.451,7.598,7.292v86.025c0,4.841,2.513,7.292,7.537,7.292H714.2
				c2.144,0,3.859-0.674,5.146-2.083c1.348-1.409,2.021-3.125,2.021-5.208v-86.025c0-2.022,0.735-3.799,2.206-5.208
				s3.247-2.083,5.392-2.083H784.355z"/>
			<path fill="#ECC700" d="M629.094,133.602v88.658c0,4.841-2.512,7.291-7.536,7.291h-54.961c-5.024,0-7.536-2.45-7.536-7.291
				V-31.893c0-4.84,2.512-7.292,7.536-7.292h54.961c5.024,0,7.536,2.451,7.536,7.292v86.025V133.602z"/>
			<path fill="#ECC700" d="M784.355-39.184c2.145,0,3.921,0.735,5.392,2.083c1.471,1.409,2.206,3.125,2.206,5.208v254.152
				c0,2.021-0.735,3.799-2.206,5.208s-3.247,2.083-5.392,2.083h-55.328c-2.145,0-3.921-0.674-5.392-2.083s-2.206-3.125-2.206-5.208
				v-88.658V54.132v-86.025c0-2.022,0.735-3.799,2.206-5.208s3.247-2.083,5.392-2.083H784.355z"/>
		</g>
	</g>
</g>
</svg>
