<?xml version="1.0" encoding="utf-8"?>
<!-- Generator: Adobe Illustrator 16.0.0, SVG Export Plug-In . SVG Version: 6.00 Build 0)  -->
<!DOCTYPE svg PUBLIC "-//W3C//DTD SVG 1.1//EN" "http://www.w3.org/Graphics/SVG/1.1/DTD/svg11.dtd">
<svg version="1.1" id="Layer_1" xmlns="http://www.w3.org/2000/svg" xmlns:xlink="http://www.w3.org/1999/xlink" x="0px" y="0px"
	 width="800px" height="400.304px" viewBox="0 126.656 800 400.304" enable-background="new 0 126.656 800 400.304"
	 xml:space="preserve">
<g>
	<g>
		<path fill="#353535" d="M40.5,458.861c0.875,0.375,1.625,0.875,2.25,1.5s1.125,1.375,1.5,2.25s0.562,1.75,0.562,2.75v34
			c0,0.312-0.125,0.562-0.312,0.812c-0.25,0.25-0.5,0.312-0.812,0.312H35.25c-0.312,0-0.562-0.125-0.75-0.312
			c-0.188-0.25-0.312-0.5-0.312-0.812v-30.812h-6.75v30.812c0,0.312-0.125,0.562-0.312,0.812s-0.438,0.312-0.812,0.312H18.75
			c-0.312,0-0.562-0.125-0.812-0.312c-0.25-0.25-0.312-0.5-0.312-0.812v-30.812h-6.812v30.812c0,0.75-0.375,1.125-1.125,1.125H1.375
			c-0.75,0-1.125-0.375-1.125-1.125v-39.938c0-0.75,0.375-1.125,1.125-1.125H37.75C38.688,458.299,39.625,458.486,40.5,458.861"/>
		<path fill="#353535" d="M82.688,458.299c0.938,0,1.875,0.188,2.75,0.562s1.625,0.875,2.25,1.5s1.125,1.375,1.5,2.25
			s0.562,1.75,0.562,2.75v34c0,0.312-0.125,0.625-0.312,0.812c-0.25,0.25-0.5,0.312-0.812,0.312H80.25
			c-0.312,0-0.562-0.125-0.812-0.312c-0.25-0.25-0.312-0.5-0.312-0.812v-10.812c0-0.312-0.125-0.562-0.312-0.812
			s-0.438-0.312-0.812-0.312H66.062c-0.312,0-0.562,0.125-0.812,0.312c-0.25,0.25-0.312,0.5-0.312,0.812v10.812
			c0,0.75-0.375,1.125-1.125,1.125h-8.375c-0.75,0-1.125-0.375-1.125-1.125v-34c0-0.938,0.188-1.875,0.562-2.75
			s0.875-1.625,1.5-2.25s1.375-1.125,2.25-1.5s1.75-0.562,2.75-0.562H82.688L82.688,458.299z M79.062,467.736H64.875v10.625h14.188
			V467.736z"/>
		<path fill="#353535" d="M127.75,458.611c0.25,0.25,0.312,0.5,0.312,0.812v34c0,0.938-0.188,1.875-0.562,2.75
			s-0.875,1.625-1.5,2.25s-1.375,1.125-2.25,1.5s-1.75,0.562-2.75,0.562h-18.188c-0.938,0-1.875-0.188-2.75-0.562
			s-1.625-0.875-2.25-1.5s-1.125-1.375-1.5-2.25s-0.562-1.75-0.562-2.75v-12.938c0-0.75,0.375-1.125,1.125-1.125h8.312
			c0.75,0,1.125,0.375,1.125,1.125v8.625c0,0.312,0.125,0.562,0.312,0.812c0.25,0.188,0.5,0.312,0.812,0.312h8.75
			c0.312,0,0.625-0.125,0.812-0.312c0.25-0.188,0.312-0.438,0.312-0.812v-29.75c0-0.312,0.125-0.625,0.312-0.812
			c0.188-0.25,0.438-0.312,0.812-0.312h8.438C127.25,458.299,127.5,458.424,127.75,458.611"/>
		<path fill="#353535" d="M165.875,458.299c0.938,0,1.875,0.188,2.75,0.562s1.625,0.875,2.25,1.5s1.125,1.375,1.5,2.25
			s0.562,1.75,0.562,2.75v28.125c0,0.938-0.188,1.875-0.562,2.75s-0.875,1.625-1.5,2.25s-1.375,1.125-2.25,1.5
			s-1.75,0.562-2.75,0.562H144.5c-0.938,0-1.875-0.188-2.75-0.562s-1.625-0.875-2.25-1.5s-1.125-1.375-1.5-2.25
			s-0.562-1.75-0.562-2.75v-28.125c0-0.938,0.188-1.875,0.562-2.75s0.875-1.625,1.5-2.25s1.375-1.125,2.25-1.5
			s1.812-0.562,2.75-0.562H165.875z M162.25,468.549h-14.188v21.75h14.188V468.549z"/>
		<path fill="#353535" d="M219.188,499.549c0.188,0.312,0.188,0.5,0.062,0.688s-0.312,0.25-0.688,0.25H209
			c-0.312,0-0.625-0.062-0.938-0.25s-0.562-0.438-0.75-0.688l-6.375-11.438c-0.062-0.188-0.25-0.25-0.438-0.25h-7.188
			c-0.188,0-0.312,0.125-0.312,0.312v11.25c0,0.75-0.375,1.125-1.125,1.125h-8.312c-0.75,0-1.125-0.375-1.125-1.125v-39.938
			c0-0.75,0.375-1.125,1.125-1.125h27.25c0.938,0,1.875,0.188,2.75,0.562s1.625,0.875,2.25,1.5s1.125,1.375,1.5,2.25
			s0.562,1.75,0.562,2.75v15.875c0,1.5-0.438,2.938-1.375,4.125c-0.875,1.25-2.062,2.062-3.5,2.5l-0.188,0.062
			c-0.25,0.062-0.312,0.188-0.188,0.375l0.062,0.125L219.188,499.549z M207.188,468.111h-14.562v10.25h14.562V468.111z"/>
		<path fill="#353535" d="M276.125,490.236c0.312,0,0.562,0.125,0.812,0.312c0.188,0.25,0.312,0.5,0.312,0.812v7.938
			c0,0.312-0.125,0.562-0.312,0.812s-0.438,0.312-0.812,0.312h-26.062c-0.75,0-1.125-0.375-1.125-1.125v-39.938
			c0-0.75,0.375-1.125,1.125-1.125h8.312c0.75,0,1.125,0.375,1.125,1.125v29.75c0,0.312,0.125,0.562,0.312,0.812
			c0.25,0.188,0.5,0.312,0.812,0.312H276.125z"/>
		<path fill="#353535" d="M315.062,458.611c0.188,0.25,0.312,0.5,0.312,0.812v3.438v1.812v2.375c0,0.312-0.125,0.562-0.312,0.812
			c-0.25,0.188-0.5,0.312-0.812,0.312h-4.312h-12.562H294c-0.188,0-0.312,0.125-0.312,0.312v6.562c0,0.188,0.125,0.25,0.312,0.25
			h17.25c0.312,0,0.562,0.125,0.75,0.312c0.188,0.25,0.312,0.5,0.312,0.812v6.062c0,0.312-0.125,0.562-0.312,0.812
			s-0.438,0.312-0.75,0.312H294c-0.188,0-0.312,0.125-0.312,0.312v2.938v0.062v3.5c0,0.188,0.125,0.312,0.312,0.312h2.562h13.625
			h4.062c0.312,0,0.562,0.125,0.812,0.312c0.188,0.25,0.312,0.5,0.312,0.812v2.438v3.125v2c0,0.312-0.125,0.562-0.312,0.812
			c-0.25,0.25-0.5,0.312-0.812,0.312h-3.438h-22.938h-3.625c-0.75,0-1.125-0.375-1.125-1.125v-2.062v-35v-2.875
			c0-0.312,0.125-0.625,0.312-0.812c0.25-0.25,0.5-0.312,0.812-0.312h4.375h23.625h1.938
			C314.562,458.299,314.812,458.424,315.062,458.611"/>
		<path fill="#353535" d="M353.312,458.299c0.938,0,1.875,0.188,2.75,0.562s1.625,0.875,2.25,1.5s1.125,1.375,1.5,2.25
			s0.562,1.75,0.562,2.75v34c0,0.312-0.125,0.625-0.312,0.812c-0.25,0.25-0.5,0.312-0.812,0.312h-8.375
			c-0.312,0-0.625-0.125-0.812-0.312c-0.25-0.25-0.312-0.5-0.312-0.812v-10.812c0-0.312-0.125-0.562-0.312-0.812
			s-0.438-0.312-0.812-0.312h-11.938c-0.312,0-0.562,0.125-0.812,0.312c-0.25,0.25-0.312,0.5-0.312,0.812v10.812
			c0,0.75-0.375,1.125-1.125,1.125h-8.312c-0.75,0-1.125-0.375-1.125-1.125v-34c0-0.938,0.188-1.875,0.562-2.75
			s0.875-1.625,1.5-2.25s1.375-1.125,2.25-1.5s1.812-0.562,2.75-0.562H353.312L353.312,458.299z M349.688,467.736H335.5v10.625
			h14.188V467.736z"/>
		<path fill="#353535" d="M404.938,477.799c0.25,0.25,0.312,0.5,0.312,0.812v14.812c0,0.938-0.188,1.875-0.562,2.75
			s-0.875,1.625-1.5,2.25s-1.375,1.125-2.25,1.5s-1.75,0.562-2.75,0.562h-21.312c-0.938,0-1.875-0.188-2.75-0.562
			s-1.625-0.875-2.25-1.5s-1.125-1.375-1.5-2.25s-0.562-1.75-0.562-2.75v-28.125c0-0.938,0.188-1.875,0.562-2.75
			s0.875-1.625,1.5-2.25s1.375-1.125,2.25-1.5s1.812-0.562,2.75-0.562h24.938c0.312,0,0.625,0.125,0.812,0.312
			c0.25,0.25,0.312,0.5,0.312,0.812v7.938c0,0.312-0.125,0.562-0.312,0.812c-0.25,0.25-0.5,0.312-0.812,0.312h-20.188
			c-0.312,0-0.562,0.125-0.812,0.312s-0.312,0.438-0.312,0.812v19.562c0,0.312,0.125,0.562,0.312,0.812
			c0.25,0.188,0.5,0.312,0.812,0.312h11.938c0.312,0,0.562-0.125,0.75-0.312s0.312-0.438,0.312-0.812v-10.562
			c0-0.312,0.125-0.562,0.312-0.812c0.25-0.25,0.5-0.312,0.812-0.312h8.375C404.438,477.486,404.75,477.611,404.938,477.799"/>
		<path fill="#353535" d="M449.5,458.611c0.188,0.25,0.312,0.5,0.312,0.812v34c0,0.938-0.188,1.875-0.562,2.75
			s-0.875,1.625-1.5,2.25s-1.375,1.125-2.25,1.5s-1.812,0.562-2.75,0.562h-21.375c-0.938,0-1.875-0.188-2.75-0.562
			s-1.625-0.875-2.25-1.5s-1.125-1.375-1.5-2.25s-0.562-1.75-0.562-2.75v-34c0-0.75,0.375-1.125,1.125-1.125h8.312
			c0.75,0,1.125,0.375,1.125,1.125v29.75c0,0.312,0.125,0.562,0.312,0.812c0.25,0.188,0.5,0.312,0.812,0.312h11.938
			c0.312,0,0.562-0.125,0.812-0.312c0.188-0.188,0.312-0.438,0.312-0.812v-29.75c0-0.312,0.125-0.625,0.312-0.812
			c0.25-0.25,0.5-0.312,0.812-0.312h8.375C449,458.299,449.25,458.424,449.5,458.611"/>
		<path fill="#353535" d="M491.312,458.611c0.188,0.25,0.312,0.5,0.312,0.812v3.438v1.812v2.375c0,0.312-0.125,0.562-0.312,0.812
			c-0.25,0.188-0.5,0.312-0.812,0.312h-4.312h-12.562h-3.375c-0.188,0-0.312,0.125-0.312,0.312v6.562c0,0.188,0.125,0.25,0.312,0.25
			h17.25c0.312,0,0.562,0.125,0.75,0.312c0.188,0.25,0.312,0.5,0.312,0.812v6.062c0,0.312-0.125,0.562-0.312,0.812
			s-0.438,0.312-0.75,0.312h-17.25c-0.188,0-0.312,0.125-0.312,0.312v2.938v0.062v3.5c0,0.188,0.125,0.312,0.312,0.312h2.562h13.625
			h4.062c0.312,0,0.562,0.125,0.812,0.312c0.188,0.25,0.312,0.5,0.312,0.812v2.438v3.125v2c0,0.312-0.125,0.562-0.312,0.812
			c-0.25,0.25-0.5,0.312-0.812,0.312h-3.438h-22.938H460.5c-0.75,0-1.125-0.375-1.125-1.125v-2.062v-35v-2.875
			c0-0.312,0.125-0.625,0.312-0.812c0.25-0.25,0.5-0.312,0.812-0.312h4.375H488.5h1.938
			C490.812,458.299,491.062,458.424,491.312,458.611"/>
		<path fill="#353535" d="M556.062,458.299c0.312,0,0.562,0.125,0.812,0.312c0.25,0.25,0.312,0.5,0.312,0.812v39.938
			c0,0.312-0.125,0.562-0.312,0.812c-0.25,0.25-0.5,0.312-0.812,0.312h-8.375c-0.312,0-0.562-0.125-0.812-0.312
			c-0.25-0.25-0.312-0.5-0.312-0.812v-13.938c0-0.312-0.125-0.562-0.312-0.812c-0.188-0.188-0.438-0.312-0.812-0.312H533.5
			c-0.312,0-0.562,0.125-0.812,0.312s-0.312,0.438-0.312,0.812v13.938c0,0.75-0.375,1.125-1.125,1.125h-8.312
			c-0.75,0-1.125-0.375-1.125-1.125v-39.938c0-0.75,0.375-1.125,1.125-1.125h8.312c0.75,0,1.125,0.375,1.125,1.125v13.5
			c0,0.75,0.375,1.125,1.125,1.125h11.938c0.312,0,0.562-0.125,0.812-0.312c0.188-0.25,0.312-0.5,0.312-0.812v-13.5
			c0-0.312,0.125-0.562,0.312-0.812c0.25-0.25,0.5-0.312,0.812-0.312H556.062L556.062,458.299z"/>
		<path fill="#353535" d="M595.125,458.299c0.938,0,1.875,0.188,2.75,0.562s1.625,0.875,2.25,1.5s1.125,1.375,1.5,2.25
			s0.562,1.75,0.562,2.75v34c0,0.312-0.125,0.625-0.312,0.812c-0.25,0.25-0.5,0.312-0.812,0.312h-8.375
			c-0.312,0-0.562-0.125-0.812-0.312c-0.25-0.25-0.312-0.5-0.312-0.812v-10.812c0-0.312-0.125-0.562-0.312-0.812
			s-0.438-0.312-0.812-0.312H578.5c-0.312,0-0.625,0.125-0.812,0.312c-0.25,0.25-0.312,0.5-0.312,0.812v10.812
			c0,0.75-0.375,1.125-1.125,1.125h-8.312c-0.75,0-1.125-0.375-1.125-1.125v-34c0-0.938,0.188-1.875,0.562-2.75
			s0.875-1.625,1.5-2.25s1.375-1.125,2.25-1.5s1.75-0.562,2.75-0.562H595.125L595.125,458.299z M591.5,467.736h-14.188v10.625H591.5
			V467.736z"/>
		<path fill="#353535" d="M622.5,468.861c-0.25,0.188-0.312,0.438-0.312,0.812v19.562c0,0.312,0.125,0.562,0.312,0.812
			c0.25,0.188,0.5,0.312,0.812,0.312h19.375c0.312,0,0.625,0.125,0.812,0.312c0.25,0.25,0.312,0.5,0.312,0.812v7.938
			c0,0.312-0.125,0.625-0.312,0.812c-0.25,0.25-0.5,0.312-0.812,0.312h-12.625h-10.375h-1.062c-0.938,0-1.875-0.188-2.75-0.562
			s-1.625-0.875-2.25-1.5s-1.125-1.375-1.5-2.25s-0.562-1.812-0.562-2.75v-1.062v-4.375v-14.125v-3.938v-4.625
			c0-0.938,0.188-1.875,0.562-2.75s0.875-1.625,1.5-2.25s1.375-1.125,2.25-1.5s1.75-0.562,2.75-0.562h1.062h23
			c0.312,0,0.625,0.125,0.812,0.312c0.25,0.25,0.312,0.5,0.312,0.812v7.938c0,0.312-0.125,0.562-0.312,0.812
			c-0.25,0.25-0.5,0.312-0.812,0.312h-19.375C623,468.549,622.75,468.674,622.5,468.861"/>
		<path fill="#353535" d="M677.438,476.111c-0.125,0.125-0.125,0.25-0.062,0.438l14.125,23.062c0.125,0.312,0.188,0.5,0.062,0.688
			s-0.312,0.25-0.688,0.25h-10c-0.312,0-0.625-0.062-0.938-0.25s-0.562-0.438-0.75-0.688l-9.125-16.5
			c-0.125-0.188-0.25-0.25-0.312-0.062l-5,5.5c-0.188,0.188-0.375,0.5-0.5,0.875s-0.188,0.75-0.188,1.062v8.938
			c0,0.75-0.375,1.125-1.125,1.125h-8.312c-0.75,0-1.125-0.375-1.125-1.125v-39.938c0-0.75,0.375-1.125,1.125-1.125h8.312
			c0.75,0,1.125,0.375,1.125,1.125v17.938l15.562-18.25c0.188-0.25,0.5-0.438,0.875-0.625s0.688-0.25,1-0.25h10
			c0.312,0,0.5,0.062,0.562,0.25s0,0.375-0.25,0.625L677.438,476.111z"/>
		<path fill="#353535" d="M709.938,499.361c0,0.75-0.375,1.125-1.125,1.125H700.5c-0.75,0-1.125-0.375-1.125-1.125v-39.938
			c0-0.75,0.375-1.125,1.125-1.125h8.312c0.75,0,1.125,0.375,1.125,1.125V499.361z"/>
		<path fill="#353535" d="M750.625,458.861c0.875,0.375,1.625,0.875,2.25,1.5s1.125,1.375,1.5,2.25s0.562,1.75,0.562,2.75v34
			c0,0.312-0.125,0.562-0.312,0.812c-0.25,0.25-0.5,0.312-0.812,0.312h-8.375c-0.312,0-0.562-0.125-0.812-0.312
			c-0.188-0.25-0.312-0.5-0.312-0.812v-29.75c0-0.312-0.125-0.562-0.312-0.812c-0.25-0.188-0.5-0.312-0.812-0.312H731.25
			c-0.312,0-0.625,0.125-0.812,0.312c-0.25,0.188-0.312,0.438-0.312,0.812v29.75c0,0.75-0.375,1.125-1.125,1.125h-8.312
			c-0.75,0-1.125-0.375-1.125-1.125v-39.938c0-0.75,0.375-1.125,1.125-1.125h27.25C748.812,458.299,749.75,458.486,750.625,458.861"
			/>
		<path fill="#353535" d="M799.438,477.799c0.25,0.25,0.312,0.5,0.312,0.812v14.812c0,0.938-0.188,1.875-0.562,2.75
			s-0.875,1.625-1.5,2.25s-1.375,1.125-2.25,1.5s-1.75,0.562-2.75,0.562h-21.375c-0.938,0-1.875-0.188-2.75-0.562
			s-1.625-0.875-2.25-1.5s-1.125-1.375-1.5-2.25s-0.562-1.75-0.562-2.75v-28.125c0-0.938,0.188-1.875,0.562-2.75
			s0.875-1.625,1.5-2.25s1.375-1.125,2.25-1.5s1.812-0.562,2.75-0.562h24.938c0.312,0,0.562,0.125,0.812,0.312
			c0.25,0.25,0.312,0.5,0.312,0.812v7.938c0,0.312-0.125,0.562-0.312,0.812c-0.25,0.25-0.5,0.312-0.812,0.312h-20.188
			c-0.312,0-0.562,0.125-0.812,0.312s-0.312,0.438-0.312,0.812v19.562c0,0.312,0.125,0.562,0.312,0.812
			c0.25,0.188,0.5,0.312,0.812,0.312H788c0.312,0,0.562-0.125,0.75-0.312s0.312-0.438,0.312-0.812v-10.562
			c0-0.312,0.125-0.562,0.312-0.812c0.25-0.25,0.5-0.312,0.812-0.312h8.375C799,477.486,799.25,477.611,799.438,477.799"/>
	</g>
	<g>
		<g>
			<path fill="#C53C02" d="M254.688,167.549c5.438,2.438,10.188,5.562,14.125,9.5s7.125,8.625,9.562,14.062S282,202.361,282,208.424
				v221.562c0,2.062-0.688,3.75-2.125,5.125c-1.375,1.375-3.125,2.125-5.125,2.125h-53c-2.062,0-3.688-0.688-4.938-2.125
				c-1.25-1.375-1.938-3.125-1.938-5.125V228.611h-42.688v201.438c0,2.062-0.625,3.75-1.875,5.125s-2.938,2.125-4.938,2.125h-48.062
				c-2.062,0-3.75-0.688-5.125-2.125c-1.375-1.375-2.125-3.125-2.125-5.125V228.611H67.375v201.438c0,4.812-2.438,7.25-7.25,7.25
				H7.438c-4.812,0-7.25-2.438-7.25-7.25V171.174c0-4.812,2.438-7.25,7.25-7.25h229.938
				C243.5,163.924,249.25,165.174,254.688,167.549"/>
			<path fill="#751B00" d="M254.688,167.549c5.438,2.438,10.188,5.562,14.125,9.5s7.125,8.625,9.562,14.062S282,202.361,282,208.424
				v19.75l-67.125,0.438h-42.688H110H67.312l-67.125-0.438v-57c0-4.812,2.438-7.25,7.25-7.25h229.938
				C243.5,163.924,249.25,165.174,254.688,167.549"/>
			<path fill="#265A8F" d="M513.062,370.924c2.125,0,3.875,0.75,5.25,2.125c1.375,1.438,2,3.188,2,5.25v51.562
				c0,2.062-0.688,3.875-2,5.25c-1.375,1.438-3.125,2.125-5.25,2.125h-181.5c-5.125,0-7.688-2.5-7.688-7.438V171.361
				c0-4.938,2.562-7.438,7.688-7.438h55.75c5.125,0,7.688,2.5,7.688,7.438v192.5c0,2.062,0.75,3.75,2.25,5.062
				s3.312,1.938,5.438,1.938h110.375V370.924z"/>
			<path fill="#162F51" d="M394.375,437.299H331.5c-5.125,0-7.688-2.5-7.688-7.438v-258.5c0-4.938,2.562-7.438,7.688-7.438h55.625
				c5.125,0,7.688,2.5,7.688,7.438v192.5C394.812,365.986,394.375,437.299,394.375,437.299"/>
			<path fill="#FDEE00" d="M792.062,163.924c2.188,0,4,0.75,5.5,2.125c1.5,1.438,2.25,3.188,2.25,5.312v259.25
				c0,2.062-0.75,3.875-2.25,5.312s-3.312,2.125-5.5,2.125h-56.438c-2.188,0-4-0.688-5.5-2.125s-2.25-3.188-2.25-5.312v-90.438
				c0-2.062-0.688-3.812-2.062-5.062c-1.375-1.312-3.125-1.938-5.25-1.938h-79.188c-2.188,0-4,0.625-5.5,1.938s-2.25,3-2.25,5.062
				v90.438c0,4.938-2.562,7.438-7.75,7.438h-56.062c-5.125,0-7.688-2.5-7.688-7.438v-259.25c0-4.938,2.562-7.438,7.688-7.438h56.062
				c5.125,0,7.75,2.5,7.75,7.438v87.75c0,4.938,2.562,7.438,7.688,7.438H720.5c2.188,0,3.938-0.688,5.25-2.125
				c1.375-1.438,2.062-3.188,2.062-5.312v-87.75c0-2.062,0.75-3.875,2.25-5.312s3.312-2.125,5.5-2.125H792.062z"/>
			<path fill="#ECC700" d="M633.688,340.174v90.438c0,4.938-2.562,7.438-7.688,7.438h-56.062c-5.125,0-7.688-2.5-7.688-7.438
				v-259.25c0-4.938,2.562-7.438,7.688-7.438H626c5.125,0,7.688,2.5,7.688,7.438v87.75V340.174z"/>
			<path fill="#ECC700" d="M792.062,163.924c2.188,0,4,0.75,5.5,2.125c1.5,1.438,2.25,3.188,2.25,5.312v259.25
				c0,2.062-0.75,3.875-2.25,5.312s-3.312,2.125-5.5,2.125h-56.438c-2.188,0-4-0.688-5.5-2.125s-2.25-3.188-2.25-5.312v-90.438
				v-81.062v-87.75c0-2.062,0.75-3.875,2.25-5.312s3.312-2.125,5.5-2.125H792.062z"/>
		</g>
	</g>
</g>
</svg>
