<?xml version="1.0" encoding="utf-8"?>
<!-- Generator: Adobe Illustrator 16.0.0, SVG Export Plug-In . SVG Version: 6.00 Build 0)  -->
<!DOCTYPE svg PUBLIC "-//W3C//DTD SVG 1.1//EN" "http://www.w3.org/Graphics/SVG/1.1/DTD/svg11.dtd">
<svg version="1.1" id="Layer_1" xmlns="http://www.w3.org/2000/svg" xmlns:xlink="http://www.w3.org/1999/xlink" x="0px" y="0px"
	 width="200px" height="130px" viewBox="0 0 200 130" enable-background="new 0 0 200 130" xml:space="preserve">
<g>
	<polygon fill="#F2B51D" points="32.741,58.27 123.389,102.408 168.417,58.27 77.769,14.131 	"/>
	<polygon fill="#EC177D" points="168.417,58.27 77.769,102.408 32.741,58.27 123.389,14.131 	"/>
	<polygon fill="#51C8EE" points="32.741,58.27 145.311,94.114 168.417,58.27 55.847,22.426 	"/>
	<polygon fill="#90479A" points="168.417,58.27 55.847,94.114 32.741,58.27 145.311,22.426 	"/>
	<polygon fill="#EEE649" points="100.579,110.112 168.417,58.27 100.579,6.429 32.741,58.27 	"/>
	<polygon fill="#231F20" points="100.579,36.669 32.741,58.27 100.579,80.003 168.417,58.27 	"/>
</g>
<g>
	<path fill="#231F20" d="M4.932,117.138v-6.18H6.07c0.854,0,1.582,0.303,2.185,0.905c0.604,0.604,0.905,1.332,0.905,2.185
		c0,0.852-0.301,1.578-0.905,2.183c-0.603,0.605-1.331,0.907-2.185,0.907H4.932z M5.873,111.895v4.304H6.07
		c0.593,0,1.1-0.21,1.522-0.631c0.421-0.42,0.632-0.925,0.632-1.52c0-0.597-0.211-1.104-0.632-1.523
		c-0.422-0.421-0.929-0.63-1.522-0.63H5.873z"/>
	<path fill="#231F20" d="M16.7,110.958h2.863v0.94h-1.918v2.284h1.918v0.94h-1.918v1.075h1.918v0.939H16.7V110.958z"/>
	<path fill="#231F20" d="M27.104,110.958h0.944v5.24h2.145v0.939h-3.089V110.958z"/>
	<path fill="#231F20" d="M37.734,110.925h0.939v6.213h-0.939V110.925z"/>
	<path fill="#231F20" d="M51.198,110.925l-2.49,6.485l-2.493-6.485h1.008l1.485,3.862l1.482-3.862H51.198z"/>
	<path fill="#231F20" d="M58.738,110.958h2.863v0.94h-1.917v2.284h1.917v0.94h-1.917v1.075h1.917v0.939h-2.863V110.958z"/>
	<path fill="#231F20" d="M71.661,115.298l0.881,1.849h-1.007l-0.668-1.433c-0.224,0.068-0.462,0.101-0.713,0.101h-0.071v1.323h-0.94
		v-6.222h1.012c0.677,0,1.255,0.239,1.733,0.719c0.479,0.478,0.718,1.055,0.718,1.729c0,0.677-0.239,1.255-0.718,1.733
		C71.814,115.171,71.739,115.236,71.661,115.298z M70.083,114.884h0.071c0.42,0,0.778-0.148,1.074-0.446
		c0.297-0.295,0.445-0.653,0.445-1.073c0-0.421-0.148-0.777-0.445-1.075c-0.296-0.297-0.654-0.445-1.074-0.445h-0.071V114.884z"/>
	<path fill="#231F20" d="M79.542,110.931h0.995l1.167,3.507l1.163-3.507h0.995l-1.621,4.612v1.595h-1.079v-1.595L79.542,110.931z"/>
	<path fill="#231F20" d="M102.246,117.146c-0.269,0-0.506-0.034-0.712-0.103c-0.205-0.065-0.426-0.186-0.661-0.359v-1.155
		c0.146,0.154,0.257,0.258,0.336,0.313c0.077,0.054,0.174,0.112,0.287,0.173c0.113,0.063,0.238,0.114,0.376,0.156
		c0.137,0.042,0.272,0.062,0.406,0.062c0.277,0,0.505-0.095,0.683-0.286c0.178-0.193,0.267-0.419,0.267-0.683
		c0-0.215-0.076-0.391-0.227-0.524c-0.151-0.136-0.399-0.288-0.743-0.463c-0.207-0.104-0.382-0.202-0.524-0.289
		c-0.144-0.086-0.28-0.194-0.412-0.323c-0.131-0.129-0.237-0.281-0.318-0.46c-0.081-0.178-0.122-0.387-0.122-0.627
		c0.01-0.236,0.068-0.454,0.172-0.657c0.103-0.202,0.243-0.38,0.419-0.534c0.177-0.151,0.378-0.271,0.603-0.354
		c0.226-0.084,0.463-0.126,0.711-0.126c0.188,0.006,0.358,0.032,0.513,0.078c0.154,0.047,0.328,0.129,0.524,0.249v0.972
		c-0.117-0.079-0.198-0.128-0.241-0.146s-0.104-0.049-0.185-0.093c-0.08-0.043-0.172-0.079-0.277-0.112
		c-0.104-0.03-0.216-0.045-0.334-0.045c-0.262,0.003-0.484,0.085-0.667,0.25c-0.182,0.163-0.272,0.353-0.272,0.568
		c0.005,0.204,0.081,0.367,0.229,0.489c0.146,0.122,0.385,0.259,0.711,0.409c0.224,0.106,0.407,0.201,0.549,0.281
		c0.141,0.081,0.28,0.187,0.417,0.315s0.248,0.291,0.331,0.487c0.085,0.195,0.13,0.427,0.135,0.695c0,0.247-0.052,0.48-0.155,0.704
		c-0.104,0.222-0.248,0.419-0.432,0.59c-0.186,0.17-0.397,0.303-0.637,0.4S102.507,117.146,102.246,117.146z"/>
	<path fill="#231F20" d="M118.11,114.031c0,0.431-0.083,0.835-0.25,1.211c-0.165,0.375-0.393,0.704-0.682,0.985
		c-0.288,0.278-0.624,0.501-1.007,0.664c-0.383,0.165-0.796,0.246-1.234,0.246c-0.442,0-0.854-0.081-1.238-0.246
		c-0.383-0.163-0.72-0.386-1.008-0.664c-0.288-0.281-0.516-0.61-0.682-0.985c-0.166-0.376-0.25-0.78-0.25-1.211
		c0-0.429,0.084-0.833,0.25-1.215c0.166-0.383,0.394-0.714,0.682-0.993c0.288-0.28,0.625-0.501,1.008-0.663
		c0.384-0.163,0.796-0.244,1.238-0.244c0.438,0,0.852,0.081,1.234,0.244c0.383,0.162,0.719,0.383,1.007,0.663
		c0.289,0.279,0.517,0.61,0.682,0.993C118.027,113.198,118.11,113.603,118.11,114.031z M112.776,114.031
		c0,0.301,0.056,0.581,0.167,0.842c0.112,0.262,0.266,0.489,0.462,0.684c0.195,0.195,0.425,0.347,0.688,0.458
		s0.544,0.166,0.844,0.166c0.297,0,0.576-0.055,0.839-0.166c0.264-0.111,0.492-0.263,0.687-0.458
		c0.195-0.194,0.348-0.422,0.46-0.684c0.111-0.261,0.168-0.541,0.168-0.842s-0.057-0.581-0.168-0.842
		c-0.112-0.261-0.265-0.489-0.46-0.683c-0.194-0.196-0.423-0.348-0.687-0.457c-0.263-0.108-0.542-0.164-0.839-0.164
		c-0.3,0-0.58,0.056-0.844,0.164c-0.264,0.109-0.493,0.261-0.688,0.457c-0.196,0.193-0.35,0.422-0.462,0.683
		C112.832,113.45,112.776,113.73,112.776,114.031z"/>
	<path fill="#231F20" d="M125.652,110.958h0.943v5.24h2.146v0.939h-3.09V110.958z"/>
	<path fill="#231F20" d="M139.107,115.253v-4.328h0.94v4.328c0,0.521-0.184,0.965-0.55,1.332c-0.367,0.369-0.811,0.553-1.331,0.553
		c-0.521,0-0.965-0.184-1.333-0.553c-0.368-0.367-0.552-0.812-0.552-1.332v-4.328h0.939v4.328c0,0.261,0.093,0.482,0.278,0.667
		c0.184,0.185,0.407,0.278,0.667,0.278c0.261,0,0.481-0.094,0.665-0.278S139.107,115.514,139.107,115.253z"/>
	<path fill="#231F20" d="M147.588,110.925h4.03v0.974h-1.545v5.205h-0.94v-5.205h-1.545V110.925z"/>
	<path fill="#231F20" d="M159.159,110.925h0.939v6.213h-0.939V110.925z"/>
	<path fill="#231F20" d="M173.99,114.031c0,0.431-0.083,0.835-0.249,1.211c-0.166,0.375-0.395,0.704-0.682,0.985
		c-0.289,0.278-0.625,0.501-1.008,0.664c-0.383,0.165-0.796,0.246-1.234,0.246c-0.443,0-0.854-0.081-1.239-0.246
		c-0.383-0.163-0.719-0.386-1.007-0.664c-0.288-0.281-0.517-0.61-0.683-0.985c-0.166-0.376-0.248-0.78-0.248-1.211
		c0-0.429,0.082-0.833,0.248-1.215c0.166-0.383,0.395-0.714,0.683-0.993c0.288-0.28,0.624-0.501,1.007-0.663
		c0.385-0.163,0.796-0.244,1.239-0.244c0.438,0,0.852,0.081,1.234,0.244c0.383,0.162,0.719,0.383,1.008,0.663
		c0.287,0.279,0.516,0.61,0.682,0.993C173.907,113.198,173.99,113.603,173.99,114.031z M168.655,114.031
		c0,0.301,0.056,0.581,0.167,0.842c0.113,0.262,0.267,0.489,0.463,0.684c0.196,0.195,0.425,0.347,0.688,0.458
		s0.544,0.166,0.844,0.166c0.297,0,0.576-0.055,0.839-0.166c0.264-0.111,0.492-0.263,0.687-0.458
		c0.195-0.194,0.348-0.422,0.46-0.684c0.113-0.261,0.168-0.541,0.168-0.842s-0.055-0.581-0.168-0.842
		c-0.112-0.261-0.265-0.489-0.46-0.683c-0.194-0.196-0.423-0.348-0.687-0.457c-0.263-0.108-0.542-0.164-0.839-0.164
		c-0.3,0-0.58,0.056-0.844,0.164c-0.264,0.109-0.492,0.261-0.688,0.457c-0.196,0.193-0.35,0.422-0.463,0.683
		C168.711,113.45,168.655,113.73,168.655,114.031z"/>
	<path fill="#231F20" d="M184.398,114.56v-3.635h0.94v6.485l-2.868-3.879v3.606h-0.939v-6.465L184.398,114.56z"/>
	<path fill="#231F20" d="M194.252,117.146c-0.27,0-0.505-0.034-0.711-0.103c-0.206-0.065-0.427-0.186-0.661-0.359v-1.155
		c0.145,0.154,0.258,0.258,0.335,0.313c0.079,0.054,0.175,0.112,0.288,0.173c0.112,0.063,0.238,0.114,0.376,0.156
		c0.137,0.042,0.272,0.062,0.406,0.062c0.277,0,0.505-0.095,0.683-0.286c0.178-0.193,0.266-0.419,0.266-0.683
		c0-0.215-0.074-0.391-0.226-0.524c-0.15-0.136-0.398-0.288-0.742-0.463c-0.208-0.104-0.383-0.202-0.525-0.289
		c-0.143-0.086-0.279-0.194-0.411-0.323s-0.239-0.281-0.319-0.46c-0.08-0.178-0.121-0.387-0.121-0.627
		c0.011-0.236,0.067-0.454,0.171-0.657c0.104-0.202,0.244-0.38,0.421-0.534c0.176-0.151,0.376-0.271,0.602-0.354
		c0.227-0.084,0.463-0.126,0.713-0.126c0.186,0.006,0.356,0.032,0.511,0.078c0.154,0.047,0.329,0.129,0.524,0.249v0.972
		c-0.117-0.079-0.198-0.128-0.241-0.146c-0.044-0.019-0.104-0.049-0.185-0.093c-0.079-0.043-0.171-0.079-0.276-0.112
		c-0.104-0.03-0.217-0.045-0.333-0.045c-0.265,0.003-0.486,0.085-0.669,0.25c-0.183,0.163-0.272,0.353-0.272,0.568
		c0.005,0.204,0.082,0.367,0.229,0.489s0.385,0.259,0.713,0.409c0.223,0.106,0.405,0.201,0.546,0.281
		c0.143,0.081,0.281,0.187,0.418,0.315c0.138,0.129,0.247,0.291,0.333,0.487c0.083,0.195,0.127,0.427,0.133,0.695
		c0,0.247-0.052,0.48-0.155,0.704c-0.104,0.222-0.247,0.419-0.432,0.59c-0.185,0.17-0.397,0.303-0.637,0.4
		S194.512,117.146,194.252,117.146z"/>
</g>
<g>
	<path fill="#FFFFFF" d="M68.088,58.932v-6.296h1.628v11.232l-4.965-6.717v6.245h-1.628V52.199L68.088,58.932z"/>
	<path fill="#FFFFFF" d="M71.461,52.694h4.958v1.628h-3.322v3.955h3.322v1.628h-3.322v1.861h3.322v1.629h-4.958V52.694z"/>
	<path fill="#FFFFFF" d="M80.484,61.949l-0.576,1.483h-1.745l4.319-11.225l4.311,11.225h-1.744l-0.567-1.483H80.484z M81.109,60.32
		h2.748l-1.374-3.569L81.109,60.32z"/>
	<path fill="#FFFFFF" d="M92.901,60.211l1.526,3.199h-1.745l-1.156-2.479c-0.387,0.116-0.799,0.174-1.235,0.174h-0.124v2.29H88.54
		V52.621h1.751c1.173,0,2.173,0.414,3.003,1.243c0.829,0.829,1.243,1.828,1.243,2.996c0,1.173-0.414,2.173-1.243,3.002
		C93.167,59.988,93.036,60.105,92.901,60.211z M90.167,59.492h0.124c0.727,0,1.348-0.257,1.861-0.771
		c0.514-0.514,0.771-1.134,0.771-1.861c0-0.727-0.256-1.347-0.771-1.861c-0.513-0.514-1.134-0.771-1.861-0.771h-0.124V59.492z"/>
	<path fill="#FFFFFF" d="M98.659,63.41c-0.465,0-0.876-0.058-1.232-0.175c-0.356-0.116-0.738-0.324-1.145-0.625v-2
		c0.251,0.267,0.446,0.447,0.582,0.542c0.135,0.095,0.301,0.195,0.498,0.302c0.196,0.106,0.414,0.196,0.651,0.269
		c0.238,0.072,0.473,0.109,0.706,0.109c0.48,0,0.874-0.167,1.181-0.499s0.461-0.726,0.461-1.181c0-0.374-0.131-0.677-0.393-0.909
		c-0.262-0.233-0.69-0.5-1.287-0.8c-0.358-0.184-0.661-0.351-0.909-0.501c-0.247-0.15-0.484-0.336-0.711-0.559
		c-0.229-0.223-0.412-0.489-0.553-0.797c-0.142-0.308-0.211-0.67-0.211-1.087c0.019-0.407,0.118-0.786,0.297-1.138
		c0.18-0.352,0.423-0.659,0.728-0.923c0.305-0.264,0.653-0.469,1.043-0.614c0.39-0.145,0.801-0.218,1.232-0.218
		c0.325,0.009,0.621,0.054,0.887,0.134c0.266,0.08,0.569,0.225,0.909,0.433v1.679c-0.204-0.136-0.344-0.219-0.419-0.251
		c-0.075-0.031-0.181-0.085-0.32-0.16c-0.137-0.075-0.297-0.139-0.479-0.193c-0.181-0.053-0.375-0.081-0.578-0.081
		c-0.455,0.005-0.841,0.15-1.156,0.433c-0.315,0.284-0.472,0.612-0.472,0.986c0.01,0.354,0.142,0.635,0.396,0.847
		c0.254,0.211,0.666,0.447,1.232,0.709c0.388,0.184,0.704,0.346,0.949,0.487c0.245,0.14,0.485,0.323,0.724,0.545
		c0.236,0.223,0.429,0.504,0.574,0.844c0.146,0.339,0.223,0.741,0.232,1.207c0,0.426-0.089,0.833-0.269,1.218
		c-0.18,0.385-0.43,0.725-0.749,1.021c-0.32,0.296-0.687,0.527-1.102,0.695S99.111,63.41,98.659,63.41z"/>
	<path fill="#FFFFFF" d="M110.844,63.396h-1.643v-3.49h-3.737v3.49h-1.643v-10.76h1.643v5.613h3.737v-5.613h1.643V63.396z"/>
	<path fill="#FFFFFF" d="M123.588,58.016c0,0.747-0.144,1.445-0.432,2.098s-0.683,1.22-1.181,1.705
		c-0.5,0.484-1.082,0.868-1.746,1.152c-0.664,0.283-1.376,0.425-2.138,0.425c-0.766,0-1.48-0.142-2.145-0.425
		c-0.663-0.284-1.245-0.667-1.744-1.152c-0.499-0.485-0.893-1.053-1.182-1.705s-0.433-1.351-0.433-2.098
		c0-0.741,0.144-1.443,0.433-2.105s0.683-1.234,1.182-1.719c0.499-0.484,1.081-0.867,1.744-1.148
		c0.664-0.281,1.379-0.422,2.145-0.422c0.762,0,1.474,0.141,2.138,0.422s1.246,0.665,1.746,1.148
		c0.498,0.485,0.893,1.058,1.181,1.719S123.588,57.274,123.588,58.016z M114.348,58.016c0,0.519,0.098,1.004,0.291,1.458
		c0.194,0.452,0.462,0.848,0.799,1.185c0.342,0.337,0.737,0.602,1.194,0.792c0.455,0.191,0.941,0.288,1.46,0.288
		c0.515,0,1-0.096,1.455-0.288c0.455-0.191,0.852-0.456,1.188-0.792c0.336-0.336,0.603-0.732,0.797-1.185
		c0.191-0.454,0.29-0.939,0.29-1.458s-0.099-1.004-0.29-1.458c-0.194-0.454-0.461-0.849-0.797-1.186
		c-0.337-0.336-0.733-0.6-1.188-0.788c-0.455-0.189-0.94-0.284-1.455-0.284c-0.519,0-1.005,0.095-1.46,0.284
		c-0.457,0.188-0.853,0.452-1.194,0.788c-0.337,0.337-0.604,0.732-0.799,1.186C114.445,57.011,114.348,57.497,114.348,58.016z"/>
	<path fill="#FFFFFF" d="M129.696,60.211l1.526,3.199h-1.744l-1.157-2.479c-0.388,0.116-0.799,0.174-1.235,0.174h-0.123v2.29h-1.63
		V52.621h1.753c1.172,0,2.175,0.414,3.003,1.243c0.829,0.829,1.244,1.828,1.244,2.996c0,1.173-0.415,2.173-1.244,3.002
		C129.963,59.988,129.831,60.105,129.696,60.211z M126.963,59.492h0.123c0.727,0,1.347-0.257,1.862-0.771
		c0.513-0.514,0.77-1.134,0.77-1.861c0-0.727-0.257-1.347-0.77-1.861c-0.516-0.514-1.136-0.771-1.862-0.771h-0.123V59.492z"/>
	<path fill="#FFFFFF" d="M133.077,52.694h4.957v1.628h-3.322v3.955h3.322v1.628h-3.322v1.861h3.322v1.629h-4.957V52.694z"/>
</g>
</svg>
