<?xml version="1.0" encoding="utf-8"?>
<!-- Generator: Adobe Illustrator 16.0.0, SVG Export Plug-In . SVG Version: 6.00 Build 0)  -->
<!DOCTYPE svg PUBLIC "-//W3C//DTD SVG 1.1//EN" "http://www.w3.org/Graphics/SVG/1.1/DTD/svg11.dtd">
<svg version="1.1" id="Layer_1" xmlns="http://www.w3.org/2000/svg" xmlns:xlink="http://www.w3.org/1999/xlink" x="0px" y="0px"
	 width="200px" height="130px" viewBox="0 0 200 130" enable-background="new 0 0 200 130" xml:space="preserve">
<g>
	<polygon fill="#F2B51D" points="29.654,59.014 122.758,104.349 169.004,59.014 75.901,13.679 	"/>
	<polygon fill="#EC177D" points="169.004,59.014 75.901,104.349 29.654,59.014 122.758,13.679 	"/>
	<polygon fill="#51C8EE" points="29.654,59.014 145.271,95.829 169.004,59.014 53.387,22.2 	"/>
	<polygon fill="#90479A" points="169.004,59.014 53.387,95.829 29.654,59.014 145.271,22.2 	"/>
	<polygon fill="#EEE649" points="99.329,112.26 169.004,59.014 99.329,5.769 29.654,59.014 	"/>
	<polygon fill="#231F20" points="99.329,36.828 29.654,59.014 99.329,81.335 169.004,59.014 	"/>
</g>
<g>
	<path fill="#231F20" d="M1.093,119.475v-6.347h1.168c0.877,0,1.625,0.311,2.245,0.931c0.619,0.619,0.928,1.367,0.928,2.244
		c0,0.873-0.309,1.62-0.928,2.241c-0.62,0.62-1.367,0.931-2.245,0.931H1.093z M2.059,114.09v4.419h0.203
		c0.609,0,1.13-0.216,1.563-0.647c0.432-0.431,0.648-0.951,0.648-1.559c0-0.613-0.216-1.135-0.648-1.565
		c-0.433-0.432-0.954-0.647-1.563-0.647H2.059z"/>
	<path fill="#231F20" d="M13.179,113.128h2.941v0.967H14.15v2.345h1.971v0.966H14.15v1.104h1.971v0.966h-2.941V113.128z"/>
	<path fill="#231F20" d="M23.866,113.128h0.97v5.381h2.203v0.966h-3.173V113.128z"/>
	<path fill="#231F20" d="M34.783,113.095h0.965v6.38h-0.965V113.095z"/>
	<path fill="#231F20" d="M48.611,113.095l-2.556,6.66l-2.562-6.66h1.035l1.526,3.966l1.521-3.966H48.611z"/>
	<path fill="#231F20" d="M56.356,113.128h2.94v0.967h-1.97v2.345h1.97v0.966h-1.97v1.104h1.97v0.966h-2.94V113.128z"/>
	<path fill="#231F20" d="M69.628,117.587l0.905,1.896h-1.034l-0.686-1.471c-0.23,0.069-0.474,0.104-0.733,0.104h-0.074v1.358h-0.966
		v-6.389h1.04c0.695,0,1.289,0.244,1.781,0.736c0.491,0.492,0.737,1.084,0.737,1.777c0,0.694-0.246,1.289-0.737,1.78
		C69.787,117.454,69.708,117.524,69.628,117.587z M68.007,117.16h0.074c0.431,0,0.799-0.153,1.104-0.458
		c0.304-0.304,0.458-0.672,0.458-1.103c0-0.432-0.153-0.799-0.458-1.104c-0.305-0.306-0.673-0.458-1.104-0.458h-0.074V117.16z"/>
	<path fill="#231F20" d="M77.723,113.098h1.021l1.199,3.604l1.194-3.604h1.022l-1.664,4.739v1.638h-1.108v-1.638L77.723,113.098z"/>
	<path fill="#231F20" d="M101.042,119.483c-0.276,0-0.52-0.033-0.732-0.104c-0.209-0.068-0.436-0.191-0.678-0.37v-1.187
		c0.15,0.159,0.266,0.266,0.345,0.321c0.08,0.057,0.179,0.116,0.296,0.18s0.244,0.115,0.387,0.159
		c0.14,0.043,0.279,0.064,0.417,0.064c0.284,0,0.517-0.099,0.701-0.295c0.181-0.196,0.273-0.431,0.273-0.701
		c0-0.221-0.077-0.401-0.232-0.538c-0.155-0.138-0.41-0.297-0.764-0.475c-0.213-0.108-0.394-0.208-0.54-0.297
		s-0.285-0.2-0.422-0.333c-0.135-0.132-0.244-0.289-0.328-0.472c-0.082-0.183-0.123-0.397-0.123-0.645
		c0.01-0.241,0.068-0.466,0.175-0.674c0.108-0.209,0.25-0.392,0.432-0.549c0.183-0.155,0.388-0.276,0.619-0.363
		c0.231-0.088,0.475-0.131,0.73-0.131c0.192,0.007,0.369,0.032,0.526,0.081c0.158,0.048,0.337,0.133,0.539,0.257v0.994
		c-0.121-0.079-0.204-0.129-0.248-0.147c-0.044-0.02-0.107-0.05-0.19-0.096c-0.081-0.044-0.176-0.082-0.284-0.114
		c-0.108-0.03-0.223-0.046-0.343-0.046c-0.269,0.002-0.498,0.087-0.686,0.256c-0.188,0.168-0.28,0.361-0.28,0.584
		c0.006,0.209,0.084,0.377,0.235,0.502c0.15,0.125,0.395,0.266,0.73,0.42c0.23,0.11,0.418,0.206,0.562,0.289s0.288,0.191,0.43,0.324
		c0.14,0.132,0.255,0.299,0.34,0.5c0.086,0.2,0.133,0.439,0.139,0.716c0,0.252-0.055,0.493-0.16,0.722s-0.254,0.431-0.444,0.605
		c-0.189,0.175-0.406,0.312-0.654,0.412C101.565,119.434,101.309,119.483,101.042,119.483z"/>
	<path fill="#231F20" d="M117.336,116.284c0,0.442-0.085,0.857-0.257,1.244c-0.171,0.387-0.404,0.724-0.701,1.012
		c-0.295,0.287-0.639,0.515-1.034,0.683c-0.393,0.168-0.816,0.252-1.267,0.252c-0.455,0-0.878-0.084-1.273-0.252
		c-0.393-0.168-0.737-0.396-1.033-0.683c-0.296-0.288-0.53-0.625-0.701-1.012s-0.256-0.802-0.256-1.244
		c0-0.438,0.085-0.855,0.256-1.247c0.171-0.393,0.405-0.732,0.701-1.02c0.296-0.288,0.641-0.515,1.033-0.682
		c0.396-0.166,0.818-0.25,1.273-0.25c0.45,0,0.874,0.084,1.267,0.25c0.396,0.167,0.739,0.394,1.034,0.682
		c0.297,0.287,0.53,0.627,0.701,1.02C117.251,115.429,117.336,115.846,117.336,116.284z M111.856,116.284
		c0,0.309,0.058,0.596,0.172,0.864c0.115,0.269,0.273,0.504,0.475,0.703c0.202,0.199,0.437,0.356,0.707,0.471
		c0.271,0.113,0.56,0.17,0.867,0.17c0.305,0,0.592-0.057,0.862-0.17c0.27-0.114,0.505-0.271,0.704-0.471s0.356-0.435,0.472-0.703
		c0.114-0.269,0.173-0.556,0.173-0.864c0-0.307-0.059-0.596-0.173-0.864c-0.115-0.268-0.272-0.504-0.472-0.702
		c-0.199-0.199-0.435-0.355-0.704-0.468c-0.271-0.111-0.558-0.168-0.862-0.168c-0.308,0-0.597,0.057-0.867,0.168
		c-0.271,0.112-0.505,0.269-0.707,0.468c-0.201,0.198-0.359,0.435-0.475,0.702C111.914,115.688,111.856,115.978,111.856,116.284z"/>
	<path fill="#231F20" d="M125.081,113.128h0.97v5.381h2.204v0.966h-3.174V113.128z"/>
	<path fill="#231F20" d="M138.9,117.539v-4.444h0.965v4.444c0,0.534-0.188,0.991-0.564,1.369s-0.832,0.566-1.367,0.566
		c-0.534,0-0.989-0.188-1.368-0.566s-0.566-0.835-0.566-1.369v-4.444h0.966v4.444c0,0.268,0.095,0.496,0.284,0.686
		c0.19,0.19,0.419,0.284,0.685,0.284c0.268,0,0.496-0.094,0.685-0.284C138.808,118.035,138.9,117.807,138.9,117.539z"/>
	<path fill="#231F20" d="M147.611,113.095h4.139v1h-1.587v5.346h-0.966v-5.346h-1.586V113.095z"/>
	<path fill="#231F20" d="M159.495,113.095h0.966v6.38h-0.966V113.095z"/>
	<path fill="#231F20" d="M174.729,116.284c0,0.442-0.085,0.857-0.257,1.244c-0.17,0.387-0.404,0.724-0.701,1.012
		c-0.295,0.287-0.639,0.515-1.034,0.683c-0.393,0.168-0.816,0.252-1.267,0.252c-0.455,0-0.878-0.084-1.273-0.252
		c-0.393-0.168-0.737-0.396-1.033-0.683c-0.295-0.288-0.53-0.625-0.701-1.012c-0.172-0.387-0.256-0.802-0.256-1.244
		c0-0.438,0.084-0.855,0.256-1.247c0.171-0.393,0.406-0.732,0.701-1.02c0.296-0.288,0.641-0.515,1.033-0.682
		c0.396-0.166,0.818-0.25,1.273-0.25c0.45,0,0.874,0.084,1.267,0.25c0.396,0.167,0.739,0.394,1.034,0.682
		c0.297,0.287,0.531,0.627,0.701,1.02C174.644,115.429,174.729,115.846,174.729,116.284z M169.249,116.284
		c0,0.309,0.058,0.596,0.172,0.864c0.115,0.269,0.273,0.504,0.475,0.703c0.202,0.199,0.437,0.356,0.707,0.471
		c0.271,0.113,0.56,0.17,0.867,0.17c0.304,0,0.591-0.057,0.862-0.17c0.269-0.114,0.505-0.271,0.704-0.471s0.356-0.435,0.472-0.703
		c0.114-0.269,0.173-0.556,0.173-0.864c0-0.307-0.059-0.596-0.173-0.864c-0.115-0.268-0.272-0.504-0.472-0.702
		c-0.199-0.199-0.436-0.355-0.704-0.468c-0.271-0.111-0.559-0.168-0.862-0.168c-0.308,0-0.597,0.057-0.867,0.168
		c-0.271,0.112-0.505,0.269-0.707,0.468c-0.201,0.198-0.359,0.435-0.475,0.702C169.307,115.688,169.249,115.978,169.249,116.284z"/>
	<path fill="#231F20" d="M185.419,116.827v-3.732h0.965v6.66l-2.944-3.983v3.703h-0.966v-6.638L185.419,116.827z"/>
	<path fill="#231F20" d="M195.538,119.483c-0.275,0-0.519-0.033-0.73-0.104c-0.211-0.068-0.438-0.191-0.679-0.37v-1.187
		c0.15,0.159,0.263,0.266,0.346,0.321c0.079,0.057,0.178,0.116,0.295,0.18c0.114,0.063,0.243,0.115,0.386,0.159
		c0.141,0.043,0.28,0.064,0.417,0.064c0.285,0,0.519-0.099,0.702-0.295c0.182-0.196,0.271-0.431,0.271-0.701
		c0-0.221-0.076-0.401-0.231-0.538c-0.155-0.138-0.409-0.297-0.763-0.475c-0.213-0.108-0.393-0.208-0.54-0.297
		c-0.146-0.089-0.286-0.2-0.422-0.333c-0.136-0.132-0.244-0.289-0.327-0.472s-0.126-0.397-0.126-0.645
		c0.012-0.241,0.07-0.466,0.177-0.674c0.107-0.209,0.251-0.392,0.432-0.549c0.182-0.155,0.388-0.276,0.619-0.363
		c0.23-0.088,0.475-0.131,0.73-0.131c0.192,0.007,0.368,0.032,0.525,0.081c0.158,0.048,0.338,0.133,0.539,0.257v0.994
		c-0.121-0.079-0.204-0.129-0.248-0.147c-0.044-0.02-0.107-0.05-0.188-0.096c-0.082-0.044-0.178-0.082-0.285-0.114
		c-0.108-0.03-0.223-0.046-0.343-0.046c-0.271,0.002-0.5,0.087-0.686,0.256c-0.188,0.168-0.279,0.361-0.279,0.584
		c0.005,0.209,0.083,0.377,0.234,0.502c0.15,0.125,0.394,0.266,0.73,0.42c0.23,0.11,0.417,0.206,0.562,0.289
		c0.145,0.083,0.288,0.191,0.43,0.324c0.141,0.132,0.253,0.299,0.34,0.5c0.086,0.2,0.132,0.439,0.137,0.716
		c0,0.252-0.052,0.493-0.159,0.722c-0.106,0.229-0.253,0.431-0.443,0.605c-0.188,0.175-0.407,0.312-0.653,0.412
		C196.062,119.434,195.806,119.483,195.538,119.483z"/>
</g>
<g>
	<path fill="#FFFFFF" d="M65.959,59.694v-6.466h1.672v11.536l-5.1-6.899v6.414h-1.673v-11.5L65.959,59.694z"/>
	<path fill="#FFFFFF" d="M69.423,53.287h5.094v1.673h-3.413v4.062h3.413v1.673h-3.413v1.911h3.413v1.673h-5.094V53.287z"/>
	<path fill="#FFFFFF" d="M78.69,62.792l-0.59,1.523h-1.792l4.436-11.53l4.428,11.53H83.38l-0.583-1.523H78.69z M79.333,61.119h2.822
		l-1.411-3.666L79.333,61.119z"/>
	<path fill="#FFFFFF" d="M91.444,61.008l1.568,3.285H91.22l-1.188-2.546c-0.397,0.119-0.821,0.179-1.27,0.179h-0.126v2.352h-1.672
		V53.212h1.799c1.205,0,2.233,0.426,3.084,1.278c0.852,0.851,1.277,1.876,1.277,3.076c0,1.205-0.426,2.232-1.277,3.083
		C91.718,60.779,91.583,60.898,91.444,61.008z M88.636,60.269h0.126c0.748,0,1.384-0.263,1.913-0.791
		c0.528-0.528,0.791-1.165,0.791-1.912c0-0.747-0.263-1.384-0.791-1.911c-0.528-0.528-1.165-0.792-1.913-0.792h-0.126V60.269z"/>
	<path fill="#FFFFFF" d="M97.357,64.293c-0.478,0-0.899-0.06-1.265-0.179c-0.366-0.12-0.758-0.334-1.176-0.642v-2.054
		c0.259,0.273,0.458,0.459,0.597,0.556c0.14,0.097,0.311,0.201,0.511,0.31c0.202,0.109,0.425,0.202,0.669,0.276
		c0.244,0.075,0.485,0.113,0.725,0.113c0.493,0,0.896-0.171,1.214-0.512c0.314-0.34,0.473-0.745,0.473-1.213
		c0-0.383-0.133-0.694-0.402-0.933s-0.71-0.513-1.322-0.821c-0.368-0.189-0.68-0.361-0.933-0.515
		c-0.254-0.155-0.498-0.347-0.732-0.575c-0.234-0.229-0.423-0.502-0.568-0.818c-0.145-0.316-0.216-0.688-0.216-1.116
		c0.02-0.418,0.122-0.807,0.306-1.168c0.184-0.361,0.433-0.677,0.747-0.948s0.671-0.482,1.071-0.631
		c0.401-0.148,0.823-0.224,1.266-0.224c0.334,0.01,0.638,0.056,0.91,0.138c0.275,0.083,0.585,0.23,0.934,0.445v1.725
		c-0.209-0.139-0.352-0.226-0.43-0.257c-0.076-0.033-0.187-0.088-0.328-0.165c-0.142-0.077-0.306-0.143-0.492-0.198
		c-0.188-0.055-0.385-0.082-0.594-0.082c-0.469,0.005-0.864,0.152-1.188,0.445c-0.324,0.291-0.485,0.628-0.485,1.011
		c0.009,0.363,0.146,0.653,0.406,0.87c0.262,0.217,0.683,0.459,1.266,0.728c0.398,0.189,0.724,0.356,0.975,0.5
		c0.251,0.145,0.498,0.331,0.743,0.56c0.243,0.229,0.44,0.519,0.589,0.867c0.149,0.349,0.229,0.761,0.239,1.24
		c0,0.438-0.092,0.854-0.276,1.25c-0.184,0.396-0.439,0.745-0.769,1.049c-0.329,0.304-0.706,0.542-1.132,0.713
		C98.265,64.208,97.821,64.293,97.357,64.293z"/>
	<path fill="#FFFFFF" d="M109.873,64.278h-1.688v-3.584h-3.838v3.584h-1.689V53.228h1.689v5.764h3.838v-5.764h1.688V64.278z"/>
	<path fill="#FFFFFF" d="M122.963,58.752c0,0.767-0.148,1.485-0.444,2.155c-0.297,0.669-0.7,1.253-1.214,1.751
		c-0.513,0.498-1.11,0.892-1.792,1.183c-0.683,0.292-1.414,0.437-2.195,0.437c-0.786,0-1.521-0.146-2.203-0.437
		c-0.683-0.291-1.278-0.686-1.792-1.183c-0.513-0.498-0.918-1.082-1.213-1.751c-0.298-0.67-0.445-1.388-0.445-2.155
		c0-0.762,0.147-1.482,0.445-2.161c0.295-0.68,0.7-1.268,1.213-1.766c0.514-0.498,1.109-0.891,1.792-1.18
		c0.682-0.289,1.417-0.434,2.203-0.434c0.781,0,1.513,0.145,2.195,0.434c0.682,0.289,1.279,0.682,1.792,1.18
		c0.514,0.498,0.917,1.086,1.214,1.766C122.814,57.271,122.963,57.991,122.963,58.752z M113.471,58.752
		c0,0.533,0.101,1.032,0.3,1.497c0.198,0.466,0.474,0.871,0.821,1.217c0.349,0.347,0.757,0.617,1.225,0.814s0.968,0.295,1.501,0.295
		c0.528,0,1.025-0.099,1.493-0.295s0.875-0.467,1.222-0.814c0.345-0.346,0.618-0.751,0.816-1.217c0.199-0.465,0.3-0.964,0.3-1.497
		c0-0.533-0.101-1.031-0.3-1.497c-0.198-0.466-0.472-0.872-0.816-1.217c-0.347-0.347-0.754-0.617-1.222-0.811
		c-0.468-0.193-0.965-0.291-1.493-0.291c-0.533,0-1.033,0.098-1.501,0.291c-0.468,0.194-0.876,0.464-1.225,0.811
		c-0.348,0.345-0.623,0.751-0.821,1.217C113.571,57.721,113.471,58.22,113.471,58.752z"/>
	<path fill="#FFFFFF" d="M129.235,61.008l1.567,3.285h-1.792l-1.188-2.546c-0.398,0.119-0.821,0.179-1.269,0.179h-0.127v2.352
		h-1.673V53.212h1.8c1.203,0,2.233,0.426,3.083,1.278c0.852,0.851,1.276,1.876,1.276,3.076c0,1.205-0.425,2.232-1.276,3.083
		C129.509,60.779,129.374,60.898,129.235,61.008z M126.428,60.269h0.127c0.746,0,1.384-0.263,1.91-0.791
		c0.528-0.528,0.793-1.165,0.793-1.912c0-0.747-0.265-1.384-0.793-1.911c-0.526-0.528-1.164-0.792-1.91-0.792h-0.127V60.269z"/>
	<path fill="#FFFFFF" d="M132.706,53.287h5.093v1.673h-3.411v4.062h3.411v1.673h-3.411v1.911h3.411v1.673h-5.093V53.287z"/>
</g>
</svg>
