<?xml version="1.0" encoding="UTF-8" standalone="no"?>
<!-- Created with Inkscape (http://www.inkscape.org/) -->

<svg
   xmlns:dc="http://purl.org/dc/elements/1.1/"
   xmlns:cc="http://creativecommons.org/ns#"
   xmlns:rdf="http://www.w3.org/1999/02/22-rdf-syntax-ns#"
   xmlns:svg="http://www.w3.org/2000/svg"
   xmlns="http://www.w3.org/2000/svg"
   xmlns:sodipodi="http://sodipodi.sourceforge.net/DTD/sodipodi-0.dtd"
   xmlns:inkscape="http://www.inkscape.org/namespaces/inkscape"
   id="svg2"
   version="1.1"
   inkscape:version="0.48.4 r9939"
   width="360"
   height="360"
   xml:space="preserve"
   sodipodi:docname="SG-logo-tmp.svg"
   inkscape:export-filename="/home/pedro/pedro@sg.com.mx/Repositorio SG/Identidad SG/SG/sg-favicon.png"
   inkscape:export-xdpi="16"
   inkscape:export-ydpi="16"><metadata
     id="metadata8"><rdf:RDF><cc:Work
         rdf:about=""><dc:format>image/svg+xml</dc:format><dc:type
           rdf:resource="http://purl.org/dc/dcmitype/StillImage" /><dc:title></dc:title></cc:Work></rdf:RDF></metadata><defs
     id="defs6"><clipPath
       clipPathUnits="userSpaceOnUse"
       id="clipPath16"><path
         d="m 0,157.785 287.67,0 L 287.67,0 0,0 0,157.785 z"
         id="path18"
         inkscape:connector-curvature="0" /></clipPath></defs><sodipodi:namedview
     pagecolor="#ffffff"
     bordercolor="#666666"
     borderopacity="1"
     objecttolerance="10"
     gridtolerance="10"
     guidetolerance="10"
     inkscape:pageopacity="0"
     inkscape:pageshadow="2"
     inkscape:window-width="1061"
     inkscape:window-height="640"
     id="namedview4"
     showgrid="false"
     inkscape:zoom="0.91215631"
     inkscape:cx="86.42036"
     inkscape:cy="173.25416"
     inkscape:window-x="51"
     inkscape:window-y="24"
     inkscape:window-maximized="0"
     inkscape:current-layer="g3116" /><g
     id="g10"
     inkscape:groupmode="layer"
     inkscape:label="SG-logo"
     transform="matrix(1.25,0,0,-1.25,0,360)"><g
       id="g3116"
       transform="matrix(1.3547131,0,0,1.3547131,-54.883598,13.693537)"><rect
         transform="scale(1,-1)"
         y="-202.23947"
         x="41.16048"
         height="212.99495"
         width="213.64233"
         id="rect3122"
         style="fill:#0099ff;fill-opacity:1;stroke:none" /><g
         id="g4210"
         transform="translate(0,9.4484951)"><g
           style="fill:#ffffff"
           id="g3896"><path
             d="m 71.96864,79.54564 c 0.594,-4.129 0.856,-6.672 2.904,-9.09 3.469,-3.828 9.532,-4.728 16.894,-4.728 11.119,0 17.759,3.07 17.759,10.211 0,3.954 -2.311,7.395 -6.061,8.926 -3.034,1.275 -6.641,2.17 -21.659,5.231 -13.28,2.548 -17.902,4.08 -23.247,7.395 -9.095,5.608 -14.003,14.152 -14.003,24.484 0,19.636 17.902,32.005 46.346,32.005 18.338,0 32.342,-4.973 40.14,-14.538 3.092,-3.604 6.565,-10.861 7.169,-17.532 l 0.011,-0.811 -30.606,0 0,0.264 c -1.766,8.178 -6.967,11.577 -17.867,11.577 -8.808,0 -15.305,-4.208 -15.305,-10.075 0,-3.57 2.167,-6.25 6.783,-8.159 2.89,-1.15 2.89,-1.15 19.927,-4.208 10.976,-2.042 17.902,-4.209 23.391,-7.269 10.39,-5.738 15.591,-14.284 15.591,-26.016 0,-9.563 -3.464,-17.725 -10.104,-23.463 -8.376,-7.14 -21.08,-10.839 -37.977,-10.839 -12.272,0 -24.401,2.297 -32.194,6.247 -7.219,3.571 -12.563,9.056 -15.593,16.326 -1.37,2.894 -2.236,7.345 -2.409,14.062 l 30.11,0 z"
             style="fill:#ffffff;fill-opacity:1;fill-rule:nonzero;stroke:none"
             id="path30"
             inkscape:connector-curvature="0" /><g
             style="fill:#ffffff"
             transform="translate(218.98664,78.53584)"
             id="g24"><path
               inkscape:connector-curvature="0"
               id="path26"
               style="fill:#ffffff;fill-opacity:1;fill-rule:nonzero;stroke:none"
               d="m 0,0 -22.881,0 0,19.971 55.919,0 0,-55.919 -19.97,0 0,11.776 c -9.402,-7.378 -21.257,-11.776 -34.134,-11.776 -30.565,0 -55.345,24.775 -55.345,55.34 0,30.566 24.78,55.344 55.345,55.344 24.494,0 45.267,-15.911 52.557,-37.961 l -29.803,0 c -5.231,6.84 -13.481,11.25 -22.754,11.25 -15.813,0 -28.635,-12.818 -28.635,-28.633 0,-15.812 12.822,-28.632 28.635,-28.632 8.329,0 15.831,3.56 21.066,9.24 z" /></g></g><g
           transform="matrix(1.3619984,0,0,1.3619984,-14.861061,-14.571281)"
           id="g4184"><g
             id="g3988"
             transform="matrix(0.73816367,0,0,0.73816367,50.189826,39.087589)"
             style="fill:#ffffff"><path
               d="m 0,0 c -1.572,0.896 -3.769,1.459 -5.552,1.459 -3.548,0 -6.123,-2.353 -6.123,-5.956 0,-3.433 1.91,-4.185 4.801,-5.011 0.989,-0.283 2.797,-0.726 2.797,-2.025 0,-1.245 -1.146,-1.79 -2.226,-1.79 -1.582,0 -2.949,0.826 -4.097,1.835 l -1.978,-3.714 c 1.814,-1.271 3.997,-2.025 6.235,-2.025 1.79,0 3.651,0.492 5.038,1.668 1.412,1.203 1.839,3.017 1.839,4.784 0,2.865 -1.91,4.114 -4.384,4.845 l -1.177,0.353 c -0.803,0.26 -2.047,0.66 -2.047,1.693 0,0.988 1.127,1.486 1.977,1.486 1.128,0 2.216,-0.471 3.058,-1.179 L 0,0 z"
               style="fill:#ffffff;fill-opacity:1;fill-rule:nonzero;stroke:none"
               id="path3990"
               inkscape:connector-curvature="0" /></g><g
             id="g3992"
             transform="matrix(0.73816367,0,0,0.73816367,58.924806,40.252269)"
             style="fill:#ffffff"><path
               d="m 0,0 c -5.102,0 -9.814,-3.765 -9.814,-9.131 0,-5.745 4.126,-9.793 9.814,-9.793 5.7,0 9.818,4.048 9.818,9.793 C 9.818,-3.765 5.118,0 0,0 m 0,-4.474 c 2.761,0 5.016,-2.234 5.016,-4.684 0,-3.056 -2.255,-5.292 -5.016,-5.292 -2.749,0 -5.007,2.236 -5.007,5.292 0,2.45 2.258,4.684 5.007,4.684"
               style="fill:#ffffff;fill-opacity:1;fill-rule:nonzero;stroke:none"
               id="path3994"
               inkscape:connector-curvature="0" /></g><g
             id="g3996"
             transform="matrix(0.73816367,0,0,0.73816367,75.277646,36.932669)"
             style="fill:#ffffff"><path
               d="m 0,0 0,3.907 -10.189,0 0,-17.744 4.61,0 0,6.965 5.056,0 0,3.908 -5.056,0 0,2.964 L 0,0 z"
               style="fill:#ffffff;fill-opacity:1;fill-rule:nonzero;stroke:none"
               id="path3998"
               inkscape:connector-curvature="0" /></g><g
             id="g4000"
             transform="matrix(0.73816367,0,0,0.73816367,82.385196,36.932669)"
             style="fill:#ffffff"><path
               d="m 0,0 3.808,0 0,3.907 -12.238,0 0,-3.907 3.808,0 0,-13.837 4.622,0 L 0,0 z"
               style="fill:#ffffff;fill-opacity:1;fill-rule:nonzero;stroke:none"
               id="path4002"
               inkscape:connector-curvature="0" /></g><g
             id="g4004"
             transform="matrix(0.73816367,0,0,0.73816367,88.599136,39.816969)"
             style="fill:#ffffff"><path
               d="m 0,0 -4.796,0 5.292,-17.744 4.681,0 3.483,10.287 0.049,0 3.107,-10.287 4.712,0 5.668,17.744 -4.801,0 -3.341,-11.46 -0.053,0 L 10.521,0 6.848,0 3.128,-11.46 3.087,-11.46 0,0 z"
               style="fill:#ffffff;fill-opacity:1;fill-rule:nonzero;stroke:none"
               id="path4006"
               inkscape:connector-curvature="0" /></g><g
             id="g4008"
             transform="matrix(0.73816367,0,0,0.73816367,112.46899,28.993419)"
             style="fill:#ffffff"><path
               d="m 0,0 1.158,-3.081 4.917,0 -6.678,17.744 -5.048,0 -6.817,-17.744 4.888,0 L -6.35,0 0,0 z m -1.248,3.532 -3.827,0 1.898,5.646 0.053,0 1.876,-5.646 z"
               style="fill:#ffffff;fill-opacity:1;fill-rule:nonzero;stroke:none"
               id="path4010"
               inkscape:connector-curvature="0" /></g><g
             id="g4012"
             transform="matrix(0.73816367,0,0,0.73816367,124.78297,32.086619)"
             style="fill:#ffffff"><path
               d="m 0,0 c 2.523,0.445 3.888,2.562 3.888,5.013 0,3.788 -2.662,5.459 -6.163,5.459 l -6.899,0 0,-17.744 4.612,0 0,6.829 0.051,0 4.353,-6.829 5.737,0 L 0,0 z m -4.562,6.94 0.444,0 c 1.505,0 3.208,-0.279 3.208,-2.211 0,-1.929 -1.703,-2.212 -3.208,-2.212 l -0.444,0 0,4.423 z"
               style="fill:#ffffff;fill-opacity:1;fill-rule:nonzero;stroke:none"
               id="path4014"
               inkscape:connector-curvature="0" /></g><g
             id="g4016"
             transform="matrix(0.73816367,0,0,0.73816367,137.27277,36.932669)"
             style="fill:#ffffff"><path
               d="m 0,0 0,3.907 -10.094,0 0,-17.744 10.094,0 0,3.908 -5.483,0 0,3.057 5.204,0 0,3.908 -5.204,0 0,2.964 L 0,0 z"
               style="fill:#ffffff;fill-opacity:1;fill-rule:nonzero;stroke:none"
               id="path4018"
               inkscape:connector-curvature="0" /></g><g
             id="g4020"
             transform="matrix(0.73816367,0,0,0.73816367,151.63935,34.032569)"
             style="fill:#ffffff"><path
               d="m 0,0 0,-3.624 3.769,0 C 3.57,-5.673 2.046,-6.708 0.047,-6.708 c -3.035,0 -4.689,2.801 -4.689,5.556 0,2.706 1.582,5.602 4.611,5.602 1.87,0 3.204,-1.128 3.839,-2.827 L 8.19,3.458 c -1.533,3.32 -4.351,4.968 -8.004,4.968 -5.718,0 -9.629,-3.788 -9.629,-9.553 0,-5.581 3.892,-9.371 9.463,-9.371 2.968,0 5.578,1.061 7.32,3.484 C 8.914,-4.804 9.1,-2.585 9.152,0 L 0,0 z"
               style="fill:#ffffff;fill-opacity:1;fill-rule:nonzero;stroke:none"
               id="path4022"
               inkscape:connector-curvature="0" /></g><g
             id="g4024"
             transform="matrix(0.73816367,0,0,0.73816367,167.91867,39.816969)"
             style="fill:#ffffff"><path
               d="m 0,0 0,-9.344 c 0,-2.304 -0.17,-4.823 -3.136,-4.823 -2.97,0 -3.128,2.519 -3.128,4.823 l 0,9.344 -4.622,0 0,-9.976 c 0,-2.283 0.099,-4.542 1.861,-6.265 1.486,-1.454 3.821,-1.974 5.889,-1.974 2.068,0 4.399,0.52 5.885,1.974 1.762,1.723 1.861,3.982 1.861,6.265 L 4.61,0 0,0 z"
               style="fill:#ffffff;fill-opacity:1;fill-rule:nonzero;stroke:none"
               id="path4026"
               inkscape:connector-curvature="0" /></g><g
             id="g4028"
             transform="matrix(0.73816367,0,0,0.73816367,180.2471,32.086619)"
             style="fill:#ffffff"><path
               d="m 0,0 c 2.523,0.445 3.888,2.562 3.888,5.013 0,3.788 -2.66,5.459 -6.175,5.459 l -6.897,0 0,-17.744 4.623,0 0,6.829 0.048,0 4.355,-6.829 5.737,0 L 0,0 z m -4.561,6.94 0.445,0 c 1.505,0 3.196,-0.279 3.196,-2.211 0,-1.929 -1.691,-2.212 -3.196,-2.212 l -0.445,0 0,4.423 z"
               style="fill:#ffffff;fill-opacity:1;fill-rule:nonzero;stroke:none"
               id="path4030"
               inkscape:connector-curvature="0" /></g><g
             id="g4032"
             transform="matrix(0.73816367,0,0,0.73816367,193.23997,39.816969)"
             style="fill:#ffffff"><path
               d="m 0,0 0,-9.344 c 0,-2.304 -0.158,-4.823 -3.128,-4.823 -2.966,0 -3.125,2.519 -3.125,4.823 l 0,9.344 -4.622,0 0,-9.976 c 0,-2.283 0.1,-4.542 1.861,-6.265 1.486,-1.454 3.818,-1.974 5.886,-1.974 2.072,0 4.403,0.52 5.889,1.974 1.761,1.723 1.851,3.982 1.851,6.265 L 4.612,0 0,0 z"
               style="fill:#ffffff;fill-opacity:1;fill-rule:nonzero;stroke:none"
               id="path4034"
               inkscape:connector-curvature="0" /></g></g></g></g></g></svg>