<?xml version="1.0" encoding="utf-8"?>
<!-- Generator: Adobe Illustrator 15.0.0, SVG Export Plug-In . SVG Version: 6.00 Build 0)  -->
<!DOCTYPE svg PUBLIC "-//W3C//DTD SVG 1.1//EN" "http://www.w3.org/Graphics/SVG/1.1/DTD/svg11.dtd">
<svg version="1.1" id="Layer_1" xmlns="http://www.w3.org/2000/svg" xmlns:xlink="http://www.w3.org/1999/xlink" x="0px" y="0px"
	 width="595.277px" height="216.464px" viewBox="0 0 595.277 216.464" enable-background="new 0 0 595.277 216.464"
	 xml:space="preserve">
<g>
	<path fill="#F40C5A" stroke="#F40C5A" stroke-width="2" stroke-miterlimit="10" d="M139.857,121.07v23.676H116.18v41.434H92.504
		v-41.434H21.711L51.307,18.55l22.967,5.446L51.544,121.07h40.96V50.04h23.676v71.03H139.857z"/>
	<path fill="#F40C5A" stroke="#F40C5A" stroke-width="2" stroke-miterlimit="10" d="M386.091,103.312
		c0,11.364-2.172,22.101-6.511,32.2c-4.344,10.104-10.264,18.904-17.758,26.399c-7.5,7.499-16.3,13.418-26.399,17.757
		c-10.104,4.343-20.835,6.511-32.2,6.511s-22.1-2.168-32.201-6.511c-10.102-4.339-18.904-10.258-26.398-17.757
		c-7.498-7.495-13.418-16.296-17.758-26.399c-4.342-10.099-6.511-20.835-6.511-32.2c0-11.365,2.169-22.097,6.511-32.2
		c4.34-10.1,10.26-18.901,17.758-26.399c7.494-7.495,16.297-13.414,26.398-17.758c10.102-4.339,20.836-6.511,32.201-6.511
		s22.097,2.171,32.2,6.511c10.1,4.344,18.899,10.263,26.399,17.758c7.494,7.499,13.414,16.299,17.758,26.399
		C383.919,81.215,386.091,91.948,386.091,103.312z M303.223,44.121c-8.209,0-15.903,1.539-23.084,4.617
		c-7.184,3.078-13.459,7.302-18.823,12.667c-5.368,5.368-9.589,11.643-12.667,18.823c-3.078,7.185-4.617,14.879-4.617,23.085
		c0,8.209,1.539,15.903,4.617,23.084c3.078,7.184,7.299,13.458,12.667,18.823c5.364,5.367,11.64,9.589,18.823,12.667
		c7.181,3.078,14.875,4.616,23.084,4.616c8.205,0,15.9-1.538,23.085-4.616c7.181-3.078,13.455-7.3,18.823-12.667
		c5.365-5.364,9.589-11.639,12.667-18.823c3.077-7.181,4.616-14.875,4.616-23.084c0-8.206-1.539-15.9-4.616-23.085
		c-3.078-7.181-7.302-13.455-12.667-18.823c-5.368-5.364-11.643-9.589-18.823-12.667C319.123,45.66,311.428,44.121,303.223,44.121z"
		/>
	<path fill="#F40C5A" stroke="#F40C5A" stroke-width="2" stroke-miterlimit="10" d="M586.156,121.07v23.676h-23.677v41.434h-23.677
		v-41.434H468.01L497.605,18.55l22.967,5.446l-22.729,97.074h40.96V50.04h23.677v71.03H586.156z"/>
</g>
</svg>
