<?xml version="1.0" encoding="utf-8"?>
<!-- Generator: Adobe Illustrator 15.0.0, SVG Export Plug-In . SVG Version: 6.00 Build 0)  -->
<!DOCTYPE svg PUBLIC "-//W3C//DTD SVG 1.1//EN" "http://www.w3.org/Graphics/SVG/1.1/DTD/svg11.dtd">
<svg version="1.1" id="Layer_1" xmlns="http://www.w3.org/2000/svg" xmlns:xlink="http://www.w3.org/1999/xlink" x="0px" y="0px"
	 width="319.777px" height="73.795px" viewBox="0 0 319.777 73.795" enable-background="new 0 0 319.777 73.795"
	 xml:space="preserve">
<g>
	<path fill="none" stroke="#F40C5A" stroke-width="2" stroke-miterlimit="10" d="M21.985,20.493v18.046h19.688v6.562H21.985v8.202
		h26.248v6.562H15.422V13.93h32.811v6.562H21.985z"/>
	<path fill="none" stroke="#F40C5A" stroke-width="2" stroke-miterlimit="10" d="M113.002,59.865h-7.875L96.53,46.741h-0.393h-9.843
		v13.124h-6.562V13.93h16.405c2.275,0,4.406,0.427,6.398,1.279c1.99,0.854,3.729,2.024,5.217,3.511
		c1.486,1.487,2.658,3.226,3.511,5.217c0.853,1.991,1.279,4.124,1.279,6.398c0,3.281-0.853,6.224-2.559,8.826
		c-1.707,2.604-3.938,4.583-6.694,5.939L113.002,59.865z M86.294,40.179h9.843c1.355,0,2.635-0.263,3.839-0.788
		c1.203-0.525,2.241-1.224,3.116-2.1c0.875-0.874,1.576-1.914,2.101-3.117c0.525-1.202,0.788-2.482,0.788-3.839
		c0-1.355-0.263-2.635-0.788-3.839c-0.524-1.203-1.226-2.241-2.101-3.117c-0.875-0.875-1.913-1.575-3.116-2.1
		c-1.204-0.524-2.483-0.787-3.839-0.787h-9.843V40.179z"/>
	<path fill="none" stroke="#F40C5A" stroke-width="2" stroke-miterlimit="10" d="M176.196,59.865h-7.875l-8.598-13.124h-0.393
		h-9.843v13.124h-6.563V13.93h16.406c2.273,0,4.406,0.427,6.398,1.279c1.99,0.854,3.729,2.024,5.217,3.511
		c1.486,1.487,2.657,3.226,3.511,5.217c0.853,1.991,1.279,4.124,1.279,6.398c0,3.281-0.853,6.224-2.559,8.826
		c-1.707,2.604-3.938,4.583-6.693,5.939L176.196,59.865z M149.488,40.179h9.843c1.355,0,2.635-0.263,3.839-0.788
		c1.203-0.525,2.241-1.224,3.118-2.1c0.875-0.874,1.574-1.914,2.099-3.117c0.526-1.202,0.788-2.482,0.788-3.839
		c0-1.355-0.262-2.635-0.788-3.839c-0.524-1.203-1.224-2.241-2.099-3.117c-0.877-0.875-1.915-1.575-3.118-2.1
		c-1.204-0.524-2.483-0.787-3.839-0.787h-9.843V40.179z"/>
	<path fill="none" stroke="#F40C5A" stroke-width="2" stroke-miterlimit="10" d="M245.493,36.897c0,3.15-0.602,6.125-1.805,8.924
		c-1.204,2.801-2.845,5.24-4.922,7.317c-2.078,2.078-4.518,3.719-7.316,4.922c-2.801,1.203-5.774,1.804-8.925,1.804
		c-3.149,0-6.125-0.601-8.925-1.804c-2.801-1.203-5.239-2.844-7.316-4.922c-2.078-2.078-3.719-4.517-4.922-7.317
		c-1.203-2.799-1.805-5.774-1.805-8.924c0-3.149,0.602-6.124,1.805-8.924c1.203-2.799,2.844-5.238,4.922-7.317
		c2.077-2.077,4.516-3.718,7.316-4.921c2.8-1.203,5.775-1.805,8.925-1.805c3.15,0,6.124,0.602,8.925,1.805
		c2.799,1.203,5.238,2.844,7.316,4.921c2.077,2.079,3.718,4.518,4.922,7.317C244.891,30.773,245.493,33.748,245.493,36.897z
		 M222.525,20.493c-2.275,0-4.408,0.427-6.398,1.279c-1.991,0.854-3.729,2.024-5.216,3.511c-1.488,1.488-2.658,3.227-3.512,5.217
		c-0.853,1.991-1.279,4.124-1.279,6.398c0,2.275,0.427,4.408,1.279,6.398c0.854,1.991,2.023,3.73,3.512,5.217
		c1.486,1.488,3.225,2.658,5.216,3.511c1.99,0.853,4.123,1.28,6.398,1.28c2.274,0,4.407-0.427,6.397-1.28
		c1.991-0.853,3.729-2.023,5.217-3.511c1.487-1.487,2.658-3.226,3.512-5.217c0.852-1.991,1.279-4.123,1.279-6.398
		c0-2.274-0.428-4.407-1.279-6.398c-0.854-1.99-2.024-3.729-3.512-5.217c-1.487-1.487-3.226-2.657-5.217-3.511
		C226.932,20.919,224.799,20.493,222.525,20.493z"/>
	<path fill="none" stroke="#F40C5A" stroke-width="2" stroke-miterlimit="10" d="M304.355,59.865h-7.875l-8.597-13.124h-0.395
		h-9.842v13.124h-6.562V13.93h16.404c2.275,0,4.408,0.427,6.398,1.279c1.991,0.854,3.729,2.024,5.217,3.511
		c1.487,1.487,2.658,3.226,3.512,5.217c0.852,1.991,1.279,4.124,1.279,6.398c0,3.281-0.853,6.224-2.559,8.826
		c-1.707,2.604-3.938,4.583-6.693,5.939L304.355,59.865z M277.647,40.179h9.842c1.355,0,2.636-0.263,3.84-0.788
		c1.203-0.525,2.24-1.224,3.117-2.1c0.875-0.874,1.574-1.914,2.1-3.117c0.525-1.202,0.788-2.482,0.788-3.839
		c0-1.355-0.263-2.635-0.788-3.839c-0.525-1.203-1.225-2.241-2.1-3.117c-0.877-0.875-1.914-1.575-3.117-2.1
		c-1.204-0.524-2.484-0.787-3.84-0.787h-9.842V40.179z"/>
</g>
</svg>
