<?xml version="1.0" encoding="utf-8"?>
<!-- Generator: Adobe Illustrator 15.0.0, SVG Export Plug-In . SVG Version: 6.00 Build 0)  -->
<!DOCTYPE svg PUBLIC "-//W3C//DTD SVG 1.1//EN" "http://www.w3.org/Graphics/SVG/1.1/DTD/svg11.dtd">
<svg version="1.1" id="Layer_1" xmlns="http://www.w3.org/2000/svg" xmlns:xlink="http://www.w3.org/1999/xlink" x="0px" y="0px"
	 width="233.733px" height="256.062px" viewBox="0 0 233.733 256.062" enable-background="new 0 0 233.733 256.062"
	 xml:space="preserve">
<g>
	<g>
		<g>
			<g>
				<path fill="#F40C5A" d="M206.65,155.483c0.022-7.181-0.761-14.318-0.877-21.5c-0.283-17.223,0.681,2.445,0.681-8.181
					l2.139,0.007c0,0.109,0,0.212,0,0.321c-0.043,9.166,0.906,18.274,0.921,27.425c0.014,8.342-0.399,16.676-0.812,24.996
					c-0.399,8.093-0.899,16.194-1.037,24.302c-0.051,3.102,0.159,6.466-1.95,9.027c-1.581,1.919-3.567,3.146-5.771,4.058
					l-0.964-1.861c3.378-1.481,5.785-3.897,5.792-8.057c0.015-2.686,0.08-5.372,0.181-8.057c0.261-7.123,0.652-14.231,0.993-21.354
					C206.288,169.575,206.628,162.533,206.65,155.483z"/>
				<path fill="#F40C5A" d="M163.053,41.578c-36.536-1.927-73.363-3.459-109.936-1.307c-0.246,0.11-0.507,0.175-0.775,0.161
					c-0.333-0.022-0.667-0.037-1-0.058c-0.399,0.021-0.797,0.043-1.196,0.065c-0.413,0.029-0.71-0.058-0.906-0.197
					c-4.161-0.27-8.511-0.504-12.614,0.095c-0.37,1-2.327,1.335-2.748,0.569c-2.827,0.788-4.901,2.335-5.575,5.437
					c-1.073,4.941-0.544,10.232-0.493,15.253c0.094,8.663,0.015,17.333-0.007,25.995c-0.065,20.113-0.174,40.233-0.297,60.354
					c-0.124,19.149-0.261-6.189-0.392,12.961c-0.094,13.983-0.232,28.067,1.167,41.992c0.515,5.159,0.79,11.487,3.292,16.157
					c1.616,3.021,4.146,2.102,7.336,2.109c4.792,0.015,9.591,0.051,14.39,0.109c12.106,0.153,24.212,0.679,36.319,0.737
					c19.138,0.088,38.254,0.65,57.385,1.255c7.365,0.241,15.042,0.752,22.632,0.635l0.036,1.869
					c-13.571,0.277-27.17-0.526-40.719-0.949c-16.659-0.519-33.318-0.438-49.977-0.861c-6.307-0.161-12.614-0.336-18.92-0.445
					c-4.596-0.08-9.185-0.139-13.781-0.175c-4.364-0.029-9.518,0.737-13.795-0.073c-3.276-0.62-4.422-4.692-5.118-7.495
					c-1.486-5.984-2.008-12.209-2.407-18.347c-0.914-14.165-0.754-28.367-0.66-42.554c0.275-39.431,0.573-34.373,0.66-73.796
					c0.021-7.962,0.043-15.917-0.073-23.872c-0.051-4.101-0.515-9.02,1.261-12.866c1.544-3.328,4.611-5.072,8.25-5.933
					c3.581-9.239,17.369-7.641,25.959-7.042c35.094-2.16,70.441-0.847,105.528,0.898c5.169,0.263,10.331,0.525,15.499,0.795
					l-0.109,2.102c-3.233-0.153-6.466-0.27-9.692-0.438c-36.544-1.926-73.37-3.459-109.936-1.313
					c-0.247,0.117-0.515,0.175-0.783,0.161c-0.327-0.015-0.66-0.037-1-0.059c-0.392,0.029-0.791,0.044-1.189,0.073
					c-0.42,0.029-0.718-0.059-0.914-0.205c-5.002-0.328-10.323-0.627-15.093,0.584c-2.581,0.657-4.27,1.868-5.249,3.926
					c4.958-0.555,10.439,0.037,14.448,0.336c34.086-2.095,68.426-0.891,102.505,0.759c5.575,0.27,11.142,0.591,16.709,0.875
					l-0.094,2.08C168.337,41.818,165.691,41.716,163.053,41.578z"/>
				<path fill="#F40C5A" d="M197.11,80.833c0-7.619,0.275-15.355-0.457-22.952c-0.37-3.802-0.848-8.4-3.588-11.333
					c-2.682-2.868-6.931-3.496-10.642-3.868c-3.792-0.373-7.619-0.577-11.439-0.745l0.094-2.08c1.863,0.095,3.719,0.183,5.575,0.263
					c4.611,0.205,9.62,0.277,14.006,1.927c8.112,3.058,8.786,11.896,9.105,19.529c0.754,17.945,0.341,35.979,0.769,53.946
					c0.522,21.952-0.631-0.627-0.464,21.317l-2.11,0.007C197.915,118.176,197.095,99.508,197.11,80.833z"/>
				<path fill="#F40C5A" d="M169.635,223.9c5.249-0.08,10.46-0.459,15.506-1.438c3.081-0.599,6.865-1.416,9.083-3.875
					c2.581-2.868,2.001-6.692,2.095-10.29c0.449-16.435,2.088-32.877,1.798-49.327c-0.174-9.465-1.015-18.865-0.884-28.359
					c0.152-11.363,0.66,21.77,0.717,10.407c0.007-1.394,0.007-2.781,0.007-4.174l2.11-0.007c0.065,8.75,1.015,17.449,0.913,26.199
					c-0.094,8.531-0.529,17.062-0.957,25.586c-0.391,7.772-0.884,15.566-0.906,23.354c0,0.708-0.043,1.408-0.138,2.102l0.964,1.861
					c-0.507,0.212-1.029,0.409-1.559,0.591c-0.428,1.167-1.065,2.248-2.015,3.167c-5.597,5.394-15.028,5.671-22.284,5.948
					c-1.472,0.058-2.943,0.102-4.415,0.124L169.635,223.9z"/>
				<path fill="#F40C5A" d="M196.653,57.881c0.732,7.597,0.457,15.333,0.457,22.952c-0.015,18.675,0.805,37.343,0.848,56.011
					c0,1.394,0,2.78-0.007,4.174c-0.058,11.363-0.565-21.77-0.717-10.407c-0.131,9.495,0.71,18.894,0.884,28.359
					c0.29,16.45-1.349,32.892-1.798,49.327c-0.094,3.598,0.486,7.422-2.095,10.29c-2.218,2.459-6.002,3.276-9.083,3.875
					c-5.046,0.978-10.258,1.357-15.506,1.438c-7.59,0.117-15.267-0.394-22.632-0.635c-19.131-0.605-38.247-1.167-57.385-1.255
					c-12.106-0.058-24.213-0.583-36.319-0.737c-4.799-0.059-9.598-0.095-14.39-0.109c-3.189-0.007-5.72,0.912-7.336-2.109
					c-2.501-4.67-2.777-10.998-3.292-16.157c-1.399-13.925-1.261-28.009-1.167-41.992c0.13-19.15,0.268,6.188,0.392-12.961
					c0.123-20.121,0.232-40.241,0.297-60.354c0.022-8.663,0.102-17.333,0.007-25.995c-0.051-5.021-0.58-10.312,0.493-15.253
					c0.674-3.102,2.748-4.648,5.575-5.437c0.42,0.766,2.377,0.43,2.748-0.569c4.103-0.599,8.453-0.365,12.614-0.095
					c0.195,0.139,0.493,0.226,0.906,0.197c0.399-0.022,0.797-0.044,1.196-0.065c0.333,0.021,0.667,0.036,1,0.058
					c0.268,0.015,0.529-0.051,0.775-0.161c36.573-2.153,73.399-0.62,109.936,1.307c2.639,0.139,5.285,0.241,7.931,0.357
					c3.82,0.168,7.648,0.372,11.439,0.745c3.711,0.372,7.96,1,10.642,3.868C195.805,49.481,196.284,54.079,196.653,57.881z"/>
				<path fill="#F40C5A" d="M186.649,33.324c4.146,0.219,8.59,0.379,12.526,1.861c7.373,2.773,8.554,10.253,8.989,17.362
					c1.087,17.544,0.355,35.263,0.805,52.844c0.551,21.66-0.283-0.795-0.377,20.419l-2.139-0.007c0-1.043-0.007-2.379-0.029-4.072
					c-0.188-15.924-0.805-31.833-0.797-47.757c0.007-7.626,0.283-15.354-0.457-22.952c-0.37-3.81-0.848-8.407-3.581-11.333
					c-2.682-2.875-6.938-3.496-10.642-3.868c-3.211-0.321-6.445-0.511-9.678-0.664l0.109-2.102
					C183.133,33.141,184.895,33.236,186.649,33.324z"/>
			</g>
		</g>
	</g>
</g>
</svg>
