<?xml version="1.0" encoding="utf-8"?>
<!-- Generator: Adobe Illustrator 15.0.0, SVG Export Plug-In . SVG Version: 6.00 Build 0)  -->
<!DOCTYPE svg PUBLIC "-//W3C//DTD SVG 1.1//EN" "http://www.w3.org/Graphics/SVG/1.1/DTD/svg11.dtd">
<svg version="1.1" id="Layer_1" xmlns="http://www.w3.org/2000/svg" xmlns:xlink="http://www.w3.org/1999/xlink" x="0px" y="0px"
	 width="200px" height="200px" viewBox="0 0 200 200" enable-background="new 0 0 200 200" xml:space="preserve">
<g>
	<path fill-rule="evenodd" clip-rule="evenodd" fill="#EDEDED" d="M29.988,99.849c-0.104-38.794,31.919-70.241,70.805-69.894
		c37.995,0.339,69.231,31.723,69.219,70.167c-0.016,38.534-31.629,70.028-70.188,69.925
		C61.134,169.941,29.982,138.628,29.988,99.849 M151.617,132.835c11.273-16.4,12.315-39.92,5.352-54.706
		c-4.259,8.667-8.416,17.13-12.732,25.917c-1.103-1.934-1.913-3.515-2.876-4.997c-0.796-1.226-0.815-2.237-0.142-3.606
		c3.825-7.785,7.438-15.676,11.328-23.429c0.83-1.653,0.652-2.717-0.226-4.149c-13.078-21.317-37.979-32.654-62.655-28.475
		c-38.189,6.465-61.008,46.603-46.971,82.729c1.353,3.479,3.194,6.765,5.004,10.55c0.728-1.178,1.111-1.754,1.449-2.354
		c8.729-15.541,17.456-31.086,26.183-46.63c3.263-5.812,6.443-11.672,9.86-17.392c0.695-1.16,2.303-2.481,3.462-2.456
		c1.146,0.024,2.339,1.582,3.354,2.616c0.573,0.584,0.837,1.475,1.234,2.228c2.035,3.875,4.069,7.751,6.272,11.947
		c2.552-4.868,4.914-9.311,7.211-13.784c0.836-1.632,1.595-3.244,3.798-3.228c2.126,0.016,3.062,1.491,3.963,3.1
		c8.025,14.338,16.066,28.666,24.11,42.992C142.882,117.337,147.181,124.957,151.617,132.835 M147.368,139.003
		c-12.247-21.79-24.347-43.321-36.684-65.27c-3.818,7.148-7.434,13.914-11.237,21.038c-3.753-7.087-7.284-13.753-10.895-20.573
		c-0.375,0.5-0.588,0.729-0.737,0.993c-11.661,20.742-23.327,41.479-34.918,62.259c-0.304,0.544-0.069,1.789,0.379,2.297
		c13.516,15.388,30.542,22.506,50.988,21.553c1.833-0.084,2.855-0.801,3.724-2.456c5.964-11.396,12.041-22.732,18.092-34.084
		c1.185-2.223,2.405-4.428,3.732-6.867c0.983,1.622,1.676,3.024,2.61,4.243c1.255,1.636,1.085,3,0.116,4.786
		c-5.434,10.011-10.723,20.102-16.053,30.169c-0.307,0.579-0.541,1.193-1.033,2.291C128.61,155.827,138.98,148.968,147.368,139.003"
		/>
	<g>
		<g>
			<path fill="#EDEDED" d="M91.51,101.085h4.924l7.639,24.403l7.603-24.403h4.815l-10.535,31.978h-3.91L91.51,101.085z"/>
		</g>
		<g>
			<path fill="#EDEDED" d="M84.209,103.527l4.225-1.287l9.246,30.375l-4.225,1.286L84.209,103.527z"/>
		</g>
	</g>
</g>
</svg>
