<?xml version="1.0" encoding="utf-8"?>
<!-- Generator: Adobe Illustrator 16.0.0, SVG Export Plug-In . SVG Version: 6.00 Build 0)  -->
<!DOCTYPE svg PUBLIC "-//W3C//DTD SVG 1.1//EN" "http://www.w3.org/Graphics/SVG/1.1/DTD/svg11.dtd">
<svg version="1.1" id="Layer_1" xmlns="http://www.w3.org/2000/svg" xmlns:xlink="http://www.w3.org/1999/xlink" x="0px" y="0px"
	 width="200px" height="55px" viewBox="0 0 200 55" enable-background="new 0 0 200 55" xml:space="preserve">
<g>
	<linearGradient id="SVGID_1_" gradientUnits="userSpaceOnUse" x1="6.3003" y1="77.4229" x2="6.3003" y2="-20.6154">
		<stop  offset="0" style="stop-color:#5AFF45"/>
		<stop  offset="0.9997" style="stop-color:#00FFD7"/>
		<stop  offset="1" style="stop-color:#00FFD7"/>
	</linearGradient>
	<path fill="url(#SVGID_1_)" d="M4.289,10.936v0.943H3.145V2.373h1.182v4.438h0.038c0.201-0.293,0.48-0.542,0.84-0.748
		C5.564,5.858,5.99,5.755,6.484,5.755c0.443,0,0.847,0.08,1.21,0.239c0.363,0.159,0.677,0.381,0.94,0.666
		c0.263,0.286,0.466,0.619,0.608,1c0.142,0.381,0.213,0.79,0.213,1.226c0,0.436-0.071,0.847-0.213,1.232
		c-0.143,0.386-0.343,0.722-0.602,1.006c-0.259,0.285-0.573,0.509-0.94,0.673c-0.368,0.163-0.782,0.245-1.242,0.245
		c-0.427,0-0.832-0.094-1.217-0.283c-0.384-0.188-0.694-0.463-0.928-0.823H4.289z M8.25,8.892c0-0.276-0.042-0.543-0.126-0.802
		C8.04,7.831,7.914,7.601,7.746,7.4C7.579,7.2,7.371,7.042,7.124,6.924S6.59,6.748,6.263,6.748c-0.302,0-0.576,0.059-0.823,0.176
		C5.192,7.042,4.98,7.2,4.804,7.4C4.628,7.601,4.492,7.831,4.396,8.09S4.251,8.621,4.251,8.905S4.299,9.46,4.396,9.72
		s0.233,0.487,0.409,0.683c0.176,0.197,0.388,0.354,0.635,0.471c0.247,0.117,0.521,0.175,0.823,0.175
		c0.327,0,0.614-0.061,0.861-0.182c0.247-0.122,0.455-0.282,0.622-0.483c0.168-0.2,0.293-0.43,0.377-0.689
		C8.207,9.436,8.25,9.168,8.25,8.892z"/>
	<linearGradient id="SVGID_2_" gradientUnits="userSpaceOnUse" x1="13.7622" y1="77.4219" x2="13.7622" y2="-20.6162">
		<stop  offset="0" style="stop-color:#5AFF45"/>
		<stop  offset="0.9997" style="stop-color:#00FFD7"/>
		<stop  offset="1" style="stop-color:#00FFD7"/>
	</linearGradient>
	<path fill="url(#SVGID_2_)" d="M13.882,10.596h0.025l1.647-4.678h1.257l-2.892,7.368c-0.101,0.252-0.209,0.476-0.327,0.673
		c-0.118,0.197-0.256,0.365-0.415,0.503c-0.16,0.138-0.346,0.245-0.56,0.32c-0.213,0.076-0.467,0.113-0.76,0.113
		c-0.126,0-0.254-0.006-0.383-0.019c-0.13-0.012-0.262-0.036-0.396-0.069l0.113-1.043c0.201,0.067,0.398,0.101,0.591,0.101
		c0.31,0,0.541-0.086,0.691-0.258c0.151-0.172,0.289-0.417,0.415-0.736l0.377-0.993l-2.553-5.96h1.32L13.882,10.596z"/>
</g>
<g>
	<g>
		<linearGradient id="SVGID_3_" gradientUnits="userSpaceOnUse" x1="44.9966" y1="77.4219" x2="44.9966" y2="-20.6168">
			<stop  offset="0" style="stop-color:#5AFF45"/>
			<stop  offset="0.9997" style="stop-color:#00FFD7"/>
			<stop  offset="1" style="stop-color:#00FFD7"/>
		</linearGradient>
		<path fill="url(#SVGID_3_)" d="M49.845,29.203c-0.417-0.525-0.981-0.916-1.692-1.168c-0.713-0.252-1.387-0.377-2.021-0.377
			c-0.373,0-0.756,0.043-1.151,0.131s-0.767,0.225-1.117,0.412c-0.351,0.186-0.636,0.432-0.854,0.738
			c-0.22,0.309-0.329,0.68-0.329,1.117c0,0.703,0.263,1.238,0.789,1.611s1.189,0.691,1.989,0.953
			c0.799,0.264,1.659,0.527,2.58,0.789s1.78,0.635,2.58,1.117s1.463,1.129,1.989,1.939s0.788,1.895,0.788,3.254
			c0,1.293-0.241,2.422-0.723,3.385c-0.482,0.965-1.134,1.764-1.955,2.4c-0.822,0.635-1.775,1.105-2.86,1.412
			c-1.084,0.309-2.229,0.461-3.434,0.461c-1.512,0-2.915-0.23-4.207-0.691c-1.293-0.459-2.499-1.205-3.616-2.234l3.649-4.01
			c0.526,0.701,1.188,1.244,1.988,1.627s1.627,0.574,2.481,0.574c0.416,0,0.838-0.049,1.266-0.146c0.427-0.1,0.811-0.246,1.15-0.445
			c0.34-0.195,0.613-0.447,0.821-0.754c0.208-0.307,0.313-0.67,0.313-1.086c0-0.701-0.269-1.254-0.806-1.658
			c-0.537-0.406-1.21-0.752-2.021-1.037c-0.811-0.283-1.688-0.568-2.629-0.854c-0.942-0.285-1.819-0.668-2.629-1.15
			c-0.811-0.482-1.485-1.117-2.021-1.906c-0.538-0.789-0.805-1.83-0.805-3.123c0-1.248,0.246-2.344,0.739-3.287
			c0.493-0.94,1.149-1.73,1.972-2.367c0.821-0.634,1.769-1.111,2.843-1.429c1.073-0.316,2.179-0.475,3.319-0.475
			c1.314,0,2.585,0.185,3.813,0.558c1.227,0.372,2.333,0.997,3.319,1.873L49.845,29.203z"/>
		<linearGradient id="SVGID_4_" gradientUnits="userSpaceOnUse" x1="73.5913" y1="77.4219" x2="73.5913" y2="-20.6156">
			<stop  offset="0" style="stop-color:#5AFF45"/>
			<stop  offset="0.9997" style="stop-color:#00FFD7"/>
			<stop  offset="1" style="stop-color:#00FFD7"/>
		</linearGradient>
		<path fill="url(#SVGID_4_)" d="M71.439,23.517h4.239l10.123,23.27h-5.785l-2.005-4.93h-9.039l-1.939,4.93h-5.653L71.439,23.517z
			 M73.411,30.287l-2.827,7.23h5.687L73.411,30.287z"/>
		<linearGradient id="SVGID_5_" gradientUnits="userSpaceOnUse" x1="103.8457" y1="77.4219" x2="103.8457" y2="-20.6156">
			<stop  offset="0" style="stop-color:#5AFF45"/>
			<stop  offset="0.9997" style="stop-color:#00FFD7"/>
			<stop  offset="1" style="stop-color:#00FFD7"/>
		</linearGradient>
		<path fill="url(#SVGID_5_)" d="M94.708,23.517h8.676c1.008,0,2.021,0.071,3.041,0.213c1.018,0.143,1.934,0.428,2.744,0.855
			c0.811,0.427,1.469,1.023,1.973,1.791c0.504,0.768,0.756,1.786,0.756,3.057c0,1.314-0.367,2.404-1.102,3.268
			c-0.736,0.867-1.703,1.488-2.91,1.859v0.064c0.768,0.111,1.463,0.324,2.088,0.641c0.625,0.32,1.162,0.725,1.611,1.219
			c0.449,0.492,0.795,1.066,1.035,1.725c0.242,0.656,0.361,1.359,0.361,2.104c0,1.227-0.264,2.25-0.789,3.072
			c-0.525,0.82-1.205,1.484-2.037,1.988c-0.834,0.504-1.77,0.867-2.811,1.086s-2.076,0.328-3.105,0.328h-9.532V23.517z
			 M99.835,32.818h3.716c0.393,0,0.781-0.043,1.166-0.131c0.383-0.088,0.727-0.23,1.035-0.428c0.307-0.197,0.553-0.461,0.74-0.789
			c0.186-0.328,0.279-0.723,0.279-1.184c0-0.48-0.105-0.881-0.312-1.199c-0.209-0.318-0.477-0.564-0.805-0.74
			c-0.33-0.174-0.703-0.301-1.119-0.377c-0.416-0.078-0.82-0.115-1.215-0.115h-3.485V32.818z M99.835,42.449h4.603
			c0.395,0,0.793-0.045,1.199-0.133c0.404-0.088,0.771-0.24,1.1-0.459c0.33-0.219,0.598-0.504,0.807-0.855
			c0.207-0.35,0.312-0.777,0.312-1.281c0-0.547-0.137-0.99-0.412-1.332c-0.273-0.338-0.617-0.596-1.035-0.771
			c-0.416-0.176-0.865-0.297-1.348-0.361c-0.48-0.066-0.932-0.1-1.346-0.1h-3.88V42.449z"/>
		<linearGradient id="SVGID_6_" gradientUnits="userSpaceOnUse" x1="130.0889" y1="77.4219" x2="130.0889" y2="-20.6156">
			<stop  offset="0" style="stop-color:#5AFF45"/>
			<stop  offset="0.9997" style="stop-color:#00FFD7"/>
			<stop  offset="1" style="stop-color:#00FFD7"/>
		</linearGradient>
		<path fill="url(#SVGID_6_)" d="M122.775,23.517h5.129v18.536h9.498v4.734h-14.627V23.517z"/>
		<linearGradient id="SVGID_7_" gradientUnits="userSpaceOnUse" x1="155.1982" y1="77.4219" x2="155.1982" y2="-20.6156">
			<stop  offset="0" style="stop-color:#5AFF45"/>
			<stop  offset="0.9997" style="stop-color:#00FFD7"/>
			<stop  offset="1" style="stop-color:#00FFD7"/>
		</linearGradient>
		<path fill="url(#SVGID_7_)" d="M146.998,23.517h15.811v4.733h-10.684v4.338h10.092v4.732h-10.092v4.732h11.273v4.734h-16.4V23.517
			z"/>
	</g>
	<linearGradient id="SVGID_8_" gradientUnits="userSpaceOnUse" x1="4.1851" y1="77.4326" x2="4.1851" y2="-20.6373">
		<stop  offset="0" style="stop-color:#5AFF45"/>
		<stop  offset="0.9997" style="stop-color:#00FFD7"/>
		<stop  offset="1" style="stop-color:#00FFD7"/>
	</linearGradient>
	<rect x="2.101" y="42.133" fill="url(#SVGID_8_)" width="4.168" height="4.17"/>
	<linearGradient id="SVGID_9_" gradientUnits="userSpaceOnUse" x1="195.8154" y1="77.4326" x2="195.8154" y2="-20.6373">
		<stop  offset="0" style="stop-color:#5AFF45"/>
		<stop  offset="0.9997" style="stop-color:#00FFD7"/>
		<stop  offset="1" style="stop-color:#00FFD7"/>
	</linearGradient>
	<rect x="193.732" y="42.133" fill="url(#SVGID_9_)" width="4.166" height="4.17"/>
</g>
</svg>
