<?xml version="1.0" encoding="utf-8"?>
<!-- Generator: Adobe Illustrator 15.0.0, SVG Export Plug-In . SVG Version: 6.00 Build 0)  -->
<!DOCTYPE svg PUBLIC "-//W3C//DTD SVG 1.1//EN" "http://www.w3.org/Graphics/SVG/1.1/DTD/svg11.dtd">
<svg version="1.1" id="Layer_1" xmlns="http://www.w3.org/2000/svg" xmlns:xlink="http://www.w3.org/1999/xlink" x="0px" y="0px"
	 width="823.054px" height="823.053px" viewBox="0 0 823.054 823.053" enable-background="new 0 0 823.054 823.053"
	 xml:space="preserve">
<g>
	<path fill="#070707" d="M484.982,153.494c-27.533-96.366-65.787-94.647-135.236-94.647c-40.512,0-82.487,23.147-99.85,63.66
		c-14.469,26.044,4.773,52.729-15.9,72.347c-85.382,81.021-154.115-14.472-203.309,104.171
		c-16.662,40.186,21.719,69.452,30.4,104.179c2.894,14.469-8.682,28.938-5.788,40.512c5.788,20.259,28.938,31.832,28.938,46.301
		c0,23.15-37.619,54.98-31.832,92.6c5.788,52.088,40.513,43.408,69.45,72.344c28.938,28.937,17.363,75.236,75.238,60.769
		c26.044-5.786,94.372-33.798,117.927-37.618c53.519-8.684,20.256-2.895,46.3,8.682c20.256,8.68,20.256,20.256,43.406,23.15
		c34.725,2.894,17.362-26.046,54.981,2.894c46.3,34.726,57.874,69.451,124.431,69.451c95.494,2.894,219.925-83.921,176.519-193.882
		c-11.574-31.832-46.3-49.195-31.831-83.922c14.469-37.619,63.663-43.404,63.663-92.6c0-49.192-37.619-52.086-66.557-72.343
		c-37.619-23.15-26.043-31.831-31.831-78.132c-5.788-52.087-40.513-109.962-104.175-104.174
		c-14.469,2.894-0.591,10.629-15.04,20.256c-30.399,20.254-47.762,8.679-65.125,2.891c-20.256-8.68-24.582-43.403-36.156-37.616"/>
	<g>
		<path fill="#070707" d="M485.948,153.235c-9.586-33.287-23.706-71.675-57.88-86.558c-13.365-5.821-28.224-7.417-42.64-8.121
			c-18.605-0.908-38.225-1.832-56.586,1.573c-22.069,4.093-42.684,15.087-58.601,30.848c-8.341,8.259-15.034,18.074-20.054,28.661
			c-2.599,5.48-4.978,10.759-6.188,16.735c-1.305,6.433-1.125,13.115-0.9,19.637c0.442,12.873,1.097,25.687-7.667,36.186
			c-7.924,9.493-19.681,17.327-30.333,23.401c-16.728,9.539-35.361,14.031-54.437,15.458c-30.016,2.248-62.002-2.476-87.231,17.583
			c-16.488,13.108-27.588,33.69-34.771,53.105c-7.817,21.13,0.967,41.741,11.356,60.147c5.688,10.078,11.86,19.898,16.396,30.577
			c2.307,5.433,4.243,11.028,4.132,16.99c-0.132,7.116-3.091,14.003-5.056,20.747c-1.316,4.52-2.108,9.109-1.154,13.769
			c1.04,5.081,4.294,10.041,7.239,14.189c5.816,8.192,13.812,14.711,19.03,23.336c4.97,8.216,1.664,17.307-2.085,25.296
			c-4.448,9.479-10.249,18.296-15.232,27.492c-5.212,9.618-9.601,19.716-11.591,30.521c-2.06,11.183-0.3,23.216,2.911,34.013
			c5.085,17.099,17.654,26.749,32.858,34.6c17.244,8.903,33.307,18.226,43.753,35.212c7.871,12.797,11.378,28.459,21.213,40.02
			c10.888,12.798,28.423,11.571,43.319,8.153c37.725-8.653,72.989-25.991,110.361-35.962c9.546-2.547,19.447-3.777,29.211-5.186
			c2.333-0.337,10.55-2.628,12.435-0.162c1.459,1.907,1.684,4.222,3.512,6.074c5.565,5.641,14.216,7.661,20.635,12.13
			c7.764,5.404,13.853,11.983,23.076,15.013c8.015,2.633,18.042,3.411,26.076,0.314c4.683-1.805,7.774-5.516,12.115-7.744
			c7.026-3.607,17.827,6.191,22.789,9.852c17.97,13.255,33.279,29.287,50.091,43.87c14.921,12.944,31.649,22.036,51.153,25.781
			c40.884,7.851,84.831-1.99,121.49-20.488c35.283-17.803,67.28-46.076,82.885-83.013c7.585-17.954,10.305-37.562,8.229-56.912
			c-2.391-22.286-11.225-41.997-24.367-59.897c-6.238-8.497-12.882-16.912-16.669-26.857c-4.138-10.863-2.304-21.779,2.309-32.151
			c7.668-17.245,24.021-28.094,37.657-40.232c13.684-12.182,23.332-26.609,24.616-45.302c1.34-19.507-4.981-37.849-20.483-50.103
			c-6.727-5.316-14.472-9.262-22.067-13.163c-8.727-4.483-17.04-9.31-25.366-14.473c-7.688-4.767-15.493-10.123-20.993-17.426
			c-3.963-5.262-5.645-11.528-6.416-17.97c-1.033-8.627-0.915-17.401-1.478-26.066c-0.682-10.503-1.862-21.019-4.086-31.313
			c-4.315-19.979-12.816-39.31-25.507-55.388c-12.233-15.499-28.895-26.899-48.119-31.65c-9.646-2.384-22.194-4.01-31.871-1.13
			c-2.183,0.649-4.53,2.101-5.14,4.444c-1.369,5.264-0.329,8.922-4.822,13.21c-5.963,5.689-15.359,9.598-23.201,11.78
			c-6.508,1.811-13.285,1.868-19.904,0.714c-5.157-0.899-10.122-2.724-15.007-4.558c-5.186-1.947-10.356-3.483-14.771-6.956
			c-8.264-6.502-12.698-16.805-17.928-25.628c-2.761-4.66-6.843-10.872-13.027-8.103c-1.203,0.539-0.138,1.678,0.879,1.223
			c6.382-2.857,11.479,9.596,13.752,13.655c4.248,7.59,8.756,15.22,15.689,20.676c6.248,4.916,15.712,7.302,23.23,9.58
			c8.594,2.604,17.352,3.074,26.132,1.141c5.64-1.242,10.99-3.669,16.047-6.397c4.892-2.64,10.045-5.647,12.979-10.513
			c1.709-2.834,1.243-6.173,1.744-9.288c1.029-6.406,15.582-4.735,20.162-4.493c22.375,1.185,42.508,12.073,57.433,28.47
			c14.269,15.677,23.359,35.688,28.471,56.095c4.822,19.252,4.562,38.916,6.166,58.542c0.503,6.155,1.733,12.143,4.741,17.587
			c3.62,6.553,9.724,11.515,15.69,15.823c15.518,11.205,33.102,18.353,49.166,28.552c7.599,4.825,14.25,10.885,18.905,18.645
			c5.933,9.891,7.43,21.938,7.102,33.26c-0.605,20.95-12.845,36.047-28.048,49.084c-13.239,11.353-27.362,22.062-34.646,38.441
			c-4.08,9.176-5.558,18.813-2.986,28.604c2.466,9.392,8.441,17.613,14.082,25.33c6.72,9.192,13.656,18.228,18.318,28.693
			c4.541,10.194,7.541,21.233,9.211,32.248c3.136,20.685-0.013,41.794-8.126,60.997c-16.421,38.872-51.898,67.493-89.404,84.813
			c-19.285,8.905-39.991,14.922-61.082,17.486c-22.509,2.738-46.904,2.066-68.3-5.926c-18.824-7.031-33.554-20.804-47.91-34.362
			c-8.134-7.683-16.334-15.278-25.021-22.337c-8.08-6.563-16.895-14.348-26.863-17.882c-4.029-1.429-7.621-0.694-10.98,1.813
			c-5.539,4.137-10.055,7.01-17.239,7.592c-12.113,0.98-22.734-3.502-31.862-11.051c-3.742-3.095-7.483-6.078-11.654-8.586
			c-4.156-2.499-8.792-4.039-12.893-6.635c-3.014-1.908-4.8-4.147-6.027-7.407c-0.797-2.114-2.729-2.403-4.784-2.446
			c-8.147-0.169-16.688,2.01-24.673,3.295c-7.952,1.28-15.604,3.059-23.321,5.381c-20.161,6.067-39.915,13.485-59.785,20.425
			c-17.807,6.22-36.478,13.72-55.438,15.276c-8.54,0.701-17.161-0.732-24.027-6.101c-5.559-4.347-9.083-10.876-12.103-17.106
			c-7.248-14.952-12.835-30.023-25.151-41.767c-13.294-12.677-30.776-18.055-45.604-28.347
			c-17.708-12.289-24.299-36.186-21.884-56.865c2.618-22.415,17.593-40.604,27.125-60.312c3.191-6.597,6.22-14.48,4.089-21.836
			c-2.478-8.556-10.643-15.343-16.271-21.841c-3.425-3.955-6.534-8.144-9.033-12.747c-3.647-6.718-3.79-12.903-1.815-20.165
			c1.505-5.535,3.532-10.878,4.631-16.523c1.173-6.022,0.168-11.438-1.773-17.149c-7.185-21.143-22.522-38.427-29.615-59.642
			c-3.862-11.553-4-23.605-0.072-35.147c4.099-12.041,10.576-23.914,17.779-34.36c10.14-14.706,23.926-25.833,41.289-30.549
			c14.955-4.062,30.811-3.532,46.165-3.89c17.07-0.397,34.029-1.98,50.298-7.458c9.03-3.04,17.707-7.27,25.726-12.408
			c9.703-6.217,20.191-13.652,27.2-22.919c6.83-9.03,6.599-20.852,6.198-31.592c-0.224-6.014-0.419-11.998,0.13-18
			c0.699-7.643,3.615-14.067,6.743-20.931c10.525-23.094,30.336-40.792,53.319-50.986c21.015-9.32,42.874-9.515,65.39-9.261
			c15.942,0.179,32.238,0.762,47.635,5.289c14.402,4.234,26.612,12.705,36.094,24.286c15.035,18.365,23.058,42.041,29.531,64.521
			C484.288,154.695,486.219,154.174,485.948,153.235L485.948,153.235z"/>
	</g>
</g>
</svg>
