<?xml version="1.0" encoding="utf-8"?>
<!-- Generator: Adobe Illustrator 15.0.0, SVG Export Plug-In . SVG Version: 6.00 Build 0)  -->
<!DOCTYPE svg PUBLIC "-//W3C//DTD SVG 1.1//EN" "http://www.w3.org/Graphics/SVG/1.1/DTD/svg11.dtd">
<svg version="1.1" id="Layer_1" xmlns="http://www.w3.org/2000/svg" xmlns:xlink="http://www.w3.org/1999/xlink" x="0px" y="0px"
	 width="180.251px" height="188.075px" viewBox="0 0 180.251 188.075" enable-background="new 0 0 180.251 188.075"
	 xml:space="preserve">
<g>
	<g id="XMLID_29_">
		<g>
			<path fill="#272727" d="M11.525,35.399c-0.045-4.432-0.512-9.102,0.435-13.462c0.595-2.737,2.425-4.103,4.92-4.798
				c0.371,0.676,2.099,0.38,2.425-0.502c3.622-0.528,7.46-0.322,11.133-0.084c0.173,0.123,0.435,0.2,0.8,0.174
				c0.352-0.019,0.704-0.039,1.056-0.058c0.294,0.019,0.588,0.032,0.883,0.051c0.237,0.013,0.467-0.045,0.685-0.142
				c32.28-1.9,64.783-0.547,97.03,1.153c2.329,0.123,4.665,0.213,7,0.316c3.372,0.148,6.75,0.328,10.097,0.657
				c3.276,0.329,7.025,0.882,9.393,3.414c2.418,2.589,2.841,6.647,3.167,10.003c0.646,6.706,0.403,13.533,0.403,20.258
				c-0.013,16.483,0.71,32.959,0.749,49.436c0,1.23,0,2.454-0.006,3.685c-0.051,10.029-0.499-19.214-0.633-9.185
				c-0.115,8.38,0.627,16.676,0.787,25.03c0.25,14.519-1.196,29.031-1.593,43.536c-0.083,3.176,0.429,6.551-1.849,9.082
				c-1.958,2.171-5.297,2.892-8.017,3.42c-4.133,0.799-8.395,1.146-12.694,1.25c-7.025,0.167-14.141-0.322-20.967-0.541
				c-16.885-0.535-33.758-1.031-50.649-1.108c-10.686-0.051-21.371-0.515-32.056-0.65c-4.229-0.052-8.471-0.084-12.701-0.097
				c-2.815-0.006-5.048,0.805-6.475-1.862c-2.201-4.122-2.451-9.707-2.905-14.261c-1.235-12.29-1.113-24.721-1.03-37.062
				c0.115-16.902,0.237,5.462,0.346-11.439c0.109-17.759,0.205-35.517,0.262-53.269C11.538,50.697,11.608,43.045,11.525,35.399z"/>
			<path fill="#272727" d="M163.971,82.993c0.46,19.375-0.557-0.554-0.41,18.815l-1.862,0.006
				c-0.039-16.477-0.761-32.953-0.749-49.436c0-6.725,0.243-13.552-0.403-20.258c-0.326-3.356-0.749-7.414-3.167-10.003
				c-2.368-2.532-6.117-3.085-9.393-3.414c-3.347-0.329-6.725-0.509-10.097-0.657l0.083-1.836c1.645,0.084,3.282,0.161,4.92,0.232
				c4.069,0.18,8.491,0.245,12.361,1.7c7.16,2.699,7.755,10.5,8.037,17.237C163.958,51.219,163.594,67.135,163.971,82.993z"/>
			<path fill="#272727" d="M163.562,101.808c0.058,7.723,0.896,15.401,0.806,23.124c-0.083,7.53-0.467,15.06-0.845,22.583
				c-0.345,6.86-0.78,13.739-0.8,20.612c0,0.625-0.038,1.243-0.121,1.855l0.851,1.643c-0.448,0.187-0.908,0.36-1.375,0.521
				c-0.377,1.031-0.94,1.984-1.772,2.795c-4.946,4.76-13.27,5.005-19.675,5.25c-0.966,0.039-1.932,0.071-2.898,0.084l-0.038-1.643
				c4.299-0.103,8.561-0.451,12.694-1.25c2.72-0.528,6.06-1.25,8.017-3.42c2.278-2.531,1.766-5.906,1.849-9.082
				c0.397-14.505,1.843-29.018,1.593-43.536c-0.16-8.354-0.902-16.65-0.787-25.03c0.134-10.029,0.582,19.214,0.633,9.185
				c0.006-1.23,0.006-2.454,0.006-3.685L163.562,101.808z"/>
			<path fill="#272727" d="M169.173,88.475c-0.167-14.055-0.71-28.096-0.704-42.151c0.006-6.731,0.25-13.552-0.403-20.258
				c-0.326-3.362-0.749-7.42-3.161-10.003c-2.368-2.538-6.123-3.085-9.393-3.414c-2.834-0.283-5.688-0.451-8.542-0.586l0.096-1.855
				c1.548,0.078,3.103,0.161,4.651,0.239c3.66,0.193,7.582,0.335,11.056,1.642c6.507,2.448,7.55,9.05,7.934,15.324
				c0.96,15.485,0.313,31.124,0.71,46.641c0.486,19.118-0.25-0.702-0.333,18.023l-1.888-0.007
				C169.198,91.148,169.192,89.969,169.173,88.475z"/>
			<path fill="#272727" d="M20.003,14.472c4.376-0.489,9.213,0.032,12.751,0.296c30.085-1.849,60.394-0.786,90.472,0.67
				c4.92,0.238,9.834,0.522,14.748,0.773l-0.083,1.836c-2.335-0.103-4.671-0.193-7-0.316c-32.247-1.7-64.75-3.053-97.03-1.153
				c-0.217,0.097-0.448,0.155-0.685,0.142c-0.294-0.019-0.588-0.032-0.883-0.051c-0.352,0.019-0.704,0.039-1.056,0.058
				c-0.365,0.026-0.627-0.051-0.8-0.174c-3.673-0.238-7.512-0.444-11.133,0.084c-0.326,0.882-2.054,1.179-2.425,0.502
				c-2.496,0.695-4.325,2.061-4.92,4.798c-0.947,4.361-0.48,9.031-0.435,13.462c0.083,7.646,0.013,15.298-0.006,22.943
				c-0.058,17.752-0.153,35.51-0.262,53.269c-0.109,16.901-0.23-5.462-0.346,11.439c-0.083,12.341-0.205,24.773,1.03,37.062
				c0.454,4.554,0.704,10.139,2.905,14.261c1.427,2.667,3.66,1.855,6.475,1.862c4.229,0.013,8.471,0.045,12.701,0.097
				c10.685,0.135,21.37,0.599,32.056,0.65c16.891,0.077,33.764,0.573,50.649,1.108c6.827,0.219,13.942,0.708,20.967,0.541
				l0.038,1.643c-12.304,0.309-24.646-0.432-36.938-0.812c-14.703-0.458-29.406-0.387-44.11-0.76
				c-5.566-0.142-11.133-0.296-16.699-0.393c-4.057-0.071-8.107-0.123-12.164-0.155c-3.852-0.026-8.401,0.65-12.176-0.064
				c-2.892-0.547-3.903-4.142-4.517-6.615c-1.312-5.282-1.772-10.776-2.125-16.193c-0.8-12.502-0.666-25.037-0.582-37.559
				c0.243-34.802,0.505-30.338,0.582-65.133c0.02-7.027,0.039-14.048-0.058-21.069c-0.051-3.62-0.46-7.961,1.107-11.355
				c1.363-2.938,4.069-4.477,7.281-5.237c3.161-8.155,15.331-6.744,22.913-6.216c30.974-1.907,62.172-0.747,93.14,0.792
				c4.562,0.231,9.118,0.463,13.68,0.702l-0.096,1.855c-2.854-0.135-5.707-0.238-8.555-0.387c-32.254-1.7-64.757-3.053-97.03-1.159
				c-0.217,0.103-0.454,0.154-0.691,0.142c-0.288-0.013-0.582-0.032-0.883-0.052c-0.346,0.026-0.698,0.039-1.049,0.064
				c-0.371,0.026-0.634-0.051-0.806-0.18c-4.415-0.29-9.111-0.554-13.321,0.515C22.357,11.586,20.867,12.655,20.003,14.472z"/>
			<path fill="#272727" d="M171.086,92.359c-0.039,8.09,0.8,16.129,0.812,24.206c0.013,7.362-0.352,14.718-0.716,22.061
				c-0.352,7.144-0.793,14.293-0.915,21.449c-0.045,2.738,0.141,5.707-1.721,7.968c-1.395,1.694-3.148,2.776-5.093,3.582
				l-0.851-1.643c2.981-1.308,5.105-3.439,5.112-7.111c0.013-2.37,0.071-4.741,0.16-7.111c0.23-6.287,0.576-12.561,0.883-18.847
				c0.294-6.209,0.595-12.425,0.614-18.647c0.02-6.338-0.672-12.638-0.774-18.976c-0.25-15.201,0.601,2.158,0.601-7.221l1.888,0.007
				C171.086,92.172,171.086,92.262,171.086,92.359z"/>
		</g>
		<g>
		</g>
	</g>
</g>
</svg>
