<?xml version="1.0" encoding="utf-8"?>
<!-- Generator: Adobe Illustrator 15.0.0, SVG Export Plug-In . SVG Version: 6.00 Build 0)  -->
<!DOCTYPE svg PUBLIC "-//W3C//DTD SVG 1.1//EN" "http://www.w3.org/Graphics/SVG/1.1/DTD/svg11.dtd">
<svg version="1.1" id="Layer_1" xmlns="http://www.w3.org/2000/svg" xmlns:xlink="http://www.w3.org/1999/xlink" x="0px" y="0px"
	 width="76.557px" height="72px" viewBox="0 0 76.557 72" enable-background="new 0 0 76.557 72" xml:space="preserve">
<g>
	<path fill="#EDEDED" d="M51.381,26.371c0,0.782-0.635,1.416-1.416,1.416H26.596c-0.783,0-1.418-0.634-1.418-1.416
		c0-0.783,0.635-1.416,1.418-1.416h23.369C50.746,24.956,51.381,25.588,51.381,26.371"/>
	<path fill="#EDEDED" d="M51.381,36c0,0.782-0.635,1.417-1.416,1.417H26.596c-0.783,0-1.418-0.634-1.418-1.417
		c0-0.783,0.635-1.417,1.418-1.417h23.369C50.746,34.583,51.381,35.217,51.381,36"/>
	<path fill="#EDEDED" d="M51.381,45.629c0,0.782-0.635,1.415-1.416,1.415H26.596c-0.783,0-1.418-0.633-1.418-1.415
		c0-0.783,0.635-1.418,1.418-1.418h23.369C50.746,44.211,51.381,44.846,51.381,45.629"/>
</g>
</svg>
