<?xml version="1.0" encoding="utf-8"?>
<!-- Generator: Adobe Illustrator 15.0.0, SVG Export Plug-In . SVG Version: 6.00 Build 0)  -->
<!DOCTYPE svg PUBLIC "-//W3C//DTD SVG 1.1//EN" "http://www.w3.org/Graphics/SVG/1.1/DTD/svg11.dtd">
<svg version="1.1" id="Layer_1" xmlns="http://www.w3.org/2000/svg" xmlns:xlink="http://www.w3.org/1999/xlink" x="0px" y="0px"
	 width="76.557px" height="72px" viewBox="0 0 76.557 72" enable-background="new 0 0 76.557 72" xml:space="preserve">
<g>
	<path fill-rule="evenodd" clip-rule="evenodd" fill="#EDEDED" d="M5.821,35.93C5.772,17.943,20.618,3.365,38.646,3.526
		c17.615,0.157,32.098,14.707,32.092,32.53c-0.008,17.865-14.664,32.466-32.54,32.418C20.26,68.425,5.817,53.908,5.821,35.93
		 M62.209,51.223c5.227-7.603,5.71-18.509,2.481-25.363c-1.975,4.019-3.902,7.942-5.903,12.015
		c-0.511-0.896-0.887-1.628-1.333-2.316c-0.369-0.568-0.379-1.036-0.066-1.672c1.773-3.609,3.449-7.267,5.252-10.862
		c0.385-0.767,0.303-1.26-0.104-1.924C56.473,11.218,44.929,5.962,33.488,7.899C15.782,10.897,5.204,29.506,11.711,46.254
		c0.628,1.613,1.481,3.137,2.32,4.891c0.337-0.545,0.515-0.812,0.672-1.091c4.048-7.204,8.093-14.412,12.139-21.619
		c1.513-2.694,2.987-5.411,4.571-8.063c0.322-0.538,1.067-1.149,1.605-1.138c0.531,0.011,1.084,0.732,1.555,1.212
		c0.266,0.271,0.389,0.684,0.572,1.034c0.943,1.796,1.887,3.593,2.908,5.539c1.183-2.257,2.277-4.316,3.343-6.391
		c0.388-0.757,0.739-1.504,1.761-1.497c0.986,0.008,1.42,0.691,1.838,1.437c3.721,6.647,7.448,13.291,11.178,19.932
		C58.159,44.037,60.152,47.57,62.209,51.223 M60.239,54.082c-5.678-10.102-11.287-20.084-17.008-30.26
		c-1.77,3.314-3.445,6.451-5.209,9.753c-1.74-3.286-3.377-6.376-5.051-9.538c-0.174,0.232-0.273,0.339-0.342,0.46
		c-5.406,9.616-10.814,19.231-16.188,28.864c-0.142,0.253-0.032,0.83,0.176,1.066c6.266,7.133,14.159,10.434,23.638,9.992
		c0.851-0.04,1.324-0.372,1.727-1.141c2.766-5.282,5.583-10.539,8.389-15.801c0.549-1.031,1.115-2.054,1.73-3.184
		c0.455,0.752,0.776,1.401,1.21,1.967c0.581,0.758,0.503,1.391,0.054,2.219c-2.52,4.643-4.971,9.32-7.441,13.986
		c-0.143,0.268-0.252,0.555-0.48,1.062C51.542,61.881,56.351,58.701,60.239,54.082"/>
	<g>
		<path fill="#EDEDED" d="M34.21,36.502h2.283l3.541,11.314l3.525-11.314h2.232l-4.885,14.826h-1.812L34.21,36.502z"/>
	</g>
	<g>
		<path fill="#EDEDED" d="M30.271,37.634l1.959-0.597l4.287,14.083l-1.959,0.597L30.271,37.634z"/>
	</g>
</g>
</svg>
