<?xml version="1.0" encoding="utf-8"?>
<!-- Generator: Adobe Illustrator 15.0.0, SVG Export Plug-In . SVG Version: 6.00 Build 0)  -->
<!DOCTYPE svg PUBLIC "-//W3C//DTD SVG 1.1//EN" "http://www.w3.org/Graphics/SVG/1.1/DTD/svg11.dtd">
<svg version="1.1" id="Layer_1" xmlns="http://www.w3.org/2000/svg" xmlns:xlink="http://www.w3.org/1999/xlink" x="0px" y="0px"
	 width="40.861px" height="38.846px" viewBox="0 0 40.861 38.846" enable-background="new 0 0 40.861 38.846" xml:space="preserve">
<path fill="#272727" d="M32.811,15.919L21.292,7.99c-3.965-2.709-9.361-1.668-12.053,2.326s-1.654,9.425,2.311,12.133l11.805,8.33
	L32.811,15.919z"/>
<g>
	<path fill="#F4F4F4" d="M12.065,16.863c-0.393,0-0.738-0.287-0.807-0.689c-0.074-0.449,0.227-0.873,0.672-0.949l3.959-0.668
		l-0.986-4.01c-0.107-0.441,0.158-0.886,0.598-0.996c0.438-0.11,0.883,0.159,0.992,0.6l1.41,5.735L12.2,16.85
		C12.155,16.859,12.108,16.863,12.065,16.863z"/>
</g>
</svg>
