<?xml version="1.0" encoding="utf-8"?>
<!-- Generator: Adobe Illustrator 15.0.0, SVG Export Plug-In . SVG Version: 6.00 Build 0)  -->
<!DOCTYPE svg PUBLIC "-//W3C//DTD SVG 1.1//EN" "http://www.w3.org/Graphics/SVG/1.1/DTD/svg11.dtd">
<svg version="1.1" id="Layer_1" xmlns="http://www.w3.org/2000/svg" xmlns:xlink="http://www.w3.org/1999/xlink" x="0px" y="0px"
	 width="55.866px" height="40.348px" viewBox="0 0 55.866 40.348" enable-background="new 0 0 55.866 40.348" xml:space="preserve">
<g>
	<path fill="#F40C5A" d="M42.078,17.135l-13-8.889c-4.476-3.037-10.564-1.871-13.601,2.607c-3.035,4.477-1.87,10.565,2.605,13.602
		l13.324,9.337L42.078,17.135z"/>
	<g>
		<path fill="#F4F4F4" d="M18.664,18.085c-0.39,0-0.739-0.282-0.806-0.682c-0.072-0.446,0.228-0.868,0.674-0.943l4.578-0.767
			l-1.139-4.604c-0.109-0.438,0.157-0.882,0.598-0.99c0.427-0.109,0.881,0.158,0.988,0.598l1.566,6.318l-6.322,1.06
			C18.757,18.082,18.711,18.085,18.664,18.085z"/>
	</g>
</g>
</svg>
