<?xml version="1.0" encoding="utf-8"?>
<!-- Generator: Adobe Illustrator 16.0.0, SVG Export Plug-In . SVG Version: 6.00 Build 0)  -->
<!DOCTYPE svg PUBLIC "-//W3C//DTD SVG 1.1//EN" "http://www.w3.org/Graphics/SVG/1.1/DTD/svg11.dtd">
<svg version="1.1" id="Layer_1" xmlns="http://www.w3.org/2000/svg" xmlns:xlink="http://www.w3.org/1999/xlink" x="0px" y="0px"
	 width="639.265px" height="133.327px" viewBox="0 0 639.265 133.327" enable-background="new 0 0 639.265 133.327"
	 xml:space="preserve">
<g>
	<g>
		<g>
			<g>
				<path d="M57.63,53.708c0-2.744,2.264-4.961,5.056-4.961c2.798,0,5.049,2.217,5.049,4.961v0.454
					c2.462-3.252,5.864-5.67,11.12-5.67c8.322,0,16.241,6.388,16.241,18.074v0.126c0,11.677-7.786,18.086-16.241,18.086
					c-5.39,0-8.722-2.418-11.12-5.247v10.461c0,2.743-2.251,4.951-5.049,4.951c-2.792,0-5.056-2.208-5.056-4.951V53.708z
					 M84.973,66.691v-0.126c0-5.815-3.994-9.664-8.703-9.664c-4.732,0-8.658,3.848-8.658,9.664v0.126
					c0,5.809,3.925,9.659,8.658,9.659C80.979,76.35,84.973,72.576,84.973,66.691z"/>
				<path d="M103.011,41.057c0-2.75,2.254-4.968,5.053-4.968c2.802,0,5.06,2.218,5.06,4.968v38.474c0,2.771-2.258,4.976-5.06,4.976
					c-2.798,0-5.053-2.204-5.053-4.976V41.057z"/>
				<path d="M120.504,74.055v-0.117c0-7.641,5.934-11.156,14.378-11.156c3.59,0,6.185,0.586,8.723,1.428v-0.586
					c0-4.104-2.606-6.388-7.657-6.388c-2.797,0-5.065,0.391-6.988,0.976c-0.604,0.197-0.99,0.265-1.466,0.265
					c-2.333,0-4.193-1.773-4.193-4.055c0-1.754,1.13-3.258,2.728-3.845c3.202-1.183,6.656-1.831,11.377-1.831
					c5.522,0,9.514,1.435,12.05,3.921c2.658,2.615,3.861,6.452,3.861,11.158v15.927c0,2.664-2.198,4.755-4.925,4.755
					c-2.936,0-4.863-2.031-4.863-4.083v-0.079c-2.461,2.665-5.857,4.433-10.772,4.433C126.028,84.778,120.504,80.988,120.504,74.055
					z M143.73,71.79v-1.769c-1.729-0.791-3.987-1.307-6.46-1.307c-4.321,0-6.977,1.7-6.977,4.833v0.123
					c0,2.68,2.255,4.253,5.519,4.253C140.53,77.923,143.73,75.382,143.73,71.79z"/>
				<path d="M163.23,93.845c-1.471-0.536-3.198-1.702-3.198-4.124c0-2.415,1.926-4.045,3.993-4.045c0.806,0,1.271,0.155,1.662,0.255
					c0.87,0.281,1.403,0.394,2.141,0.394c1.79,0,2.653-0.312,3.579-2.071l0.345-0.791l-12.186-27.661
					c-0.27-0.659-0.536-1.641-0.536-2.286c0-2.81,2.201-4.771,4.996-4.771c2.532,0,3.99,1.374,4.854,3.729l7.723,20.356
					l7.449-20.292c0.797-2.096,2.276-3.793,4.868-3.793c2.578,0,4.781,1.961,4.781,4.572c0,0.78-0.263,1.9-0.468,2.349
					l-12.438,29.299c-2.997,7.125-5.987,9.774-12.045,9.774C166.484,94.741,164.889,94.431,163.23,93.845z"/>
			</g>
		</g>
		<g>
			<g>
				<path d="M316.499,41.221c0-2.749,2.253-4.972,5.037-4.972c2.806,0,5.07,2.223,5.07,4.972v13.121
					c2.469-3.277,5.85-5.688,11.119-5.688c8.314,0,16.225,6.392,16.225,18.074v0.142c0,11.666-7.784,18.053-16.225,18.053
					c-5.395,0-8.728-2.396-11.119-5.234v0.107c0,2.68-2.264,4.894-5.07,4.894c-2.784,0-5.037-2.213-5.037-5V41.221z M343.834,66.87
					v-0.142c0-5.801-3.991-9.651-8.705-9.651c-4.735,0-8.659,3.85-8.659,9.651v0.142c0,5.811,3.924,9.666,8.659,9.666
					C339.843,76.536,343.834,72.728,343.834,66.87z"/>
				<path d="M393.808,79.689c0,2.787-2.261,5-5.044,5c-2.803,0-5.061-2.213-5.061-5V79.32c-2.333,2.922-5.322,5.603-10.455,5.603
					c-7.642,0-12.101-4.94-12.101-12.974V53.883c0-2.754,2.257-4.964,5.045-4.964c2.799,0,5.063,2.21,5.063,4.964v14.937
					c0,4.69,2.267,7.105,6.117,7.105c3.872,0,6.331-2.415,6.331-7.105V53.883c0-2.754,2.257-4.964,5.061-4.964
					c2.784,0,5.044,2.21,5.044,4.964V79.689z"/>
				<path d="M401.939,80.944c-1.079-0.627-1.926-1.829-1.926-3.386c0-2.216,1.718-3.91,3.979-3.91c0.735,0,1.476,0.196,2.002,0.524
					c3.393,2.081,6.791,3.121,9.647,3.121c2.926,0,4.256-1.04,4.256-2.61v-0.113c0-2.163-3.461-2.882-7.381-4.058
					c-4.991-1.438-10.647-3.722-10.647-10.507v-0.118c0-7.118,5.852-11.097,13.035-11.097c3.732,0,7.589,0.978,11.06,2.663
					c1.457,0.728,2.39,2.038,2.39,3.724c0,2.23-1.797,3.92-4.066,3.92c-0.732,0-1.198-0.126-1.86-0.459
					c-2.863-1.373-5.594-2.216-7.719-2.216c-2.459,0-3.733,1.036-3.733,2.417v0.133c0,1.956,3.399,2.864,7.262,4.181
					c4.988,1.626,10.776,3.982,10.776,10.359v0.138c0,7.772-5.924,11.275-13.64,11.275C410.975,84.923,406.258,83.7,401.939,80.944z
					"/>
				<path d="M436.129,40.958c0-2.883,2.459-4.64,5.663-4.64c3.184,0,5.656,1.756,5.656,4.64v0.125c0,2.874-2.472,4.7-5.656,4.7
					c-3.204,0-5.663-1.826-5.663-4.7V40.958z M436.741,53.883c0-2.754,2.25-4.964,5.051-4.964c2.79,0,5.063,2.21,5.063,4.964v25.806
					c0,2.787-2.273,5-5.063,5c-2.8,0-5.051-2.213-5.051-5V53.883z"/>
				<path d="M456.363,53.883c0-2.754,2.258-4.964,5.07-4.964c2.781,0,5.045,2.21,5.045,4.964v0.383
					c2.323-2.927,5.319-5.612,10.445-5.612c7.655,0,12.116,4.953,12.116,12.99v18.045c0,2.787-2.257,5-5.063,5
					c-2.793,0-5.057-2.213-5.057-5V64.777c0-4.702-2.258-7.119-6.116-7.119c-3.859,0-6.325,2.417-6.325,7.119v14.912
					c0,2.787-2.264,5-5.045,5c-2.812,0-5.07-2.213-5.07-5V53.883z"/>
				<path d="M514.717,85.049c-10.707,0-18.633-7.362-18.633-18.045V66.87c0-9.995,7.264-18.216,17.631-18.216
					c11.915,0,17.17,9.597,17.17,16.832c0,2.878-2.049,4.769-4.72,4.769h-20.033c0.996,4.507,4.196,6.868,8.712,6.868
					c2.799,0,5.142-0.87,7.194-2.361c0.729-0.526,1.394-0.785,2.466-0.785c2.254,0,3.925,1.69,3.925,3.916
					c0,1.302-0.608,2.295-1.337,2.939C523.968,83.438,519.913,85.049,514.717,85.049z M521.243,64.054
					c-0.608-4.442-3.267-7.434-7.528-7.434c-4.188,0-6.905,2.938-7.713,7.434H521.243z"/>
				<path d="M537.673,80.944c-1.068-0.627-1.923-1.829-1.923-3.386c0-2.216,1.719-3.91,3.991-3.91c0.723,0,1.47,0.196,1.983,0.524
					c3.408,2.081,6.794,3.121,9.653,3.121c2.934,0,4.257-1.04,4.257-2.61v-0.113c0-2.163-3.452-2.882-7.377-4.058
					c-4.995-1.438-10.653-3.722-10.653-10.507v-0.118c0-7.118,5.857-11.097,13.043-11.097c3.729,0,7.599,0.978,11.047,2.663
					c1.464,0.728,2.394,2.038,2.394,3.724c0,2.23-1.801,3.92-4.061,3.92c-0.729,0-1.187-0.126-1.857-0.459
					c-2.869-1.373-5.6-2.216-7.709-2.216c-2.469,0-3.742,1.036-3.742,2.417v0.133c0,1.956,3.393,2.864,7.258,4.181
					c4.984,1.626,10.773,3.982,10.773,10.359v0.138c0,7.772-5.909,11.275-13.623,11.275C546.719,84.923,541.999,83.7,537.673,80.944
					z"/>
				<path d="M570.412,80.944c-1.068-0.627-1.917-1.829-1.917-3.386c0-2.216,1.713-3.91,3.982-3.91c0.729,0,1.463,0.196,1.989,0.524
					c3.398,2.081,6.794,3.121,9.654,3.121c2.927,0,4.267-1.04,4.267-2.61v-0.113c0-2.163-3.479-2.882-7.397-4.058
					c-4.981-1.438-10.647-3.722-10.647-10.507v-0.118c0-7.118,5.852-11.097,13.044-11.097c3.729,0,7.586,0.978,11.057,2.663
					c1.46,0.728,2.378,2.038,2.378,3.724c0,2.23-1.785,3.92-4.052,3.92c-0.729,0-1.192-0.126-1.863-0.459
					c-2.86-1.373-5.584-2.216-7.712-2.216c-2.469,0-3.727,1.036-3.727,2.417v0.133c0,1.956,3.387,2.864,7.252,4.181
					c4.978,1.626,10.775,3.982,10.775,10.359v0.138c0,7.772-5.918,11.275-13.636,11.275C579.468,84.923,574.735,83.7,570.412,80.944
					z"/>
			</g>
		</g>
		<path fill="#7BC043" d="M289.057,43.614l-32.094-18.168c-0.883-0.503-1.872-0.758-2.866-0.758c-0.997,0-1.998,0.255-2.882,0.758
			l-32.081,18.168c-1.773,1.002-2.875,2.873-2.875,4.885v36.329c0,2.024,1.102,3.872,2.875,4.893l32.081,18.18
			c0.884,0.492,1.885,0.738,2.882,0.738c0.995,0,1.983-0.246,2.866-0.738l32.094-18.18c1.78-1.021,2.864-2.869,2.864-4.893V48.499
			C291.921,46.486,290.836,44.616,289.057,43.614z"/>
	</g>
	<path fill="#FFFFFF" d="M275.225,69.319L247.783,84.86c-0.444,0.252-0.927,0.359-1.428,0.359c-0.485,0-0.975-0.107-1.414-0.359
		c-0.881-0.505-1.422-1.422-1.422-2.402v-31.08c0-0.995,0.541-1.92,1.422-2.42c0.439-0.246,0.929-0.372,1.414-0.372
		c0.501,0,0.984,0.126,1.428,0.372l27.442,15.539c0.878,0.507,1.427,1.417,1.427,2.418
		C276.652,67.913,276.103,68.829,275.225,69.319z"/>
</g>
</svg>
