<?xml version="1.0" encoding="utf-8"?>
<!-- Generator: Adobe Illustrator 15.0.0, SVG Export Plug-In . SVG Version: 6.00 Build 0)  -->
<!DOCTYPE svg PUBLIC "-//W3C//DTD SVG 1.1//EN" "http://www.w3.org/Graphics/SVG/1.1/DTD/svg11.dtd">
<svg version="1.1" id="Layer_1" xmlns="http://www.w3.org/2000/svg" xmlns:xlink="http://www.w3.org/1999/xlink" x="0px" y="0px"
	 width="71.384px" height="65.177px" viewBox="0 0 71.384 65.177" enable-background="new 0 0 71.384 65.177" xml:space="preserve">
<g>
	<path fill="#F40C5A" d="M20.551,23.388c0,9.232,0,18.463,0,27.694c0,1.642,3.508,0.978,3.508-0.358c0-9.231,0-18.462,0-27.694
		C24.059,21.388,20.551,22.052,20.551,23.388z"/>
	<path fill="#F40C5A" d="M31.218,23.388c0,9.232,0,18.463,0,27.694c0,1.642,3.508,0.978,3.508-0.358c0-9.231,0-18.462,0-27.694
		C34.726,21.388,31.218,22.052,31.218,23.388z"/>
	<path fill="#F40C5A" d="M41.68,23.388c0,9.232,0,18.463,0,27.694c0,1.642,3.508,0.978,3.508-0.358c0-9.231,0-18.462,0-27.694
		C45.188,21.388,41.68,22.052,41.68,23.388z"/>
	<path fill="#F40C5A" d="M55.154,50.661c-0.001-5.016-0.022-10.029-0.165-15.044c-0.089-3.162-0.208-6.323-0.326-9.485
		c-0.082-2.189-0.101-4.391-0.259-6.574c-0.064-0.904-0.41-1.762-0.952-2.49c-1.271-1.701-3.523-2.508-5.506-2.994
		c-2.802-0.688-5.695-0.904-8.571-1.018c-3.36-0.133-6.725-0.099-10.088-0.08c-3.24,0.02-6.092,0.045-9.3-0.129
		c-0.459-0.023-0.919-0.056-1.378-0.092c-0.829-0.063-1.875,0.252-2.273,1.055c-0.378,0.762,0.331,1.361,1.051,1.416
		c6.382,0.49,13.034,0.11,19.247,0.254c2.899,0.067,5.822,0.214,8.677,0.757c0.015,0.005,0.227,0.048,0.281,0.059
		c0.109,0.023,0.219,0.049,0.329,0.075c0.273,0.065,0.545,0.14,0.814,0.217c0.542,0.154,1.072,0.344,1.589,0.566
		c0.021,0.01,0.118,0.055,0.179,0.082c0.077,0.041,0.154,0.081,0.23,0.122c0.196,0.107,0.386,0.226,0.571,0.35
		c0.177,0.118,0.346,0.249,0.508,0.384c0.008,0.006,0.014,0.012,0.02,0.017c0.011,0.009,0.02,0.019,0.031,0.031
		c0.095,0.093,0.183,0.192,0.27,0.294c0.128,0.146,0.239,0.309,0.345,0.472c0.029,0.05,0.06,0.099,0.087,0.148
		c-0.044-0.075,0.056,0.12,0.073,0.164c0.141,0.337,0.219,0.695,0.259,1.056c-0.007,0.007,0.031,0.635,0.029,0.596
		c0.011,0.289,0.022,0.578,0.033,0.868c0.021,0.554,0.043,1.105,0.062,1.657c0.04,1.086,0.082,2.171,0.123,3.258
		c0.119,3.136,0.234,6.271,0.322,9.406c0.146,5.084,0.161,10.168,0.161,15.254c0,1.793,3.526,1.232,3.526-0.285
		c0-0.119,0-0.241,0-0.359C55.154,50.663,55.154,50.661,55.154,50.661z"/>
</g>
</svg>
