<?xml version="1.0" encoding="utf-8"?>
<!-- Generator: Adobe Illustrator 15.0.0, SVG Export Plug-In . SVG Version: 6.00 Build 0)  -->
<!DOCTYPE svg PUBLIC "-//W3C//DTD SVG 1.1//EN" "http://www.w3.org/Graphics/SVG/1.1/DTD/svg11.dtd">
<svg version="1.1" id="Layer_1" xmlns="http://www.w3.org/2000/svg" xmlns:xlink="http://www.w3.org/1999/xlink" x="0px" y="0px"
	 width="1877.715px" height="828.678px" viewBox="0 0 1877.715 828.678" enable-background="new 0 0 1877.715 828.678"
	 xml:space="preserve">
<g>
	<g>
		<g>
			<path fill="#F7F7F7" d="M207.783,2.626c-4.907,56.176-3.841,112.352-4.535,168.658c-0.385,31.219-1.241,62.385-0.989,93.613
				c0.256,31.672,1.556,63.469-0.124,95.113c-1.045,19.701-2.453,39.762,2.381,59.104c0.54,2.162,6.342,0.633,5.796-1.553
				c-3.728-14.912-3.685-30.252-3.023-45.514c0.662-15.279,1.432-30.455,1.366-45.756c-0.14-32.408-0.822-64.812-0.673-97.221
				c0.133-28.896,1.208-57.77,1.243-86.67c0.033-27.096-0.058-54.189,0.818-81.273c0.639-19.754,1.831-39.484,3.55-59.172
				C213.812-0.538,207.965,0.544,207.783,2.626L207.783,2.626z"/>
		</g>
		<g>
			<path fill="#F7F7F7" d="M135.77,2.626c-4.907,56.176-3.841,112.352-4.535,168.658c-0.385,31.219-1.241,62.385-0.989,93.613
				c0.256,31.672,1.556,63.469-0.123,95.113c-1.046,19.701-2.454,39.762,2.381,59.104c0.54,2.162,6.342,0.633,5.796-1.553
				c-3.728-14.912-3.685-30.252-3.023-45.514c0.662-15.279,1.432-30.455,1.366-45.756c-0.14-32.408-0.822-64.812-0.673-97.221
				c0.133-28.896,1.208-57.77,1.243-86.67c0.033-27.096-0.058-54.189,0.818-81.273c0.639-19.754,1.831-39.484,3.55-59.172
				C141.798-0.538,135.952,0.544,135.77,2.626L135.77,2.626z"/>
		</g>
		<g>
			<path fill="#F7F7F7" d="M53.17,2.626c-4.907,56.176-3.841,112.352-4.535,168.658c-0.385,31.219-1.241,62.385-0.989,93.613
				c0.256,31.672,1.556,63.469-0.123,95.113c-1.046,19.701-2.454,39.762,2.381,59.104c0.54,2.162,6.342,0.633,5.796-1.553
				c-3.728-14.912-3.685-30.252-3.023-45.514c0.662-15.279,1.432-30.455,1.366-45.756c-0.14-32.408-0.822-64.812-0.673-97.221
				c0.133-28.896,1.208-57.77,1.243-86.67c0.033-27.096-0.058-54.189,0.818-81.273c0.639-19.754,1.831-39.484,3.55-59.172
				C59.199-0.538,53.353,0.544,53.17,2.626L53.17,2.626z"/>
		</g>
		<g>
			<path fill="#F7F7F7" d="M366.54,2.626c-5.6,41.611-3.233,83.303-5.094,125.1c-1.102,24.742-0.303,49.525,0.049,74.275
				c0.161,11.291,0.17,22.412-0.998,33.652c-1.001,9.631-0.735,18.598,2.777,27.744c0.828,2.156,6.565,0.451,5.796-1.553
				c-3.614-9.408-3.636-18.459-2.608-28.352c1.182-11.367,0.978-22.688,0.816-34.102c-0.343-24.113-1.003-48.227-0.022-72.336
				c1.701-41.787-0.502-83.51,5.095-125.1C372.68-0.487,366.822,0.532,366.54,2.626L366.54,2.626z"/>
		</g>
		<g>
			<path fill="#F7F7F7" d="M294.526,2.626c-3.695,57.736-4.362,115.527-4.364,173.363c-0.003,58.654-1.48,117.285-1.212,175.938
				c0.174,38.068,0.898,76.146,0.651,114.215c-0.23,35.449-4.829,71.326,1.66,106.486c0.394,2.137,6.212,0.705,5.796-1.553
				c-5.648-30.605-2.865-61.936-1.906-92.818c0.991-31.912,0.065-63.936-0.186-95.859c-0.478-60.662,0.896-121.271,0.997-181.926
				c0.11-66.23,0.144-132.387,4.376-198.516C300.498-0.56,294.659,0.554,294.526,2.626L294.526,2.626z"/>
		</g>
		<g>
			<path fill="#F7F7F7" d="M533.48,2.626c-5.6,41.611-3.233,83.303-5.094,125.1c-1.102,24.742-0.303,49.525,0.049,74.275
				c0.161,11.291,0.17,22.412-0.998,33.652c-1,9.631-0.735,18.598,2.777,27.744c0.828,2.156,6.565,0.451,5.796-1.553
				c-3.613-9.408-3.636-18.461-2.608-28.352c1.182-11.367,0.978-22.688,0.816-34.102c-0.343-24.113-1.003-48.227-0.022-72.336
				c1.701-41.787-0.502-83.51,5.095-125.1C539.62-0.487,533.762,0.532,533.48,2.626L533.48,2.626z"/>
		</g>
		<g>
			<path fill="#F7F7F7" d="M461.467,2.626c-5.599,41.611-3.234,83.303-5.094,125.1c-1.102,24.742-0.303,49.525,0.049,74.275
				c0.161,11.291,0.17,22.412-0.998,33.652c-1,9.631-0.735,18.598,2.777,27.744c0.828,2.156,6.565,0.451,5.796-1.553
				c-3.613-9.408-3.636-18.461-2.608-28.352c1.182-11.367,0.978-22.688,0.816-34.102c-0.343-24.113-1.002-48.227-0.022-72.336
				c1.7-41.787-0.501-83.51,5.095-125.1C467.606-0.487,461.749,0.532,461.467,2.626L461.467,2.626z"/>
		</g>
		<g>
			<path fill="#F7F7F7" d="M697.147,2.626c-5.682,42.225-3.448,84.645-5.175,127.078c-1.007,24.732-0.173,49.498,0.155,74.234
				c0.154,11.615-0.122,23.025-1.064,34.602c-0.907,11.146-1.208,22.414,2.817,33.031c0.818,2.158,6.558,0.459,5.796-1.553
				c-3.937-10.385-3.645-21.242-2.803-32.148c0.895-11.582,1.206-22.98,1.064-34.602c-0.302-24.746-1.071-49.488-0.156-74.232
				c1.569-42.424-0.503-84.881,5.175-127.08C703.287-0.487,697.429,0.532,697.147,2.626L697.147,2.626z"/>
		</g>
		<g>
			<path fill="#F7F7F7" d="M625.134,2.626c-5.682,42.225-3.448,84.645-5.175,127.078c-1.007,24.732-0.173,49.498,0.155,74.234
				c0.154,11.615-0.122,23.025-1.064,34.602c-0.907,11.146-1.208,22.414,2.817,33.031c0.818,2.158,6.558,0.459,5.796-1.553
				c-3.937-10.385-3.645-21.242-2.803-32.148c0.894-11.582,1.206-22.98,1.064-34.602c-0.302-24.746-1.071-49.488-0.156-74.232
				c1.569-42.424-0.503-84.881,5.175-127.08C631.273-0.487,625.416,0.532,625.134,2.626L625.134,2.626z"/>
		</g>
		<g>
			<path fill="#F7F7F7" d="M854.268,2.626c-5.682,42.225-3.448,84.645-5.175,127.078c-1.006,24.732-0.172,49.498,0.156,74.234
				c0.154,11.615-0.122,23.025-1.064,34.602c-0.907,11.146-1.208,22.414,2.817,33.031c0.818,2.158,6.558,0.459,5.796-1.553
				c-3.937-10.385-3.645-21.242-2.803-32.148c0.895-11.582,1.206-22.98,1.064-34.602c-0.302-24.746-1.071-49.488-0.156-74.232
				c1.569-42.424-0.503-84.881,5.175-127.08C860.408-0.487,854.55,0.532,854.268,2.626L854.268,2.626z"/>
		</g>
		<g>
			<path fill="#F7F7F7" d="M782.255,2.626c-5.682,42.225-3.448,84.645-5.175,127.078c-1.007,24.732-0.173,49.498,0.155,74.234
				c0.154,11.615-0.122,23.025-1.064,34.602c-0.907,11.146-1.208,22.414,2.817,33.031c0.818,2.158,6.558,0.459,5.796-1.553
				c-3.937-10.385-3.645-21.242-2.803-32.148c0.895-11.582,1.206-22.98,1.064-34.602c-0.302-24.746-1.071-49.488-0.156-74.232
				c1.569-42.424-0.503-84.881,5.175-127.08C788.395-0.487,782.537,0.532,782.255,2.626L782.255,2.626z"/>
		</g>
		<g>
			<path fill="#F7F7F7" d="M1013.025,2.626c-5.682,42.225-3.448,84.645-5.175,127.078c-1.006,24.732-0.172,49.498,0.156,74.234
				c0.154,11.615-0.122,23.025-1.064,34.602c-0.907,11.146-1.208,22.414,2.817,33.031c0.818,2.158,6.558,0.459,5.796-1.553
				c-3.937-10.385-3.645-21.242-2.803-32.148c0.895-11.582,1.206-22.98,1.064-34.602c-0.302-24.746-1.071-49.488-0.156-74.232
				c1.569-42.424-0.503-84.881,5.175-127.08C1019.165-0.487,1013.307,0.532,1013.025,2.626L1013.025,2.626z"/>
		</g>
		<g>
			<path fill="#F7F7F7" d="M941.012,2.626c-5.682,42.225-3.448,84.645-5.175,127.078c-1.006,24.732-0.172,49.498,0.156,74.234
				c0.154,11.615-0.122,23.025-1.064,34.602c-0.907,11.146-1.208,22.414,2.817,33.031c0.818,2.158,6.558,0.459,5.796-1.553
				c-3.937-10.385-3.645-21.242-2.803-32.148c0.895-11.582,1.206-22.98,1.064-34.602c-0.302-24.746-1.071-49.488-0.156-74.232
				c1.569-42.424-0.503-84.881,5.175-127.08C947.151-0.487,941.293,0.532,941.012,2.626L941.012,2.626z"/>
		</g>
		<g>
			<path fill="#F7F7F7" d="M1179.966,2.626c-5.682,42.225-3.449,84.645-5.175,127.078c-1.006,24.732-0.173,49.498,0.155,74.234
				c0.154,11.615-0.122,23.025-1.064,34.602c-0.907,11.146-1.208,22.414,2.817,33.031c0.818,2.158,6.558,0.459,5.796-1.553
				c-3.937-10.385-3.645-21.242-2.803-32.148c0.895-11.582,1.206-22.98,1.064-34.602c-0.302-24.746-1.07-49.488-0.155-74.232
				c1.568-42.422-0.503-84.881,5.175-127.08C1186.106-0.487,1180.248,0.532,1179.966,2.626L1179.966,2.626z"/>
		</g>
		<g>
			<path fill="#F7F7F7" d="M1107.952,2.626c-5.682,42.225-3.45,84.645-5.175,127.078c-1.006,24.732-0.173,49.498,0.155,74.234
				c0.154,11.615-0.122,23.025-1.064,34.602c-0.907,11.146-1.208,22.414,2.817,33.031c0.818,2.158,6.558,0.459,5.796-1.553
				c-3.937-10.385-3.645-21.242-2.803-32.148c0.894-11.582,1.206-22.98,1.064-34.602c-0.302-24.746-1.07-49.488-0.155-74.232
				c1.567-42.422-0.503-84.881,5.175-127.08C1114.092-0.487,1108.234,0.532,1107.952,2.626L1107.952,2.626z"/>
		</g>
		<g>
			<path fill="#F7F7F7" d="M1343.633,2.626c-5.682,42.225-3.45,84.645-5.176,127.078c-1.006,24.732-0.173,49.498,0.155,74.234
				c0.154,11.615-0.122,23.025-1.064,34.602c-0.907,11.146-1.207,22.414,2.818,33.031c0.817,2.158,6.558,0.459,5.795-1.553
				c-3.937-10.385-3.645-21.242-2.803-32.148c0.895-11.582,1.206-22.98,1.064-34.602c-0.302-24.746-1.069-49.488-0.155-74.232
				c1.567-42.422-0.503-84.881,5.176-127.08C1349.773-0.487,1343.916,0.532,1343.633,2.626L1343.633,2.626z"/>
		</g>
		<g>
			<path fill="#F7F7F7" d="M1271.62,2.626c-5.682,42.225-3.45,84.645-5.176,127.078c-1.006,24.732-0.173,49.498,0.155,74.234
				c0.153,11.615-0.122,23.025-1.063,34.602c-0.908,11.146-1.209,22.414,2.817,33.031c0.817,2.158,6.558,0.459,5.795-1.553
				c-3.937-10.385-3.645-21.242-2.803-32.148c0.895-11.582,1.206-22.98,1.064-34.602c-0.302-24.746-1.069-49.488-0.155-74.232
				c1.567-42.422-0.503-84.881,5.176-127.08C1277.759-0.487,1271.902,0.532,1271.62,2.626L1271.62,2.626z"/>
		</g>
		<g>
			<path fill="#F7F7F7" d="M1484.386,2.626c-3.695,57.736-4.362,115.527-4.365,173.363c-0.003,58.654-1.479,117.285-1.212,175.938
				c0.175,38.068,0.898,76.146,0.651,114.215c-0.23,35.449-4.83,71.324,1.659,106.486c0.394,2.137,6.212,0.705,5.795-1.553
				c-5.647-30.605-2.863-61.936-1.904-92.818c0.991-31.912,0.065-63.936-0.186-95.859c-0.478-60.662,0.896-121.271,0.996-181.926
				c0.109-66.23,0.144-132.387,4.376-198.516C1490.358-0.56,1484.519,0.554,1484.386,2.626L1484.386,2.626z"/>
		</g>
		<g>
			<path fill="#F7F7F7" d="M1412.373,2.626c-5.682,42.225-3.448,84.645-5.175,127.078c-1.007,24.732-0.173,49.498,0.155,74.234
				c0.154,11.615-0.122,23.025-1.064,34.602c-0.907,11.146-1.208,22.414,2.817,33.031c0.817,2.158,6.558,0.459,5.795-1.553
				c-3.937-10.385-3.645-21.242-2.802-32.148c0.895-11.582,1.206-22.98,1.064-34.602c-0.302-24.746-1.07-49.488-0.155-74.232
				c1.568-42.424-0.504-84.881,5.175-127.08C1418.512-0.487,1412.655,0.532,1412.373,2.626L1412.373,2.626z"/>
		</g>
		<g>
			<path fill="#F7F7F7" d="M1648.053,2.626c-5.521,55.879-2.975,111.734-4.981,167.727c-1.169,32.621-0.524,65.271-0.142,97.898
				c0.184,15.654,0.535,31.324-0.347,46.963c-0.814,14.443-2.028,28.908-0.269,43.332c0.491,4.031,1.372,7.996,2.472,11.902
				c0.609,2.166,6.399,0.594,5.795-1.553c-4.167-14.805-3.62-30.152-2.73-45.354c0.904-15.449,1.132-30.783,0.992-46.26
				c-0.295-32.566-1.027-65.131-0.254-97.695c1.327-55.939-0.477-112.045,4.355-167.848c0.282-3.262,0.597-6.523,0.919-9.783
				C1654.109-0.526,1648.259,0.54,1648.053,2.626L1648.053,2.626z"/>
		</g>
		<g>
			<path fill="#F7F7F7" d="M1740.261,2.626c-3.59,58.041-4.351,116.137-4.364,174.271c-0.014,58.277-1.394,116.537-1.257,174.811
				c0.097,41.672,0.684,83.344,0.711,125.018c0.024,38.537-5.181,77.652,1.644,115.893c0.38,2.133,6.199,0.709,5.795-1.553
				c-5.472-30.668-3.018-62.02-2-92.953c1.053-32.012,0.207-64.121-0.043-96.143c-0.479-61.613,0.73-123.168,0.928-184.773
				c0.229-71.805-0.037-143.531,4.397-215.24C1746.227-0.562,1740.389,0.554,1740.261,2.626L1740.261,2.626z"/>
		</g>
		<g>
			<path fill="#F7F7F7" d="M1833.873,2.626c-3.59,58.041-4.351,116.137-4.364,174.271c-0.014,58.277-1.394,116.537-1.257,174.811
				c0.097,41.672,0.684,83.344,0.711,125.018c0.024,38.537-5.181,77.652,1.644,115.893c0.38,2.133,6.199,0.709,5.795-1.553
				c-5.472-30.668-3.018-62.02-2-92.953c1.053-32.012,0.207-64.121-0.043-96.143c-0.479-61.613,0.73-123.168,0.928-184.773
				c0.229-71.805-0.037-143.531,4.397-215.24C1839.838-0.562,1834,0.554,1833.873,2.626L1833.873,2.626z"/>
		</g>
		<g>
			<path fill="#F7F7F7" d="M1576.04,2.626c-5.52,55.689-2.976,111.354-4.981,167.158c-1.168,32.508-0.524,65.049-0.142,97.564
				c0.184,15.602,0.535,31.219-0.347,46.803c-0.814,14.395-2.028,28.812-0.269,43.188c0.491,4.018,1.372,7.969,2.472,11.861
				c0.611,2.166,6.401,0.592,5.795-1.553c-4.167-14.752-3.62-30.047-2.73-45.197c0.904-15.398,1.132-30.68,0.992-46.104
				c-0.295-32.455-1.026-64.908-0.254-97.363c1.327-55.748-0.476-111.664,4.355-167.277c0.283-3.252,0.597-6.5,0.919-9.75
				C1582.096-0.526,1576.247,0.54,1576.04,2.626L1576.04,2.626z"/>
		</g>
		<g>
			<path fill="#F7F7F7" d="M433.65,19.435c-1.933,37.99,0.558,77.23-9.797,114.24c-0.449,1.605,5.286,0.758,5.749-0.898
				c10.41-37.207,7.9-76.705,9.844-114.895C439.509,16.651,433.75,17.487,433.65,19.435L433.65,19.435z"/>
		</g>
		<g>
			<path fill="#F7F7F7" d="M410.695,97.425c0,10.365,0,20.73,0,31.098c0,3.102,5.879,2.266,5.879-0.414c0-10.365,0-20.73,0-31.096
				C416.574,93.911,410.695,94.745,410.695,97.425L410.695,97.425z"/>
		</g>
		<g>
			<path fill="#F7F7F7" d="M603.113,227.376c0-13.639,0-27.279,0-40.918c0-1.732-5.796-0.652-5.796,1.553
				c0,13.641,0,27.279,0,40.918C597.317,230.661,603.113,229.581,603.113,227.376L603.113,227.376z"/>
		</g>
		<g>
			<path fill="#F7F7F7" d="M1163.586,38.589c-4.819,35.793-6.516,71.928-6.546,108.021c-0.002,2.754,5.831,1.664,5.833-0.584
				c0.03-36.094,1.728-72.229,6.546-108.021C1169.775,35.358,1163.894,36.304,1163.586,38.589L1163.586,38.589z"/>
		</g>
		<g>
			<path fill="#F7F7F7" d="M184.875,58.294c-0.048,21.289-1.588,42.541-1.637,63.83c-0.005,2.463,5.795,1.227,5.8-0.711
				c0.048-21.289,1.588-42.541,1.637-63.83C190.68,55.12,184.879,56.356,184.875,58.294L184.875,58.294z"/>
		</g>
		<g>
			<path fill="#F7F7F7" d="M1339.615,224.103c-1.331-4.182-1.618-8.254-1.62-12.619c-0.002-2.709-5.829-1.592-5.828,0.604
				c0.002,4.666,0.227,9.09,1.653,13.568C1334.555,227.966,1340.333,226.354,1339.615,224.103L1339.615,224.103z"/>
		</g>
		<g>
			<path fill="#F7F7F7" d="M1500.874,42.829c-7.182,16.473-5.869,37.016-5.664,54.555c0.273,23.439,0.239,46.809,0.097,70.254
				c-0.353,57.928,0.569,115.986-6.048,173.641c-0.354,3.08,5.57,2.348,5.885-0.391c6.542-56.992,5.747-114.4,6.037-171.668
				c0.117-23.141,0.35-46.207-0.044-69.342c-0.178-10.463-0.168-20.938,0.521-31.383c0.552-8.348,1.406-17.162,4.782-24.906
				C1507.799,40.47,1501.952,40.354,1500.874,42.829L1500.874,42.829z"/>
		</g>
		<g>
			<path fill="#F7F7F7" d="M1517.127,189.647c0.002,9.322,0.198,18.596,1.636,27.824c0.291,1.867,6.117,0.514,5.795-1.553
				c-1.437-9.229-1.633-18.502-1.636-27.824C1522.922,186.403,1517.126,187.472,1517.127,189.647L1517.127,189.647z"/>
		</g>
		<g>
			<path fill="#F7F7F7" d="M1669.337-8.39c-0.046,22.926-1.591,45.816-1.637,68.74c-0.003,1.096,5.792,0.219,5.795-1.553
				c0.046-22.924,1.591-45.814,1.637-68.74C1675.135-11.036,1669.34-10.159,1669.337-8.39L1669.337-8.39z"/>
		</g>
		<g>
			<path fill="#F7F7F7" d="M1657.863,63.146c0.002,8.932,0.008,17.855,1.654,26.666c0.434,2.324,6.248,0.871,5.795-1.553
				c-1.588-8.498-1.616-17.09-1.619-25.707C1663.693,59.819,1657.862,60.923,1657.863,63.146L1657.863,63.146z"/>
		</g>
		<g>
			<path fill="#F7F7F7" d="M1506.561,558.417c-0.123-23.795-4.775-47.145-6.552-70.811c-0.151-2.016-5.969-0.758-5.795,1.553
				c1.754,23.367,6.418,46.449,6.54,69.941C1500.767,561.634,1506.572,560.415,1506.561,558.417L1506.561,558.417z"/>
		</g>
	</g>
	<g>
		<g id="XMLID_5_">
			<g>
				<path fill="#D6D6D6" d="M1866.872,159.873c3.981-0.475,8.006-0.622,12.021-0.458c1.754,0.069-1.684,1.417-2.392,1.382
					c-3.213-0.129-6.426-0.052-9.604,0.268v-0.933L1866.872,159.873z"/>
				<path fill="#F40C5A" d="M1874.808,351.167c6.625-4.085,10.27-11.115,12.386-18.396c0.284-0.976,3.86-1.468,3.609-0.604
					c-2.004,6.857-5.381,13.568-11.253,17.904c-2.669,1.969-5.684,3.394-8.861,4.327l-0.346-1.235
					C1871.898,352.688,1873.392,352.04,1874.808,351.167z"/>
				<path fill="#D6D6D6" d="M1867.303,321.319c8.352-7.341,13.059-17.567,15.624-28.225c0.336-1.434,4.05-1.952,3.67-0.363
					c-4.318,17.938-15.58,34.659-34.633,38.658c-1.46,0.311-2.928,0.544-4.413,0.699l-0.26-2.271
					c7.238-0.786,14.208-3.489,19.77-8.3C1867.148,321.458,1867.225,321.388,1867.303,321.319z"/>
				<path fill="#FFFFFF" d="M1867.061,321.518c-5.562,4.811-12.531,7.514-19.77,8.3c-1.045,0.112-2.107,0.181-3.161,0.216
					c-15.227,0.466-32.051-8.11-38.648-22.214c-4.664-9.949-2.28-20.797,4.016-29.391c5.069,4.267,11.875,6.124,19.01,4.137
					c2.185-0.613,1.675-2.522-0.519-1.917c-10.727,2.988-19.562-5.545-22.464-15.244c-3.222-10.779,1.771-21.402,13.093-23.812
					c0.164-0.035,0.312-0.078,0.44-0.129c2.064,5.45,4.785,10.658,8.223,15.287c3.705,4.975,8.74,9.397,15.071,10.321
					c6.849,1.011,13.628-2.427,18.62-6.832c0.7-0.622-2.66-0.199-3.282,0.346c-3.817,3.368-8.023,5.933-13.248,5
					c-4.189-0.751-7.799-3.515-10.701-6.495c-7.289-7.471-11.409-18.128-13.966-28.061c-2.418-9.388-3.238-18.905-0.812-28.328
					c3.532-13.732,11.953-25.927,23.915-33.605c7.289-4.681,15.528-7.203,24.019-8.032v160.254L1867.061,321.518z"/>
				<path fill="#D6D6D6" d="M1866.897,161.065c-8.49,0.829-16.729,3.351-24.019,8.032c-11.962,7.678-20.383,19.873-23.915,33.605
					c-2.427,9.423-1.606,18.94,0.812,28.328c2.557,9.933,6.677,20.59,13.966,28.061c2.902,2.979,6.512,5.743,10.701,6.495
					c5.225,0.933,9.431-1.632,13.248-5c0.622-0.544,3.982-0.967,3.282-0.346c-4.992,4.405-11.771,7.842-18.62,6.832
					c-6.331-0.924-11.366-5.346-15.071-10.321c-3.438-4.629-6.158-9.837-8.223-15.287c1.624-0.587,1.141-2.073-0.674-1.831
					c-1.398-3.938-2.461-7.989-3.247-12.022c-1.9-9.794-1.779-18.975,1.503-28.432c4.361-12.583,12.67-23.595,24.148-30.513
					c7.988-4.811,16.91-7.678,26.083-8.792l0.025,0.259V161.065z"/>
				<path fill="#D6D6D6" d="M1818.384,239.633c1.814-0.242,2.298,1.244,0.674,1.831
					C1818.817,240.859,1818.592,240.247,1818.384,239.633z"/>
				<path fill="#D6D6D6" d="M1828.507,282.566c-7.135,1.986-13.94,0.129-19.01-4.137c0.146-0.216,0.303-0.432,0.467-0.639
					c1.174-1.529-1.201-1.909-2.462-1.261c-2.582-2.764-4.543-6.227-5.622-10.148c-1.521-5.467-1.478-11.659,1.373-16.703
					c3.135-5.554,8.749-8.697,14.847-10.001c0.095-0.017,0.189-0.035,0.284-0.043c0.208,0.613,0.433,1.226,0.674,1.831
					c-0.129,0.052-0.276,0.095-0.44,0.129c-11.322,2.41-16.314,13.033-13.093,23.812c2.901,9.699,11.737,18.232,22.464,15.244
					C1830.182,280.044,1830.692,281.953,1828.507,282.566z"/>
				<path fill="#D6D6D6" d="M1807.502,276.529c1.261-0.648,3.636-0.268,2.462,1.261c-0.164,0.208-0.32,0.423-0.467,0.639
					C1808.798,277.851,1808.125,277.211,1807.502,276.529z"/>
				<path fill="#D6D6D6" d="M1847.551,332.089c-14.147,1.555-29.21-3.325-39.107-13.689c-4.932-5.173-8.628-11.867-9.095-19.104
					c-0.535-8.309,2.651-15.839,7.627-22.352c0.129-0.173,0.311-0.311,0.526-0.415c0.622,0.682,1.296,1.321,1.995,1.9
					c-6.296,8.594-8.68,19.441-4.016,29.391c6.598,14.104,23.422,22.68,38.648,22.214c1.054-0.035,2.116-0.104,3.161-0.216
					L1847.551,332.089z"/>
				<path fill="#F40C5A" d="M1854.935,353.672c5.01,0.726,10.485,0.993,15.408-0.51l0.346,1.235
					c-3.006,0.898-6.149,1.356-9.268,1.416c-16.375,0.337-32.457-6.996-46.837-14.078c-18.413-9.068-35.902-19.83-54.014-29.468
					c-7.497-3.982-15.123-7.92-23.146-10.736c-4.932-1.736-11.133-3.877-16.384-2.34c-2.125,0.622-2.444-0.639-0.337-1.261
					c11.245-3.291,24.252,3.506,34.028,8.308c16.134,7.92,31.507,17.308,47.286,25.893
					C1818.419,341.045,1836.194,350.952,1854.935,353.672z"/>
				<path fill="#D6D6D6" d="M1725.393,306.671c-4.103,1.312-11.063,2.876-14.389-1.045c-2.885-3.412-1.027-8.127,1.089-11.409
					c0.725-1.131,4.43-1.33,3.437,0.207c-1.589,2.461-3.679,6.719-1.382,9.432c2.6,3.074,7.428,1.771,10.684,0.725
					C1727.035,303.873,1727.552,305.98,1725.393,306.671z"/>
				<path fill="#F40C5A" d="M1682.245,377.916c1.813,3.023,0.414,5.743-1.84,7.859c-0.242-1.753-0.579-3.498-0.924-5.208
					c-0.078-0.406-0.156-0.803-0.233-1.201C1679.066,378.459,1681.139,377.734,1682.245,377.916z"/>
				<path fill="#D6D6D6" d="M1677.693,594.8c0.319-0.043,0.631-0.061,0.907-0.061c70.916,0.25,141.823,0.467,212.739,0.803
					c5.104,0.026-0.216,2.03-2.98,2.021c-70.251-0.345-140.476-0.561-210.709-0.794
					C1677.675,596.113,1677.684,595.457,1677.693,594.8z"/>
				<path fill="#F40C5A" d="M1677.969,456.95c0-0.734-1.321-1.209-2.479-0.613c-0.389,0.199-0.777,0.397-1.175,0.587
					c0.069-16.72,0.069-33.433,0.069-50.162c0.319-0.19,0.639-0.389,0.958-0.587c0.916-0.579,1.797-1.209,2.617-1.892
					c0.087,0.164,0.13,0.354,0.13,0.579c0,17.36,0,34.729-0.061,52.088H1677.969z"/>
				<path fill="#F40C5A" d="M1678.03,456.95c-0.061,14.786-0.155,29.572-0.354,44.358c-0.104,7.747-0.225,15.486-0.38,23.224
					l-0.881-0.017c0-0.276-1.719-0.242-2.824,0.164c0.432-21.765,0.631-43.529,0.717-65.293c0.898-0.432,1.788-0.881,2.678-1.339
					c0.708-0.363,0.984-0.751,0.984-1.097H1678.03z"/>
				<path fill="#F40C5A" d="M1677.295,524.532c-0.155,8.127-0.354,16.254-0.587,24.373c-0.199,6.849-0.82,13.793-0.458,20.633
					c0.25,4.629,0.683,9.241,0.967,13.871c0.233,3.748,0.501,7.583,0.476,11.392c-1.408,0.156-3.066,0.639-3.8,1.08
					c0.104-5.942-0.329-11.875-0.77-17.792c-1.243-16.651,0.018-33.416,0.397-50.102c1.037-1.071,1.995-2.211,2.876-3.42
					c0.018-0.018,0.018-0.035,0.018-0.052L1677.295,524.532z"/>
				<path fill="#F40C5A" d="M1677.969,456.95c0,0.345-0.276,0.734-0.984,1.097c-0.89,0.458-1.779,0.907-2.678,1.339
					c0.009-0.821,0.009-1.641,0.009-2.462c0.397-0.19,0.786-0.388,1.175-0.587C1676.648,455.741,1677.969,456.216,1677.969,456.95z"
					/>
				<path fill="#F40C5A" d="M1674.886,404.042c2.297-1.813,4.154-4.068,5.043-6.935c1.141-3.662,1.011-7.523,0.476-11.332
					c2.254-2.116,3.653-4.836,1.84-7.859c0.345,0.061,0.596,0.207,0.647,0.475c1.071,5.415,2.47,11.573,1.002,17.049
					c-0.976,3.627-3.135,6.529-5.934,8.844c-0.483-0.933-2.159-0.89-3.04-0.199L1674.886,404.042z"/>
				<path fill="#F40C5A" d="M1673.59,524.679c1.105-0.406,2.824-0.44,2.824-0.164c0,0.017,0,0.034-0.018,0.052
					c-0.881,1.209-1.839,2.349-2.876,3.42c0.009-0.311,0.018-0.622,0.026-0.933C1673.564,526.26,1673.582,525.474,1673.59,524.679z"
					/>
				<path fill="#F40C5A" d="M1675.646,596.761c-0.872-0.008-1.442-0.069-1.771-0.164c0.018-0.242,0.018-0.475,0.018-0.717
					c0.733-0.44,2.392-0.924,3.8-1.08c-0.009,0.657-0.018,1.313-0.043,1.969C1676.985,596.77,1676.311,596.761,1675.646,596.761z"/>
				<path fill="#F40C5A" d="M1674.385,405.104c0-0.415,0.216-0.76,0.535-1.02c0.881-0.691,2.557-0.734,3.04,0.199
					c-0.82,0.683-1.701,1.313-2.617,1.892c-0.319,0.199-0.639,0.397-0.958,0.587
					C1674.385,406.209,1674.385,405.657,1674.385,405.104z"/>
				<path fill="#D6D6D6" d="M1673.893,595.88c0,0.242,0,0.475-0.018,0.717C1673.323,596.433,1673.426,596.165,1673.893,595.88z"/>
				<path fill="#F40C5A" d="M1673.875,596.597c0.328,0.095,0.898,0.156,1.771,0.164c0.665,0,1.339,0.009,2.004,0.009
					c-0.069,1.978-0.233,3.938-0.536,5.882c-0.82,5.268-3.117,9.181-7.574,12.247c-9.967,6.84-22.222,8.939-33.994,10.373
					c-13.317,1.624-27.041,2.203-40.402,0.683c-12.308-1.408-24.813-5.251-33.657-14.432c-4.975-5.156-6.305-11.633-6.788-18.335
					c1.227-0.346,2.461-0.993,2.461-1.399l1.192-0.052c0.181,4.051,0.535,8.188,2.142,11.893c2.314,5.329,7.048,9.034,11.893,11.988
					c5.77,3.515,11.677,5.683,18.345,6.789c13.681,2.263,27.861,1.926,41.611,0.466c11.798-1.252,25.694-2.729,35.367-10.217
					c4.94-3.817,5.899-8.628,6.132-14.613C1673.858,597.556,1673.875,597.081,1673.875,596.597z"/>
				<path fill="#F40C5A" d="M1640.477,531.649c1.477-0.95,4.491,0.302,2.41,1.632c-7.178,4.595-15.235,7.41-23.786,7.782
					c-7.772,0.337-15.407-0.812-23.042-2.099c-2.444-0.406-0.51-2.919,1.27-2.626C1612.331,538.86,1627.03,540.251,1640.477,531.649
					z"/>
				<path fill="#F40C5A" d="M1626.719,508.615c1.191-0.276,1.865,0.069,1.865,0.518c0,0.372-0.458,0.812-1.442,1.045
					c-0.596,0.138-1.191,0.268-1.797,0.388c-0.025-0.526-0.207-1.053-0.492-1.546
					C1625.475,508.891,1626.097,508.762,1626.719,508.615z"/>
				<path fill="#F40C5A" d="M1638.214,607.522c-7.479,2.971-15.287,2.384-23.095,1.278c-1.874-0.268,1.512-1.685,2.35-1.572
					c6.469,0.916,13.205,1.831,19.449-0.647C1638.344,606.011,1640.616,606.563,1638.214,607.522z"/>
				<path fill="#F40C5A" d="M1679.308,380.602c-0.51-2.401-2.988-3.714-5.062-4.612c-8.395-3.645-18.206-4.551-27.205-5.45
					c-10.235-1.019-20.513-1.598-30.808-1.9c0.872-0.518,1.391-1.201,0.207-1.391c-2.202-0.354-4.422-0.647-6.642-0.872
					c10.2,0.19,20.4,0.596,30.574,1.382c9.086,0.7,18.275,1.546,27.197,3.532c4.422,0.985,12.048,2.28,14.665,6.607
					c0,0.008,0.009,0.008,0.009,0.017c-1.105-0.182-3.179,0.544-2.997,1.451c0.077,0.397,0.155,0.795,0.233,1.201L1679.308,380.602z
					"/>
				<path fill="#F40C5A" d="M1608.081,368.441c2.721,0.043,5.441,0.112,8.153,0.199c-0.656,0.389-1.52,0.674-2.021,0.596
					C1612.183,368.907,1610.136,368.64,1608.081,368.441z"/>
				<path fill="#F40C5A" d="M1637.592,519.048c3.179-14.527-8.032-29.892-22.282-30.514c0.397-0.397,0.414-0.794-0.432-0.967
					c-2.92-0.587-5.614-0.38-8.041,0.441c0.207-0.147,0.475-0.268,0.803-0.372c11.047-3.412,22.646,0.207,29.089,9.993
					c5.13,7.79,7.592,19.433,1.598,27.508c-3.739,5.018-9.388,7.315-15.339,7.998l-0.225-2.012
					C1629.776,530.354,1635.891,526.795,1637.592,519.048z"/>
				<path fill="#F40C5A" d="M1609.575,512.311c4.958-1.546,10.166-2.211,15.278-3.291c0.285,0.493,0.467,1.02,0.492,1.546
					c-5.363,1.106-10.985,1.667-16.115,3.567C1609.291,513.521,1609.411,512.916,1609.575,512.311z"/>
				<path fill="#F40C5A" d="M1628.584,509.133c0-0.449-0.674-0.794-1.865-0.518c-0.622,0.147-1.244,0.276-1.866,0.406
					c-0.949-1.649-3.04-3.04-4.474-3.575c-5.053-1.926-9.482,2.167-10.805,6.866c-1.295,0.415-2.582,0.881-3.843,1.442
					c1.088-5.769,6.857-10.632,12.704-10.778c2.902-0.078,10.027,2.194,10.658,6.063L1628.584,509.133z"/>
				<path fill="#F40C5A" d="M1609.23,514.134c-0.018,0.181-0.035,0.363-0.044,0.544c-0.017,0.302-0.328,0.587-0.769,0.803
					c-0.483-0.112-0.95-0.25-1.416-0.423C1607.727,514.712,1608.469,514.41,1609.23,514.134z"/>
				<path fill="#F40C5A" d="M1606.837,488.008c2.427-0.821,5.121-1.028,8.041-0.441c0.846,0.173,0.829,0.57,0.432,0.967
					c-2.323-0.104-4.733,0.19-7.178,0.941C1606.276,490.046,1605.671,488.802,1606.837,488.008z"/>
				<path fill="#F40C5A" d="M1614.196,533.108c-8.956-0.967-17.904-5.51-20.659-14.665c-3.187-10.589,2.332-26.73,13.301-30.436
					c-1.166,0.794-0.562,2.038,1.295,1.468c2.444-0.751,4.854-1.045,7.178-0.941c-0.579,0.587-1.97,1.166-2.66,1.02
					c-5.597-1.123-10.131,3.265-12.739,7.764c-3.049,5.26-4.543,11.815-3.308,17.843c2.115,10.373,11.271,15.495,21.307,16.073
					c1.632,0.095,3.265,0.061,4.854-0.112l0.225,2.012C1620.069,533.48,1617.072,533.419,1614.196,533.108z"/>
				<path fill="#F40C5A" d="M1607.001,515.058c0.466,0.173,0.933,0.311,1.416,0.423c-0.838,0.415-2.133,0.587-2.643,0.19
					C1606.181,515.455,1606.586,515.248,1607.001,515.058z"/>
				<path fill="#F40C5A" d="M1605.584,515.395c0.078-0.268,0.156-0.536,0.233-0.803c0.389,0.182,0.777,0.337,1.184,0.466
					c-0.415,0.19-0.82,0.397-1.227,0.613c-0.095-0.069-0.164-0.155-0.19-0.268V515.395z"/>
				<path fill="#F40C5A" d="M1605.775,515.671c-0.104,0.052-0.216,0.112-0.319,0.173c0.043-0.147,0.086-0.294,0.129-0.44
					C1605.611,515.516,1605.68,515.602,1605.775,515.671z"/>
				<path fill="#F40C5A" d="M1605.775,515.671c0.51,0.397,1.805,0.225,2.643-0.19c2.522,0.596,5.226,0.57,7.747,0.225
					c2.712-0.363,6.962-0.967,8.681-3.438c0.389-0.562,0.535-1.14,0.5-1.702c0.605-0.121,1.201-0.25,1.797-0.388
					c0.984-0.233,1.442-0.674,1.442-1.045l0.51-0.095c0.095,0.535,0.052,1.097-0.13,1.684c-1.278,4.077-7.246,5.623-10.882,6.339
					c-4.871,0.976-10.571,1.295-15.201-0.838c-0.76-0.345-0.095-0.984,0.372-1.244c0.812-0.449,1.641-0.855,2.479-1.227
					c-0.095,0.475-0.147,0.959-0.173,1.451c0,0.069,0,0.129,0.025,0.19v0.009c-0.043,0.146-0.086,0.293-0.129,0.44
					C1605.559,515.783,1605.671,515.723,1605.775,515.671z"/>
				<path fill="#F40C5A" d="M1605.818,514.591c-0.077,0.268-0.155,0.536-0.233,0.803c-0.025-0.061-0.025-0.121-0.025-0.19
					c0.025-0.492,0.078-0.976,0.173-1.451c1.261-0.561,2.548-1.028,3.843-1.442c-0.164,0.605-0.284,1.209-0.345,1.823
					c-0.761,0.276-1.503,0.579-2.229,0.924C1606.595,514.928,1606.207,514.773,1605.818,514.591z"/>
				<path fill="#F40C5A" d="M1674.307,459.386c-38.459,18.768-83.534,17.731-124.395,7.635c-0.086-0.916-0.173-1.831-0.259-2.755
					c40.86,10.494,86.194,12.031,124.662-7.341C1674.316,457.745,1674.316,458.565,1674.307,459.386z"/>
				<path fill="#F40C5A" d="M1591.352,367.819c5.57-0.086,11.185,0.06,16.729,0.622c-5.233-0.095-10.476-0.129-15.701-0.129
					C1591.602,368.312,1591.317,368.104,1591.352,367.819z"/>
				<path fill="#F40C5A" d="M1608.66,188.495c-2.678-6.616-9.578-6.849-15.642-5.493c1.114-0.363,2.28-0.579,3.473-0.613
					c1.321-0.035,3.506-1.952,1.84-2.159c6.676-0.285,13.162,1.839,14.63,9.552c2.013,10.476-4.836,25.677-16.107,28.026
					l-0.432-2.056c4.379-0.794,7.833-5.233,9.828-8.973C1609.074,201.485,1611.008,194.316,1608.66,188.495z"/>
				<path fill="#F40C5A" d="M1597.873,180.204c0.173-0.009,0.328,0,0.458,0.026c-1.563,0.061-3.127,0.259-4.639,0.553
					C1595.04,180.437,1596.439,180.239,1597.873,180.204z"/>
				<path fill="#F40C5A" d="M1616.234,368.64c-2.712-0.086-5.433-0.155-8.153-0.199c-5.544-0.562-11.158-0.708-16.729-0.622
					c0.043-0.613,1.511-1.581,2.443-1.581c5.338,0,10.667,0.034,16.004,0.138c2.22,0.225,4.439,0.518,6.642,0.872
					C1617.625,367.439,1617.106,368.122,1616.234,368.64z"/>
				<path fill="#F40C5A" d="M1593.692,180.783c-1.848,0.449-3.61,1.174-5.225,2.125c0.068-0.432,0.501-0.916,1.382-1.183
					C1591.058,181.353,1592.353,181.033,1593.692,180.783z"/>
				<path fill="#F40C5A" d="M1592.993,183.011c-0.898,0.19-1.779,0.432-2.617,0.683c-1.304,0.397-2.012-0.147-1.908-0.786
					c1.614-0.95,3.377-1.675,5.225-2.125c1.512-0.294,3.075-0.492,4.639-0.553c1.666,0.207-0.519,2.125-1.84,2.159
					c-1.192,0.035-2.358,0.25-3.473,0.613C1593.01,183.011,1593.001,183.011,1592.993,183.011z"/>
				<path fill="#F40C5A" d="M1622.289,595.949c-11.263,0.466-22.551-0.553-33.812-0.57c-2.453-0.008,0.311-1.796,1.494-1.788
					c10.718,0.017,21.462,0.993,32.171,0.63c10.598-0.363,20.504-2.885,30.212-7.099c1.52-0.665,3.714,0.164,1.355,1.183
					C1643.699,592.659,1633.231,595.483,1622.289,595.949z"/>
				<path fill="#F40C5A" d="M1592.993,183.011c-3.377,1.123-6.279,3.636-8.162,6.633c-3.714,5.907-4.335,13.344-0.086,19.173
					c2.09,2.885,4.862,5.985,8.481,6.849c1.114,0.259,2.176,0.276,3.195,0.086l0.432,2.056c-0.647,0.138-1.321,0.233-2.004,0.276
					c-7.756,0.519-15.227-7.151-16.479-14.432c-1.46-8.49,3.049-16.669,10.097-20.746c-0.104,0.639,0.604,1.183,1.908,0.786
					C1591.213,183.443,1592.094,183.201,1592.993,183.011z"/>
				<path fill="#F40C5A" d="M1581.557,386.535c0.7-0.052,2.013-0.146,3.55-0.354c-0.302,0.501-2.22,1.304-2.85,1.252
					c-1.141-0.086-2.824-0.25-4.405-0.682C1579.139,386.699,1580.383,386.621,1581.557,386.535z"/>
				<path fill="#F40C5A" d="M1581.221,377.155c0.526-0.164,1.062-0.242,1.598-0.242c-0.544,0.423-1.555,0.847-2.099,0.855
					c-0.285,0.009-0.579,0.009-0.864,0.026C1580.314,377.51,1580.789,377.293,1581.221,377.155z"/>
				<path fill="#F40C5A" d="M1582.819,376.914c0.544-0.415,0.647-0.812-0.562-0.794c-0.89,0.008-1.788,0.052-2.687,0.129
					c2.462-0.967,5.269-1.33,7.791-0.63c2.263,0.622,6.184,2.444,6.883,5c0.993,3.559-4.896,4.983-9.138,5.562
					c0.13-0.199,0.009-0.345-0.518-0.389c-1.089-0.086-2.427-0.207-3.671-0.553c3.135-0.008,6.287-0.371,8.663-1.632
					c1.632-0.872,1.174-2.392-0.026-3.489C1587.793,378.511,1585.315,376.905,1582.819,376.914z"/>
				<path fill="#D6D6D6" d="M1581.298,225.356c2.142,0.751-0.726,2.798-2.15,2.306c-8.248-2.902-13.378-8.913-12.065-17.938
					c0.225-1.511,3.93-2.073,3.679-0.337C1569.596,217.394,1573.915,222.766,1581.298,225.356z"/>
				<path fill="#F40C5A" d="M1582.257,376.119c1.209-0.018,1.105,0.38,0.562,0.794c-0.536,0-1.071,0.078-1.598,0.242
					c-0.433,0.138-0.907,0.354-1.365,0.639c-1.2,0.035-2.409,0.121-3.602,0.285c0.458-0.363,0.941-0.682,1.426-0.95
					c0.596-0.337,1.226-0.63,1.891-0.881C1580.469,376.171,1581.368,376.127,1582.257,376.119z"/>
				<path fill="#F40C5A" d="M1584.589,385.792c0.526,0.043,0.647,0.19,0.518,0.389c-1.537,0.208-2.85,0.302-3.55,0.354
					c-1.174,0.086-2.418,0.165-3.705,0.216c-1.347-0.38-2.607-0.959-3.385-1.866c1.951,0.173,4.197,0.354,6.451,0.354
					C1582.163,385.585,1583.5,385.706,1584.589,385.792z"/>
				<path fill="#D6D6D6" d="M1565.096,226.021c2.971,7.057,8.853,10.891,16.254,12.238c2.056,0.372-1.131,2.133-2.245,1.926
					c-7.989-1.442-14.44-5.554-17.653-13.188C1560.985,225.901,1564.578,224.778,1565.096,226.021z"/>
				<path fill="#F40C5A" d="M1573.681,383.141c-0.251-2.064,0.993-3.817,2.573-5.061c1.192-0.164,2.401-0.25,3.602-0.285
					c-1.528,0.95-2.945,2.625-2.521,4.37c0.423,1.736,1.908,2.608,3.584,3.075c-2.254,0-4.5-0.181-6.451-0.354
					C1574.043,384.402,1573.767,383.823,1573.681,383.141z"/>
				<path fill="#F40C5A" d="M1576.254,378.08c-1.649,0.233-3.265,0.63-4.793,1.295c-0.64,0.285-6.071,3.584-5.018,3.99
					c2.245,0.872,4.681,1.227,7.064,1.434c0.311,0.026,0.63,0.052,0.959,0.086c0.777,0.907,2.038,1.485,3.385,1.866
					c-5.233,0.216-11.098-0.035-15.477-2.393c-0.25-0.129-0.069-0.432,0.043-0.562c4.275-5,10.753-7.056,17.152-7.548
					c-0.665,0.25-1.295,0.544-1.891,0.881C1577.196,377.397,1576.712,377.717,1576.254,378.08z"/>
				<path fill="#F40C5A" d="M1557.841,536.701c18.431,7.885,40.256,9.57,60.06,8.637c11.003-0.518,22.223-1.891,32.682-5.501
					c8.446-2.919,16.833-7.281,22.213-14.656c0.147-0.208,0.44-0.38,0.795-0.501c-0.009,0.794-0.026,1.581-0.043,2.375
					c-0.009,0.311-0.018,0.622-0.026,0.933c-5.328,5.623-12.437,9.44-19.7,12.091c-10.735,3.921-22.162,5.847-33.527,6.599
					c-12.057,0.794-24.234,0.44-36.205-1.183c-9.138-1.244-18.362-3.041-26.99-6.417c-0.009-0.794-0.025-1.598-0.061-2.401
					C1557.375,536.624,1557.668,536.624,1557.841,536.701z"/>
				<path fill="#F40C5A" d="M1557.098,539.076c-0.751-0.285-1.494-0.587-2.236-0.907c-0.173-0.078-0.251-0.164-0.251-0.268
					c0-0.44,1.417-1.062,2.427-1.227C1557.073,537.479,1557.089,538.282,1557.098,539.076z"/>
				<path fill="#F40C5A" d="M1556.96,533.903c0.034,0.924,0.061,1.849,0.077,2.772c-1.01,0.164-2.427,0.786-2.427,1.227
					l-1.218,0.035c-0.043-1.261-0.086-2.531-0.138-3.792c-0.372-8.835-1.754-17.542-2.808-26.316
					c-1.209-10.036-2.288-20.08-3.256-30.142c-0.371-3.878-0.733-7.755-1.088-11.633c1.27,0.328,2.539,0.656,3.809,0.967
					c0.959,10.494,2.013,20.979,3.204,31.455C1554.456,510.273,1556.511,522.036,1556.96,533.903z"/>
				<path fill="#F40C5A" d="M1676.138,386.302c1.849-1.278,3.68-3.273,3.17-5.7l0.173-0.035c0.345,1.71,0.682,3.455,0.924,5.208
					c-1.537,1.434-3.48,2.591-5.07,3.368c-8.066,3.956-17.342,5.588-26.134,6.979c-16.341,2.574-33.226,4.189-49.782,4.094
					c-14.553-0.078-29.486-1.105-43.676-4.474c-6.055-1.442-12.532-3.161-17.61-6.936c0.13-1.347,0.328-2.694,0.622-4.024
					c1.218,2.228,4.845,4.068,6.478,4.811c3.809,1.736,7.808,2.988,11.875,3.956c20.754,4.923,42.294,5.225,63.472,3.723
					c10.355-0.734,20.736-1.745,30.979-3.481C1659.59,392.417,1669.281,391.078,1676.138,386.302z"/>
				<path fill="#F40C5A" d="M1554.698,593.186c-0.052-0.57-0.087-1.158-0.112-1.736c0.328-0.017,0.656-0.026,0.984-0.034
					c1.148-0.035,1.589,0.121,1.589,0.371C1557.159,592.192,1555.924,592.84,1554.698,593.186z"/>
				<path fill="#F40C5A" d="M1558.212,588.556c0.043,1.045,0.087,2.107,0.139,3.178l-1.192,0.052c0-0.25-0.44-0.406-1.589-0.371
					c-0.328,0.008-0.656,0.017-0.984,0.034c-0.173-2.979-0.216-5.985-0.389-8.93c-0.864-14.864-0.363-29.719-0.804-44.583
					l1.218-0.035c0,0.104,0.078,0.19,0.251,0.268c0.742,0.32,1.485,0.622,2.236,0.907c0.155,8.076,0.009,16.16,0.13,24.226
					C1557.34,571.732,1557.841,580.135,1558.212,588.556z"/>
				<path fill="#D6D6D6" d="M1554.585,591.449c0.025,0.579,0.061,1.166,0.112,1.736c-0.484,0.138-0.968,0.233-1.374,0.25
					c-27.473,0.881-54.972,1.528-82.472,2.021c0.009-0.648,0.018-1.287,0.035-1.935
					C1498.801,593.004,1526.697,592.339,1554.585,591.449z"/>
				<path fill="#F40C5A" d="M1549.654,464.265c0.086,0.924,0.173,1.84,0.259,2.755c-1.27-0.311-2.539-0.639-3.809-0.967
					c-0.052-0.553-0.104-1.105-0.146-1.65c0.647-0.406,1.546-0.691,2.115-0.544C1548.6,463.998,1549.126,464.136,1549.654,464.265z"
					/>
				<path fill="#F40C5A" d="M1545.603,415.131c1.296,16.375,2.573,32.768,4.051,49.134c-0.527-0.129-1.054-0.268-1.581-0.406
					c-0.569-0.147-1.468,0.138-2.115,0.544c-1.451-16.09-2.729-32.189-3.999-48.296c-0.069-0.89,0.751-1.563,1.632-1.813
					c0.562,0.052,1.114,0.104,1.676,0.164C1545.457,414.613,1545.577,414.829,1545.603,415.131z"/>
				<path fill="#F40C5A" d="M1545.958,464.403c0.043,0.544,0.095,1.097,0.146,1.65c-0.078-0.018-0.146-0.043-0.225-0.061
					C1544.687,465.673,1545.12,464.939,1545.958,464.403z"/>
				<path fill="#F40C5A" d="M1545.266,414.458c-0.562-0.061-1.114-0.112-1.676-0.164
					C1544.221,414.112,1544.877,414.138,1545.266,414.458z"/>
				<path fill="#F40C5A" d="M1562.678,414.475c18.188,2.461,36.516,5.199,54.92,3.809c8.335-0.63,16.669-2.012,24.883-3.506
					c7.868-1.425,15.874-3.031,23.362-5.907c3.049-1.175,6.356-2.695,9.043-4.828l0.034,0.043c-0.319,0.259-0.535,0.605-0.535,1.02
					c0,0.553,0,1.105,0,1.658c-11.505,6.866-26.23,8.904-39.202,10.951c-16.099,2.548-31.896,3.412-48.158,1.883
					c-13.966-1.321-27.819-3.679-41.759-5.139c-0.389-0.32-1.045-0.346-1.676-0.164c-2.564-0.268-5.139-0.484-7.712-0.665
					c-0.182-0.018-0.683-0.156-0.691-0.423c-0.061-9.207-2.047-18.793-0.069-27.905c0.363,1.028,1.175,2.082,2.522,3.135
					c0.164,0.129,0.328,0.25,0.492,0.371c-0.665,6.823,0.432,13.836,0.647,20.633c0.018,0.389-0.25,2.393,0.501,2.444
					c1.132,0.086,2.254,0.172,3.377,0.268c2.237,0.199,4.474,0.415,6.711,0.665C1553.808,413.309,1558.248,413.879,1562.678,414.475
					z"/>
				<path fill="#F40C5A" d="M1538.391,383.832c0.319,0.086,0.51,0.276,0.44,0.587c-0.025,0.121-0.052,0.242-0.077,0.363
					C1538.582,384.471,1538.46,384.151,1538.391,383.832z"/>
				<path fill="#F40C5A" d="M1538.391,383.832c0.069,0.32,0.19,0.639,0.363,0.95c-0.294,1.33-0.492,2.677-0.622,4.024
					c-0.164-0.121-0.328-0.242-0.492-0.371c-1.348-1.054-2.159-2.107-2.522-3.135c0.026-0.121,0.052-0.242,0.078-0.363
					C1535.386,384.099,1537.45,383.564,1538.391,383.832z"/>
				<path fill="#F40C5A" d="M1576.393,366.662c11.021-1.097,22.325-1.442,33.406-0.285c-5.337-0.104-10.666-0.138-16.004-0.138
					c-0.933,0-2.4,0.967-2.443,1.581c-0.812,0.008-1.624,0.026-2.436,0.052c-9.354,0.25-18.854,1.045-27.992,3.187
					c-3.999,0.941-8.006,2.064-11.737,3.826c-3.195,1.503-8.904,3.87-10.571,7.272c-0.276,0.57-0.337,1.123-0.225,1.675
					c-0.941-0.268-3.005,0.268-3.195,1.105c-0.026,0.121-0.052,0.242-0.078,0.363c-0.769-2.228,0.579-4.396,3.3-6.478
					C1549.135,370.644,1563.291,367.958,1576.393,366.662z"/>
				<path fill="#F40C5A" d="M1516.247,692.715c29.348-1.347,58.661-4.206,88.052-4.25c2.47,0,0.189,2.332-1.348,2.332
					c-29.08,0.043-58.091,2.894-87.127,4.232C1513.319,695.142,1514.312,692.81,1516.247,692.715z"/>
				<path fill="#F40C5A" d="M1642.438,706.067c-47.477,2.98-95.073,7.091-142.696,5.657c-2.444-0.078,0.302-1.831,1.494-1.788
					c47.614,1.434,95.219-2.678,142.696-5.657C1646.368,704.132,1643.595,705.998,1642.438,706.067z"/>
				<path fill="#F40C5A" d="M1470.55,593.531c0.112,0,0.225,0,0.337-0.009c-0.017,0.648-0.026,1.287-0.035,1.935
					c-0.104,0.008-0.198,0.008-0.302,0.008V593.531z"/>
				<path fill="#F40C5A" d="M1462.293,319.635c0.656,0.553,0.164,1.235-0.726,1.736c-0.112-0.881-0.233-1.771-0.363-2.651
					C1461.568,319.022,1461.931,319.324,1462.293,319.635z"/>
				<path fill="#F40C5A" d="M1456.878,323.824c0.985-0.112,3.308-1.373,3.334-1.935c0.483-0.112,0.958-0.302,1.356-0.518
					c7.108,53.461,8.887,107.786,9.656,161.523c0.501,34.849,0.242,72.324-0.337,110.627c-0.112,0.009-0.225,0.009-0.337,0.009
					v1.935c0.104,0,0.199,0,0.302-0.008c-1.157,74.025-3.523,151.073-4.05,218.344c-0.259-0.061-0.527-0.138-0.786-0.199
					c-1.312-0.769-2.694-1.399-4.12-1.9c0.587-59.066,2.729-140.951,3.817-200.009c1.088-59.472,1.563-119.022-0.717-178.478
					c-1.399-36.473-3.602-73.11-8.283-109.375C1456.766,323.833,1456.826,323.833,1456.878,323.824z"/>
				<path fill="#F40C5A" d="M1461.205,318.72c0.129,0.881,0.25,1.771,0.363,2.651c-0.397,0.216-0.873,0.406-1.356,0.518
					c0.009-0.225-0.337-0.337-1.252-0.233c-0.337,0.043-0.682,0.078-1.019,0.112c-0.069-0.034-0.129-0.078-0.19-0.129
					c-0.492-0.423-0.985-0.838-1.485-1.244c-0.277-2.133-0.57-4.275-0.881-6.409C1457.345,315.541,1459.296,317.113,1461.205,318.72
					z"/>
				<path fill="#F40C5A" d="M1458.959,321.656c0.916-0.104,1.261,0.009,1.252,0.233c-0.838,0.199-1.71,0.208-2.271-0.121
					C1458.277,321.734,1458.623,321.699,1458.959,321.656z"/>
				<path fill="#F40C5A" d="M1457.75,321.639c0.061,0.052,0.121,0.095,0.19,0.129c-0.492,0.043-0.984,0.095-1.477,0.13
					c-0.06-0.501-0.129-1.002-0.198-1.503C1456.766,320.801,1457.258,321.215,1457.75,321.639z"/>
				<path fill="#F40C5A" d="M1461.205,318.72c-1.909-1.606-3.86-3.179-5.821-4.733c-1.71-12.057-3.713-24.07-6.071-36.015
					c0.458,0.017,0.924,0.043,1.382,0.069c-0.51-0.276-1.019-0.553-1.529-0.829l0.129-2.332c1.088,0.052,2.168,0.112,3.256,0.173
					c0.518,0.035,1.408,0.208,1.537,0.838C1456.904,290.08,1459.253,304.365,1461.205,318.72z"/>
				<path fill="#F40C5A" d="M1456.878,323.824c-0.052,0.009-0.112,0.009-0.164,0.017c-0.078-0.647-0.155-1.295-0.25-1.943
					c0.493-0.035,0.985-0.086,1.477-0.13c0.562,0.329,1.434,0.32,2.271,0.121C1460.186,322.451,1457.863,323.711,1456.878,323.824z"
					/>
				<path fill="#F40C5A" d="M1455.384,313.986c0.311,2.133,0.604,4.275,0.881,6.409c-8.792-7.333-18.181-13.931-27.12-21.056
					c-7.419-5.925-15.511-12.169-21.255-19.942c0-1.01,0-2.03,0-3.04c1.295,0.043,2.591,0.086,3.887,0.129
					c5.778,8.179,14.207,14.726,21.911,20.84C1440.831,302.983,1448.233,308.338,1455.384,313.986z"/>
				<path fill="#F40C5A" d="M1450.694,278.041c-0.458-0.026-0.924-0.052-1.382-0.069c-0.043-0.25-0.095-0.51-0.147-0.76
					C1449.675,277.488,1450.185,277.764,1450.694,278.041z"/>
				<path fill="#F40C5A" d="M1449.166,277.211c0.052,0.25,0.104,0.51,0.147,0.76c-9.224-0.501-18.448-0.855-27.681-1.166
					c-3.282-0.112-6.573-0.216-9.854-0.32c-0.7-0.993-1.356-2.003-1.969-3.04c-0.069-0.112-0.155-0.207-0.259-0.293
					c13.257,0.458,26.506,1.019,39.746,1.727L1449.166,277.211z"/>
				<path fill="#F40C5A" d="M1409.549,273.152c-0.864-0.026-1.727-0.052-2.591-0.086
					C1407.908,272.746,1408.979,272.712,1409.549,273.152z"/>
				<path fill="#F40C5A" d="M1456.714,323.841c-17.653,1.978-35.203-1.995-52.856-2.125c-0.173,0-0.881-0.095-0.881-0.415
					c0-15.028,0-30.056,0-45.083c0.933,0.017,1.857,0.052,2.79,0.078c0.665,1.062,1.373,2.099,2.125,3.101
					c0,6.357,0,12.705,0,19.062c0,4.163,0,8.326,0,12.488c0,2.021,0,4.042,0,6.063c0,2.919,0.941,2.522,3.48,2.634
					c15.028,0.639,30.047,3.498,45.092,2.254C1456.559,322.545,1456.636,323.193,1456.714,323.841z"/>
				<path fill="#F40C5A" d="M1407.891,276.356c0,1.01,0,2.03,0,3.04c-0.751-1.002-1.459-2.038-2.125-3.101
					C1406.474,276.313,1407.183,276.339,1407.891,276.356z"/>
				<path fill="#F40C5A" d="M1405.256,275.45c-0.475-0.803,0.078-1.555,0.95-2.056h0.009c0.916-0.104,1.675,0.017,1.675,0.397
					c0,0.855,0,1.71,0,2.565c-0.708-0.017-1.417-0.043-2.125-0.061C1405.593,276.02,1405.42,275.734,1405.256,275.45z"/>
				<path fill="#F40C5A" d="M1407.891,273.792c0-0.38-0.76-0.501-1.675-0.397c0.233-0.129,0.483-0.242,0.743-0.328
					c0.864,0.035,1.727,0.061,2.591,0.086c0.104,0.086,0.19,0.181,0.259,0.293c0.613,1.037,1.27,2.047,1.969,3.04
					c-1.295-0.043-2.591-0.086-3.887-0.129C1407.891,275.501,1407.891,274.646,1407.891,273.792z"/>
				<path fill="#F40C5A" d="M1406.207,273.394c-0.872,0.501-1.425,1.252-0.95,2.056c0.164,0.285,0.337,0.57,0.51,0.846
					c-0.933-0.026-1.857-0.061-2.79-0.078c0-0.372,0-0.743,0-1.114C1402.977,274.171,1404.781,273.532,1406.207,273.394z"/>
				<path fill="#F40C5A" d="M1267.095,270.63c46.578,0.63,93.268,0.89,139.863,2.436c-0.259,0.086-0.51,0.199-0.743,0.328h-0.009
					c-1.425,0.138-3.23,0.777-3.23,1.71c0,0.372,0,0.743,0,1.114c-66.054-1.986-132.15-2.625-198.23-3.334
					c-88.993-0.967-177.994-1.563-266.995-1.9c-61.036-0.225-122.071-0.138-183.107-0.035
					c-78.525,0.138-157.067-5.329-235.549-7.375c-38.312-0.993-76.78-1.935-115.084-0.138c-12.48,0.579-25.116,1.278-37.423,3.567
					c-3.472,0.656-13.905,1.926-14.682,6.391c-1.114,6.443,0.207,14.147,0.319,20.667c0.155,8.603,0.293,17.205,0.406,25.807
					c0.225,17.049,0.38,34.106,0.449,51.155c0.129,30.85,0,61.701-0.415,92.542c-0.674,50.516-2.125,101.006-3.99,151.488
					c-2.056,55.361-5.294,150.071-4.966,205.545c-1.624-0.086-3.239-0.009-4.819,0.25c-0.009-3.187-0.009-6.365,0.008-9.544
					c0.329-59.619,3.179-140.225,5.467-211.055c0.242,0,0.475,0,0.717,0v-2.021c-0.216,0-0.44,0-0.656,0
					c0.812-25.115,1.546-48.961,2.073-70.147c1.477-59.516,2.012-119.057,1.511-178.59c-0.146-17.559-0.371-35.125-0.682-52.684
					c-0.095-5.139-0.19-10.26-0.293-15.399c-0.043-2.159-0.493-5.018-0.104-7.263c0.156-0.881,0.553-1.702,1.105-2.401
					c4.042-5.147,12.636-6.46,18.612-7.575c28.924-5.389,59.403-4.672,88.69-4.612c42.631,0.086,85.261,1.477,127.858,3.014
					c67.53,2.444,134.957,5.45,202.531,5.243c71.331-0.216,142.652,0.086,213.974,0.458
					C1088.833,268.739,1177.964,269.421,1267.095,270.63z"/>
				<path fill="#D6D6D6" d="M345.083,598.229v2.021c-0.242,0-0.475,0-0.717,0c0.017-0.673,0.043-1.356,0.061-2.021
					C344.643,598.229,344.868,598.229,345.083,598.229z"/>
				<path fill="#F40C5A" d="M344.384,204.464c0.061,0.026,0.069,0.078,0.018,0.156c0,0.008-0.009,0.008-0.009,0.017
					C344.418,204.568,344.418,204.516,344.384,204.464z"/>
				<path fill="#F40C5A" d="M344.151,204.965c0.078-0.112,0.155-0.216,0.242-0.328C344.367,204.724,344.289,204.836,344.151,204.965
					z"/>
				<path fill="#D6D6D6" d="M344.427,598.229c-0.018,0.665-0.043,1.348-0.061,2.021c-34.996,0.018-69.975,0.026-104.971,0.026
					c-0.138,0-0.268,0-0.397-0.008c-0.026-0.475-0.052-0.95-0.069-1.434c1.529-0.329,3.429-0.579,4.854-0.579
					C277.337,598.255,310.874,598.238,344.427,598.229z"/>
				<path fill="#F40C5A" d="M342.786,205.613c-0.164,0.043-0.337,0.095-0.501,0.138c0.129-0.069,0.268-0.13,0.406-0.182
					C342.726,205.587,342.751,205.596,342.786,205.613z"/>
				<path fill="#F40C5A" d="M341.992,205.233c0.233,0.112,0.466,0.224,0.699,0.336c-0.138,0.052-0.276,0.112-0.406,0.182
					c-0.743,0.207-1.485,0.415-2.237,0.613c0.259-0.354,0.51-0.708,0.769-1.062C341.206,205.285,341.603,205.259,341.992,205.233z"
					/>
				<path fill="#F40C5A" d="M341.992,205.233c0.553-0.035,1.097-0.069,1.649-0.104c-0.319,0.147-0.63,0.285-0.95,0.44
					C342.458,205.458,342.225,205.345,341.992,205.233z"/>
				<path fill="#F40C5A" d="M342.285,205.751c-0.898,0.406-1.788,0.812-2.677,1.226c0.138-0.207,0.293-0.415,0.44-0.613
					C340.8,206.166,341.542,205.958,342.285,205.751z"/>
				<path fill="#F40C5A" d="M343.641,205.129c-0.553,0.035-1.097,0.069-1.649,0.104c-0.225-0.112-0.449-0.216-0.665-0.329
					c0.086-0.034,0.164-0.078,0.25-0.112c0.207-0.086,2.436-0.553,2.807-0.328c0.035,0.052,0.035,0.104,0.009,0.173
					c-0.086,0.112-0.164,0.216-0.242,0.328c-0.035,0.035-0.078,0.069-0.13,0.112c-2.012,1.606-4.085,3.075-6.218,4.422
					c0.596-0.846,1.192-1.684,1.805-2.522c0.89-0.415,1.779-0.82,2.677-1.226c0.164-0.043,0.337-0.095,0.501-0.138
					c-0.035-0.018-0.061-0.026-0.095-0.043C343.011,205.415,343.322,205.276,343.641,205.129z"/>
				<path fill="#F40C5A" d="M341.327,204.905c-0.173,0.078-0.346,0.156-0.519,0.242c0.13-0.095,0.259-0.199,0.389-0.302
					C341.24,204.862,341.283,204.888,341.327,204.905z"/>
				<path fill="#F40C5A" d="M340.817,205.302c-0.259,0.354-0.509,0.708-0.769,1.062c-0.449,0.129-0.898,0.25-1.347,0.38
					c0.717-0.518,1.416-1.054,2.107-1.598c0.173-0.086,0.346-0.164,0.519-0.242c0.216,0.112,0.44,0.216,0.665,0.329
					C341.603,205.259,341.206,205.285,340.817,205.302z"/>
				<path fill="#F40C5A" d="M340.808,205.147c-0.691,0.544-1.39,1.08-2.107,1.598c-1.088,0.293-2.185,0.596-3.282,0.898
					C337.207,206.788,339.003,205.958,340.808,205.147z"/>
				<path fill="#F40C5A" d="M340.048,206.365c-0.147,0.198-0.302,0.406-0.44,0.613c-1.347,0.631-2.695,1.261-4.033,1.909
					c1.062-0.683,2.099-1.399,3.126-2.142C339.15,206.615,339.599,206.494,340.048,206.365z"/>
				<path fill="#F40C5A" d="M335.575,208.887c1.338-0.648,2.686-1.278,4.033-1.909c-0.613,0.838-1.209,1.676-1.805,2.522
					c-7.851,5.001-16.453,8.473-25.28,11.479c2.237-1.295,4.491-2.548,6.763-3.783c0.009-0.008,0.017-0.008,0.026-0.008
					C324.969,214.88,330.444,212.22,335.575,208.887z"/>
				<path fill="#F40C5A" d="M311.081,220.252c7.955-4.534,16.099-8.723,24.338-12.61c1.097-0.302,2.194-0.604,3.282-0.898
					c-1.028,0.743-2.064,1.459-3.126,2.142c-5.476,2.617-10.908,5.38-16.263,8.3c-0.009,0-0.017,0-0.026,0.008
					C316.583,218.283,313.845,219.294,311.081,220.252z"/>
				<path fill="#F40C5A" d="M312.523,220.978c-2.047,0.691-4.102,1.364-6.167,2.021c1.563-0.941,3.135-1.857,4.724-2.747
					c2.764-0.958,5.502-1.969,8.205-3.058C317.014,218.43,314.76,219.683,312.523,220.978z"/>
				<path fill="#F40C5A" d="M303.809,255.317c0.656-0.717,1.304-1.434,1.943-2.159c0.518,0.406,1.045,0.812,1.572,1.218
					C306.149,254.687,304.983,254.998,303.809,255.317z"/>
				<path fill="#F40C5A" d="M305.752,253.158c-0.639,0.726-1.287,1.442-1.943,2.159l-0.095,0.121
					c-3.135-2.401-6.072-5.044-9.25-7.402c-0.121-0.086-0.242-0.181-0.372-0.276c0.562-0.363,1.123-0.726,1.684-1.08
					c0.501-0.319,0.708-0.613,0.708-0.872C299.672,248.132,302.66,250.706,305.752,253.158z"/>
				<path fill="#F40C5A" d="M337.803,209.5c2.133-1.347,4.206-2.815,6.218-4.422c0.052-0.043,0.095-0.078,0.13-0.112
					c-12.117,16.626-22.775,34.478-36.758,49.661c-0.544,0.587-2.764,1.52-3.515,0.941c-0.052-0.043-0.112-0.086-0.164-0.129
					l0.095-0.121c1.175-0.319,2.341-0.63,3.515-0.941c-0.527-0.406-1.054-0.812-1.572-1.218
					C317.749,239.642,327.353,224.217,337.803,209.5z"/>
				<path fill="#D6D6D6" d="M302.859,319.713c0.276,1.753-3.377,2.677-3.645,0.976c-1.131-7.056-5.035-12.963-11.798-15.693
					c-2.159-0.863,0.553-3.092,2.099-2.461C296.96,305.531,301.598,311.854,302.859,319.713z"/>
				<path fill="#F40C5A" d="M264.753,237.379c14.354-7.946,30.755-11.729,46.327-17.126c-1.589,0.89-3.161,1.805-4.724,2.747
					c-13.421,4.275-27.093,8.032-39.297,14.898C266.282,237.733,265.514,237.569,264.753,237.379z"/>
				<path fill="#F40C5A" d="M296.485,245.809c-0.346-0.259-0.691-0.51-1.037-0.751c-0.035-0.026-0.061-0.043-0.095-0.061
					C295.984,245.109,296.485,245.411,296.485,245.809z"/>
				<path fill="#F40C5A" d="M295.448,245.057c0.346,0.242,0.691,0.492,1.037,0.751c0,0.259-0.208,0.553-0.708,0.872
					c-0.561,0.354-1.123,0.717-1.684,1.08c-0.673-0.509-1.382-1.045-2.116-1.572c0.483-0.311,0.958-0.622,1.442-0.924
					c0.518-0.328,1.295-0.397,1.935-0.268C295.388,245.014,295.414,245.031,295.448,245.057z"/>
				<path fill="#F40C5A" d="M291.977,246.188c-2.79-2.056-5.934-4.111-9.172-4.629c-0.51-0.086-1.01,0.052-1.494,0.346l-0.078-0.112
					c0.734-0.562,1.468-1.123,2.202-1.667c4.31-0.372,8.568,2.504,11.919,4.871c-0.639-0.129-1.417-0.061-1.935,0.268
					C292.935,245.566,292.46,245.877,291.977,246.188z"/>
				<path fill="#F40C5A" d="M277.985,242.371c1.321-1.097,2.894-1.857,4.802-2.168c0.216-0.035,0.432-0.061,0.647-0.078
					c-0.734,0.544-1.468,1.105-2.202,1.667C280.723,242.189,278.529,242.518,277.985,242.371z"/>
				<path fill="#F40C5A" d="M277.985,242.371c0.544,0.147,2.738-0.182,3.248-0.579l0.078,0.112c-2.634,1.624-4.69,8.092-5.45,10.174
					c-0.907,2.461-1.658,5.061-2.617,7.548c-0.699,0.519-1.399,1.054-2.099,1.581c-0.172-1.373-0.337-2.746-0.483-4.128
					C272.38,251.638,274.099,245.592,277.985,242.371z"/>
				<path fill="#F40C5A" d="M312.523,220.978c-10.087,5.795-19.855,12.152-29.088,19.147c-0.216,0.017-0.432,0.043-0.647,0.078
					c-1.909,0.311-3.481,1.071-4.802,2.168c-0.138-0.035-0.173-0.104-0.026-0.216c9.008-6.97,18.534-13.335,28.397-19.156
					C308.421,222.342,310.476,221.669,312.523,220.978z"/>
				<path fill="#F40C5A" d="M273.243,259.627c-0.518,1.339-1.088,2.643-1.788,3.878l-0.035-0.017c-0.095-0.76-0.19-1.52-0.276-2.28
					C271.844,260.681,272.544,260.146,273.243,259.627z"/>
				<path fill="#F40C5A" d="M273.243,259.627c6.132-4.646,12.282-9.267,18.733-13.438c0.734,0.527,1.442,1.062,2.116,1.572
					c-8.066,5.225-15.649,11.15-23.319,16.919c-0.803,0.604-2.246,0.501-2.79-0.009c0.743,0.233,3.153-0.604,3.403-1.045
					c0.026-0.043,0.043-0.078,0.069-0.121C272.155,262.27,272.725,260.966,273.243,259.627z"/>
				<path fill="#F40C5A" d="M271.145,261.208c0.086,0.76,0.182,1.52,0.276,2.28c-1.209,0.276-2.418,0.553-3.619,0.829
					c0.173-0.311,0.346-0.63,0.51-0.967c0.034-0.035,0.069-0.061,0.104-0.086C269.331,262.581,270.238,261.89,271.145,261.208z"/>
				<path fill="#F40C5A" d="M268.416,263.263c-0.035,0.026-0.069,0.052-0.104,0.086c0.889-1.814,1.615-3.99,2.349-6.271
					c0.146,1.382,0.311,2.755,0.483,4.128C270.238,261.89,269.331,262.581,268.416,263.263z"/>
				<path fill="#F40C5A" d="M267.768,264.464c-0.941-7.557-1.848-15.175-1.978-22.801c-0.026-1.615-0.519-2.09-1.434-2.357
					c0.285-0.061,0.518-0.138,0.647-0.216c0.682-0.406,1.365-0.803,2.056-1.192c0.682,0.138,1.365,0.268,2.047,0.406
					c0.138,0.008,0.242,0.061,0.311,0.181c0.034,6.219,0.553,12.42,1.244,18.595c-0.734,2.28-1.46,4.457-2.349,6.271
					c-0.674,0.544-0.665,1.002-0.329,1.321C267.863,264.636,267.785,264.567,267.768,264.464z"/>
				<path fill="#F40C5A" d="M271.387,263.626c-0.25,0.44-2.66,1.278-3.403,1.045c-0.336-0.319-0.345-0.777,0.329-1.321
					c-0.164,0.337-0.337,0.656-0.51,0.967c1.201-0.276,2.41-0.553,3.619-0.829l0.035,0.017
					C271.43,263.548,271.413,263.583,271.387,263.626z"/>
				<path fill="#F40C5A" d="M267.06,237.897c-0.691,0.389-1.374,0.786-2.056,1.192c-0.129,0.078-0.363,0.156-0.647,0.216
					c-0.458-0.138-1.037-0.216-1.719-0.372c-0.138-0.035-0.285-0.061-0.423-0.095c0.838-0.509,1.684-0.993,2.539-1.459
					C265.514,237.569,266.282,237.733,267.06,237.897z"/>
				<path fill="#F40C5A" d="M262.638,238.934c0.682,0.155,1.261,0.233,1.719,0.372c-1.252,0.285-3.481,0.336-2.177-0.449
					c0.009-0.009,0.026-0.018,0.035-0.018C262.353,238.873,262.5,238.899,262.638,238.934z"/>
				<path fill="#D6D6D6" d="M257.982,369.961c-0.527,0.035-1.062,0.069-1.598,0.112c0.311-0.673,0.587-1.373,0.837-2.073
					c0.967-0.078,1.917-0.19,2.833-0.319c6.417-0.881,12.463-3.653,17.023-8.3c8.49-8.645,11.582-21.902,7.54-33.372
					c-4.068-11.547-14.847-18.5-21.437-28.475c-2.815-4.25-5.648-9.345-5.217-14.631c0.475-5.812,4.647-9.776,9.483-12.514
					c1.235-0.691,4.431-0.043,2.289,1.174c-2.047,1.157-4.171,2.496-5.614,4.405c-7.73,10.243,4.146,23.215,10.856,30.496
					c3.834,4.154,7.954,7.955,10.761,12.92c2.815,4.966,4.318,10.692,4.292,16.401c-0.052,11.279-5.64,22.326-15.218,28.484
					C269.797,367.5,263.959,369.546,257.982,369.961z"/>
				<path fill="#F40C5A" d="M284.575,221.004c19.07-6.271,38.52-11.323,57.857-16.695c0.432-0.121,1.771-0.199,1.952,0.155
					c-0.371-0.225-2.6,0.242-2.807,0.328c-0.086,0.035-0.164,0.078-0.25,0.112c-0.043-0.017-0.086-0.043-0.13-0.06
					c-0.129,0.104-0.259,0.207-0.389,0.302c-1.805,0.812-3.601,1.641-5.389,2.496c-15.917,4.353-31.887,8.603-47.58,13.724
					c-5.795,1.883-11.686,3.489-17.438,5.501c-3.083,1.071-6.184,2.168-9.129,3.576c-1.581,0.751-3.938,1.615-4.88,3.23
					c-0.043,0.078-0.104,0.147-0.181,0.216c-0.648-0.44-1.27-0.933-1.866-1.485c3.075-2.772,8.49-4.267,11.824-5.493
					C272.233,224.692,278.451,223.025,284.575,221.004z"/>
				<path fill="#D6D6D6" d="M253.699,368.182c1.183,0,2.375-0.069,3.523-0.182c-0.25,0.7-0.527,1.399-0.837,2.073
					c-1.175,0.069-2.367,0.138-3.559,0.164C253.146,369.564,253.439,368.881,253.699,368.182z"/>
				<path fill="#F40C5A" d="M254.346,232.404c0.596,0.553,1.218,1.045,1.866,1.485c-0.89,0.769-3.757,0.933-3.429,0.372
					C253.18,233.579,253.707,232.966,254.346,232.404z"/>
				<path fill="#F40C5A" d="M258.872,237.975c-3.006-0.959-5.692-2.246-8.006-4.405c-0.44-0.415,2.79-1.814,3.446-1.201
					c0.009,0.009,0.026,0.018,0.035,0.035c-0.639,0.562-1.166,1.174-1.563,1.857c-0.328,0.562,2.539,0.397,3.429-0.372
					c2.565,1.779,5.501,2.764,8.542,3.489c-0.855,0.466-1.701,0.95-2.539,1.459C261.091,238.588,259.969,238.32,258.872,237.975z"/>
				<path fill="#D6D6D6" d="M251.461,352.731c-3.403-3.826-7.54-3.152-10.079,1.192c-2.332,3.999-2.064,9.422,2.254,11.988
					c2.962,1.753,6.521,2.289,10.062,2.271c-0.259,0.699-0.553,1.382-0.873,2.055c-3.584,0.078-7.203-0.207-10.476-1.684
					c-13.689-6.192-0.821-26.843,10.433-19.147c6.512,4.448,6.814,11.953,4.439,18.595c-1.148,0.112-2.34,0.182-3.523,0.182
					C255.625,362.991,255.642,357.412,251.461,352.731z"/>
				<path fill="#F40C5A" d="M241.054,640.601c0.156,0.225,0.138,0.449,0.018,0.665c0.008-0.069,0.008-0.13,0.008-0.199
					C241.072,640.912,241.063,640.756,241.054,640.601z"/>
				<path fill="#F40C5A" d="M241.054,640.601c-0.034-0.061-0.086-0.13-0.155-0.19c-1.244-1.14-2.487-2.271-3.749-3.386
					c-0.665-12.376-1.295-24.762-1.883-37.146l0.985-0.043c0,0.242,0.769,0.415,2.747,0.432
					C239.646,613.715,240.329,627.162,241.054,640.601z"/>
				<path fill="#F40C5A" d="M239.042,642.449c0.423-0.052,1.684-0.562,2.03-1.183c-0.121,0.976-1.563,1.494-2.608,1.252
					C238.653,642.501,238.852,642.475,239.042,642.449z"/>
				<path fill="#F40C5A" d="M239.414,639.936c-0.613,0.673-1.227,1.338-1.84,2.012c-0.112-0.173-0.19-0.38-0.199-0.63
					c-0.017-0.372-0.043-0.751-0.061-1.123C238.014,640.108,238.714,640.022,239.414,639.936z"/>
				<path fill="#F40C5A" d="M241.072,641.266c-0.346,0.622-1.606,1.131-2.03,1.183c-0.19,0.026-0.389,0.052-0.579,0.069
					c-0.372-0.086-0.691-0.276-0.89-0.57c0.613-0.674,1.227-1.339,1.84-2.012c-0.7,0.086-1.399,0.172-2.099,0.259
					c-0.06-1.054-0.112-2.116-0.164-3.169c1.261,1.114,2.505,2.246,3.749,3.386c0.069,0.06,0.121,0.129,0.155,0.19
					c0.009,0.155,0.018,0.311,0.026,0.466C241.08,641.136,241.08,641.197,241.072,641.266z"/>
				<path fill="#D6D6D6" d="M238.93,598.834c0.018,0.483,0.043,0.958,0.069,1.434c-1.978-0.018-2.747-0.19-2.747-0.432
					C236.252,599.542,237.41,599.145,238.93,598.834z"/>
				<path fill="#F40C5A" d="M237.574,641.948c-0.009,0.009-0.017,0.017-0.026,0.026c-0.587-0.544-1.175-1.08-1.771-1.606
					c0.51-0.061,1.019-0.121,1.537-0.173c0.018,0.372,0.043,0.751,0.061,1.123C237.384,641.568,237.461,641.775,237.574,641.948z"/>
				<path fill="#F40C5A" d="M235.458,503.934c0.017,22.688,1.218,45.412,2.228,68.075c0.397,8.947,0.812,17.887,1.244,26.826
					c-1.52,0.311-2.677,0.708-2.677,1.001l-0.985,0.043c-0.466-9.483-0.907-18.975-1.321-28.458
					c-0.924-20.927-2.021-41.896-2.176-62.849c1.166-1.374,2.306-2.781,3.412-4.224c0.121-0.164,0.181-0.302,0.181-0.415H235.458z"
					/>
				<path fill="#F40C5A" d="M231.796,504.21c0.691-0.829,3.567-1.114,3.567-0.276c0,0.112-0.061,0.25-0.181,0.415
					c-1.106,1.442-2.246,2.85-3.412,4.224c-0.009-1.054-0.009-2.107-0.009-3.17c0.562,0.017,1.131,0.026,1.693,0.026
					C232.901,505.013,232.349,504.607,231.796,504.21z"/>
				<path fill="#F40C5A" d="M233.454,505.428c-0.562,0-1.131-0.009-1.693-0.026c-0.009-0.38-0.009-0.751-0.009-1.131
					c0.009-0.009,0.018-0.026,0.026-0.035c0.009-0.008,0.018-0.017,0.018-0.026C232.349,504.607,232.901,505.013,233.454,505.428z"
					/>
				<path fill="#F40C5A" d="M231.796,504.21c0,0.009-0.009,0.018-0.018,0.026c-0.008,0.009-0.017,0.026-0.026,0.035
					c0-0.035,0-0.061,0-0.095C231.77,504.184,231.778,504.193,231.796,504.21z"/>
				<path fill="#F40C5A" d="M235.363,503.934c0-0.838-2.876-0.553-3.567,0.276c-0.018-0.017-0.026-0.026-0.043-0.035
					c0,0.035,0,0.061,0,0.095c-0.285,0.372-0.579,0.743-0.872,1.114c-3.852-0.104-7.704-0.328-11.556-0.423
					c-4.059-0.095-8.559-0.527-12.687,0.043c0.017-0.907,0.035-1.805,0.061-2.703c4.249-0.536,8.731-0.199,12.929-0.095
					c4.707,0.121,9.422,0.432,14.129,0.458c0.82,0.009,1.702,0.285,1.702,1.252c0,0.008,0,0.008,0,0.017H235.363z"/>
				<path fill="#F40C5A" d="M231.752,504.271c0,0.38,0,0.751,0.009,1.131c-0.293,0-0.587-0.009-0.881-0.017
					C231.174,505.013,231.468,504.642,231.752,504.271z"/>
				<path fill="#D6D6D6" d="M253.172,375.506c-6.564,8.697-16.799,16.798-27.828,18.552c-2.513,0.397-1.304-1.831,0.475-2.116
					c9.077-1.442,18.111-8.835,23.492-15.969c1.33-1.762,2.557-3.705,3.515-5.735c1.192-0.026,2.384-0.095,3.559-0.164
					C255.495,372.042,254.39,373.891,253.172,375.506z"/>
				<path fill="#D6D6D6" d="M225.508,348.715c0.173,0.665-1.201,1.14-1.624,1.227c-0.432,0.095-0.855,0.216-1.252,0.362l-0.57-0.751
					c0.475-0.363,0.958-0.726,1.425-1.08c-0.604,0.129-1.201,0.293-1.788,0.5c-1.538-8.17,6.797-11.012,13.775-10.303
					c1.952,0.199-1.347,1.831-2.306,1.736C227.4,339.819,224.066,342.954,225.508,348.715z"/>
				<path fill="#D6D6D6" d="M223.487,348.473c-0.466,0.354-0.95,0.717-1.425,1.08c-0.069,0.043-0.13,0.095-0.199,0.146
					c-0.061-0.25-0.112-0.492-0.164-0.726C222.287,348.767,222.883,348.603,223.487,348.473z"/>
				<path fill="#D6D6D6" d="M222.632,350.304c-3.869,1.434-5.838,5.355-3.731,9.414c0.89,1.702,2.349,3.299,4.241,3.87
					c2.729,0.82,4.785-0.838,6.607-2.729c0.7-0.726,4.284-1.071,3.351-0.095c-4.569,4.733-12.947,7.479-17.282,0.907
					c-3.817-5.778,0.492-10.813,5.882-12.696c0.052,0.233,0.104,0.475,0.164,0.726c0.069-0.052,0.129-0.104,0.199-0.146
					L222.632,350.304z"/>
				<path fill="#D6D6D6" d="M221.613,336.123c0.146-0.078,0.129-0.043,0.061,0.017c-0.026,0-0.052-0.009-0.078-0.009
					C221.604,336.131,221.604,336.123,221.613,336.123z"/>
				<path fill="#D6D6D6" d="M221.587,336.14C221.743,336.157,221.406,336.243,221.587,336.14L221.587,336.14z"/>
				<path fill="#D6D6D6" d="M219.351,334.671c2.15-1.373,4.534-1.036,6.728,0.026c0.829,0.397,0.268,1.33-0.25,1.676
					c-0.743,0.518-1.771,0.673-2.6,0.276c-0.483-0.233-1.01-0.466-1.554-0.51c0.069-0.061,0.086-0.095-0.061-0.017
					c-0.009,0-0.009,0.008-0.018,0.008c-0.034,0-0.06,0-0.095,0c0.043,0,0.069,0,0.086,0.009c-0.182,0.104,0.155,0.018,0,0
					l0.008-0.009c0.026,0,0.052,0.009,0.078,0.009c-0.061,0.061-0.173,0.147-0.208,0.19c-0.786,1.045-0.76,2.772-0.777,3.999
					c-0.009,1.442-3.688,2.107-3.67,0.354C217.036,338.566,217.381,335.933,219.351,334.671z"/>
				<path fill="#F40C5A" d="M206.249,529.377c8.948-7.229,17.498-14.985,24.632-23.993c0.293,0.008,0.587,0.017,0.881,0.017
					c0,1.062,0,2.116,0.009,3.17c-7.505,8.904-16.151,16.634-25.236,23.906l-0.751-0.941c0.285-0.216,0.466-0.475,0.466-0.769
					C206.249,530.302,206.249,529.844,206.249,529.377z"/>
				<path fill="#F40C5A" d="M203.416,419.83c3.576,18.206,3.8,37.051,3.731,55.551c-0.034,8.973-0.25,17.947-0.449,26.92
					c-0.89,0.104-1.762,0.25-2.626,0.449c-0.466,0.104-0.812,0.293-1.036,0.536c0.207-9.164,0.432-18.327,0.449-27.491
					c0.043-18.137-0.173-36.585-3.619-54.446c0.346,0.026,0.691,0.052,1.037,0.069c-0.38-0.207-0.76-0.406-1.14-0.613l0.104-1.745
					c0.803,0.052,1.606,0.104,2.41,0.147C202.656,419.233,203.321,419.354,203.416,419.83z"/>
				<path fill="#F40C5A" d="M206.698,502.301c-0.026,0.898-0.043,1.796-0.061,2.703c-0.63,0.086-1.252,0.199-1.866,0.337
					c-0.82,0.182-1.434-0.034-1.779-0.415c0.009-0.553,0.026-1.097,0.043-1.641c0.225-0.242,0.57-0.432,1.036-0.536
					C204.936,502.552,205.808,502.405,206.698,502.301z"/>
				<path fill="#F40C5A" d="M204.771,505.341c0.613-0.138,1.235-0.25,1.866-0.337c-0.19,8.119-0.363,16.246-0.389,24.373
					c-1.062,0.864-2.125,1.71-3.196,2.557c-0.285-0.138-0.466-0.389-0.466-0.751c0.009-8.758,0.199-17.507,0.406-26.256
					C203.338,505.307,203.951,505.523,204.771,505.341z"/>
				<path fill="#F40C5A" d="M206.249,529.377c0,0.466,0,0.924,0,1.391c0,0.293-0.182,0.553-0.466,0.769
					c-0.7,0.536-2.021,0.769-2.729,0.397C204.124,531.087,205.186,530.241,206.249,529.377z"/>
				<path fill="#F40C5A" d="M203.036,503.286c-0.017,0.544-0.035,1.088-0.043,1.641
					C202.569,504.469,202.543,503.778,203.036,503.286z"/>
				<path fill="#F40C5A" d="M200.902,421.418c-0.346-0.017-0.691-0.043-1.037-0.069c-0.034-0.182-0.069-0.363-0.104-0.544
					C200.142,421.013,200.522,421.211,200.902,421.418z"/>
				<path fill="#F40C5A" d="M181.366,505.419c2.47,0,1.822,2.772-0.294,2.772c-37.708,0-75.416,0-113.124,0
					c-2.47,0-1.831-2.772,0.294-2.772C105.95,505.419,143.658,505.419,181.366,505.419z"/>
				<path fill="#F40C5A" d="M172.669,490.936c2.47,0,1.796,2.729-0.311,2.729c-35.125,0-70.251,0-105.385,0
					c-2.47,0-1.797-2.729,0.311-2.729C102.409,490.936,137.543,490.936,172.669,490.936z"/>
				<path fill="#F40C5A" d="M206.534,532.478c-17.49,14-36.62,26.307-52.494,41.974c-0.786-0.415-1.581-0.812-2.375-1.191
					c12.773-12.515,27.37-22.931,41.56-33.735c3.282-2.496,6.573-5.018,9.829-7.591c0.708,0.371,2.03,0.138,2.729-0.397
					L206.534,532.478z"/>
				<path fill="#D6D6D6" d="M160.828,683.888c-2.461-0.242,0.008-2.22,1.417-2.082c23.509,2.297,47.147,0.415,70.64,2.833
					c2.461,0.25-0.018,2.219-1.417,2.073C207.976,684.294,184.329,686.186,160.828,683.888z"/>
				<path fill="#D6D6D6" d="M153.435,191.121c-0.138,0.043-0.622,0.19-1.088-0.25c0.199,0.19,0.372,0.423,0.51,0.674
					c-0.043,0.026-0.086,0.069-0.13,0.104c-0.751,0.622-1.494,1.287-2.073,2.073c-1.019,1.391-1.796,2.988-2.021,4.725
					c-0.345,2.72,0.069,5.38,0.959,7.928c-1.105,0.544-2.323,0.7-3.55,0.587c-2.082-6.555-1.278-13.3,5.812-17.99
					c5.959-3.938,6.063,9.267,5.32,11.945c-1.019,3.688-3.567,6.313-6.693,7.643c-0.337-0.717-0.631-1.442-0.89-2.185
					c0.371-0.164,0.726-0.389,1.071-0.647c3.187-2.461,3.74-7.29,3.083-11.012c-0.173-0.95-0.354-2.229-0.89-3.17
					C153.185,191.276,153.366,191.164,153.435,191.121z"/>
				<path fill="#D6D6D6" d="M156.138,217.238c1.157,1.408-2.314,2.841-3.342,1.589c-2.28-2.781-4.37-6.002-5.804-9.354
					c1.209-0.138,2.384-0.449,3.489-0.916C151.932,211.719,154.022,214.656,156.138,217.238z"/>
				<path fill="#F40C5A" d="M154.368,440.324c1.779,0-1.624,1.468-2.375,1.468c-10.96,0-21.911,0-32.871,0
					c-1.779,0,1.624-1.468,2.366-1.468C132.448,440.324,143.408,440.324,154.368,440.324z"/>
				<path fill="#F40C5A" d="M151.665,573.261c0.794,0.38,1.589,0.777,2.375,1.191c-0.121,0.112-0.242,0.233-0.363,0.354
					c-0.553,0.553-2.176,0.76-2.919,0.458c-0.449-0.19-0.587-0.544-0.018-1.105C151.051,573.856,151.354,573.545,151.665,573.261z"
					/>
				<path fill="#D6D6D6" d="M152.347,190.87c0.466,0.441,0.95,0.294,1.088,0.25c-0.069,0.043-0.25,0.156-0.579,0.423
					C152.718,191.293,152.545,191.061,152.347,190.87z"/>
				<path fill="#D6D6D6" d="M147.476,222.904c1.771,0.743,6.633,3.17,8.266,1.192c1.865-2.271,1.502-5.691,1.14-8.403
					c-0.146-1.131,3.524-1.917,3.653-0.976c0.475,3.636,0.7,8.646-3.169,10.58c-4.197,2.099-8.749,0.881-12.852-0.838
					C143.227,223.923,146.56,222.524,147.476,222.904z"/>
				<path fill="#F40C5A" d="M150.758,575.264c0.743,0.302,2.366,0.095,2.919-0.458c0.121-0.121,0.242-0.242,0.363-0.354
					c2.815,1.494,5.562,3.153,8.239,4.889c12.498,8.119,24.053,17.714,36.024,26.575c13.344,9.88,26.472,20.037,38.848,31.109
					c0.052,1.054,0.104,2.116,0.164,3.169c-0.518,0.052-1.027,0.112-1.537,0.173c-17.515-15.848-36.792-29.287-55.43-43.745
					c-9.371-7.272-19.104-15.312-29.926-20.685L150.758,575.264z"/>
				<path fill="#FFFFFF" d="M150.766,303.191c0.613,16.479-5.286,33.959-15.606,46.793c-5.553,6.892-13.119,12.791-22.049,14.242
					c-3.852,0.631-7.618,0.38-11.245-0.518v-89.07c7.514-4.802,13.499-11.737,17.049-20.642c3.878,4.534,7.177,10.459,8.844,16.444
					c-1.589,0.285-3.006,2.392-0.769,2.591c0.484,0.043,0.95,0.095,1.417,0.156c1.814,9.439-0.864,18.525-12.221,22.032
					c-2.082,0.639-1.831,1.684,0.276,1.036c10.105-3.126,16.841-10.157,16.15-21.16c-0.017-0.329-0.043-0.665-0.086-0.994
					C144.695,277.894,150.291,290.288,150.766,303.191z"/>
				<path fill="#D6D6D6" d="M148.124,257.995c7.281,0.13,13.43,2.997,17.93,8.775c0.872,1.123-2.643,2.375-3.386,1.417
					c-4.042-5.19-9.362-8.049-15.978-8.17C144.22,259.964,146.785,257.969,148.124,257.995z"/>
				<path fill="#D6D6D6" d="M143.813,251.025c6.65-2.496,14.216-2.583,17.991,4.396c0.829,1.529-2.695,2.747-3.369,1.512
					c-2.833-5.243-7.738-6.098-13.093-4.077C143.581,253.521,141.447,251.915,143.813,251.025z"/>
				<path fill="#D6D6D6" d="M146.042,206.96c1.227,0.112,2.444-0.043,3.55-0.587c0.259,0.743,0.553,1.468,0.89,2.185
					c-1.105,0.467-2.28,0.777-3.489,0.916C146.638,208.645,146.318,207.807,146.042,206.96z"/>
				<path fill="#D6D6D6" d="M132.059,270.984c-1.235-0.268-2.504-0.458-3.8-0.57c-0.164-0.018-0.336-0.009-0.5,0.026
					c-1.667-5.985-4.966-11.91-8.844-16.444c0.276-0.674,0.536-1.365,0.777-2.064c0.173-0.509,0.345-1.019,0.501-1.537
					C125.91,255.792,130.47,263.229,132.059,270.984z"/>
				<path fill="#D6D6D6" d="M128.406,273.187c-0.173-0.916-0.389-1.831-0.647-2.747c0.164-0.035,0.336-0.043,0.5-0.026
					c1.296,0.112,2.565,0.302,3.8,0.57c0.216,1.037,0.372,2.073,0.466,3.118C131.23,273.696,129.857,273.385,128.406,273.187z"/>
				<path fill="#D6D6D6" d="M127.758,270.44c0.259,0.916,0.475,1.831,0.647,2.747c-0.466-0.061-0.933-0.112-1.417-0.156
					C124.752,272.833,126.169,270.725,127.758,270.44z"/>
				<path fill="#F40C5A" d="M185.391,458.712c-22.559,0-45.118,0-67.677,0c-2.47,0-0.285-2.436,1.322-2.436
					c22.559,0,45.118,0,67.677,0C189.174,456.276,186.997,458.712,185.391,458.712z"/>
				<path fill="#D6D6D6" d="M132.612,275.096c0.691,11.003-6.045,18.033-16.15,21.16c-2.107,0.648-2.358-0.397-0.276-1.036
					c11.357-3.507,14.035-12.593,12.221-22.032c1.451,0.198,2.824,0.509,4.12,0.915
					C132.569,274.431,132.595,274.767,132.612,275.096z"/>
				<path fill="#D6D6D6" d="M117.308,248.365c0.32-0.026,0.579,0.009,0.734,0.138c0.734,0.596,1.451,1.227,2.15,1.892
					c-0.156,0.518-0.328,1.028-0.501,1.537c-0.242,0.7-0.501,1.391-0.777,2.064c-0.794-0.941-1.615-1.814-2.453-2.625
					C116.781,250.377,117.066,249.375,117.308,248.365z"/>
				<path fill="#FFFFFF" d="M113.68,210.562c5.337,11.599,6.754,25.323,3.627,37.803c-1.174,0.086-3.075,1.045-2.703,1.356
					c0.622,0.51,1.244,1.062,1.857,1.65c-1.097,3.515-2.583,6.909-4.457,10.096c-2.669,4.534-6.124,8.317-10.14,11.305v-78.205
					C106.753,198.816,110.778,204.257,113.68,210.562z"/>
				<path fill="#D6D6D6" d="M117.308,248.365c-0.242,1.011-0.527,2.013-0.846,3.006c-0.613-0.587-1.235-1.14-1.857-1.65
					C114.233,249.41,116.133,248.451,117.308,248.365z"/>
				<path fill="#D6D6D6" d="M126.877,361.394c-6.374,4.042-13.75,6.339-21.341,5.735c-1.244-0.104-2.461-0.268-3.67-0.501v-2.919
					c3.627,0.898,7.393,1.149,11.245,0.518c8.93-1.451,16.496-7.35,22.049-14.242c10.321-12.834,16.22-30.315,15.606-46.793
					c-0.475-12.903-6.071-25.297-18.241-29.089c-0.095-1.045-0.25-2.081-0.466-3.118c8.878,1.9,15.935,7.695,19.424,16.444
					c4.18,10.502,3.645,22.68,1.054,33.502C148.857,336.338,140.635,352.662,126.877,361.394z"/>
				<path fill="#F40C5A" d="M111.003,576.966c0.164-0.328,0.155-0.7-0.104-1.08c-0.329-0.484-0.665-0.959-1.02-1.417
					c4.785-2.695,9.803-4.785,15.114-5.787c9.458-1.779,18.362,0.553,26.67,4.578c-0.311,0.285-0.613,0.596-0.924,0.898
					c-0.57,0.562-0.432,0.916,0.018,1.105l-0.337,0.674c-2.531-1.261-5.13-2.375-7.791-3.299c-6.59-2.28-13.542-2.902-20.288-0.794
					C118.37,573.079,114.604,574.867,111.003,576.966z"/>
				<path fill="#F40C5A" d="M110.899,575.886c0.259,0.38,0.268,0.751,0.104,1.08c-0.613,0.345-1.218,0.717-1.822,1.088
					c-0.639,0.095-1.278-0.052-1.615-0.544c-0.276-0.397-0.553-0.794-0.838-1.175c1.037-0.656,2.09-1.278,3.152-1.865
					C110.234,574.927,110.571,575.402,110.899,575.886z"/>
				<path fill="#F40C5A" d="M109.181,578.054c0.604-0.371,1.209-0.743,1.822-1.088C110.727,577.536,109.949,577.959,109.181,578.054
					z"/>
				<path fill="#F40C5A" d="M133.415,531.441c-7.876,7.575-18.215,9.362-27.335,3.627c0.553-0.639,1.036-1.321,1.451-2.003
					l0.363-0.674c7.557,5.251,15.719,4.646,22.507-1.883C131.472,529.472,135.03,529.887,133.415,531.441z"/>
				<path fill="#F40C5A" d="M104.387,533.912c1.045-0.285,2.099-0.562,3.144-0.846c-0.415,0.682-0.898,1.364-1.451,2.003
					C105.51,534.715,104.949,534.326,104.387,533.912z"/>
				<path fill="#D6D6D6" d="M118.914,253.996c-3.55,8.904-9.535,15.84-17.049,20.642v-1.866c4.016-2.988,7.471-6.771,10.14-11.305
					c1.874-3.187,3.359-6.581,4.457-10.096C117.299,252.182,118.12,253.055,118.914,253.996z"/>
				<path fill="#D6D6D6" d="M101.865,363.708v2.919c-7.747-1.477-14.769-5.51-20.857-10.511c-1.615-1.33,1.589-3.092,2.815-2.081
					C89.109,358.362,95.25,362.093,101.865,363.708z"/>
				<path fill="#F40C5A" d="M101.226,459.412c-0.691,0.492-1.391,0.984-2.082,1.468c0-0.363,0-0.726-0.008-1.088
					C99.835,459.662,100.526,459.541,101.226,459.412z"/>
				<path fill="#F40C5A" d="M94.291,529.205c1.192,0,2.384,0,3.575-0.009c-0.786,1.442-1.856,2.772-3.126,3.835
					C94.438,531.752,94.317,530.405,94.291,529.205z"/>
				<path fill="#D6D6D6" d="M88.28,166.368c8.153-4.94,18.845-8.499,27.033-1.624c6.098,5.113,9.449,12.748,12.688,19.821
					c3.057,6.659,6.011,15.184,11.988,19.865c1.641,1.278,3.86,2.34,6.054,2.53c0.276,0.847,0.596,1.684,0.95,2.513
					c-2.885,0.328-5.942-0.328-8.603-2.099c-6.149-4.085-9.345-11.642-12.324-18.094c-3.351-7.281-6.435-15.538-12.256-21.264
					c-6.926-6.823-15.529-4.655-23.129-0.043C89.212,168.864,86.164,167.646,88.28,166.368z"/>
				<path fill="#F40C5A" d="M97.979,528.876c0.052,1.935,0.25,4.586,1.728,6.063c1.848,1.839,3.412-0.63,4.37-2.194
					c0.544-0.881,2.22-1.529,3.144-0.838c0.224,0.165,0.449,0.329,0.673,0.484l-0.363,0.674c-1.045,0.285-2.099,0.561-3.144,0.846
					c0.562,0.415,1.123,0.803,1.693,1.157c-1.736,2.047-4.103,3.627-6.918,3.04c-2.626-0.544-3.861-2.686-4.422-5.078
					c1.27-1.062,2.341-2.393,3.126-3.835c-1.191,0.009-2.383,0.009-3.575,0.009l-0.052-0.026c0.061-0.104,0.112-0.199,0.165-0.293
					C95.008,527.78,97.927,527.089,97.979,528.876z"/>
				<path fill="#F40C5A" d="M88.927,533.031c2.393,0.095,4.206-1.935,5.312-3.852l0.052,0.026c0.026,1.201,0.146,2.548,0.449,3.826
					c-2.107,1.771-4.75,2.815-7.583,2.41c-1.183-0.164-2.021-0.596-2.6-1.192c1.045-0.855,1.926-1.9,2.574-3.075
					C87.166,532.184,87.632,532.97,88.927,533.031z"/>
				<path fill="#F40C5A" d="M84.739,526.951c0.553-1.08,3.636-1.805,3.567-0.009c-0.052,1.503-0.475,2.945-1.175,4.232
					c-0.061-1.356,0.639-3.092,1.062-3.913c-1.183,0.009-2.375,0.009-3.567,0.009c-0.052,1.365-0.406,2.686-1.071,3.817
					C83.607,529.706,84.091,528.211,84.739,526.951z"/>
				<path fill="#F40C5A" d="M84.626,527.27c1.192,0,2.384,0,3.567-0.009c-0.423,0.821-1.123,2.557-1.062,3.913
					c-0.647,1.175-1.528,2.22-2.574,3.075c-0.777-0.82-1.054-1.943-1.002-3.161C84.22,529.956,84.575,528.635,84.626,527.27z"/>
				<path fill="#D6D6D6" d="M80.377,280.865c7.929-0.769,15.356-3.506,21.488-8.093v1.866c-6.685,4.292-14.587,6.892-23.06,7.712
					C76.404,282.583,79.427,280.96,80.377,280.865z"/>
				<path fill="#F40C5A" d="M74.772,527.909c0.078,2.885,1.589,7.168,5.329,5.985c1.546-0.493,2.704-1.52,3.455-2.807
					c-0.052,1.218,0.225,2.341,1.002,3.161c-1.494,1.209-3.325,2.021-5.286,2.228c-5.363,0.587-8.041-3.247-8.179-8.239
					C71.049,526.743,74.72,526.095,74.772,527.909z"/>
				<path fill="#F40C5A" d="M70.808,462.356c0.017,0.147,0.052,0.302,0.078,0.449c-0.371-0.173-0.734-0.346-1.105-0.518
					C70.125,462.313,70.462,462.339,70.808,462.356z"/>
				<path fill="#D6D6D6" d="M101.865,194.567c-8.421-7.324-19.407-11.107-31.542-9.699c-2.392,0.276,0.639-1.373,1.581-1.485
					c16.393-1.9,31.878,4.69,41.137,18.517c9.293,13.879,12.144,32.474,7.151,48.495c-0.7-0.665-1.417-1.295-2.15-1.892
					c-0.156-0.129-0.415-0.164-0.734-0.138c3.126-12.48,1.71-26.204-3.627-37.803C110.778,204.257,106.753,198.816,101.865,194.567z
					"/>
				<path fill="#F40C5A" d="M68.951,433.942c-0.7,0.121-1.391,0.242-2.082,0.363c-2.513,0.432-1.192-1.667,0.519-1.96
					c0.043-0.009,0.086-0.018,0.129-0.026c0.009,0,0.009,0,0.017,0c0.751-0.095,1.417,0.052,1.417,0.519
					C68.951,433.208,68.951,433.57,68.951,433.942z"/>
				<path fill="#F40C5A" d="M101.226,459.412c-0.7,0.129-1.391,0.25-2.09,0.38c-0.052-4.327-0.337-8.671-0.967-12.946
					c-0.631-4.301-1.304-9.993-4.258-13.43c-2.997-3.489-9.561-2.039-13.534-1.468c-3.834,0.544-7.626,1.304-11.426,1.995
					c0-0.372,0-0.734,0-1.105c0-0.466-0.665-0.613-1.417-0.519c5.234-0.907,10.433-2.09,15.728-2.634
					c3.688-0.389,9.889-1.442,13.007,1.27c3.593,3.135,4.612,8.904,5.312,13.361c0.821,5.156,1.201,10.373,1.209,15.589
					c0.008,0.984-1.304,1.33-2.073,1.477c-0.475,0.086-0.958,0.173-1.434,0.259l-0.138-0.76
					C99.835,460.396,100.535,459.904,101.226,459.412z"/>
				<path fill="#F40C5A" d="M70.808,462.356c9.543,0.622,18.958-0.881,28.329-2.565c0.008,0.363,0.008,0.726,0.008,1.088l0.138,0.76
					c-10.226,1.848-20.512,3.498-30.937,2.669c-0.337-0.026-1.019-0.069-1.105-0.527c-1.9-9.889-1.935-19.934-1.935-29.97
					c0-0.76,1.097-1.312,2.082-1.468c-1.71,0.293-3.032,2.392-0.519,1.96c0.691-0.121,1.382-0.242,2.082-0.363
					C68.959,443.459,69.054,452.977,70.808,462.356c-0.345-0.017-0.682-0.043-1.028-0.069c0.372,0.172,0.734,0.345,1.105,0.518
					C70.859,462.659,70.825,462.503,70.808,462.356z"/>
				<path fill="#F40C5A" d="M83.478,597.219c-6.745,5.078-13.914,9.561-20.607,14.734C49,622.671,35.846,634.365,21.336,644.237
					c-1.624,0.043-3.247,0.095-4.871,0.147c12.973-8.542,24.788-18.655,36.905-28.346c10.779-8.62,22.378-16.03,33.191-24.58
					c6.296-4.983,12.964-10.632,20.167-15.123c0.285,0.38,0.562,0.777,0.838,1.175c0.337,0.492,0.976,0.639,1.615,0.544
					c-2.625,1.615-5.165,3.386-7.635,5.191C95.396,587.736,89.566,592.641,83.478,597.219z"/>
				<path fill="#F40C5A" d="M127.421,418.119c-15.875-0.216-31.757-1.468-47.64-0.691c-5.122,0.242-10.33,0.587-15.356,1.667
					c-3.343,0.708-7.376,1.581-9.924,4.059c-0.993,0.959-1.736,2.133-1.909,3.524c-0.536,4.171-0.501,8.49-0.717,12.688
					c-0.44,8.68-0.846,17.351-1.175,26.031c-0.475,12.463-0.76,24.926-0.734,37.389c-1.227-0.25-2.461-0.406-3.697-0.484
					c-0.008-5.631,0.052-11.253,0.173-16.885c0.268-12.238,0.751-24.468,1.33-36.697c0.182-3.757,0.372-7.514,0.57-11.271
					c0.172-3.386,0-7.021,0.587-10.355c0.354-2.029,1.52-3.843,3.135-5.113c6.529-5.165,16.211-5.951,24.191-6.503
					c11.547-0.794,23.146-0.484,34.702-0.095c10.183,0.337,20.245,0.432,30.418,0.199c19.58-0.449,38.995,2.237,58.488,3.48
					l-0.104,1.745c0.035,0.182,0.069,0.363,0.104,0.544c-14.285-0.855-28.501-2.591-42.794-3.291
					C147.156,417.575,137.319,418.249,127.421,418.119z"/>
				<path fill="#D6D6D6" d="M50.857,502.975c1.399,0.337,0.293,1.218-0.881,1.641c0-0.604-0.009-1.218-0.009-1.831
					C50.27,502.837,50.563,502.906,50.857,502.975z"/>
				<path fill="#F40C5A" d="M50.727,533.108c0.018,0.363-0.19,0.682-0.509,0.941c-1.097-0.838-2.185-1.675-3.265-2.522
					c-0.415-9.034-0.63-18.077-0.674-27.119c0.777,0.104,1.546,0.242,2.315,0.423c0.328,0.078,0.863-0.018,1.382-0.216
					C50.019,514.116,50.261,523.608,50.727,533.108z"/>
				<path fill="#F40C5A" d="M49.967,502.785c0,0.613,0.009,1.226,0.009,1.831c-0.519,0.199-1.054,0.294-1.382,0.216
					c-0.769-0.182-1.538-0.32-2.315-0.423c0-0.708-0.009-1.408-0.009-2.107C47.506,502.379,48.741,502.535,49.967,502.785z"/>
				<path fill="#F40C5A" d="M50.218,534.05c-0.812,0.665-2.393,0.924-2.945,0.44c-0.121-0.095-0.19-0.233-0.199-0.406
					c-0.043-0.855-0.086-1.702-0.121-2.557C48.033,532.375,49.121,533.212,50.218,534.05z"/>
				<path fill="#F40C5A" d="M62.447,546.668c-5.458-3.523-10.727-7.324-15.866-11.288l0.691-0.89
					c0.553,0.484,2.133,0.225,2.945-0.44c5.096,3.869,10.321,7.557,15.753,10.925c14.7,9.104,33.225,15.192,43.909,29.495
					c-1.062,0.587-2.116,1.209-3.152,1.865C96.018,561.817,77.112,556.125,62.447,546.668z"/>
				<path fill="#F40C5A" d="M47.074,534.084c0.009,0.173,0.078,0.311,0.199,0.406l-0.691,0.89
					c-12.065-9.276-23.475-19.45-35.333-28.985c0.008-0.415,0.017-0.82,0.034-1.235c1.365,0.086,2.729,0.147,4.094,0.173
					c10.571,8.593,20.823,17.757,31.576,26.195C46.988,532.383,47.031,533.229,47.074,534.084z"/>
				<path fill="#D6D6D6" d="M46.279,504.409c-4.301-0.587-8.593-0.043-12.946,0.363c-5.994,0.553-11.962,0.743-17.956,0.562
					c-0.864-0.7-1.728-1.399-2.591-2.082c7.859,0.415,15.659,0.19,23.509-0.57c3.342-0.328,6.667-0.613,9.975-0.38
					C46.271,503.001,46.279,503.701,46.279,504.409z"/>
				<path fill="#F40C5A" d="M15.835,644.401c0.147-0.008,0.285-0.008,0.432-0.008c-0.423,0.164-0.881,0.242-1.287,0.198
					C15.23,644.479,15.516,644.41,15.835,644.401z"/>
				<path fill="#F40C5A" d="M222.503,644.211c-36.698,3.213-73.697,2.28-110.49,2.064c-32.197-0.19-64.36-0.389-96.541,0.63
					c-2.107,0.069-1.831-1.719-0.492-2.315c0.406,0.043,0.864-0.034,1.287-0.198c0.069-0.009,0.13-0.009,0.199-0.009
					c-0.25,0.173-0.509,0.345-0.769,0.51c-2.082,1.347,0.967,2.436,2.375,1.52c1.097-0.717,2.185-1.442,3.265-2.177
					c3.723-0.121,7.445-0.216,11.167-0.302c30.651-0.691,61.294-0.146,91.946-0.129c37.164,0.026,74.345,0.803,111.327-3.438
					c0.596,0.527,1.183,1.062,1.771,1.606c0.009-0.009,0.017-0.017,0.026-0.026c0.199,0.293,0.518,0.483,0.89,0.57
					C233.152,643.175,227.84,643.745,222.503,644.211z"/>
				<path fill="#F40C5A" d="M16.465,644.384c1.624-0.052,3.248-0.104,4.871-0.147c-1.08,0.734-2.167,1.46-3.265,2.177
					c-1.408,0.916-4.457-0.173-2.375-1.52C15.956,644.729,16.215,644.557,16.465,644.384z"/>
				<path fill="#D6D6D6" d="M12.786,503.251c0.864,0.682,1.728,1.382,2.591,2.082c-1.365-0.026-2.729-0.086-4.094-0.173
					c0.018-0.665,0.035-1.339,0.052-2.004C11.819,503.191,12.303,503.226,12.786,503.251z"/>
				<path fill="#F40C5A" d="M11.344,502.69c0,0.155-0.008,0.311-0.008,0.466c-0.363-0.017-0.717-0.043-1.08-0.069
					C10.619,502.958,10.981,502.819,11.344,502.69z"/>
				<path fill="#D6D6D6" d="M11.335,503.156c-0.018,0.665-0.035,1.339-0.052,2.004c-0.57-0.026-1.148-0.061-1.718-0.104
					c-0.475-0.389-0.95-0.769-1.434-1.149c0.026-0.026,0.061-0.052,0.086-0.069c0.674-0.25,1.356-0.501,2.039-0.751
					C10.619,503.113,10.973,503.139,11.335,503.156z"/>
				<path fill="#F40C5A" d="M11.283,505.16c-0.017,0.415-0.026,0.82-0.034,1.235c-0.562-0.449-1.123-0.898-1.684-1.338
					C10.135,505.1,10.713,505.134,11.283,505.16z"/>
				<path fill="#D6D6D6" d="M10.256,503.087c-0.683,0.25-1.365,0.501-2.039,0.751c0.536-0.432,1.408-0.795,2.004-0.751
					C10.23,503.087,10.247,503.087,10.256,503.087z"/>
				<path fill="#D6D6D6" d="M8.131,503.908c0.484,0.38,0.959,0.76,1.434,1.149c-0.268-0.018-0.527-0.035-0.795-0.052
					c-0.734-0.052-1.019-0.25-1.019-0.5C7.751,504.322,7.898,504.106,8.131,503.908z"/>
				<path fill="#F40C5A" d="M13.831,643.676c-7.781-45.818-7.445-92.845-6.227-139.172h0.147c0,0.25,0.285,0.449,1.019,0.5
					c0.268,0.018,0.527,0.035,0.795,0.052c0.561,0.44,1.123,0.889,1.684,1.338c-1.166,45.395-1.391,91.419,6.227,136.305
					c0.129,0.769-0.466,1.373-1.209,1.693c-0.146,0-0.285,0-0.432,0.008c-0.319,0.009-0.604,0.078-0.855,0.19
					C14.401,644.539,13.935,644.254,13.831,643.676z"/>
				<path fill="#F40C5A" d="M8.217,503.839c-0.026,0.017-0.061,0.043-0.086,0.069c-0.008-0.009-0.026-0.017-0.034-0.026
					C8.14,503.865,8.174,503.856,8.217,503.839z"/>
				<path fill="#F40C5A" d="M7.604,504.504c0.018-0.519,0.026-1.045,0.043-1.563c0.035-1.339,2.34-1.917,3.248-1.201
					c0.63,0.501,1.261,1.002,1.891,1.512c-0.483-0.026-0.967-0.061-1.451-0.095c0-0.155,0.008-0.311,0.008-0.466
					c-0.363,0.129-0.725,0.268-1.088,0.397c-0.009,0-0.026,0-0.035,0c-0.596-0.043-1.468,0.319-2.004,0.751
					c-0.043,0.017-0.078,0.026-0.121,0.043c0.008,0.009,0.026,0.017,0.034,0.026c-0.233,0.199-0.38,0.415-0.38,0.596H7.604z"/>
			</g>
			<g>
				<polyline fill="none" stroke="#F7F7F7" stroke-miterlimit="10" points="1866.897,160.132 1866.897,161.065 1866.897,321.319 
									"/>
				<polyline fill="none" stroke="#F7F7F7" stroke-miterlimit="10" points="101.865,194.299 101.865,194.567 101.865,272.772 
					101.865,274.638 101.865,363.708 101.865,366.627 101.865,367.128 				"/>
			</g>
		</g>
	</g>
</g>
</svg>
