<?xml version="1.0" encoding="utf-8"?>
<!-- Generator: Adobe Illustrator 15.0.0, SVG Export Plug-In . SVG Version: 6.00 Build 0)  -->
<!DOCTYPE svg PUBLIC "-//W3C//DTD SVG 1.1//EN" "http://www.w3.org/Graphics/SVG/1.1/DTD/svg11.dtd">
<svg version="1.1" id="Layer_1" xmlns="http://www.w3.org/2000/svg" xmlns:xlink="http://www.w3.org/1999/xlink" x="0px" y="0px"
	 width="248.293px" height="260.708px" viewBox="0 0 248.293 260.708" enable-background="new 0 0 248.293 260.708"
	 xml:space="preserve">
<g>
	<path fill="#F4F4F4" d="M227.659,128.221c0.102-24.397,1.051,1.156,0.429-23.25c-0.504-19.707,0.318-39.57-0.904-59.238
		c-0.493-7.965-1.825-16.35-10.148-19.461c-4.44-1.661-9.458-1.844-14.137-2.084c-7.812-0.403-15.627-0.808-23.438-1.193
		c-39.593-1.96-79.486-3.431-119.091-1.01c-9.696-0.672-25.26-2.463-29.295,7.894c-4.107,0.964-7.572,2.92-9.309,6.651
		c-2.009,4.311-1.489,9.828-1.426,14.427c0.127,8.917,0.102,17.836,0.082,26.753c-0.097,44.198-0.432,38.532-0.745,82.729
		c-0.108,15.905-0.287,31.825,0.745,47.707c0.449,6.879,1.038,13.856,2.713,20.563c0.787,3.147,2.08,7.707,5.782,8.403
		c4.825,0.909,10.638,0.046,15.567,0.083c5.183,0.038,10.363,0.105,15.545,0.196c7.121,0.123,14.24,0.317,21.359,0.499
		c18.799,0.476,37.6,0.381,56.401,0.964c16.946,0.524,33.974,1.574,50.932,0.926c8.192-0.312,18.831-0.622,25.146-6.667
		c1.077-1.03,1.797-2.243,2.276-3.55c3.187-1.097,6.081-2.559,8.274-5.211c2.374-2.87,2.14-6.642,2.199-10.123
		c0.154-9.086,0.721-18.167,1.173-27.24c0.461-9.332,0.927-18.674,0.911-28.02C228.686,148.71,227.617,138.498,227.659,128.221z
		 M201.194,236.211c-13.931,2.686-28.974,1.348-43.04,0.905c-21.59-0.68-43.155-1.31-64.758-1.411
		c-13.666-0.062-27.328-0.65-40.992-0.827c-5.413-0.068-10.824-0.102-16.234-0.121c-3.6-0.01-6.453,1.025-8.277-2.367
		c-2.824-5.237-3.141-12.328-3.721-18.109c-1.572-15.613-1.421-31.4-1.314-47.074c0.15-21.466,0.304,6.932,0.439-14.534
		c0.141-22.552,0.266-45.104,0.334-67.656c0.027-9.712,0.121-19.432,0.016-29.143c-0.061-5.624-0.655-11.555,0.555-17.099
		c0.757-3.473,3.096-5.212,6.292-6.089c0.472,0.859,2.68,0.481,3.103-0.638c4.625-0.675,9.53-0.407,14.228-0.113
		c0.224,0.163,0.555,0.257,1.026,0.227c0.449-0.029,0.896-0.049,1.348-0.078c0.377,0.024,0.754,0.045,1.126,0.066
		c0.303,0.017,0.604-0.055,0.885-0.182c41.266-2.407,82.827-0.688,124.063,1.468c7.272,0.379,14.609,0.52,21.859,1.238
		c4.184,0.414,8.979,1.117,12.01,4.336c3.09,3.284,3.631,8.438,4.045,12.704c0.83,8.518,0.522,17.186,0.516,25.729
		c-0.018,22.498,1.058,44.973,0.951,67.471c-0.063,12.733-0.642-24.406-0.812-11.674c-0.146,10.644,0.806,21.182,0.997,31.798
		c0.334,18.438-1.521,36.872-2.023,55.293c-0.111,4.032,0.544,8.322-2.37,11.54C208.947,234.628,204.672,235.543,201.194,236.211z
		 M224.677,184.815c-0.383,7.979-0.827,15.954-1.124,23.936c-0.111,3.012-0.188,6.022-0.198,9.034
		c-0.014,4.663-2.724,7.367-6.536,9.027c0.102-0.774,0.148-1.562,0.15-2.352c0.022-8.731,0.586-17.469,1.022-26.186
		c0.481-9.554,0.978-19.114,1.084-28.68c0.11-9.806-0.962-19.562-1.033-29.372c-0.185-24.601,1.11,0.716,0.52-23.898
		c-0.481-20.14-0.009-40.351-0.862-60.469c-0.359-8.559-1.116-18.464-10.279-21.89c-4.951-1.851-10.6-1.935-15.807-2.161
		c-8.383-0.363-16.759-0.878-25.143-1.282c-38.466-1.845-77.212-3.195-115.684-0.848c-4.52-0.333-10.704-0.999-16.303-0.374
		c1.102-2.309,3.006-3.67,5.923-4.407c5.385-1.357,11.385-1.018,17.028-0.653c0.224,0.163,0.558,0.26,1.033,0.228
		c0.448-0.028,0.898-0.05,1.346-0.076c0.38,0.022,0.756,0.045,1.127,0.065c0.301,0.016,0.603-0.054,0.882-0.182
		c41.27-2.407,82.829-0.688,124.063,1.467c7.272,0.382,14.612,0.521,21.859,1.238c4.186,0.417,8.981,1.118,12.01,4.336
		c3.092,3.286,3.631,8.438,4.047,12.705c0.83,8.517,0.521,17.185,0.514,25.729c-0.011,17.854,0.686,35.69,0.902,53.542
		c0.255,21.206-1.091-7.47-0.738,13.731c0.133,8.05,1.016,16.052,0.992,24.104C225.449,169.028,225.058,176.927,224.677,184.815z"/>
</g>
</svg>
