<?xml version="1.0" encoding="utf-8"?>
<!-- Generator: Adobe Illustrator 15.0.0, SVG Export Plug-In . SVG Version: 6.00 Build 0)  -->
<!DOCTYPE svg PUBLIC "-//W3C//DTD SVG 1.1//EN" "http://www.w3.org/Graphics/SVG/1.1/DTD/svg11.dtd">
<svg version="1.1" id="Layer_1" xmlns="http://www.w3.org/2000/svg" xmlns:xlink="http://www.w3.org/1999/xlink" x="0px" y="0px"
	 width="1920.026px" height="474.581px" viewBox="0 0 1920.026 474.581" enable-background="new 0 0 1920.026 474.581"
	 xml:space="preserve">
<g>
	<g>
		<g>
			<path fill="#F40C5A" d="M104.055,271.615c1.086,3.378,2.112,6.755,2.916,10.213c0.271,1.17,2.976,0.241,3.465-0.258
				c8.039-8.192,20.29-5.196,30.023-2.134c10.108,3.18,19.684,7.843,29.494,11.799c11.491,4.634,23.574,4.744,35.858,5.152
				c15.806,0.526,31.639-0.154,47.37-1.725c12.455-1.244,24.755,0.635,37.165,1.477c5.938,0.403,11.936,0.446,17.87-0.069
				c5.684-0.494,11.188-1.933,16.832-2.471c17.467-1.665,36.761,5.025,53.265-3.196c2.946-1.467,5.368-3.816,7.047-6.621
				c-1.196,0.245-2.392,0.49-3.587,0.735c15.14,12.884,35.341,16.568,54.642,17.611c22.217,1.2,44.499-1.432,66.589-3.449
				c9.878-0.902,19.785-1.741,29.712-1.703c14.512,0.055,29.046,1,43.565,1.208c32.559,0.464,65.123-0.002,97.682,0.47
				c11.64,0.168,23.278,0.487,34.909,0.986c1.368,0.059,4.148-1.938,1.541-2.05c-32.394-1.391-64.818-1.212-97.234-1.239
				c-16.397-0.014-32.795-0.107-49.188-0.465c-12.384-0.271-24.797-1.26-37.184-0.837c-21.517,0.734-42.884,3.925-64.39,4.955
				c-21.665,1.038-44.9,0.652-64.831-8.921c-4.417-2.121-8.487-4.862-12.213-8.033c-0.834-0.71-3.045-0.172-3.587,0.735
				c-5.241,8.754-16.922,8.685-25.956,8.578c-9.587-0.113-19.167-1.384-28.759-0.85c-4.411,0.246-8.655,1.431-13.02,2.031
				c-7.346,1.01-14.778,0.985-22.164,0.546c-11.688-0.695-23.296-2.655-35.038-1.691c-16.531,1.357-32.897,2.399-49.498,1.939
				c-8.34-0.231-16.667-0.828-24.968-1.657c-4.519-0.451-9.559-3.295-13.695-5.029c-15.992-6.701-36.205-18.096-53.946-11.563
				c-2.81,1.035-5.293,2.843-7.373,4.962c1.155-0.086,2.311-0.172,3.465-0.258c-0.803-3.458-1.829-6.835-2.916-10.213
				C107.513,269.32,103.669,270.417,104.055,271.615L104.055,271.615z"/>
		</g>
	</g>
	<g>
		<g>
			<path fill="#F40C5A" d="M1002.583,303.244c5.417,1.212,10.851,2.24,16.413,1.642c6.137-0.66,11.79-1.515,18.043-1.155
				c1.461,0.084,4.119-2.03,1.506-2.181c-5.416-0.311-10.688-0.203-16.032,0.735c-6.037,1.06-11.604,0.201-17.561-1.131
				C1003.731,300.881,1000.392,302.754,1002.583,303.244L1002.583,303.244z"/>
		</g>
	</g>
	<g>
		<g>
			<g>
				<path fill="#F40C5A" d="M1259.243,335.025c1.269-27.766,1.629-55.561,2.388-83.343c0.349-12.762,1.62-25.706,0.812-38.453
					c-0.755-11.913-2.774-23.741-2.187-35.712c0.247-5.017,1.123-10.157,3.644-14.554c3.284-5.728,9.974-5.924,15.829-5.859
					c12.628,0.138,25.246,0.343,37.881,0.343c14.093,0,28.125,0.891,42.213,1.061c14.329,0.172,28.66-0.16,42.989-0.188
					c0.732-0.001,4.372-1.453,2.54-1.449c-14.978,0.029-29.954,0.344-44.932,0.164c-15.405-0.186-30.732-1.037-46.148-1.037
					c-7.546,0-15.102,0.106-22.646-0.036c-4.899-0.092-9.824-0.572-14.722-0.205c-7.521,0.563-14.492,2.918-17.943,10.112
					c-4.97,10.358-2.613,24.436-1.557,35.365c0.617,6.384,1.292,12.76,1.455,19.177c0.19,7.5-0.56,15.122-0.804,22.624
					c-1.008,31.006-1.26,62.033-2.676,93.025C1255.36,336.49,1259.196,336.065,1259.243,335.025L1259.243,335.025z"/>
			</g>
		</g>
		<g>
			<g>
				<path fill="#F40C5A" d="M1404.543,124.242c-0.632,17.758-0.372,35.554,0.409,53.303c0.761,17.278,0.09,34.328-0.384,51.595
					c-0.497,18.081,0.584,36.208,0.308,54.307c-0.289,18.958-0.977,37.908-1.008,56.87c-0.003,2.094,3.92,1.561,3.923-0.262
					c0.03-18.369,0.651-36.727,0.979-55.091c0.333-18.699-0.707-37.403-0.278-56.085c0.383-16.699,1.285-33.214,0.461-49.926
					c-0.901-18.294-1.139-36.665-0.487-54.972C1408.541,121.894,1404.608,122.414,1404.543,124.242L1404.543,124.242z"/>
			</g>
		</g>
		<g>
			<g>
				<path fill="#F40C5A" d="M1404.032,126.288c5.659-2.528,10.865-5.775,16.153-8.982c-1.062-0.085-2.123-0.169-3.184-0.254
					c5.939,80.219,0.923,160.521-0.89,240.789c1.242-0.333,2.484-0.666,3.726-0.999c-4.457-5.561-7.772-11.912-12.229-17.473
					c-1.003-1.251-4.702,0.204-3.556,1.635c4.458,5.56,7.773,11.912,12.229,17.473c0.79,0.985,3.694,0.417,3.726-0.999
					c1.817-80.495,6.812-161.015,0.856-241.461c-0.101-1.371-2.602-0.607-3.184-0.254c-5.004,3.035-9.939,6.102-15.294,8.494
					C1399.953,125.342,1402.139,127.133,1404.032,126.288L1404.032,126.288z"/>
			</g>
		</g>
		<g>
			<g>
				<path fill="#F40C5A" d="M1416.818,358.491c23.868,0.904,47.763,0.021,71.638,0c0.863-0.001,4.42-1.667,2.482-1.665
					c-23.875,0.021-47.77,0.904-71.638,0C1418.427,356.793,1414.858,358.417,1416.818,358.491L1416.818,358.491z"/>
			</g>
		</g>
		<g>
			<g>
				<path fill="#F40C5A" d="M1418.243,118.855c12.545,0.01,25.087,0.215,37.63,0.418c6.133,0.099,12.266,0.187,18.399,0.246
					c3.114,0.03,6.229,0.043,9.343,0.051c1.485,0.004,1.502,7.427,1.603,8.49c2.509,26.311,3.156,52.77,3.67,79.182
					c0.516,26.482,1.009,52.961-0.064,79.438c-0.507,12.492-1.542,24.93-1.751,37.438c-0.189,11.305,0.676,22.568,0.676,33.855
					c0,1.887,3.896,1.192,3.896-0.365c0-0.044,0-0.088,0-0.132c0-1.887-3.896-1.192-3.896,0.365c0,0.044,0,0.088,0,0.132
					c0,1.887,3.896,1.192,3.896-0.365c0-17.861-0.915-35.542,0-53.423c1.118-21.867,1.746-43.62,1.746-65.523
					c0.001-40.202-0.885-80.913-5.256-120.896c-0.055-0.501-0.823-0.771-1.232-0.771c-22.422-0.02-44.838-0.698-67.261-0.717
					C1417.944,116.276,1415.629,118.853,1418.243,118.855L1418.243,118.855z"/>
			</g>
		</g>
		<g>
			<g>
				<path fill="#F40C5A" d="M1490.863,195.99c10.192,0.517,20.386-1.066,30.585-0.753c1.692,0.052,3.646,0.059,5.192,0.831
					c1.177,0.587,0.322,9.633,0.327,11.177c0.023,7.317,0.072,14.635,0.094,21.952c0.11,36.792,1.792,73.522,0.884,110.328
					c0.725-0.464,1.449-0.928,2.174-1.392c-13.151,0.79-26.311,0.858-39.48,0.858c-1.575,0-4.064,2.391-1.449,2.391
					c13.497-0.001,26.984-0.079,40.461-0.888c0.64-0.039,2.153-0.546,2.174-1.392c0.959-38.844-0.738-77.632-0.905-116.466
					c-0.035-8.267-0.082-16.534-0.09-24.8c-0.004-3.89-1.666-4.346-5.377-4.811c-10.944-1.372-22.152,1.133-33.14,0.576
					C1490.713,193.519,1488.243,195.857,1490.863,195.99L1490.863,195.99z"/>
			</g>
		</g>
		<g>
			<g>
				<path fill="#F40C5A" d="M1256.169,336.758c49.415,3.743,98.803-0.883,148.24-1.271c1.264-0.01,4.172-1.944,1.574-1.924
					c-49.146,0.385-98.266,5.036-147.389,1.315C1257.561,334.8,1254.093,336.601,1256.169,336.758L1256.169,336.758z"/>
			</g>
		</g>
		<g>
			<g>
				<path fill="#F40C5A" d="M1271.83,188.008c39.999-0.019,79.975-0.664,119.972,0.207c1.628,0.036,4.052-2.396,1.433-2.453
					c-39.997-0.871-79.972-0.226-119.972-0.207C1271.646,185.556,1269.215,188.009,1271.83,188.008L1271.83,188.008z"/>
			</g>
		</g>
		<g>
			<g>
				<path fill="#F40C5A" d="M1284.46,186.594c0.05-5.775,0.686-11.59-0.383-17.311c-0.714,0.595-1.428,1.19-2.143,1.785
					c2.541-0.313,5.069-0.361,7.628-0.363c-0.409-0.252-0.818-0.504-1.228-0.756c0.933,5.465,0.746,10.925,0.723,16.443
					c-0.008,1.865,3.886,1.16,3.893-0.375c0.024-5.742,0.219-11.419-0.752-17.104c-0.085-0.499-0.8-0.756-1.228-0.756
					c-2.883,0.002-5.749,0.021-8.614,0.375c-0.846,0.104-2.351,0.671-2.143,1.785c1.027,5.502,0.401,11.095,0.354,16.65
					C1280.551,188.832,1284.447,188.13,1284.46,186.594L1284.46,186.594z"/>
			</g>
		</g>
		<g>
			<g>
				<path fill="#F40C5A" d="M1300.688,186.264c0.049-5.666,0.68-11.368-0.37-16.98c-0.924,0.425-1.849,0.851-2.773,1.276
					c1.75-0.216,3.493-0.315,5.257-0.346c2.67-0.046,2.266,2.932,2.432,4.975c0.31,3.828,0.098,7.7,0.082,11.535
					c-0.003,0.591,3.859,0.052,3.863-1.035c0.024-5.631,0.214-11.198-0.739-16.773c-0.041-0.237-0.529-0.256-0.675-0.256
					c-2.858,0.003-5.697,0.034-8.536,0.384c-0.467,0.058-2.929,0.443-2.773,1.276c1.049,5.612,0.419,11.314,0.37,16.98
					C1296.819,187.885,1300.678,187.354,1300.688,186.264L1300.688,186.264z"/>
			</g>
		</g>
		<g>
			<g>
				<path fill="#F40C5A" d="M1315.087,186.547c0.05-5.757,0.695-11.561-0.371-17.264c-0.729,0.539-1.458,1.078-2.188,1.617
					c2.54-0.313,5.075-0.344,7.631-0.346c-0.396-0.202-0.792-0.403-1.188-0.605c0.938,5.479,0.76,10.954,0.736,16.49
					c-0.007,1.655,3.862,0.838,3.868-0.468c0.024-5.726,0.23-11.387-0.741-17.057c-0.081-0.474-0.818-0.605-1.188-0.605
					c-2.882,0.002-5.744,0.039-8.607,0.392c-0.717,0.088-2.378,0.6-2.188,1.617c1.031,5.52,0.414,11.124,0.366,16.697
					C1311.205,188.668,1315.076,187.855,1315.087,186.547L1315.087,186.547z"/>
			</g>
		</g>
		<g>
			<g>
				<path fill="#F40C5A" d="M1329.494,186.592c0.05-5.775,0.688-11.589-0.382-17.309c-0.715,0.593-1.43,1.185-2.145,1.778
					c2.541-0.313,5.068-0.361,7.626-0.363c-0.409-0.25-0.817-0.5-1.226-0.749c0.936,5.466,0.749,10.926,0.725,16.445
					c-0.008,1.856,3.885,1.146,3.892-0.379c0.024-5.742,0.22-11.418-0.753-17.102c-0.085-0.498-0.8-0.75-1.226-0.749
					c-2.882,0.002-5.748,0.022-8.612,0.375c-0.84,0.104-2.353,0.667-2.145,1.778c1.029,5.503,0.402,11.097,0.354,16.652
					C1325.586,188.825,1329.48,188.118,1329.494,186.592L1329.494,186.592z"/>
			</g>
		</g>
		<g>
			<g>
				<path fill="#F40C5A" d="M1344.247,186.264c0.049-5.666,0.681-11.368-0.368-16.98c-0.76,0.425-1.52,0.85-2.279,1.275
					c1.989-0.246,3.977-0.292,5.979-0.305c1.22-0.008,1.156,4.225,1.214,4.935c0.309,3.828,0.096,7.7,0.08,11.535
					c-0.003,0.699,3.858,0.127,3.863-1.035c0.024-5.631,0.217-11.198-0.737-16.773c-0.042-0.25-0.519-0.303-0.688-0.303
					c-3.023,0.002-6.012,0.062-9.016,0.432c-0.458,0.057-2.421,0.516-2.279,1.275c1.048,5.612,0.417,11.314,0.368,16.98
					C1340.377,187.993,1344.237,187.428,1344.247,186.264L1344.247,186.264z"/>
			</g>
		</g>
		<g>
			<g>
				<path fill="#F40C5A" d="M1358.643,186.264c0.049-5.666,0.681-11.368-0.367-16.98c-0.929,0.409-1.857,0.819-2.786,1.229
					c1.751-0.216,3.492-0.307,5.257-0.337c2.674-0.046,2.277,2.971,2.442,5.014c0.31,3.828,0.098,7.7,0.082,11.535
					c-0.002,0.501,3.859-0.01,3.863-1.035c0.024-5.631,0.214-11.198-0.739-16.773c-0.038-0.225-0.539-0.217-0.664-0.217
					c-2.858,0.003-5.693,0.042-8.532,0.393c-0.431,0.053-2.93,0.462-2.786,1.229c1.047,5.612,0.416,11.314,0.367,16.98
					C1354.775,187.794,1358.634,187.292,1358.643,186.264L1358.643,186.264z"/>
			</g>
		</g>
		<g>
			<g>
				<path fill="#F40C5A" d="M1372.67,186.264c0.049-5.666,0.68-11.368-0.368-16.98c-0.755,0.44-1.511,0.881-2.267,1.322
					c2.54-0.313,5.088-0.313,7.643-0.315c-0.373-0.113-0.745-0.227-1.117-0.34c0.95,5.576,0.759,11.143,0.735,16.773
					c-0.003,0.775,3.858,0.18,3.863-1.035c0.024-5.631,0.215-11.198-0.735-16.773c-0.068-0.401-0.869-0.341-1.117-0.34
					c-2.886,0.002-5.737,0.07-8.603,0.423c-0.492,0.061-2.417,0.521-2.267,1.322c1.048,5.612,0.417,11.314,0.368,16.98
					C1368.8,188.069,1372.66,187.48,1372.67,186.264L1372.67,186.264z"/>
			</g>
		</g>
		<g>
			<g>
				<path fill="#F40C5A" d="M1272.399,230.002c40-0.019,79.975-0.664,119.972,0.207c2.279,0.05,2.899-2.955,0.294-3.012
					c-39.997-0.871-79.972-0.226-119.972-0.207C1270.419,226.991,1269.785,230.003,1272.399,230.002L1272.399,230.002z"/>
			</g>
		</g>
		<g>
			<g>
				<path fill="#F40C5A" d="M1284.474,228.358c0.05-5.795,0.676-11.622-0.396-17.362c-0.698,0.656-1.396,1.312-2.094,1.967
					c2.703-0.332,5.401-0.365,8.121-0.367c-0.59-0.311-1.18-0.622-1.77-0.932c0.93,5.449,0.732,10.89,0.709,16.392
					c-0.009,2.067,3.912,1.513,3.92-0.275c0.024-5.758,0.208-11.451-0.766-17.151c-0.134-0.784-1.15-0.933-1.77-0.932
					c-2.72,0.002-5.418,0.036-8.121,0.367c-0.981,0.121-2.318,0.765-2.094,1.967c1.023,5.483,0.388,11.066,0.34,16.603
					C1280.536,230.701,1284.458,230.148,1284.474,228.358L1284.474,228.358z"/>
			</g>
		</g>
		<g>
			<g>
				<path fill="#F40C5A" d="M1300.688,227.979c0.049-5.667,0.68-11.37-0.37-16.982c-0.927,0.414-1.855,0.828-2.783,1.242
					c1.751-0.215,3.494-0.307,5.258-0.338c2.673-0.046,2.274,2.959,2.439,5.002c0.31,3.828,0.098,7.699,0.082,11.533
					c-0.002,0.526,3.859,0.008,3.863-1.035c0.024-5.631,0.214-11.197-0.739-16.771c-0.039-0.229-0.536-0.228-0.667-0.228
					c-2.858,0.002-5.695,0.04-8.534,0.388c-0.441,0.054-2.93,0.457-2.783,1.242c1.05,5.613,0.419,11.316,0.37,16.982
					C1296.819,229.535,1300.679,229.025,1300.688,227.979L1300.688,227.979z"/>
			</g>
		</g>
		<g>
			<g>
				<path fill="#F40C5A" d="M1315.085,227.979c0.049-5.667,0.681-11.37-0.368-16.982c-0.924,0.428-1.848,0.856-2.771,1.284
					c1.754-0.215,3.486-0.315,5.255-0.346c2.669-0.046,2.264,2.925,2.429,4.968c0.31,3.828,0.097,7.699,0.081,11.533
					c-0.003,0.605,3.859,0.062,3.863-1.035c0.024-5.631,0.216-11.197-0.738-16.771c-0.041-0.239-0.527-0.262-0.676-0.262
					c-2.857,0.002-5.696,0.032-8.535,0.38c-0.474,0.058-2.929,0.441-2.771,1.284c1.049,5.613,0.417,11.316,0.368,16.982
					C1311.216,229.614,1315.076,229.079,1315.085,227.979L1315.085,227.979z"/>
			</g>
		</g>
		<g>
			<g>
				<path fill="#F40C5A" d="M1329.479,227.979c0.049-5.667,0.682-11.37-0.368-16.982c-0.75,0.459-1.501,0.917-2.252,1.376
					c2.54-0.312,5.083-0.317,7.638-0.319c-0.377-0.13-0.753-0.26-1.13-0.39c0.954,5.575,0.763,11.141,0.739,16.771
					c-0.004,0.865,3.858,0.241,3.863-1.035c0.024-5.631,0.215-11.197-0.739-16.771c-0.071-0.418-0.857-0.39-1.13-0.39
					c-2.883,0.002-5.736,0.064-8.601,0.416c-0.533,0.065-2.41,0.531-2.252,1.376c1.049,5.613,0.417,11.316,0.368,16.982
					C1325.608,229.874,1329.469,229.256,1329.479,227.979L1329.479,227.979z"/>
			</g>
		</g>
		<g>
			<g>
				<path fill="#F40C5A" d="M1344.254,228.28c0.05-5.766,0.692-11.574-0.375-17.284c-0.723,0.561-1.447,1.122-2.17,1.683
					c2.54-0.312,5.072-0.349,7.629-0.351c-0.401-0.221-0.802-0.442-1.203-0.664c0.937,5.473,0.754,10.942,0.73,16.47
					c-0.007,1.739,3.872,0.962,3.878-0.432c0.024-5.732,0.227-11.398-0.745-17.073c-0.083-0.484-0.81-0.664-1.203-0.664
					c-2.881,0.002-5.746,0.032-8.609,0.383c-0.768,0.094-2.368,0.626-2.17,1.683c1.03,5.513,0.409,11.114,0.361,16.681
					C1340.362,230.45,1344.242,229.676,1344.254,228.28L1344.254,228.28z"/>
			</g>
		</g>
		<g>
			<g>
				<path fill="#F40C5A" d="M1358.643,227.979c0.049-5.665,0.681-11.371-0.367-16.982c-0.741,0.495-1.482,0.99-2.223,1.484
					c2.542-0.312,5.079-0.328,7.635-0.33c-0.385-0.162-0.771-0.324-1.156-0.486c0.953,5.575,0.763,11.141,0.739,16.771
					c-0.004,1.038,3.857,0.359,3.863-1.035c0.024-5.631,0.214-11.197-0.739-16.771c-0.076-0.446-0.838-0.487-1.156-0.486
					c-2.882,0.002-5.741,0.053-8.604,0.404c-0.615,0.075-2.396,0.556-2.223,1.484c1.048,5.614,0.416,11.314,0.367,16.982
					C1354.77,230.047,1358.631,229.374,1358.643,227.979L1358.643,227.979z"/>
			</g>
		</g>
		<g>
			<g>
				<path fill="#F40C5A" d="M1372.685,228.31c0.05-5.777,0.685-11.592-0.383-17.314c-0.713,0.597-1.427,1.194-2.141,1.791
					c2.541-0.312,5.07-0.36,7.629-0.362c-0.41-0.253-0.819-0.507-1.229-0.761c0.931,5.464,0.744,10.923,0.72,16.44
					c-0.008,1.872,3.887,1.171,3.894-0.372c0.024-5.742,0.218-11.418-0.75-17.103c-0.085-0.5-0.799-0.761-1.229-0.761
					c-2.884,0.002-5.75,0.021-8.617,0.372c-0.85,0.104-2.35,0.674-2.141,1.791c1.027,5.502,0.401,11.096,0.353,16.651
					C1368.775,230.552,1372.672,229.854,1372.685,228.31L1372.685,228.31z"/>
			</g>
		</g>
		<g>
			<g>
				<path fill="#F40C5A" d="M1272.383,274.239c39.999-0.019,79.975-0.664,119.972,0.207c2.238,0.049,2.934-2.839,0.325-2.896
					c-39.997-0.871-79.973-0.226-119.972-0.207C1270.476,271.344,1269.765,274.24,1272.383,274.239L1272.383,274.239z"/>
			</g>
		</g>
		<g>
			<g>
				<path fill="#F40C5A" d="M1284.463,272.614c0.05-5.78,0.683-11.598-0.386-17.323c-0.71,0.608-1.421,1.217-2.132,1.825
					c2.54-0.312,5.07-0.363,7.627-0.366c-0.413-0.264-0.825-0.528-1.237-0.792c0.932,5.461,0.743,10.918,0.72,16.433
					c-0.008,1.911,3.892,1.237,3.898-0.354c0.024-5.746,0.216-11.426-0.755-17.114c-0.086-0.503-0.796-0.792-1.237-0.792
					c-2.883,0.002-5.75,0.017-8.615,0.369c-0.876,0.107-2.344,0.69-2.132,1.825c1.026,5.499,0.398,11.09,0.351,16.642
					C1280.548,274.878,1284.449,274.206,1284.463,272.614L1284.463,272.614z"/>
			</g>
		</g>
		<g>
			<g>
				<path fill="#F40C5A" d="M1300.688,272.273c0.049-5.666,0.68-11.37-0.37-16.982c-0.741,0.494-1.482,0.987-2.224,1.481
					c2.542-0.312,5.08-0.328,7.637-0.33c-0.385-0.161-0.77-0.322-1.155-0.483c0.954,5.576,0.763,11.142,0.739,16.773
					c-0.004,1.032,3.857,0.355,3.863-1.035c0.024-5.631,0.214-11.198-0.739-16.773c-0.076-0.445-0.839-0.483-1.155-0.483
					c-2.883,0.002-5.742,0.053-8.605,0.404c-0.612,0.075-2.397,0.556-2.224,1.481c1.049,5.613,0.419,11.314,0.37,16.982
					C1296.815,274.337,1300.676,273.665,1300.688,272.273L1300.688,272.273z"/>
			</g>
		</g>
		<g>
			<g>
				<path fill="#F40C5A" d="M1315.085,272.273c0.049-5.667,0.681-11.368-0.368-16.982c-0.737,0.511-1.474,1.021-2.21,1.532
					c2.542-0.312,5.076-0.333,7.633-0.335c-0.389-0.176-0.778-0.352-1.167-0.528c0.954,5.576,0.762,11.142,0.738,16.773
					c-0.005,1.112,3.857,0.41,3.863-1.035c0.024-5.631,0.216-11.198-0.738-16.773c-0.078-0.457-0.831-0.529-1.167-0.528
					c-2.881,0.002-5.743,0.048-8.605,0.399c-0.651,0.08-2.39,0.571-2.21,1.532c1.048,5.611,0.417,11.316,0.368,16.982
					C1311.212,274.417,1315.073,273.719,1315.085,272.273L1315.085,272.273z"/>
			</g>
		</g>
		<g>
			<g>
				<path fill="#F40C5A" d="M1329.479,272.273c0.049-5.667,0.682-11.37-0.368-16.982c-0.743,0.486-1.487,0.972-2.23,1.458
					c2.541-0.312,5.08-0.325,7.635-0.328c-0.383-0.154-0.767-0.308-1.149-0.462c0.954,5.576,0.763,11.142,0.739,16.773
					c-0.004,0.996,3.858,0.33,3.863-1.035c0.024-5.631,0.215-11.198-0.739-16.773c-0.075-0.44-0.843-0.463-1.149-0.462
					c-2.882,0.002-5.739,0.056-8.603,0.407c-0.594,0.073-2.4,0.549-2.23,1.458c1.049,5.613,0.417,11.316,0.368,16.982
					C1325.607,274.3,1329.468,273.641,1329.479,272.273L1329.479,272.273z"/>
			</g>
		</g>
		<g>
			<g>
				<path fill="#F40C5A" d="M1344.247,272.273c0.049-5.667,0.681-11.37-0.368-16.982c-0.929,0.409-1.858,0.817-2.787,1.226
					c1.751-0.215,3.493-0.304,5.257-0.335c2.675-0.046,2.278,2.973,2.443,5.016c0.309,3.828,0.096,7.7,0.08,11.535
					c-0.002,0.496,3.859-0.013,3.863-1.035c0.024-5.631,0.217-11.198-0.737-16.773c-0.038-0.225-0.539-0.215-0.664-0.215
					c-2.857,0.003-5.693,0.043-8.532,0.391c-0.429,0.053-2.93,0.463-2.787,1.226c1.048,5.613,0.417,11.316,0.368,16.982
					C1340.379,273.8,1344.238,273.299,1344.247,272.273L1344.247,272.273z"/>
			</g>
		</g>
		<g>
			<g>
				<path fill="#F40C5A" d="M1358.643,272.273c0.049-5.666,0.681-11.37-0.367-16.982c-0.742,0.492-1.483,0.983-2.226,1.475
					c2.541-0.312,5.079-0.327,7.635-0.329c-0.384-0.159-0.769-0.319-1.153-0.478c0.954,5.576,0.763,11.142,0.739,16.773
					c-0.004,1.023,3.857,0.349,3.863-1.035c0.024-5.631,0.214-11.198-0.739-16.773c-0.076-0.444-0.84-0.478-1.153-0.478
					c-2.882,0.002-5.74,0.054-8.604,0.405c-0.608,0.075-2.398,0.554-2.226,1.475c1.047,5.613,0.416,11.314,0.367,16.982
					C1354.77,274.328,1358.631,273.659,1358.643,272.273L1358.643,272.273z"/>
			</g>
		</g>
		<g>
			<g>
				<path fill="#F40C5A" d="M1372.669,272.545c0.05-5.754,0.697-11.554-0.367-17.254c-0.733,0.524-1.466,1.049-2.199,1.574
					c2.542-0.312,5.079-0.337,7.636-0.339c-0.393-0.189-0.785-0.377-1.177-0.566c0.935,5.485,0.76,10.96,0.736,16.502
					c-0.007,1.596,3.856,0.757,3.861-0.492c0.024-5.72,0.231-11.379-0.734-17.045c-0.079-0.465-0.824-0.566-1.177-0.566
					c-2.883,0.002-5.746,0.043-8.61,0.395c-0.684,0.083-2.384,0.584-2.199,1.574c1.031,5.524,0.417,11.133,0.369,16.711
					C1368.794,274.631,1372.658,273.796,1372.669,272.545L1372.669,272.545z"/>
			</g>
		</g>
		<g>
			<g>
				<path fill="#F40C5A" d="M1281.98,178.647c2.462,0,4.923,0,7.385,0c0.914,0,1.939-0.279,2.732-0.732
					c0.629-0.359,0.526-0.718-0.192-0.718c-2.462,0-4.923,0-7.385,0c-0.914,0-1.939,0.279-2.732,0.732
					C1281.159,178.288,1281.261,178.647,1281.98,178.647L1281.98,178.647z"/>
			</g>
		</g>
		<g>
			<g>
				<path fill="#F40C5A" d="M1328.047,220.419c1.887-0.342,3.826-0.332,5.72-0.042c0.948,0.145,2.014-0.047,2.732-0.732
					c0.563-0.536,0.455-1.359-0.399-1.49c-2.502-0.383-5.069-0.496-7.571-0.042c-0.757,0.137-1.99,0.464-2.179,1.373
					C1326.17,220.351,1327.48,220.521,1328.047,220.419L1328.047,220.419z"/>
			</g>
		</g>
		<g>
			<g>
				<path fill="#F40C5A" d="M1342.487,221.327c2.584,0,5.169,0,7.754,0c2.14,0,3.021-2.646,0.392-2.646c-2.584,0-5.169,0-7.754,0
					C1340.739,218.681,1339.857,221.327,1342.487,221.327L1342.487,221.327z"/>
			</g>
		</g>
		<g>
			<g>
				<path fill="#F40C5A" d="M1361.038,214.662c0.368-0.369,0.736-0.738,1.104-1.107c0.6-0.601-0.533-0.591-0.892-0.555
					c-0.796,0.079-1.995,0.305-2.591,0.902c-0.368,0.369-0.737,0.738-1.104,1.107c-0.599,0.602,0.532,0.591,0.892,0.555
					C1359.243,215.485,1360.443,215.26,1361.038,214.662L1361.038,214.662z"/>
			</g>
		</g>
		<g>
			<g>
				<path fill="#F40C5A" d="M1361.065,217.715c0.279-0.424,0.546-0.855,0.838-1.271c0.103-0.147,0.216-0.286,0.335-0.421
					c0.114-0.112,0.116-0.121,0.005-0.027c0.074-0.065,0.397-0.234,0.046-0.046c0.391-0.209,1.284-0.914,0.422-1.195
					c-0.839-0.275-1.968,0.043-2.714,0.443c-1.168,0.626-1.76,1.593-2.468,2.665c-0.467,0.709,0.399,0.848,0.964,0.825
					c0.514-0.021,1.029-0.141,1.508-0.325C1360.326,218.239,1360.859,218.026,1361.065,217.715L1361.065,217.715z"/>
			</g>
		</g>
		<g>
			<g>
				<path fill="#F40C5A" d="M1315.072,258.494c0.576,0.609,0.991,1.312,1.753,1.729c0.866,0.475,1.977,0.326,2.766-0.251
					c0.586-0.428,1.084-1.46,0.226-1.931c-0.134-0.073-0.255-0.151-0.378-0.242c0.179,0.133-0.178-0.193-0.222-0.244
					c-0.207-0.242-0.382-0.507-0.601-0.738c-0.669-0.708-1.79-0.644-2.615-0.254
					C1315.412,256.842,1314.399,257.783,1315.072,258.494L1315.072,258.494z"/>
			</g>
		</g>
		<g>
			<g>
				<path fill="#F40C5A" d="M1286.113,259.745c0.343-0.35,0.659-0.724,0.993-1.081c0.175-0.186,0.36-0.36,0.554-0.527
					c-0.068,0.054-0.037,0.032,0.095-0.063c0.317-0.219-0.084,0.039-0.135,0.058c0.2-0.074,1.738-0.723,1.14-1.143
					c-0.626-0.44-1.873-0.036-2.495,0.193c-0.878,0.323-1.651,0.781-2.341,1.411c-0.475,0.433-0.869,0.947-1.318,1.406
					c-0.619,0.631,0.541,0.711,0.926,0.683C1284.364,260.621,1285.502,260.368,1286.113,259.745L1286.113,259.745z"/>
			</g>
		</g>
		<g>
			<g>
				<path fill="#F40C5A" d="M1286.997,262.83c0.384-0.705,1.118-1.123,1.683-1.672c0.604-0.586-0.54-0.55-0.88-0.513
					c-0.794,0.086-1.992,0.306-2.594,0.892c-0.676,0.657-1.544,1.172-2.007,2.02c-0.304,0.557,1.378,0.293,1.518,0.267
					c0.504-0.097,1.005-0.243,1.475-0.45C1286.439,263.263,1286.854,263.092,1286.997,262.83L1286.997,262.83z"/>
			</g>
		</g>
		<g>
			<g>
				<path fill="#F40C5A" d="M1372.867,171.795c0.413,1.551,1.344,2.658,2.657,3.546c0.811,0.549,2.027,0.32,2.77-0.235
					c0.647-0.484,1.012-1.447,0.209-1.989c-0.96-0.649-1.464-1.199-1.773-2.356C1376.255,168.977,1372.392,170.011,1372.867,171.795
					L1372.867,171.795z"/>
			</g>
		</g>
		<g>
			<g>
				<path fill="#F40C5A" d="M1313.492,155.979c-0.218-7.782,1.379-15.457,1.162-23.24c-0.904,0.502-1.808,1.005-2.711,1.507
					c1.161,0,2.321,0,3.482,0c-0.384-0.158-0.768-0.315-1.152-0.472c-0.076,7.866-1.116,15.835,0.389,23.627
					c0.225,1.165,4.107,0.226,3.863-1.035c-1.505-7.796-0.464-15.753-0.389-23.627c0.004-0.435-0.91-0.472-1.152-0.472
					c-1.161,0-2.321,0-3.482,0c-0.807,0-2.742,0.413-2.711,1.507c0.216,7.782-1.381,15.457-1.162,23.24
					C1309.658,158.058,1313.531,157.343,1313.492,155.979L1313.492,155.979z"/>
			</g>
		</g>
		<g>
			<g>
				<path fill="#F40C5A" d="M1353.739,156.291c-0.219-7.783,1.379-15.458,1.161-23.24c-0.887,0.473-1.774,0.946-2.661,1.42
					c1.161,0,2.322,0,3.483,0c-0.407-0.336-0.814-0.672-1.222-1.009c-0.076,7.972-1.125,16.042,0.398,23.939
					c0.292,1.512,4.167,0.542,3.863-1.035c-1.483-7.69-0.453-15.549-0.379-23.315c0.006-0.676-0.58-1.009-1.222-1.009
					c-1.161,0-2.322,0-3.483,0c-0.709,0-2.691,0.352-2.661,1.42c0.218,7.783-1.38,15.458-1.161,23.24
					C1349.907,158.496,1353.78,157.72,1353.739,156.291L1353.739,156.291z"/>
			</g>
		</g>
		<g>
			<g>
				<path fill="#F40C5A" d="M1392.487,155.979c-0.218-7.782,1.381-15.457,1.161-23.24c-0.908,0.486-1.816,0.973-2.724,1.46
					c1.163,0,2.325,0,3.487,0c-0.38-0.142-0.76-0.283-1.139-0.425c-0.076,7.87-1.118,15.833,0.387,23.627
					c0.21,1.089,4.094,0.158,3.863-1.035c-1.504-7.794-0.462-15.757-0.387-23.627c0.004-0.421-0.918-0.425-1.139-0.425
					c-1.163,0-2.325,0-3.487,0c-0.757,0-2.754,0.413-2.724,1.46c0.22,7.782-1.379,15.457-1.161,23.24
					C1388.651,157.974,1392.524,157.283,1392.487,155.979L1392.487,155.979z"/>
			</g>
		</g>
		<g>
			<g>
				<path fill="#F40C5A" d="M1275.101,155.979c-0.22-7.782,1.378-15.457,1.161-23.24c-0.909,0.484-1.817,0.969-2.726,1.453
					c1.162,0,2.324,0,3.485,0c-0.379-0.139-0.758-0.278-1.137-0.418c-0.076,7.87-1.119,15.833,0.385,23.627
					c0.208,1.078,4.092,0.148,3.863-1.035c-1.503-7.794-0.46-15.757-0.385-23.627c0.004-0.418-0.919-0.418-1.137-0.418
					c-1.162,0-2.324,0-3.485,0c-0.75,0-2.755,0.413-2.726,1.453c0.216,7.782-1.381,15.457-1.161,23.24
					C1271.264,157.963,1275.138,157.275,1275.101,155.979L1275.101,155.979z"/>
			</g>
		</g>
		<g>
			<g>
				<path fill="#F40C5A" d="M1257.7,124.661c-0.445,5.847,11.505,5.395,15.056,5.505c11.119,0.343,22.325,0.474,33.442,0.302
					c32.939-0.512,65.895-0.246,98.838-0.246c1.349,0,4.147-2.048,1.541-2.048c-29.695,0-59.416-0.36-89.108,0.071
					c-11.863,0.172-23.711-0.226-35.56-0.111c-3.25,0.031-20.769,1.403-20.357-4.001
					C1261.663,122.671,1257.792,123.464,1257.7,124.661L1257.7,124.661z"/>
			</g>
		</g>
		<g>
			<g>
				<path fill="#F40C5A" d="M1258.045,124.801c10.222,2.692,20.69,0.963,31.093,1.205c12.571,0.292,25.152-0.005,37.719-0.32
					c13.643-0.342,27.273-0.898,40.922-0.948c12.663-0.046,25.249,0.94,37.891,1.222c0.857,0.019,4.43-1.603,2.487-1.646
					c-11.979-0.267-23.914-1.188-35.911-1.223c-12.623-0.038-25.243,0.374-37.857,0.791c-12.938,0.428-25.894,0.681-38.838,0.544
					c-11.283-0.12-23.337,1.729-34.346-1.171C1260.28,123.01,1256.86,124.489,1258.045,124.801L1258.045,124.801z"/>
			</g>
		</g>
		<g>
			<g>
				<path fill="#F40C5A" d="M1256.572,125.32c-0.393,12.26,5.938,22.963,8.506,34.663c0.356,1.626,4.228,0.625,3.863-1.035
					c-2.509-11.436-8.858-22.016-8.475-33.994C1260.527,123.079,1256.622,123.754,1256.572,125.32L1256.572,125.32z"/>
			</g>
		</g>
		<g>
			<g>
				<path fill="#F40C5A" d="M1265.218,150.393c-15.856-0.061-31.676-1.509-47.538-1.232c-15.782,0.276-31.544,1.198-47.333,1.232
					c-0.661,0.001-2.573,0.357-2.709,1.24c-3.021,19.651-2.105,39.577-2.167,59.383c-0.068,21.815-1.242,43.62-1.265,65.443
					c-0.01,9.822,0.12,19.657,0.329,29.478c0.101,4.719,0.474,9.408,1.274,14.061c0.355,2.069,0.474,5.391,2.24,6.862
					c1.202,1.001,3.491,0.761,4.923,0.784c4.734,0.075,9.472-0.104,14.204,0.067c4.925,0.178,9.847,0.42,14.771,0.627
					c2.098,0.088,14.137,1.787,15.189,0.056c-0.13,0.135-0.182,0.294-0.155,0.476c0.037,0.066,0.073,0.133,0.11,0.2
					c0.639,1.16,4.334-0.182,3.863-1.035c-0.015-0.028-0.03-0.057-0.046-0.085c0.13-0.135,0.182-0.293,0.155-0.476
					c-0.036-0.064-0.071-0.129-0.106-0.193c-0.229-0.416-0.713-0.436-1.143-0.437c-9.147-0.035-18.283-0.508-27.421-0.897
					c-4.398-0.188-8.782-0.21-13.183-0.21c-2.742,0-7.56,1.21-8.565-2.083c-2.344-7.671-2.252-16.221-2.326-24.154
					c-0.093-9.952-0.279-19.897-0.232-29.851c0.094-19.896,1.118-39.776,1.248-59.667c0.129-19.663-0.856-39.404,2.144-58.919
					c-0.903,0.414-1.806,0.827-2.709,1.24c15.784-0.035,31.557-0.802,47.333-1.232c15.851-0.433,31.689,1.172,47.538,1.232
					C1264.9,152.307,1267.815,150.403,1265.218,150.393L1265.218,150.393z"/>
			</g>
		</g>
		<g>
			<g>
				<path fill="#F40C5A" d="M1217.093,329.055c1.227,2.605,2.631,4.865,4.596,6.993c1.072,1.16,3.4,0.578,3.726-0.999
					c1.636-7.91,5.545-23.37-1.958-29.44c-1.109-0.897-3.173-0.062-3.442,1.277c-1.56,7.777-1.702,15.732-2.214,23.625
					c-0.135,2.078,3.804,1.57,3.923-0.261c0.513-7.893,0.655-15.848,2.214-23.625c-1.147,0.426-2.294,0.852-3.442,1.277
					c3.608,2.919,3.15,9.196,2.973,13.318c-0.204,4.733-1.019,9.457-1.976,14.089c1.242-0.333,2.483-0.666,3.726-0.999
					c-1.792-1.94-3.125-3.881-4.261-6.292C1220.129,326.263,1216.301,327.375,1217.093,329.055L1217.093,329.055z"/>
			</g>
		</g>
		<g>
			<g>
				<path fill="#F40C5A" d="M1222.202,335.973c11.464,0.96,22.834-0.604,34.275-1.12c1.025-0.046,4.229-1.682,1.67-1.566
					c-11.164,0.503-22.254,2.036-33.442,1.099C1223.875,334.317,1220.264,335.811,1222.202,335.973L1222.202,335.973z"/>
			</g>
		</g>
		<g>
			<g>
				<path fill="#F40C5A" d="M1222.566,308.256c11.791-1.096,23.398-0.219,35.229-0.369c2.266-0.029,2.916-3.033,0.297-3
					c-11.856,0.15-23.396-0.731-35.229,0.369C1220.639,305.463,1219.941,308.5,1222.566,308.256L1222.566,308.256z"/>
			</g>
		</g>
		<g>
			<g>
				<path fill="#F40C5A" d="M1223.358,171.122c-1.81,7.373-2.173,14.896-1.836,22.456c0.014,0.32,0.518,0.571,0.771,0.612
					c4.757,0.775,9.653,0.892,14.462,0.706c2.957-0.115,8.861,0.589,10.483-2.719c1.491-3.042,0.76-7.572,0.524-10.812
					c-0.273-3.744-0.611-7.729-1.702-11.34c-0.153-0.508-0.75-0.64-1.207-0.677c-6.207-0.504-14.122-1.682-19.978,1.026
					c-2.429,1.124-0.221,2.644,1.586,1.809c4.744-2.194,11.874-0.858,16.942-0.446c-0.402-0.226-0.805-0.451-1.207-0.677
					c0.912,3.021,1.2,6.279,1.528,9.403c0.365,3.481,1.315,8.601-0.303,11.901c-0.027,0.056-7.255,0.191-8.373,0.201
					c-2.791,0.024-5.583-0.115-8.362-0.365c-3.729-0.337-0.179-18.521,0.553-21.501
					C1227.626,169.115,1223.71,169.686,1223.358,171.122L1223.358,171.122z"/>
			</g>
		</g>
		<g>
			<g>
				<path fill="#F40C5A" d="M1220.431,214.614c7.947,0.05,15.883,0.679,23.831,0.369c1.148-0.044,4.197-1.863,1.618-1.763
					c-7.946,0.31-15.886-0.319-23.831-0.369C1220.882,212.844,1217.847,214.598,1220.431,214.614L1220.431,214.614z"/>
			</g>
		</g>
		<g>
			<g>
				<path fill="#F40C5A" d="M1220.461,218.417c7.946,0.05,15.884,0.681,23.831,0.369c1.29-0.051,4.151-2.088,1.558-1.986
					c-7.947,0.312-15.885-0.319-23.831-0.369C1220.707,216.422,1217.858,218.4,1220.461,218.417L1220.461,218.417z"/>
			</g>
		</g>
		<g>
			<g>
				<path fill="#F40C5A" d="M1221.061,222.499c7.947,0.05,15.883,0.679,23.831,0.369c2.171-0.085,2.996-2.871,0.359-2.768
					c-7.945,0.31-15.886-0.319-23.831-0.369C1219.232,219.718,1218.439,222.482,1221.061,222.499L1221.061,222.499z"/>
			</g>
		</g>
		<g>
			<g>
				<path fill="#F40C5A" d="M1220.521,226.025c8.112,0.051,16.21,0.675,24.323,0.357c2.033-0.08,3.109-2.517,0.454-2.412
					c-7.781,0.305-15.559-0.332-23.339-0.381C1220.35,223.578,1217.905,226.008,1220.521,226.025L1220.521,226.025z"/>
			</g>
		</g>
		<g>
			<g>
				<path fill="#F40C5A" d="M1220.444,233.12c7.946,0.05,15.884,0.681,23.831,0.369c1.21-0.047,4.178-1.963,1.592-1.861
					c-7.947,0.312-15.885-0.319-23.831-0.369C1220.806,231.251,1217.851,233.104,1220.444,233.12L1220.444,233.12z"/>
			</g>
		</g>
		<g>
			<g>
				<path fill="#F40C5A" d="M1220.469,236.901c7.946,0.051,15.884,0.681,23.831,0.369c1.325-0.052,4.139-2.143,1.543-2.041
					c-7.947,0.312-15.885-0.319-23.831-0.369C1220.664,234.852,1217.862,236.885,1220.469,236.901L1220.469,236.901z"/>
			</g>
		</g>
		<g>
			<g>
				<path fill="#F40C5A" d="M1220.467,240.589c7.946,0.05,15.884,0.683,23.831,0.369c1.319-0.052,4.142-2.135,1.546-2.033
					c-7.947,0.314-15.885-0.318-23.831-0.369C1220.67,238.547,1217.862,240.572,1220.467,240.589L1220.467,240.589z"/>
			</g>
		</g>
		<g>
			<g>
				<path fill="#F40C5A" d="M1220.431,251.157c7.947,0.05,15.883,0.681,23.831,0.369c1.146-0.045,4.197-1.861,1.618-1.76
					c-7.945,0.312-15.885-0.318-23.831-0.369C1220.885,249.39,1217.847,251.141,1220.431,251.157L1220.431,251.157z"/>
			</g>
		</g>
		<g>
			<g>
				<path fill="#F40C5A" d="M1219.973,254.703c7.946,0.051,15.884,0.681,23.831,0.371c0.735-0.028,4.356-1.54,2.534-1.469
					c-7.947,0.31-15.885-0.321-23.831-0.371C1221.763,253.229,1218.126,254.691,1219.973,254.703L1219.973,254.703z"/>
			</g>
		</g>
		<g>
			<g>
				<path fill="#F40C5A" d="M1220.555,259.001c8.111,0.052,16.214,0.69,24.326,0.372c2.141-0.084,3.021-2.791,0.381-2.688
					c-7.781,0.305-15.555-0.317-23.336-0.367C1220.157,256.308,1217.942,258.985,1220.555,259.001L1220.555,259.001z"/>
			</g>
		</g>
		<g>
			<g>
				<path fill="#F40C5A" d="M1221.083,262.822c7.946,0.05,15.884,0.681,23.831,0.371c2.234-0.087,2.94-3.042,0.313-2.94
					c-7.946,0.31-15.885-0.32-23.831-0.371C1219.146,259.867,1218.469,262.805,1221.083,262.822L1221.083,262.822z"/>
			</g>
		</g>
		<g>
			<g>
				<path fill="#F40C5A" d="M1220.488,266.135c7.946,0.05,15.884,0.681,23.831,0.369c1.417-0.056,4.105-2.287,1.505-2.185
					c-7.947,0.312-15.885-0.318-23.831-0.369C1220.55,263.942,1217.875,266.119,1220.488,266.135L1220.488,266.135z"/>
			</g>
		</g>
		<g>
			<g>
				<path fill="#F40C5A" d="M1220.477,269.786c7.946,0.05,15.884,0.681,23.831,0.369c1.365-0.054,4.125-2.206,1.526-2.104
					c-7.947,0.312-15.885-0.318-23.831-0.369C1220.615,267.674,1217.868,269.77,1220.477,269.786L1220.477,269.786z"/>
			</g>
		</g>
		<g>
			<g>
				<path fill="#F40C5A" d="M1218.561,213.575c-0.013,12.963-0.258,25.925-0.109,38.887c0.087,7.581-0.396,15.226-0.021,22.792
					c0.308,6.2,2.737,8.04,8.712,8.388c6.396,0.373,12.787-0.901,19.123-1.545c0.622-0.063,2.175-0.532,2.174-1.392
					c-0.011-22.451-0.518-44.897-0.53-67.348c-0.001-1.759-3.88-0.988-3.88,0.424c0.013,22.45,0.519,44.897,0.53,67.348
					c0.725-0.464,1.45-0.928,2.174-1.392c-5.705,0.58-11.349,1.545-17.102,1.543c-2.424-0.001-5.611,0.095-6.622-2.516
					c-1.167-3.018-0.831-6.859-0.784-10.003c0.277-18.526,0.194-37.075,0.213-55.61
					C1222.442,211.393,1218.562,212.162,1218.561,213.575L1218.561,213.575z"/>
			</g>
		</g>
		<g>
			<g>
				<path fill="#F40C5A" d="M1182.945,151.509c-0.048-8.616-0.666-17.223-0.369-25.84c-0.549,0.435-1.098,0.87-1.647,1.304
					c2.211-0.614,1.809,6.181,1.827,6.864c0.024,0.918,0.95,1.04,1.71,0.986c5.528-0.389,3.309,13.836,3.467,17.042
					c0.07,1.432,3.944,0.594,3.863-1.035c-0.291-5.91,2.668-19.067-6.869-18.396c0.57,0.329,1.14,0.658,1.71,0.986
					c-0.074-2.834-0.361-5.621-0.747-8.431c-0.069-0.504-0.818-0.668-1.21-0.69c-1.885-0.105-2.508-0.028-4.34,0.48
					c-0.533,0.148-1.623,0.602-1.647,1.304c-0.297,8.618,0.321,17.222,0.369,25.84
					C1179.073,153.704,1182.953,152.939,1182.945,151.509L1182.945,151.509z"/>
			</g>
		</g>
		<g>
			<g>
				<path fill="#F40C5A" d="M1229.818,149.354c0-2.584,0-5.168,0-7.752c-0.392,0.429-0.783,0.858-1.175,1.287
					c0.642-0.271,1.48-0.406,2.177-0.435c-0.392-0.185-0.783-0.37-1.174-0.556c0.624,2.929,0.113,5.931,0.737,8.859
					c0.278,1.305,4.155,0.33,3.863-1.035c-0.624-2.929-0.113-5.931-0.737-8.859c-0.096-0.453-0.812-0.571-1.174-0.556
					c-1.748,0.071-3.585,0.36-5.206,1.042c-0.571,0.24-1.175,0.612-1.175,1.287c0,2.584,0,5.168,0,7.752
					C1225.955,151.553,1229.818,150.83,1229.818,149.354L1229.818,149.354z"/>
			</g>
		</g>
		<g>
			<g>
				<path fill="#F40C5A" d="M1058.415,319.071c0.69-14.93,1.214-29.865,1.822-44.798c0.334-8.206,0.98-16.375,0.343-24.577
					c-0.728-9.375-2.399-18.82-0.888-28.202c0.79-4.905,3.133-8.678,8.284-9.539c3.623-0.605,7.461-0.16,11.11-0.035
					c9.696,0.332,19.446,0.047,29.148,0.047c9.214,0,18.433,0.749,27.66,0.798c9.925,0.053,19.849-0.139,29.774-0.159
					c1.664-0.003,4.027-2.533,1.413-2.527c-10.52,0.021-21.039,0.206-31.559,0.15c-10.478-0.056-20.917-0.789-31.391-0.789
					c-10.127,0-20.238-0.091-30.36-0.259c-5.201-0.086-11.619,0.554-14.949,5.148c-4.699,6.483-3.85,15.761-3.312,23.316
					c0.744,10.473,1.546,20.481,1.089,31.003c-0.736,16.933-1.292,33.872-2.074,50.802
					C1054.439,321.289,1058.344,320.604,1058.415,319.071L1058.415,319.071z"/>
			</g>
		</g>
		<g>
			<g>
				<path fill="#F40C5A" d="M1055.073,320.253c37.312,2.632,74.665-0.828,111.996,0.957c1.422,0.068,4.131-2.003,1.52-2.128
					c-37.331-1.784-74.684,1.675-111.996-0.957C1055.164,318.025,1052.465,320.069,1055.073,320.253L1055.073,320.253z"/>
			</g>
		</g>
		<g>
			<g>
				<path fill="#F40C5A" d="M1066.863,233.838c29.179-0.019,58.34-0.476,87.518,0.15c1.6,0.035,4.063-2.355,1.444-2.411
					c-29.177-0.627-58.339-0.169-87.518-0.15C1066.719,231.428,1064.248,233.84,1066.863,233.838L1066.863,233.838z"/>
			</g>
		</g>
		<g>
			<g>
				<path fill="#F40C5A" d="M1076.816,232.5c0.037-4.264,0.49-8.548-0.298-12.772c-0.696,0.662-1.392,1.324-2.088,1.986
					c1.971-0.244,3.938-0.268,5.923-0.27c-0.592-0.317-1.184-0.634-1.775-0.951c0.674,3.939,0.528,7.874,0.512,11.851
					c-0.009,2.088,3.915,1.551,3.922-0.265c0.018-4.237,0.148-8.427-0.57-12.622c-0.135-0.788-1.146-0.952-1.775-0.951
					c-1.984,0.002-3.951,0.026-5.923,0.27c-0.995,0.123-2.314,0.775-2.088,1.986c0.738,3.962,0.273,8.001,0.239,12.001
					C1072.876,234.853,1076.801,234.317,1076.816,232.5L1076.816,232.5z"/>
			</g>
		</g>
		<g>
			<g>
				<path fill="#F40C5A" d="M1088.635,232.391c0.037-4.222,0.514-8.48-0.269-12.662c-0.731,0.529-1.463,1.058-2.195,1.587
					c1.811-0.224,3.616-0.242,5.438-0.244c-0.394-0.192-0.787-0.385-1.18-0.578c0.677,3.977,0.554,7.943,0.537,11.961
					c-0.007,1.615,3.858,0.782,3.863-0.484c0.018-4.198,0.172-8.354-0.537-12.512c-0.08-0.468-0.823-0.579-1.18-0.578
					c-2.146,0.002-4.281,0.032-6.414,0.295c-0.694,0.086-2.382,0.589-2.195,1.587c0.749,4.005,0.304,8.068,0.269,12.111
					C1084.757,234.488,1088.624,233.659,1088.635,232.391L1088.635,232.391z"/>
			</g>
		</g>
		<g>
			<g>
				<path fill="#F40C5A" d="M1099.158,232.468c0.037-4.251,0.5-8.528-0.288-12.74c-0.707,0.623-1.413,1.246-2.12,1.869
					c1.972-0.243,3.939-0.268,5.924-0.27c-0.581-0.278-1.162-0.556-1.743-0.833c0.675,3.952,0.535,7.894,0.518,11.883
					c-0.008,1.96,3.898,1.321,3.905-0.329c0.018-4.225,0.155-8.407-0.56-12.589c-0.13-0.761-1.167-0.834-1.743-0.833
					c-1.984,0.001-3.952,0.026-5.924,0.27c-0.909,0.112-2.336,0.711-2.12,1.869c0.742,3.975,0.281,8.021,0.246,12.034
					C1095.235,234.757,1099.143,234.12,1099.158,232.468L1099.158,232.468z"/>
			</g>
		</g>
		<g>
			<g>
				<path fill="#F40C5A" d="M1109.641,232.395c0.037-4.223,0.513-8.483-0.269-12.666c-0.73,0.534-1.461,1.068-2.191,1.602
					c1.81-0.224,3.614-0.244,5.435-0.245c-0.395-0.197-0.789-0.394-1.184-0.591c0.681,3.976,0.555,7.94,0.538,11.957
					c-0.007,1.634,3.86,0.81,3.865-0.477c0.018-4.199,0.172-8.357-0.54-12.516c-0.081-0.471-0.82-0.592-1.184-0.591
					c-2.146,0.002-4.279,0.031-6.411,0.294c-0.705,0.087-2.38,0.594-2.191,1.602c0.748,4.003,0.302,8.065,0.267,12.107
					C1105.761,234.503,1109.629,233.683,1109.641,232.395L1109.641,232.395z"/>
			</g>
		</g>
		<g>
			<g>
				<path fill="#F40C5A" d="M1120.438,232.485c0.037-4.258,0.495-8.539-0.294-12.756c-0.701,0.643-1.402,1.286-2.104,1.929
					c1.972-0.243,3.939-0.268,5.924-0.27c-0.586-0.298-1.173-0.596-1.759-0.894c0.672,3.945,0.529,7.883,0.512,11.867
					c-0.008,2.027,3.907,1.439,3.914-0.296c0.018-4.231,0.151-8.417-0.562-12.606c-0.132-0.775-1.157-0.895-1.759-0.894
					c-1.984,0.001-3.952,0.026-5.924,0.27c-0.953,0.117-2.326,0.743-2.104,1.929c0.742,3.969,0.278,8.01,0.243,12.017
					C1116.506,234.807,1120.422,234.221,1120.438,232.485L1120.438,232.485z"/>
			</g>
		</g>
		<g>
			<g>
				<path fill="#F40C5A" d="M1130.914,232.115c0.036-4.133,0.497-8.293-0.269-12.387c-0.747,0.473-1.494,0.945-2.241,1.418
					c1.81-0.223,3.622-0.224,5.442-0.226c-0.38-0.142-0.76-0.284-1.14-0.427c0.693,4.067,0.554,8.128,0.537,12.236
					c-0.004,0.933,3.858,0.287,3.863-1.035c0.018-4.108,0.156-8.169-0.537-12.236c-0.073-0.43-0.85-0.427-1.14-0.427
					c-2.148,0.001-4.274,0.05-6.408,0.313c-0.564,0.069-2.405,0.539-2.241,1.418c0.765,4.094,0.304,8.253,0.269,12.387
					C1127.042,234.078,1130.903,233.439,1130.914,232.115L1130.914,232.115z"/>
			</g>
		</g>
		<g>
			<g>
				<path fill="#F40C5A" d="M1141.155,232.422c0.037-4.233,0.509-8.5-0.277-12.693c-0.722,0.567-1.443,1.134-2.165,1.701
					c1.81-0.224,3.612-0.254,5.434-0.255c-0.403-0.227-0.805-0.453-1.208-0.68c0.676,3.965,0.546,7.925,0.529,11.93
					c-0.008,1.762,3.874,0.997,3.88-0.422c0.018-4.21,0.166-8.375-0.545-12.543c-0.083-0.487-0.808-0.68-1.208-0.68
					c-2.146,0.002-4.283,0.021-6.416,0.284c-0.781,0.097-2.365,0.633-2.165,1.701c0.748,3.993,0.295,8.048,0.26,12.08
					C1137.259,234.604,1141.143,233.842,1141.155,232.422L1141.155,232.422z"/>
			</g>
		</g>
		<g>
			<g>
				<path fill="#F40C5A" d="M1067.437,264.564c29.179-0.019,58.34-0.48,87.518,0.15c2.275,0.049,2.902-2.944,0.297-3
					c-29.177-0.631-58.338-0.169-87.518-0.15C1065.463,261.566,1064.822,264.566,1067.437,264.564L1067.437,264.564z"/>
			</g>
		</g>
		<g>
			<g>
				<path fill="#F40C5A" d="M1076.787,262.547c0.036-4.134,0.495-8.294-0.269-12.389c-0.923,0.43-1.847,0.859-2.77,1.289
					c1.833-0.227,3.661-0.255,5.507-0.257c-0.226-0.088-0.452-0.177-0.677-0.266c0.696,4.067,0.558,8.128,0.541,12.236
					c-0.003,0.614,3.859,0.068,3.863-1.035c0.018-4.108,0.156-8.169-0.541-12.236c-0.041-0.24-0.526-0.266-0.677-0.266
					c-2.121,0.002-4.231,0.021-6.339,0.282c-0.477,0.059-2.929,0.439-2.77,1.289c0.763,4.095,0.304,8.255,0.269,12.389
					C1072.918,264.191,1076.778,263.653,1076.787,262.547L1076.787,262.547z"/>
			</g>
		</g>
		<g>
			<g>
				<path fill="#F40C5A" d="M1088.635,262.547c0.036-4.133,0.498-8.295-0.269-12.389c-0.741,0.493-1.483,0.987-2.224,1.48
					c1.811-0.223,3.62-0.23,5.441-0.232c-0.385-0.161-0.77-0.322-1.154-0.482c0.693,4.067,0.554,8.128,0.537,12.236
					c-0.004,1.031,3.857,0.354,3.863-1.035c0.018-4.108,0.156-8.169-0.537-12.236c-0.076-0.445-0.839-0.482-1.154-0.482
					c-2.147,0.002-4.277,0.044-6.411,0.307c-0.611,0.075-2.397,0.555-2.224,1.48c0.766,4.095,0.304,8.254,0.269,12.389
					C1084.762,264.608,1088.623,263.938,1088.635,262.547L1088.635,262.547z"/>
			</g>
		</g>
		<g>
			<g>
				<path fill="#F40C5A" d="M1099.137,262.822c0.037-4.222,0.515-8.481-0.267-12.664c-0.731,0.529-1.463,1.059-2.195,1.588
					c1.81-0.223,3.615-0.242,5.437-0.243c-0.394-0.193-0.787-0.386-1.181-0.579c0.679,3.977,0.556,7.943,0.539,11.961
					c-0.007,1.616,3.858,0.783,3.863-0.484c0.018-4.198,0.171-8.354-0.539-12.512c-0.08-0.468-0.822-0.58-1.181-0.579
					c-2.146,0.002-4.279,0.033-6.411,0.296c-0.695,0.085-2.382,0.589-2.195,1.588c0.748,4.005,0.302,8.069,0.267,12.113
					C1095.259,264.92,1099.126,264.092,1099.137,262.822L1099.137,262.822z"/>
			</g>
		</g>
		<g>
			<g>
				<path fill="#F40C5A" d="M1109.639,262.817c0.037-4.221,0.515-8.479-0.267-12.659c-0.733,0.523-1.467,1.047-2.2,1.57
					c1.81-0.224,3.615-0.24,5.436-0.242c-0.392-0.188-0.784-0.375-1.176-0.563c0.696,4.065,0.556,8.13,0.539,12.236
					c-0.005,1.172,3.857,0.451,3.863-1.035c0.018-4.109,0.158-8.167-0.539-12.236c-0.079-0.465-0.825-0.563-1.176-0.563
					c-2.146,0.002-4.278,0.034-6.41,0.297c-0.681,0.084-2.385,0.583-2.2,1.57c0.749,4.007,0.304,8.072,0.269,12.118
					C1105.764,264.901,1109.627,264.063,1109.639,262.817L1109.639,262.817z"/>
			</g>
		</g>
		<g>
			<g>
				<path fill="#F40C5A" d="M1120.412,262.547c0.036-4.133,0.498-8.294-0.269-12.389c-0.74,0.497-1.481,0.994-2.221,1.491
					c1.81-0.224,3.618-0.232,5.439-0.233c-0.386-0.164-0.771-0.328-1.157-0.492c0.693,4.067,0.554,8.128,0.537,12.236
					c-0.005,1.048,3.857,0.366,3.863-1.035c0.018-4.108,0.156-8.169-0.537-12.236c-0.076-0.448-0.837-0.492-1.157-0.492
					c-2.146,0.002-4.276,0.042-6.409,0.306c-0.619,0.077-2.396,0.558-2.221,1.491c0.766,4.095,0.304,8.254,0.269,12.389
					C1116.54,264.625,1120.4,263.949,1120.412,262.547L1120.412,262.547z"/>
			</g>
		</g>
		<g>
			<g>
				<path fill="#F40C5A" d="M1130.923,262.855c0.037-4.234,0.506-8.503-0.277-12.697c-0.721,0.569-1.442,1.139-2.163,1.708
					c1.81-0.223,3.612-0.254,5.434-0.256c-0.403-0.229-0.807-0.458-1.209-0.687c0.675,3.965,0.545,7.923,0.528,11.928
					c-0.008,1.771,3.875,1.012,3.881-0.418c0.018-4.21,0.165-8.376-0.546-12.545c-0.083-0.488-0.808-0.688-1.209-0.687
					c-2.146,0.002-4.283,0.02-6.416,0.283c-0.788,0.097-2.364,0.636-2.163,1.708c0.746,3.993,0.294,8.048,0.26,12.08
					C1127.026,265.043,1130.911,264.287,1130.923,262.855L1130.923,262.855z"/>
			</g>
		</g>
		<g>
			<g>
				<path fill="#F40C5A" d="M1141.152,262.842c0.037-4.229,0.511-8.495-0.274-12.684c-0.725,0.553-1.451,1.107-2.176,1.66
					c1.811-0.223,3.613-0.25,5.435-0.251c-0.399-0.214-0.799-0.429-1.198-0.644c0.677,3.969,0.549,7.933,0.532,11.941
					c-0.007,1.71,3.868,0.92,3.874-0.444c0.018-4.206,0.168-8.367-0.542-12.532c-0.082-0.481-0.813-0.644-1.198-0.644
					c-2.146,0.002-4.282,0.025-6.415,0.288c-0.75,0.092-2.372,0.616-2.176,1.66c0.749,3.998,0.298,8.057,0.263,12.093
					C1137.263,264.996,1141.14,264.208,1141.152,262.842L1141.152,262.842z"/>
			</g>
		</g>
		<g>
			<g>
				<path fill="#F40C5A" d="M1067.398,296.736c29.014-0.019,58.01-0.48,87.022,0.147c1.793,0.039,3.98-2.65,1.365-2.707
					c-29.342-0.634-58.669-0.173-88.013-0.154C1065.606,294.023,1064.771,296.738,1067.398,296.736L1067.398,296.736z"/>
			</g>
		</g>
		<g>
			<g>
				<path fill="#F40C5A" d="M1076.815,295.241c0.037-4.262,0.491-8.545-0.296-12.768c-0.698,0.655-1.396,1.31-2.094,1.965
					c1.972-0.242,3.939-0.266,5.923-0.268c-0.59-0.31-1.18-0.62-1.769-0.93c0.675,3.941,0.53,7.877,0.513,11.857
					c-0.009,2.065,3.912,1.509,3.919-0.276c0.018-4.235,0.149-8.423-0.569-12.616c-0.134-0.783-1.15-0.931-1.769-0.93
					c-1.984,0.002-3.952,0.026-5.923,0.268c-0.98,0.12-2.318,0.764-2.094,1.965c0.739,3.965,0.275,8.006,0.241,12.009
					C1072.878,297.582,1076.8,297.027,1076.815,295.241L1076.815,295.241z"/>
			</g>
		</g>
		<g>
			<g>
				<path fill="#F40C5A" d="M1088.635,295.137c0.037-4.223,0.514-8.482-0.269-12.665c-0.731,0.53-1.463,1.059-2.195,1.589
					c1.811-0.222,3.616-0.24,5.438-0.242c-0.394-0.193-0.787-0.386-1.181-0.58c0.677,3.977,0.554,7.943,0.537,11.96
					c-0.007,1.617,3.858,0.785,3.863-0.483c0.018-4.198,0.172-8.354-0.537-12.512c-0.08-0.468-0.822-0.58-1.181-0.58
					c-2.146,0.001-4.281,0.032-6.414,0.293c-0.695,0.085-2.382,0.59-2.195,1.589c0.749,4.005,0.304,8.069,0.269,12.113
					C1084.757,297.236,1088.624,296.408,1088.635,295.137L1088.635,295.137z"/>
			</g>
		</g>
		<g>
			<g>
				<path fill="#F40C5A" d="M1099.139,295.146c0.037-4.225,0.513-8.488-0.269-12.673c-0.729,0.54-1.458,1.081-2.187,1.621
					c1.81-0.222,3.614-0.243,5.436-0.245c-0.396-0.203-0.792-0.405-1.188-0.608c0.679,3.973,0.554,7.938,0.537,11.952
					c-0.007,1.66,3.863,0.846,3.868-0.466c0.018-4.202,0.169-8.36-0.542-12.521c-0.081-0.474-0.818-0.609-1.188-0.608
					c-2.146,0.002-4.28,0.029-6.412,0.29c-0.72,0.088-2.377,0.602-2.187,1.621c0.748,4.002,0.299,8.063,0.264,12.104
					C1095.256,297.27,1099.128,296.459,1099.139,295.146L1099.139,295.146z"/>
			</g>
		</g>
		<g>
			<g>
				<path fill="#F40C5A" d="M1109.64,294.861c0.036-4.133,0.498-8.294-0.268-12.389c-0.742,0.492-1.483,0.984-2.225,1.477
					c1.81-0.222,3.618-0.228,5.438-0.229c-0.385-0.16-0.77-0.32-1.154-0.479c0.696,4.067,0.556,8.128,0.539,12.236
					c-0.004,1.025,3.857,0.351,3.863-1.035c0.018-4.108,0.158-8.169-0.539-12.236c-0.076-0.444-0.839-0.479-1.154-0.479
					c-2.146,0.002-4.275,0.044-6.407,0.306c-0.609,0.075-2.397,0.554-2.225,1.477c0.765,4.095,0.303,8.254,0.268,12.389
					C1105.767,296.918,1109.628,296.249,1109.64,294.861L1109.64,294.861z"/>
			</g>
		</g>
		<g>
			<g>
				<path fill="#F40C5A" d="M1120.44,295.24c0.037-4.262,0.494-8.545-0.296-12.768c-0.698,0.654-1.396,1.309-2.095,1.963
					c1.972-0.241,3.939-0.266,5.924-0.268c-0.59-0.309-1.179-0.618-1.769-0.928c0.671,3.942,0.526,7.877,0.509,11.857
					c-0.009,2.063,3.912,1.505,3.919-0.277c0.018-4.235,0.15-8.423-0.565-12.615c-0.133-0.783-1.151-0.929-1.769-0.928
					c-1.984,0.001-3.952,0.025-5.924,0.268c-0.978,0.12-2.319,0.763-2.095,1.963c0.741,3.965,0.275,8.006,0.241,12.01
					C1116.503,297.58,1120.424,297.024,1120.44,295.24L1120.44,295.24z"/>
			</g>
		</g>
		<g>
			<g>
				<path fill="#F40C5A" d="M1130.941,295.236c0.037-4.261,0.493-8.543-0.295-12.764c-0.699,0.649-1.399,1.299-2.099,1.948
					c1.972-0.241,3.94-0.266,5.925-0.268c-0.588-0.304-1.177-0.608-1.765-0.913c0.672,3.943,0.527,7.88,0.51,11.861
					c-0.008,2.048,3.91,1.477,3.917-0.285c0.018-4.233,0.15-8.421-0.564-12.611c-0.133-0.78-1.153-0.914-1.765-0.913
					c-1.984,0.001-3.953,0.026-5.925,0.268c-0.967,0.118-2.322,0.754-2.099,1.948c0.741,3.967,0.276,8.008,0.242,12.014
					C1127.006,297.568,1130.925,296.999,1130.941,295.236L1130.941,295.236z"/>
			</g>
		</g>
		<g>
			<g>
				<path fill="#F40C5A" d="M1141.156,295.17c0.037-4.235,0.508-8.503-0.278-12.698c-0.721,0.57-1.442,1.139-2.163,1.709
					c1.81-0.222,3.612-0.252,5.434-0.254c-0.403-0.229-0.807-0.458-1.209-0.688c0.676,3.965,0.545,7.923,0.528,11.927
					c-0.007,1.772,3.875,1.013,3.882-0.417c0.018-4.21,0.165-8.376-0.546-12.545c-0.083-0.488-0.807-0.688-1.209-0.688
					c-2.146,0.002-4.283,0.02-6.416,0.281c-0.787,0.097-2.364,0.637-2.163,1.709c0.748,3.993,0.294,8.048,0.259,12.08
					C1137.259,297.358,1141.143,296.603,1141.156,295.17L1141.156,295.17z"/>
			</g>
		</g>
		<g>
			<g>
				<path fill="#F40C5A" d="M1075.243,227.666c1.796,0,3.593,0,5.39,0c0.878,0,2.019-0.671,2.113-1.619
					c0.103-1.029-1.003-1.369-1.813-1.369c-1.796,0-3.593,0-5.39,0c-0.878,0-2.019,0.671-2.113,1.619
					C1073.327,227.326,1074.433,227.666,1075.243,227.666L1075.243,227.666z"/>
			</g>
		</g>
		<g>
			<g>
				<path fill="#F40C5A" d="M1108.006,257.482c1.293-0.235,2.622-0.242,3.922-0.042c0.946,0.146,2.014-0.05,2.732-0.732
					c0.564-0.536,0.454-1.354-0.398-1.485c-1.906-0.293-3.864-0.389-5.771-0.042c-0.756,0.138-1.989,0.462-2.18,1.37
					C1106.129,257.417,1107.442,257.585,1108.006,257.482L1108.006,257.482z"/>
			</g>
		</g>
		<g>
			<g>
				<path fill="#F40C5A" d="M1117.959,257.823c1.885,0,3.771,0,5.655,0c0.844,0,2.004-0.318,2.566-0.995
					c0.586-0.706-0.501-0.909-0.986-0.909c-1.885,0-3.771,0-5.655,0c-0.844,0-2.004,0.318-2.566,0.995
					C1116.386,257.62,1117.474,257.823,1117.959,257.823L1117.959,257.823z"/>
			</g>
		</g>
		<g>
			<g>
				<path fill="#F40C5A" d="M1132.65,253.077c0.269-0.269,0.537-0.538,0.806-0.807c0.671-0.673-0.57-0.969-1.001-0.964
					c-0.936,0.012-1.898,0.344-2.562,1.01c-0.269,0.269-0.537,0.538-0.806,0.807c-0.671,0.673,0.57,0.969,1.001,0.964
					C1131.023,254.075,1131.986,253.742,1132.65,253.077L1132.65,253.077z"/>
			</g>
		</g>
		<g>
			<g>
				<path fill="#F40C5A" d="M1132.772,254.907c0.184-0.28,0.362-0.563,0.55-0.841c0.047-0.069,0.112-0.165,0.168-0.228
					c0.055-0.059,0.113-0.114,0.174-0.166c-0.114,0.081-0.105,0.082,0.025,0.003c0.146-0.081,0.52-0.323,0.457-0.557
					c-0.064-0.24-0.505-0.25-0.674-0.254c-0.943-0.025-1.914,0.283-2.732,0.732c-0.827,0.454-1.274,1.241-1.776,2.003
					c-0.378,0.575,1.419,0.366,1.539,0.344C1131.216,255.815,1132.338,255.566,1132.772,254.907L1132.772,254.907z"/>
			</g>
		</g>
		<g>
			<g>
				<path fill="#F40C5A" d="M1098.094,285.052c0.444,0.478,0.736,0.891,1.324,1.221c0.331,0.186,0.908,0.117,1.255,0.066
					c0.508-0.075,1.016-0.232,1.466-0.481c0.544-0.3,1.143-0.883,0.394-1.304c-0.341-0.191-0.565-0.65-0.83-0.935
					C1100.891,282.746,1097.236,284.129,1098.094,285.052L1098.094,285.052z"/>
			</g>
		</g>
		<g>
			<g>
				<path fill="#F40C5A" d="M1077.966,285.865c0.222-0.228,0.43-0.468,0.645-0.703c0.128-0.141,0.264-0.273,0.404-0.402
					c-0.079,0.076-0.056,0.064,0.071-0.036c-0.094,0.064-0.195,0.118-0.302,0.16c0.259-0.098,1.725-0.755,1.115-1.235
					c-0.617-0.486-1.88-0.098-2.509,0.141c-0.722,0.273-1.32,0.65-1.903,1.148c-0.386,0.33-0.695,0.743-1.049,1.105
					c-0.635,0.651,0.548,0.807,0.954,0.787C1076.257,286.785,1077.34,286.507,1077.966,285.865L1077.966,285.865z"/>
			</g>
		</g>
		<g>
			<g>
				<path fill="#F40C5A" d="M1078.549,288.452c0.044-0.088,0.096-0.171,0.155-0.25c-0.153,0.222,0.157-0.122,0.17-0.134
					c0.257-0.227,0.526-0.435,0.774-0.672c0.597-0.573,0.424-1.272-0.392-1.463c-0.898-0.21-2.063,0.09-2.732,0.732
					c-0.553,0.531-1.208,0.951-1.592,1.636c-0.447,0.798,0.378,1.201,1.072,1.23
					C1076.837,289.567,1078.104,289.246,1078.549,288.452L1078.549,288.452z"/>
			</g>
		</g>
		<g>
			<g>
				<path fill="#F40C5A" d="M1140.244,221.842c0.275,1.015,0.882,1.762,1.742,2.344c0.702,0.475,1.804,0.2,2.525-0.083
					c0.248-0.098,1.775-0.871,1.088-1.335c-0.763-0.516-1.248-1.062-1.492-1.96c-0.194-0.716-1.701-0.393-2.144-0.274
					C1141.524,220.65,1140.05,221.126,1140.244,221.842L1140.244,221.842z"/>
			</g>
		</g>
		<g>
			<g>
				<path fill="#F40C5A" d="M1097.977,210.021c-0.16-5.677,1.007-11.274,0.848-16.951c-1.062,0.43-2.125,0.86-3.188,1.291
					c2.269,0,1.856,1.242,1.79,3.109c-0.056,1.586-0.134,3.171-0.188,4.757c-0.104,3.059-0.033,6.102,0.547,9.112
					c0.151,0.786,4.041-0.117,3.863-1.035c-1.095-5.686-0.335-11.494-0.28-17.234c0.002-0.233-0.572-0.256-0.675-0.256
					c-0.848,0-1.696,0-2.544,0c-0.64,0-3.216,0.308-3.188,1.291c0.159,5.677-1.008,11.274-0.848,16.951
					C1094.131,211.684,1098.007,211.086,1097.977,210.021L1097.977,210.021z"/>
			</g>
		</g>
		<g>
			<g>
				<path fill="#F40C5A" d="M1127.345,210.358c-0.159-5.677,1.007-11.274,0.848-16.951c-0.882,0.492-1.764,0.984-2.646,1.477
					c0.848,0,1.697,0,2.545,0c-0.417-0.372-0.833-0.744-1.25-1.115c-0.056,5.853-0.821,11.774,0.298,17.571
					c0.315,1.634,4.189,0.653,3.863-1.035c-1.075-5.572-0.319-11.271-0.265-16.897c0.006-0.686-0.576-1.115-1.25-1.115
					c-0.848,0-1.697,0-2.545,0c-0.766,0-2.678,0.345-2.646,1.477c0.159,5.677-1.007,11.274-0.848,16.951
					C1123.501,212.621,1127.388,211.915,1127.345,210.358L1127.345,210.358z"/>
			</g>
		</g>
		<g>
			<g>
				<path fill="#F40C5A" d="M1155.604,210.021c-0.161-5.674,1.006-11.272,0.847-16.951c-0.886,0.57-1.771,1.14-2.657,1.71
					c0.848,0,1.696,0,2.544,0c-0.405-0.327-0.81-0.653-1.214-0.98c-0.056,5.84-0.827,11.755,0.29,17.54
					c0.286,1.479,4.162,0.511,3.863-1.035c-1.078-5.585-0.328-11.29-0.274-16.929c0.007-0.673-0.582-0.98-1.214-0.98
					c-0.848,0-1.696,0-2.544,0c-1.019,0-2.693,0.433-2.657,1.71c0.159,5.674-1.008,11.272-0.847,16.951
					C1151.78,212.447,1155.65,211.636,1155.604,210.021L1155.604,210.021z"/>
			</g>
		</g>
		<g>
			<g>
				<path fill="#F40C5A" d="M1070.002,210.419c-0.161-5.677,1.006-11.275,0.847-16.951c-0.703,0.544-1.406,1.089-2.109,1.633
					c0.849,0,1.697,0,2.546,0c-0.606-0.465-1.213-0.929-1.819-1.394c-0.057,5.878-0.812,11.81,0.312,17.632
					c0.371,1.923,4.24,0.917,3.863-1.035c-1.07-5.547-0.3-11.235-0.247-16.836c0.01-1.033-0.928-1.394-1.819-1.394
					c-0.849,0-1.697,0-2.546,0c-0.794,0-2.136,0.683-2.109,1.633c0.159,5.677-1.008,11.275-0.847,16.951
					C1066.134,212.795,1070.056,212.29,1070.002,210.419L1070.002,210.419z"/>
			</g>
		</g>
		<g>
			<g>
				<path fill="#F40C5A" d="M1056.208,187.291c-0.174,4.745,8.189,4.527,11.234,4.635c8.803,0.311,17.674,0.355,26.479,0.203
					c24.186-0.418,48.391-0.155,72.58-0.155c2.159,0,3.006-2.696,0.379-2.696c-20.379,0-40.758,0-61.137,0
					c-2.187,0-45.782,1.807-45.631-2.317C1060.184,185.012,1056.269,185.636,1056.208,187.291L1056.208,187.291z"/>
			</g>
		</g>
		<g>
			<g>
				<path fill="#F40C5A" d="M1057.056,188.199c7.248,1.835,14.562,1.02,21.951,0.936c9.848-0.112,19.687,0.029,29.539-0.219
					c9.775-0.246,19.541-0.632,29.32-0.672c9.53-0.039,19.012,0.695,28.531,0.891c2.253,0.046,2.921-2.887,0.312-2.94
					c-17.387-0.358-34.59-0.959-51.999-0.398c-9.168,0.295-18.34,0.514-27.513,0.506c-8.991-0.007-19.174,1.428-27.934-0.79
					C1057.533,185.074,1054.694,187.601,1057.056,188.199L1057.056,188.199z"/>
			</g>
		</g>
		<g>
			<g>
				<path fill="#F40C5A" d="M1055.424,187.917c-0.202,8.7,4.311,16.079,6.19,24.362c0.292,1.29,4.167,0.301,3.863-1.035
					c-1.828-8.056-6.393-15.373-6.196-23.833C1059.317,185.86,1055.452,186.693,1055.424,187.917L1055.424,187.917z"/>
			</g>
		</g>
		<g>
			<g>
				<path fill="#F40C5A" d="M964.879,311.644c0.487-10.455,1.021-20.907,1.535-31.36c0.326-6.636,0.844-13.252,0.367-19.889
					c-0.551-7.674-1.845-15.301-1.069-23.009c0.406-4.033,1.725-8.227,6-9.478c3.154-0.923,6.888-0.354,10.125-0.236
					c8.271,0.301,16.593,0.052,24.87,0.052c16.526,0,33.076,0.583,49.624,0.545c1.655-0.004,4.03-2.521,1.416-2.515
					c-18.358,0.043-36.698-0.545-55.039-0.545c-8.255,0-16.497-0.061-24.749-0.221c-4.967-0.097-10.048,0.635-13.359,4.675
					c-3.728,4.549-3.18,12.003-2.931,17.468c0.412,9.052,1.607,17.764,1.176,26.859c-0.602,12.681-1.266,25.358-1.856,38.039
					C960.904,313.856,964.809,313.167,964.879,311.644L964.879,311.644z"/>
			</g>
		</g>
		<g>
			<g>
				<path fill="#F40C5A" d="M963.453,312.643c30.624,2.151,61.261-0.637,91.898,0.818c0.925,0.044,4.462-1.643,2.463-1.738
					c-30.637-1.455-61.278,1.333-91.898-0.818C964.985,310.839,961.443,312.501,963.453,312.643L963.453,312.643z"/>
			</g>
		</g>
		<g>
			<g>
				<path fill="#F40C5A" d="M973.986,246.297c24.985-0.018,49.955-0.411,74.938,0.131c1.402,0.03,4.135-2.057,1.523-2.113
					c-24.983-0.542-49.953-0.149-74.938-0.131C974.118,244.185,971.377,246.299,973.986,246.297L973.986,246.297z"/>
			</g>
		</g>
		<g>
			<g>
				<path fill="#F40C5A" d="M982.906,244.723c0.031-3.54,0.424-7.102-0.23-10.607c-0.919,0.444-1.839,0.889-2.758,1.333
					c1.551-0.189,3.093-0.223,4.654-0.224c-0.229-0.101-0.458-0.202-0.687-0.302c0.595,3.482,0.475,6.959,0.46,10.477
					c-0.003,0.697,3.858,0.125,3.863-1.035c0.015-3.517,0.135-6.994-0.46-10.477c-0.042-0.25-0.519-0.302-0.687-0.302
					c-1.837,0.001-3.665,0.01-5.49,0.233c-0.513,0.063-2.928,0.425-2.758,1.333c0.655,3.506,0.261,7.068,0.23,10.607
					C979.037,246.45,982.896,245.886,982.906,244.723L982.906,244.723z"/>
			</g>
		</g>
		<g>
			<g>
				<path fill="#F40C5A" d="M993.05,244.993c0.032-3.626,0.441-7.286-0.23-10.878c-0.733,0.523-1.467,1.046-2.2,1.57
					c1.527-0.187,3.049-0.199,4.585-0.201c-0.392-0.188-0.784-0.375-1.176-0.562c0.596,3.48,0.476,6.961,0.461,10.477
					c-0.005,1.171,3.857,0.45,3.863-1.035c0.015-3.518,0.136-6.993-0.461-10.477c-0.08-0.465-0.825-0.563-1.176-0.562
					c-1.86,0.001-3.711,0.031-5.56,0.256c-0.681,0.083-2.385,0.583-2.2,1.57c0.638,3.418,0.263,6.885,0.233,10.337
					C989.176,247.076,993.04,246.239,993.05,244.993L993.05,244.993z"/>
			</g>
		</g>
		<g>
			<g>
				<path fill="#F40C5A" d="M1002.045,245c0.031-3.628,0.439-7.291-0.233-10.885c-0.731,0.532-1.462,1.063-2.193,1.595
					c1.528-0.187,3.051-0.202,4.588-0.203c-0.394-0.195-0.788-0.39-1.182-0.585c0.578,3.392,0.474,6.773,0.459,10.199
					c-0.007,1.625,3.859,0.797,3.864-0.48c0.015-3.607,0.148-7.181-0.46-10.754c-0.08-0.47-0.821-0.586-1.182-0.585
					c-1.861,0.001-3.714,0.028-5.564,0.254c-0.7,0.085-2.381,0.592-2.193,1.595c0.639,3.416,0.262,6.881,0.232,10.33
					C998.167,247.104,1002.035,246.279,1002.045,245L1002.045,245z"/>
			</g>
		</g>
		<g>
			<g>
				<path fill="#F40C5A" d="M1011.064,245.098c0.032-3.667,0.422-7.351-0.258-10.982c-0.699,0.649-1.399,1.299-2.099,1.948
					c1.688-0.207,3.373-0.227,5.072-0.229c-0.588-0.305-1.177-0.609-1.765-0.913c0.575,3.358,0.449,6.71,0.434,10.102
					c-0.009,2.048,3.909,1.476,3.917-0.285c0.016-3.643,0.13-7.246-0.488-10.852c-0.133-0.779-1.153-0.914-1.765-0.913
					c-1.699,0.001-3.384,0.022-5.072,0.229c-0.967,0.118-2.322,0.755-2.099,1.948c0.632,3.378,0.234,6.821,0.205,10.232
					C1007.129,247.43,1011.048,246.86,1011.064,245.098L1011.064,245.098z"/>
			</g>
		</g>
		<g>
			<g>
				<path fill="#F40C5A" d="M1020.28,245.074c0.032-3.657,0.425-7.336-0.25-10.959c-0.707,0.621-1.414,1.242-2.122,1.864
					c1.688-0.207,3.373-0.227,5.071-0.229c-0.581-0.276-1.161-0.552-1.742-0.829c0.576,3.367,0.456,6.725,0.441,10.125
					c-0.008,1.955,3.897,1.312,3.904-0.332c0.015-3.633,0.133-7.231-0.482-10.828c-0.13-0.76-1.168-0.829-1.742-0.829
					c-1.699,0.001-3.383,0.022-5.071,0.229c-0.906,0.111-2.337,0.71-2.122,1.864c0.631,3.388,0.238,6.835,0.209,10.256
					C1016.359,247.36,1020.266,246.719,1020.28,245.074L1020.28,245.074z"/>
			</g>
		</g>
		<g>
			<g>
				<path fill="#F40C5A" d="M1029.274,245.082c0.032-3.66,0.425-7.342-0.252-10.967c-0.705,0.631-1.409,1.261-2.114,1.892
					c1.688-0.207,3.372-0.227,5.07-0.229c-0.583-0.286-1.167-0.571-1.75-0.857c0.576,3.364,0.456,6.72,0.441,10.117
					c-0.008,1.986,3.901,1.366,3.908-0.316c0.016-3.636,0.131-7.236-0.486-10.836c-0.131-0.767-1.163-0.857-1.75-0.857
					c-1.698,0.001-3.382,0.022-5.07,0.229c-0.926,0.113-2.332,0.725-2.114,1.892c0.632,3.385,0.236,6.83,0.207,10.248
					C1025.349,247.384,1029.26,246.766,1029.274,245.082L1029.274,245.082z"/>
			</g>
		</g>
		<g>
			<g>
				<path fill="#F40C5A" d="M1038.015,244.723c0.031-3.54,0.424-7.102-0.229-10.607c-0.921,0.436-1.843,0.873-2.765,1.309
					c1.55-0.189,3.094-0.218,4.653-0.22c-0.227-0.094-0.455-0.188-0.682-0.282c0.595,3.482,0.475,6.959,0.46,10.477
					c-0.003,0.652,3.859,0.095,3.863-1.035c0.015-3.517,0.135-6.994-0.46-10.477c-0.042-0.245-0.523-0.282-0.682-0.282
					c-1.836,0.001-3.663,0.014-5.487,0.237c-0.494,0.061-2.928,0.433-2.765,1.309c0.653,3.506,0.26,7.068,0.229,10.607
					C1034.146,246.405,1038.005,245.855,1038.015,244.723L1038.015,244.723z"/>
			</g>
		</g>
		<g>
			<g>
				<path fill="#F40C5A" d="M973.478,272.02c24.985-0.018,49.955-0.406,74.938,0.131c0.736,0.016,4.382-1.41,2.54-1.449
					c-24.984-0.538-49.954-0.149-74.938-0.131C975.286,270.571,971.645,272.021,973.478,272.02L973.478,272.02z"/>
			</g>
		</g>
		<g>
			<g>
				<path fill="#F40C5A" d="M982.906,270.777c0.031-3.539,0.424-7.1-0.23-10.605c-0.743,0.488-1.485,0.977-2.228,1.465
					c1.526-0.188,3.053-0.19,4.588-0.192c-0.384-0.156-0.768-0.312-1.151-0.469c0.594,3.482,0.475,6.958,0.46,10.475
					c-0.004,1.007,3.857,0.338,3.863-1.035c0.015-3.517,0.135-6.993-0.46-10.475c-0.075-0.441-0.841-0.469-1.151-0.469
					c-1.862,0.001-3.707,0.041-5.557,0.269c-0.6,0.074-2.399,0.551-2.228,1.465c0.654,3.505,0.261,7.066,0.23,10.605
					C979.034,272.815,982.895,272.152,982.906,270.777L982.906,270.777z"/>
			</g>
		</g>
		<g>
			<g>
				<path fill="#F40C5A" d="M993.052,270.777c0.031-3.539,0.423-7.1-0.231-10.605c-0.925,0.421-1.851,0.842-2.777,1.263
					c1.551-0.191,3.097-0.212,4.658-0.213c-0.224-0.082-0.448-0.164-0.672-0.245c0.596,3.482,0.476,6.958,0.461,10.475
					c-0.002,0.566,3.859,0.036,3.863-1.035c0.015-3.517,0.136-6.993-0.461-10.475c-0.04-0.234-0.531-0.245-0.672-0.245
					c-1.836,0.001-3.663,0.022-5.487,0.248c-0.457,0.056-2.929,0.448-2.777,1.263c0.654,3.505,0.262,7.066,0.231,10.605
					C989.184,272.374,993.042,271.851,993.052,270.777L993.052,270.777z"/>
			</g>
		</g>
		<g>
			<g>
				<path fill="#F40C5A" d="M1002.058,271.102c0.032-3.646,0.43-7.319-0.246-10.93c-0.716,0.588-1.432,1.177-2.147,1.766
					c1.527-0.188,3.045-0.222,4.583-0.223c-0.408-0.246-0.815-0.492-1.223-0.738c0.575,3.375,0.461,6.742,0.447,10.15
					c-0.008,1.841,3.883,1.122,3.89-0.386c0.015-3.624,0.138-7.212-0.473-10.799c-0.084-0.496-0.802-0.738-1.223-0.738
					c-1.862,0.002-3.718,0.01-5.569,0.238c-0.831,0.102-2.354,0.662-2.147,1.766c0.635,3.398,0.249,6.85,0.219,10.281
					C998.152,273.328,1002.045,272.611,1002.058,271.102L1002.058,271.102z"/>
			</g>
		</g>
		<g>
			<g>
				<path fill="#F40C5A" d="M1011.037,271.052c0.031-3.627,0.441-7.288-0.231-10.88c-0.732,0.528-1.464,1.057-2.196,1.585
					c1.527-0.188,3.048-0.203,4.585-0.204c-0.394-0.192-0.787-0.384-1.18-0.576c0.581,3.392,0.476,6.773,0.461,10.2
					c-0.007,1.612,3.858,0.778,3.863-0.485c0.015-3.606,0.151-7.178-0.461-10.75c-0.08-0.468-0.823-0.576-1.18-0.576
					c-1.86,0.001-3.711,0.029-5.56,0.257c-0.692,0.085-2.383,0.588-2.196,1.585c0.64,3.417,0.262,6.881,0.231,10.331
					C1007.16,273.147,1011.026,272.317,1011.037,271.052L1011.037,271.052z"/>
			</g>
		</g>
		<g>
			<g>
				<path fill="#F40C5A" d="M1020.26,270.777c0.031-3.539,0.423-7.1-0.229-10.605c-0.757,0.434-1.515,0.868-2.272,1.302
					c1.522-0.188,3.061-0.173,4.592-0.175c-0.371-0.107-0.741-0.215-1.112-0.323c0.595,3.482,0.477,6.958,0.462,10.475
					c-0.003,0.743,3.858,0.157,3.863-1.035c0.015-3.517,0.134-6.993-0.462-10.475c-0.067-0.394-0.873-0.323-1.112-0.323
					c-1.865,0.001-3.699,0.058-5.551,0.286c-0.478,0.059-2.418,0.519-2.272,1.302c0.653,3.505,0.26,7.067,0.229,10.605
					C1016.39,272.551,1020.25,271.972,1020.26,270.777L1020.26,270.777z"/>
			</g>
		</g>
		<g>
			<g>
				<path fill="#F40C5A" d="M1029.282,271.163c0.032-3.67,0.42-7.355-0.259-10.991c-0.696,0.663-1.392,1.325-2.088,1.988
					c1.688-0.208,3.372-0.229,5.07-0.23c-0.592-0.318-1.184-0.635-1.775-0.953c0.574,3.354,0.448,6.702,0.434,10.089
					c-0.009,2.09,3.915,1.555,3.923-0.264c0.015-3.646,0.125-7.251-0.494-10.86c-0.135-0.788-1.146-0.954-1.775-0.953
					c-1.698,0.001-3.382,0.022-5.07,0.23c-0.996,0.123-2.314,0.776-2.088,1.988c0.63,3.373,0.229,6.814,0.2,10.22
					C1025.341,273.516,1029.266,272.982,1029.282,271.163L1029.282,271.163z"/>
			</g>
		</g>
		<g>
			<g>
				<path fill="#F40C5A" d="M1038.04,271.148c0.032-3.664,0.421-7.347-0.255-10.976c-0.701,0.644-1.402,1.289-2.103,1.933
					c1.688-0.208,3.372-0.229,5.07-0.23c-0.587-0.299-1.174-0.598-1.76-0.897c0.573,3.359,0.449,6.712,0.435,10.104
					c-0.009,2.031,3.907,1.446,3.914-0.294c0.016-3.64,0.13-7.242-0.485-10.845c-0.132-0.776-1.156-0.898-1.76-0.897
					c-1.699,0.001-3.383,0.022-5.07,0.23c-0.957,0.118-2.324,0.745-2.103,1.933c0.629,3.379,0.233,6.823,0.204,10.235
					C1034.108,273.472,1038.025,272.889,1038.04,271.148L1038.04,271.148z"/>
			</g>
		</g>
		<g>
			<g>
				<path fill="#F40C5A" d="M974.593,300.439c24.985-0.018,49.955-0.409,74.938,0.129c2.257,0.048,2.918-2.893,0.311-2.949
					c-24.983-0.537-49.953-0.147-74.938-0.129C972.652,297.492,971.976,300.441,974.593,300.439L974.593,300.439z"/>
			</g>
		</g>
		<g>
			<g>
				<path fill="#F40C5A" d="M982.938,298.844c0.032-3.675,0.418-7.362-0.263-11.002c-0.692,0.675-1.385,1.351-2.078,2.026
					c1.688-0.21,3.373-0.231,5.072-0.232c-0.595-0.331-1.19-0.661-1.786-0.991c0.572,3.352,0.442,6.698,0.428,10.082
					c-0.009,2.13,3.92,1.629,3.928-0.242c0.016-3.65,0.125-7.262-0.492-10.875c-0.136-0.795-1.141-0.992-1.786-0.991
					c-1.699,0.001-3.384,0.022-5.072,0.232c-1.023,0.127-2.308,0.797-2.078,2.026c0.629,3.368,0.228,6.808,0.198,10.209
					C978.992,301.215,982.922,300.716,982.938,298.844L982.938,298.844z"/>
			</g>
		</g>
		<g>
			<g>
				<path fill="#F40C5A" d="M993.059,298.749c0.031-3.637,0.435-7.305-0.238-10.907c-0.723,0.56-1.447,1.12-2.17,1.681
					c1.527-0.19,3.045-0.215,4.582-0.216c-0.401-0.22-0.802-0.441-1.203-0.662c0.579,3.384,0.469,6.76,0.454,10.177
					c-0.007,1.737,3.871,0.958,3.877-0.433c0.016-3.618,0.146-7.198-0.468-10.78c-0.083-0.484-0.81-0.662-1.203-0.662
					c-1.86,0.001-3.714,0.019-5.562,0.249c-0.766,0.096-2.368,0.625-2.17,1.681c0.637,3.407,0.254,6.865,0.225,10.304
					C989.167,300.917,993.047,300.142,993.059,298.749L993.059,298.749z"/>
			</g>
		</g>
		<g>
			<g>
				<path fill="#F40C5A" d="M1002.045,298.447c0.031-3.539,0.424-7.101-0.232-10.605c-0.754,0.444-1.509,0.887-2.264,1.331
					c1.525-0.189,3.062-0.178,4.596-0.179c-0.373-0.117-0.746-0.233-1.119-0.349c0.593,3.483,0.475,6.961,0.46,10.479
					c-0.003,0.791,3.858,0.19,3.863-1.035c0.015-3.518,0.133-6.995-0.46-10.479c-0.068-0.404-0.867-0.349-1.119-0.349
					c-1.866,0.002-3.704,0.056-5.557,0.286c-0.499,0.062-2.416,0.522-2.264,1.331c0.656,3.505,0.263,7.067,0.232,10.605
					C998.175,300.269,1002.035,299.675,1002.045,298.447L1002.045,298.447z"/>
			</g>
		</g>
		<g>
			<g>
				<path fill="#F40C5A" d="M1011.05,298.771c0.031-3.645,0.432-7.319-0.245-10.929c-0.716,0.588-1.432,1.175-2.148,1.763
					c1.526-0.19,3.043-0.223,4.58-0.225c-0.408-0.246-0.815-0.491-1.223-0.736c0.578,3.376,0.462,6.745,0.448,10.155
					c-0.008,1.838,3.883,1.117,3.89-0.388c0.015-3.625,0.14-7.214-0.474-10.802c-0.084-0.496-0.802-0.736-1.223-0.736
					c-1.861,0.002-3.715,0.01-5.564,0.24c-0.828,0.103-2.355,0.66-2.148,1.763c0.637,3.398,0.248,6.851,0.218,10.282
					C1007.145,300.996,1011.037,300.277,1011.05,298.771L1011.05,298.771z"/>
			</g>
		</g>
		<g>
			<g>
				<path fill="#F40C5A" d="M1020.26,298.447c0.031-3.539,0.424-7.1-0.229-10.605c-0.925,0.424-1.85,0.849-2.774,1.273
					c1.551-0.193,3.096-0.216,4.656-0.217c-0.225-0.084-0.449-0.168-0.674-0.253c0.595,3.483,0.477,6.96,0.462,10.479
					c-0.003,0.585,3.859,0.048,3.863-1.035c0.015-3.518,0.134-6.996-0.462-10.479c-0.04-0.236-0.53-0.253-0.674-0.253
					c-1.836,0.001-3.663,0.021-5.486,0.248c-0.465,0.058-2.929,0.444-2.774,1.273c0.653,3.505,0.26,7.067,0.229,10.605
					C1016.391,300.062,1020.25,299.534,1020.26,298.447L1020.26,298.447z"/>
			</g>
		</g>
		<g>
			<g>
				<path fill="#F40C5A" d="M1029.252,298.447c0.031-3.539,0.426-7.101-0.229-10.605c-0.744,0.482-1.489,0.965-2.233,1.447
					c1.525-0.189,3.052-0.19,4.586-0.191c-0.382-0.151-0.765-0.302-1.146-0.453c0.596,3.483,0.479,6.96,0.464,10.479
					c-0.004,0.979,3.858,0.318,3.863-1.035c0.015-3.518,0.133-6.996-0.464-10.479c-0.075-0.437-0.845-0.453-1.146-0.453
					c-1.861,0.001-3.705,0.043-5.554,0.273c-0.586,0.073-2.401,0.546-2.233,1.447c0.655,3.505,0.26,7.067,0.229,10.605
					C1025.38,300.457,1029.24,299.802,1029.252,298.447L1029.252,298.447z"/>
			</g>
		</g>
		<g>
			<g>
				<path fill="#F40C5A" d="M1038.037,298.805c0.032-3.659,0.424-7.339-0.251-10.963c-0.705,0.629-1.41,1.258-2.115,1.886
					c1.688-0.209,3.372-0.231,5.07-0.232c-0.583-0.284-1.166-0.567-1.748-0.851c0.574,3.366,0.452,6.722,0.438,10.121
					c-0.009,1.98,3.9,1.356,3.907-0.319c0.016-3.636,0.133-7.237-0.482-10.836c-0.13-0.766-1.164-0.852-1.748-0.851
					c-1.699,0.001-3.383,0.022-5.07,0.232c-0.922,0.114-2.333,0.72-2.115,1.886c0.63,3.384,0.237,6.831,0.208,10.248
					C1034.112,301.104,1038.022,300.481,1038.037,298.805L1038.037,298.805z"/>
			</g>
		</g>
		<g>
			<g>
				<path fill="#F40C5A" d="M980.73,240.973c1.538,0,3.075,0,4.612,0c0.913,0,2.044-0.253,2.531-1.126
					c0.44-0.789-0.374-1.409-1.12-1.409c-1.538,0-3.075,0-4.612,0c-0.913,0-2.044,0.253-2.531,1.126
					C979.17,240.353,979.984,240.973,980.73,240.973L980.73,240.973z"/>
			</g>
		</g>
		<g>
			<g>
				<path fill="#F40C5A" d="M1009.231,266.332c1.077-0.196,2.174-0.114,3.25,0.051c0.87,0.134,2.021-0.242,2.732-0.732
					c0.661-0.456,0.453-0.863-0.26-0.972c-1.665-0.256-3.392-0.25-5.05,0.051c-0.663,0.121-1.944,0.392-2.248,1.117
					C1007.362,266.549,1008.977,266.378,1009.231,266.332L1009.231,266.332z"/>
			</g>
		</g>
		<g>
			<g>
				<path fill="#F40C5A" d="M1017.766,266.932c1.614,0,3.229,0,4.844,0c0.841,0,2.001-0.321,2.567-0.99
					c0.593-0.701-0.507-0.89-0.981-0.89c-1.614,0-3.229,0-4.844,0c-0.841,0-2.001,0.321-2.567,0.99
					C1016.191,266.743,1017.292,266.932,1017.766,266.932L1017.766,266.932z"/>
			</g>
		</g>
		<g>
			<g>
				<path fill="#F40C5A" d="M1030.706,262.703c0.229-0.23,0.459-0.461,0.689-0.691c0.657-0.658-0.563-0.875-0.974-0.861
					c-0.9,0.031-1.92,0.333-2.569,0.983c-0.23,0.23-0.46,0.46-0.689,0.691c-0.656,0.659,0.562,0.875,0.974,0.861
					C1029.036,263.655,1030.059,263.353,1030.706,262.703L1030.706,262.703z"/>
			</g>
		</g>
		<g>
			<g>
				<path fill="#F40C5A" d="M1030.782,264.83c0.066-0.1,0.132-0.201,0.197-0.303c0.291-0.45-0.163,0.227,0.107-0.159
					c0.051-0.07,0.104-0.139,0.16-0.205c0.225-0.274-0.266,0.18-0.305,0.202c0.662-0.367,1.519-1.182,0.913-1.99
					c-0.562-0.75-1.884-0.698-2.624-0.288c-1.023,0.567-1.519,1.35-2.143,2.301c-0.546,0.832,0.474,1.54,1.178,1.625
					C1029.287,266.136,1030.229,265.671,1030.782,264.83L1030.782,264.83z"/>
			</g>
		</g>
		<g>
			<g>
				<path fill="#F40C5A" d="M1000.608,290.208c0.304,0.331,0.521,0.69,0.922,0.92c0.737,0.421,1.773,0.166,2.515-0.119
					c0.187-0.072,1.804-0.874,1.105-1.273c-0.401-0.229-0.618-0.589-0.922-0.92C1003.475,287.995,999.836,289.367,1000.608,290.208
					L1000.608,290.208z"/>
			</g>
		</g>
		<g>
			<g>
				<path fill="#F40C5A" d="M983.744,291.47c0.195-0.202,0.379-0.415,0.569-0.622c0.048-0.052,0.404-0.364,0.087-0.092
					c0.174-0.126,0.151-0.121-0.068,0.014c0.085-0.046,0.173-0.084,0.264-0.115c0.723-0.279,1.471-1.248,0.911-1.997
					c-0.612-0.819-1.82-0.602-2.625-0.292c-1.002,0.386-1.654,1.209-2.374,1.955c-0.64,0.663-0.31,1.591,0.503,1.879
					C981.967,292.541,983.062,292.177,983.744,291.47L983.744,291.47z"/>
			</g>
		</g>
		<g>
			<g>
				<path fill="#F40C5A" d="M984.447,293.236c-0.034,0.096-0.095,0.17-0.185,0.222c0.078-0.072,0.159-0.141,0.241-0.208
					c0.184-0.154,0.365-0.306,0.538-0.471c0.613-0.583,1.014-1.504,0.174-2.123c-0.751-0.553-2.104-0.443-2.779,0.2
					c-0.631,0.602-1.264,1.069-1.708,1.844c-0.499,0.869,0.442,1.64,1.212,1.751C982.959,294.601,983.943,294.117,984.447,293.236
					L984.447,293.236z"/>
			</g>
		</g>
		<g>
			<g>
				<path fill="#F40C5A" d="M1036.687,236.074c0.24,0.885,0.764,1.543,1.514,2.053c0.723,0.492,1.781,0.266,2.537-0.039
					c0.275-0.111,1.779-0.931,1.067-1.416c-0.642-0.437-1.048-0.876-1.254-1.634c-0.204-0.752-1.678-0.469-2.161-0.339
					C1037.91,234.828,1036.482,235.323,1036.687,236.074L1036.687,236.074z"/>
			</g>
		</g>
		<g>
			<g>
				<path fill="#F40C5A" d="M1001.048,225.805c-0.136-4.861,0.863-9.655,0.727-14.516c-1.062,0.432-2.125,0.865-3.187,1.297
					c1.898,0,1.489,1.049,1.434,2.621c-0.048,1.358-0.115,2.715-0.161,4.074c-0.088,2.619-0.027,5.224,0.469,7.802
					c0.153,0.798,4.042-0.105,3.863-1.035c-0.937-4.869-0.287-9.842-0.24-14.758c0.002-0.235-0.571-0.262-0.676-0.262
					c-0.726,0-1.452,0-2.178,0c-0.648,0-3.215,0.302-3.187,1.297c0.136,4.861-0.863,9.655-0.727,14.516
					C997.202,227.481,1001.078,226.879,1001.048,225.805L1001.048,225.805z"/>
			</g>
		</g>
		<g>
			<g>
				<path fill="#F40C5A" d="M1026.183,225.805c-0.136-4.859,0.863-9.653,0.726-14.516c-0.888,0.562-1.775,1.125-2.663,1.687
					c0.726,0,1.452,0,2.178,0c-0.402-0.316-0.804-0.633-1.207-0.95c-0.048,5.012-0.71,10.091,0.248,15.056
					c0.278,1.444,4.156,0.48,3.863-1.035c-0.92-4.771-0.281-9.643-0.235-14.46c0.006-0.669-0.583-0.95-1.207-0.95
					c-0.726,0-1.452,0-2.178,0c-0.994,0-2.699,0.429-2.663,1.687c0.137,4.859-0.862,9.653-0.726,14.516
					C1022.357,228.191,1026.227,227.391,1026.183,225.805L1026.183,225.805z"/>
			</g>
		</g>
		<g>
			<g>
				<path fill="#F40C5A" d="M1050.409,226.143c-0.136-4.861,0.863-9.654,0.728-14.516c-0.882,0.493-1.764,0.986-2.646,1.479
					c0.725,0,1.451,0,2.176,0c-0.417-0.374-0.834-0.747-1.252-1.12c-0.048,5.028-0.703,10.115,0.26,15.096
					c0.317,1.64,4.191,0.658,3.863-1.035c-0.919-4.754-0.272-9.618-0.226-14.42c0.006-0.687-0.576-1.12-1.252-1.12
					c-0.725,0-1.451,0-2.176,0c-0.769,0-2.677,0.345-2.646,1.479c0.136,4.861-0.863,9.654-0.728,14.516
					C1046.565,228.407,1050.452,227.706,1050.409,226.143L1050.409,226.143z"/>
			</g>
		</g>
		<g>
			<g>
				<path fill="#F40C5A" d="M977.067,225.805c-0.136-4.859,0.864-9.652,0.726-14.516c-0.888,0.562-1.775,1.125-2.664,1.687
					c0.726,0,1.452,0,2.178,0c-0.402-0.316-0.804-0.633-1.206-0.949c-0.048,5.012-0.711,10.091,0.247,15.056
					c0.278,1.444,4.156,0.479,3.863-1.035c-0.921-4.771-0.281-9.643-0.235-14.46c0.007-0.669-0.583-0.949-1.206-0.949
					c-0.726,0-1.452,0-2.178,0c-0.994,0-2.699,0.429-2.664,1.687c0.138,4.859-0.862,9.653-0.726,14.516
					C973.242,228.191,977.112,227.391,977.067,225.805L977.067,225.805z"/>
			</g>
		</g>
		<g>
			<g>
				<path fill="#F40C5A" d="M964.748,206.791c-0.044,3.968,8.652,3.478,11.059,3.518c8.965,0.149,17.92,0.179,26.888,0.041
					c19.833-0.305,39.688-0.028,59.524-0.028c1.384,0,4.136-2.101,1.527-2.101c-17.259,0-34.519,0-51.778,0
					c-3.095,0-43.407,2.167-43.356-2.465C968.624,204.643,964.764,205.339,964.748,206.791L964.748,206.791z"/>
			</g>
		</g>
		<g>
			<g>
				<path fill="#F40C5A" d="M965.121,206.898c6.835,1.686,13.729,0.685,20.681,0.838c9.606,0.212,19.231-0.083,28.831-0.398
					c15.866-0.52,31.595,0.188,47.444,0.355c1.269,0.013,4.175-1.891,1.576-1.919c-14.58-0.153-29.059-0.896-43.656-0.473
					c-8.304,0.24-16.604,0.509-24.912,0.565c-8.547,0.057-18.527,1.374-26.848-0.679
					C967.189,204.929,963.738,206.557,965.121,206.898L965.121,206.898z"/>
			</g>
		</g>
		<g>
			<g>
				<path fill="#F40C5A" d="M964.023,206.86c-0.174,7.507,3.714,13.879,5.333,21.025c0.429,1.894,4.296,0.875,3.863-1.035
					c-1.55-6.844-5.437-13.059-5.271-20.241C967.998,204.5,964.066,205.008,964.023,206.86L964.023,206.86z"/>
			</g>
		</g>
		<g>
			<g>
				<path fill="#F40C5A" d="M1506.078,231.426c0.061-6.947,0.836-13.944-0.45-20.826c-0.741,0.495-1.481,0.99-2.223,1.485
					c3.153-0.387,6.301-0.412,9.472-0.414c-0.385-0.162-0.771-0.325-1.155-0.487c1.168,6.838,0.936,13.665,0.906,20.57
					c0.902-0.507,1.805-1.015,2.708-1.522c-3.472,0.236-6.942,0.471-10.413,0.707c-1.287,0.087-4.136,2.184-1.553,2.009
					c3.472-0.236,6.942-0.471,10.413-0.707c0.852-0.058,2.703-0.372,2.708-1.522c0.029-6.906,0.263-13.732-0.906-20.57
					c-0.076-0.446-0.838-0.487-1.155-0.487c-3.499,0.003-6.968,0.061-10.442,0.488c-0.615,0.076-2.396,0.557-2.223,1.485
					c1.286,6.885,0.511,13.875,0.45,20.826C1502.206,233.496,1506.066,232.822,1506.078,231.426z"/>
			</g>
		</g>
		<g>
			<g>
				<path fill="#F40C5A" d="M1503.609,229.976c3.006,0.221,6.082-0.597,9.053-0.056c0.93,0.169,2.028-0.076,2.732-0.732
					c0.583-0.543,0.441-1.3-0.389-1.452c-3.316-0.604-6.594,0.188-9.922-0.056C1503.541,227.567,1500.993,229.784,1503.609,229.976
					L1503.609,229.976z"/>
			</g>
		</g>
		<g>
			<g>
				<path fill="#F40C5A" d="M1506.104,264.188c0.061-7.073,0.834-14.187-0.476-21.192c-0.701,0.641-1.403,1.282-2.105,1.924
					c3.314-0.407,6.622-0.448,9.957-0.451c-0.586-0.296-1.172-0.592-1.758-0.889c1.147,6.716,0.91,13.422,0.882,20.202
					c0.71-0.519,1.42-1.037,2.13-1.556c-3.471,0.235-6.942,0.47-10.413,0.705c-2.172,0.147-2.984,2.991-0.348,2.812
					c3.471-0.235,6.942-0.47,10.413-0.705c0.757-0.051,2.126-0.606,2.13-1.556c0.03-7.03,0.259-13.98-0.931-20.938
					c-0.132-0.774-1.157-0.889-1.758-0.889c-3.336,0.003-6.643,0.044-9.957,0.451c-0.949,0.117-2.327,0.741-2.105,1.924
					c1.263,6.759,0.484,13.633,0.425,20.456C1502.173,266.508,1506.088,265.917,1506.104,264.188z"/>
			</g>
		</g>
		<g>
			<g>
				<path fill="#F40C5A" d="M1503.635,262.468c2.996,0.22,6.092-0.614,9.049-0.073c0.951,0.174,2.027-0.015,2.732-0.732
					c0.557-0.566,0.437-1.45-0.432-1.609c-3.326-0.608-6.59,0.171-9.926-0.073c-0.887-0.065-2.064,0.298-2.534,1.116
					C1502.055,261.917,1502.925,262.417,1503.635,262.468L1503.635,262.468z"/>
			</g>
		</g>
		<g>
			<g>
				<path fill="#F40C5A" d="M1506.078,295.893c0.061-6.949,0.836-13.943-0.45-20.826c-0.923,0.43-1.847,0.861-2.77,1.291
					c2.183-0.269,4.338-0.392,6.538-0.43c3.39-0.059,2.923,3.571,3.131,6.146c0.379,4.694,0.12,9.442,0.101,14.146
					c0.923-0.43,1.847-0.861,2.77-1.291c-3.472,0.236-6.942,0.473-10.413,0.709c-1.005,0.068-4.227,1.721-1.676,1.547
					c3.471-0.236,6.942-0.473,10.413-0.709c0.612-0.042,2.766-0.397,2.77-1.291c0.029-6.906,0.263-13.732-0.906-20.57
					c-0.041-0.241-0.526-0.268-0.678-0.268c-3.474,0.003-6.922,0.039-10.373,0.465c-0.479,0.059-2.929,0.438-2.77,1.291
					c1.286,6.883,0.511,13.877,0.45,20.826C1502.209,297.542,1506.068,297.003,1506.078,295.893z"/>
			</g>
		</g>
		<g>
			<g>
				<path fill="#F40C5A" d="M1503.138,294.249c3.155,0.229,6.371-0.57,9.487,0c0.887,0.162,2.033-0.181,2.732-0.732
					c0.635-0.5,0.442-1.036-0.314-1.175c-3.171-0.58-6.309,0.231-9.487,0c-0.94-0.068-1.976,0.135-2.732,0.732
					C1502.245,293.53,1502.327,294.189,1503.138,294.249L1503.138,294.249z"/>
			</g>
		</g>
	</g>
	<g>
		<g>
			<path fill="#F40C5A" d="M961.9,303.385c-14.199-3.195-28.934-2.25-43.369-2.02c-7.901,0.126-15.811,0.052-23.673-0.812
				c-1.659-0.183-3.306-0.448-4.953-0.717c-3.037-0.497-2.491-2.516-2.491-5.074c0-4.269,0-8.537,0-12.805
				c0-1.247-3.606-0.283-3.861,0.768c-1.182,4.861-3.848,8.925-6.135,13.306c1.242-0.164,2.484-0.328,3.727-0.492
				c-0.196-2.466-0.848-4.849-1.045-7.314c-0.105-1.328-3.332-0.178-3.727,0.492c-1.74,2.954-4.017,5.442-5.357,8.635
				c1.287-0.256,2.574-0.512,3.861-0.768c-0.022-2.084-0.075-3.692-1.183-5.455c-0.692-1.103-3.354,0.104-3.726,0.998
				c-2.286,5.494-10.024,6.541-15.148,7.255c-8.613,1.202-17.447,0.937-26.108,0.53c-14.668-0.689-29.185-2.915-43.821-3.881
				c-1.437-0.095-4.126,1.968-1.517,2.141c17.286,1.142,34.384,3.807,51.742,4.15c8.575,0.169,17.332-0.082,25.709-2.073
				c5.033-1.196,10.875-3.51,13.002-8.622c-1.242,0.333-2.484,0.666-3.726,0.998c0.994,1.583,0.893,3.231,0.911,4.994
				c0.015,1.396,3.505,0.08,3.861-0.768c1.262-3.005,3.454-5.311,5.088-8.083c-1.242,0.164-2.484,0.328-3.727,0.492
				c0.196,2.466,0.848,4.849,1.045,7.314c0.103,1.296,3.354,0.223,3.727-0.492c2.389-4.576,5.171-8.784,6.404-13.858
				c-1.287,0.256-2.574,0.512-3.861,0.768c0,5.92,0,11.84,0,17.76c0,0.311,0.535,0.468,0.743,0.511
				c24.826,5.115,50.531-1.377,75.229,4.18C960.718,305.711,964.079,303.875,961.9,303.385L961.9,303.385z"/>
		</g>
	</g>
	<g>
		<g>
			<path fill="#F40C5A" d="M1529.455,323.923c12.204-0.917,24.354-2.654,36.607-2.746c1.259-0.009,4.175-1.933,1.578-1.913
				c-12.256,0.092-24.403,1.829-36.607,2.746C1529.811,322.102,1526.88,324.117,1529.455,323.923L1529.455,323.923z"/>
		</g>
	</g>
	<g>
		<g>
			<path fill="#F40C5A" d="M1565.976,287.803c0,14.548,0.066,29.092,0.41,43.637c0.013,0.565,3.888-0.008,3.863-1.035
				c-0.343-14.544-0.41-29.089-0.41-43.637C1569.839,286.229,1565.976,286.758,1565.976,287.803L1565.976,287.803z"/>
		</g>
	</g>
	<g>
		<g>
			<path fill="#F40C5A" d="M1570.092,287.393c0.566,14.606,0.415,29.146-0.006,43.75c0.891-0.462,1.78-0.923,2.671-1.385
				c-1.099,0-2.196,0-3.294,0c-1.534,0-4.081,2.328-1.467,2.328c1.099,0,2.196,0,3.294,0c0.722,0,2.641-0.347,2.671-1.385
				c0.426-14.802,0.569-29.541-0.006-44.343C1573.902,285.006,1570.03,285.815,1570.092,287.393L1570.092,287.393z"/>
		</g>
	</g>
	<g>
		<g>
			<path fill="#F40C5A" d="M1571.95,221.044c-5.194-1.96-8.209,2.221-9.144,6.75c-1.536,7.444,0.022,14.784-4.916,21.075
				c-2.551,3.249-4.155,5.484-3.721,9.792c0.614,6.098-0.461,11.566-0.957,17.616c-0.646,7.879,8.964,12.479,15.562,12.464
				c7.494-0.017,13.817-3.501,14.47-11.462c0.484-5.922-0.964-10.995,1.744-16.63c2.166-4.508,4.335-9.264,1.909-14.084
				c-1.92-3.817-5.985-6.247-8.243-9.889c-1.685-2.716-1.579-6.009-1.958-9.071c-0.786-6.351-4.407-8.797-9.875-4.651
				c-1.611,1.221,2.259,0.789,2.99,0.234c2.711-2.055,3.394,9.143,3.637,10.899c0.8,5.791,6.696,8.925,9.586,13.514
				c4.181,6.638-3.315,13.091-3.811,19.548c-0.35,4.565,0.601,9.115-0.155,13.664c-0.974,5.857-7.143,6.839-11.989,5.674
				c-8.102-1.947-10.602-8.188-9.486-15.755c0.582-3.95,1.107-7.531,0.718-11.543c-0.471-4.846,0.025-6.774,3.101-10.522
				c3.245-3.955,3.82-7.336,4.224-12.306c0.25-3.078,0.458-6.155,0.994-9.2c0.184-1.042,0.472-2.054,0.818-3.052
				c0.155-0.416,0.342-0.816,0.562-1.201c0.621-1.199-0.045-0.593,0.79-0.278C1569.721,222.976,1573.223,221.524,1571.95,221.044
				L1571.95,221.044z"/>
		</g>
	</g>
	<g>
		<g>
			<path fill="#F40C5A" d="M1572.986,248.062c-1.298,2.342-0.611,4.566,0.933,6.588c0.674,0.881,4.389-0.4,3.615-1.413
				c-1.373-1.797-1.843-3.716-0.712-5.759c0.4-0.723-1.38-0.632-1.605-0.598C1574.421,247.001,1573.402,247.31,1572.986,248.062
				L1572.986,248.062z"/>
		</g>
	</g>
	<g>
		<g>
			<path fill="#F40C5A" d="M1562.717,275.133c2.434,0.085,2.799,2.926,2.818,4.883c0.021,2.063,3.937,1.497,3.918-0.278
				c-0.035-3.526-1.285-7.321-5.412-7.465c-0.947-0.033-2.072,0.244-2.514,1.194C1561.143,274.296,1561.87,275.104,1562.717,275.133
				L1562.717,275.133z"/>
		</g>
	</g>
	<g>
		<g>
			<path fill="#F40C5A" d="M1563.032,260.065c1.836,0.307,3.705-0.137,5.288-1.099c1.312-0.797,2.046-2.243,2.317-3.707
				c0.182-0.98-3.635-0.323-3.816,0.657c-0.143,0.769-0.386,1.481-0.793,2.15c-0.132,0.216-0.326,0.459-0.525,0.616
				c-0.277,0.217-0.109,0.062,0.302-0.062c0.148-0.045,0.606-0.06,0.39-0.096c-0.905-0.152-1.887,0.079-2.704,0.478
				C1563.214,259.137,1562.122,259.913,1563.032,260.065L1563.032,260.065z"/>
		</g>
	</g>
	<g>
		<g>
			<path fill="#F40C5A" d="M1618.958,299.484c0,13.234,0.062,26.466,0.375,39.697c0.021,0.89,3.894,0.224,3.863-1.035
				c-0.312-13.231-0.375-26.463-0.375-39.697C1622.821,297.583,1618.958,298.213,1618.958,299.484L1618.958,299.484z"/>
		</g>
	</g>
	<g>
		<g>
			<path fill="#F40C5A" d="M1622.705,299.109c0.516,13.378,0.385,26.696,0,40.072c1.061-0.438,2.121-0.877,3.182-1.315
				c-0.999,0-1.998,0-2.998,0c-0.819,0-4.406,1.596-2.5,1.596c0.999,0,1.998,0,2.998,0c0.716,0,3.152-0.273,3.182-1.315
				c0.385-13.377,0.517-26.695,0-40.072C1626.542,297.38,1622.662,298.012,1622.705,299.109L1622.705,299.109z"/>
		</g>
	</g>
	<g>
		<g>
			<path fill="#F40C5A" d="M1624.239,238.07c-5.085-1.885-7.386,2.505-8.245,6.795c-0.669,3.345-0.746,6.816-1.044,10.206
				c-0.383,4.347-1.953,6.682-4.707,10.077c-2.306,2.841-2.383,5.759-1.771,9.245c0.927,5.284-1.813,10.396-1.104,15.597
				c0.943,6.928,8.323,11.03,14.871,11.008c8.084-0.027,12.861-4.794,12.825-12.84c-0.025-5.558-0.156-9.475,2.325-14.598
				c1.654-3.416,3.031-7.893,1.078-11.479c-1.798-3.299-4.934-5.538-7.149-8.534c-1.93-2.61-1.863-5.66-2.229-8.729
				c-0.669-5.611-3.812-9.206-9.122-5.216c-2.098,1.576,1.004,3.082,2.596,1.886c2.636-1.98,3.016,8.429,3.383,10.05
				c1.087,4.793,5.943,7.598,8.542,11.451c3.695,5.479-3.084,12.755-3.598,18.465c-0.333,3.703,0.503,7.383,0.005,11.107
				c-0.655,4.889-5.961,5.807-9.912,5.286c-2.926-0.385-5.705-1.949-7.697-4.086c-2.664-2.859-2.03-6.554-1.492-10.073
				c0.439-2.874,0.981-5.702,0.704-8.627c-0.426-4.501-0.557-6.788,2.354-10.321c2.935-3.561,3.705-6.314,4.102-10.818
				c0.143-1.624,0.638-14.054,3.083-13.147C1623.768,241.416,1626.562,238.931,1624.239,238.07L1624.239,238.07z"/>
		</g>
	</g>
	<g>
		<g>
			<path fill="#F40C5A" d="M1625.424,262.844c-1.28,2.313-0.744,4.585,0.808,6.611c0.994,1.299,4.693-0.158,3.551-1.649
				c-1.105-1.445-1.616-2.946-0.69-4.619c0.464-0.839-0.4-1.42-1.143-1.491C1627.032,261.61,1625.892,261.999,1625.424,262.844
				L1625.424,262.844z"/>
		</g>
	</g>
	<g>
		<g>
			<path fill="#F40C5A" d="M1616.067,287.881c2.143,0.075,2.486,2.857,2.503,4.533c0.019,1.867,3.908,1.151,3.893-0.376
				c-0.033-3.293-1.185-6.568-4.987-6.701c-0.904-0.032-2.055,0.271-2.53,1.128C1614.497,287.272,1615.326,287.855,1616.067,287.881
				L1616.067,287.881z"/>
		</g>
	</g>
	<g>
		<g>
			<path fill="#F40C5A" d="M1616.683,274.443c3.16,0.528,6.29-1.428,6.877-4.595c0.234-1.265-3.628-0.585-3.842,0.566
				c-0.134,0.726-0.352,1.421-0.797,2.018c-0.072,0.096-0.428,0.407-0.317,0.34c0.139-0.084,0.339-0.131,0.496-0.156
				c0.132-0.021,0.353,0.003,0.007-0.055c-0.891-0.149-2.025,0.184-2.731,0.732C1615.743,273.784,1615.925,274.316,1616.683,274.443
				L1616.683,274.443z"/>
		</g>
	</g>
	<g>
		<g>
			<path fill="#F40C5A" d="M1625.072,318.5c29.641-0.961,59.402-0.144,89.058-0.174c31.461-0.033,62.921-0.123,94.381-0.164
				c1.429-0.002,2.857-0.003,4.285-0.003c0.85,0,4.417-1.644,2.488-1.644c-58.009,0.005-116.064,0.967-174.067,0.018
				c-4.829-0.079-9.667,0.176-14.492,0.332C1625.652,316.898,1622.504,318.583,1625.072,318.5L1625.072,318.5z"/>
		</g>
	</g>
	<g>
		<g>
			<path fill="#F40C5A" d="M1571.205,319.863c5.391,0.975,11.031,0.451,16.477,0.419c0.719-0.004,2.745-0.41,2.739-1.405
				c-0.021-3.578-0.395-7.336,3.327-9.409c-1.019-0.02-2.038-0.039-3.057-0.058c-0.482,3.653-1.045,7.129,0.805,10.502
				c0.603,1.099,3.378-0.007,3.846-0.824c1.372-2.395,2.934-3.859,5.403-5.09c-1.024,0.051-2.05,0.102-3.074,0.153
				c0.1,1.242,0.286,2.464,0.412,3.703c0.11,1.09,3.328-0.118,3.698-0.599c0.915-1.192,2.241-1.838,3.294-2.881
				c-1.233,0.2-2.466,0.399-3.698,0.599c2.805,5.22,12.735,4.038,17.583,3.911c1.161-0.03,4.197-1.842,1.615-1.774
				c-4.005,0.105-12.985,1.2-15.335-3.171c-0.577-1.074-3.102,0.008-3.698,0.599c-1.146,1.135-2.311,1.602-3.294,2.881
				c1.233-0.2,2.466-0.399,3.698-0.599c-0.126-1.239-0.312-2.461-0.412-3.703c-0.076-0.945-2.724-0.022-3.074,0.153
				c-3.06,1.525-5.245,3.462-6.946,6.433c1.281-0.275,2.563-0.55,3.846-0.824c-1.799-3.279-1.316-6.467-0.84-10.08
				c0.157-1.185-2.612-0.306-3.057-0.058c-4.606,2.565-4.934,6.239-4.905,11.173c0.913-0.468,1.826-0.937,2.739-1.405
				c-5.183,0.031-10.508,0.525-15.635-0.401C1572.706,317.933,1569.165,319.494,1571.205,319.863L1571.205,319.863z"/>
		</g>
	</g>
</g>
</svg>
