<?xml version="1.0" encoding="utf-8"?>
<!-- Generator: Adobe Illustrator 15.0.0, SVG Export Plug-In . SVG Version: 6.00 Build 0)  -->
<!DOCTYPE svg PUBLIC "-//W3C//DTD SVG 1.1//EN" "http://www.w3.org/Graphics/SVG/1.1/DTD/svg11.dtd">
<svg version="1.1" id="Layer_1" xmlns="http://www.w3.org/2000/svg" xmlns:xlink="http://www.w3.org/1999/xlink" x="0px" y="0px"
	 width="436.118px" height="153.562px" viewBox="0 0 436.118 153.562" enable-background="new 0 0 436.118 153.562"
	 xml:space="preserve">
<g>
	<path fill="#F40C5A" d="M374.8,89.783L374.8,89.783H86.08l2.245-26.211H374.8c0,0,15.296,1.543,15.296,15.037
		C390.097,78.609,386.417,89.651,374.8,89.783z"/>
	<text transform="matrix(1.0667 0 0 1 125.3999 80.8179)" fill="#F4F4F4" font-family="'Avenir-Black'" font-size="12.2302">*Transporte foráneo de ida y regreso </text>
	<g>
		<g id="XMLID_44_">
			<g>
				<path fill="#F40C5A" d="M64.366,87.131c32.746-1.548,23.865-45.996-6.352-40.25c0,0,0,0-0.007,0
					C36.58,52.604,37.269,88.41,64.366,87.131z M44.278,94.059c-8.978-15.905-15.202-42.973,5.537-51.958
					c15.89-6.905,37.317-1.945,41.461,15.322c4.145,15.898-3.456,35.245-12.441,47.005c-2.701,3.24-9.651,15.823-15.195,16.138
					l-0.007-0.247C56.032,116.167,49.119,100.964,44.278,94.059z"/>
			</g>
			<g>
			</g>
		</g>
		<g>
			<path fill="#F40C5A" d="M57.854,57.733c0.138,0.792,0.167,1.621,1.07,1.835c0.609,0.144,1.29,0.07,1.908,0.08
				c1.04,0.016,2.078,0.048,3.118,0.01c1.574-0.057,3.331-0.094,4.87-0.447c1.08-0.247,0.954-1.203,0.761-2.066
				c-0.034-0.151-0.229-0.191-0.355-0.204c-1.945-0.188-3.855,0.145-5.792,0.086c-1.639-0.05-3.192-0.087-4.807,0.183
				c-0.125-0.004-0.264,0.023-0.39,0.072c-0.164,0.047-0.267,0.125-0.314,0.213C57.867,57.564,57.84,57.645,57.854,57.733z
				 M63.215,57.746c1.764,0.054,3.504-0.236,5.273-0.117c0.072,0.312,0.138,0.631,0.083,0.949c-0.009,0.055-1.058,0.096-1.097,0.1
				c-1.45,0.121-2.901,0.287-4.355,0.291c-1.099,0.002-2.208-0.01-3.306-0.057c-0.61-0.027-0.705-0.568-0.77-1.092
				C60.436,57.627,61.803,57.703,63.215,57.746z"/>
			<path fill="#F40C5A" d="M56.718,72.492c-0.269-0.004-0.571,0.076-0.802,0.215c-0.089,0.053-0.127,0.107-0.119,0.152
				c-0.524,0.3-0.863,0.85-0.674,1.535c0.272,0.984,1.336,1.039,2.137,0.755c0.658-0.233,1.224-0.776,1.267-1.503
				C58.581,72.704,57.421,72.5,56.718,72.492z M57.021,74.772c-0.026,0.028-0.055,0.054-0.083,0.078
				c-0.149-0.054-0.296-0.176-0.404-0.284c-0.246-0.253-0.344-0.604-0.333-0.949c0.006-0.178,0.072-0.346,0.162-0.5
				c0.13,0.039,0.299,0.014,0.458-0.031c0.242,0.104,0.442,0.275,0.534,0.555C57.483,74.032,57.294,74.488,57.021,74.772z"/>
			<path fill="#F40C5A" d="M71.816,72.47c-0.274-0.003-0.571,0.061-0.801,0.215c-0.074,0.049-0.111,0.104-0.114,0.152
				c-0.528,0.301-0.866,0.859-0.673,1.557c0.272,0.982,1.337,1.07,2.145,0.784c0.662-0.236,1.216-0.81,1.258-1.532
				C73.685,72.705,72.524,72.478,71.816,72.47z M72.153,74.722c-0.038,0.042-0.078,0.078-0.118,0.109
				c-0.021-0.006-0.044-0.014-0.072-0.024c-0.106-0.04-0.204-0.13-0.285-0.207c-0.253-0.237-0.367-0.563-0.375-0.904
				c-0.005-0.187,0.056-0.365,0.14-0.528c0.006-0.014,0.015-0.023,0.023-0.036c0.145,0.045,0.321,0.023,0.486-0.022
				c0.217,0.095,0.398,0.244,0.493,0.487C72.594,73.982,72.416,74.43,72.153,74.722z"/>
			<path fill="#F40C5A" d="M78.23,61.779c-0.019-0.052-0.077-0.08-0.157-0.091c0.02-0.573-0.07-1.151-0.221-1.706
				c-0.058-0.211-0.72-0.197-0.879-0.197c-0.45,0.004-0.895,0.076-1.343,0.084c-0.023,0.001-0.047,0.004-0.071,0.004
				c0-0.449-0.01-0.898-0.038-1.35c-0.094-1.541-0.552-2.93-2.087-3.518c-0.56-0.213-1.169-0.273-1.775-0.291
				c0.001-0.012,0.006-0.022,0.005-0.035c-0.014-0.359-0.169-0.704-0.283-1.04c-0.042-0.124-0.234-0.116-0.333-0.116
				c-0.442,0-0.938-0.003-1.353,0.174c-0.121,0.051-0.348,0.129-0.389,0.276c-0.031,0.106-0.039,0.212-0.044,0.323
				c-0.007,0.133,0.009,0.271,0.041,0.407c-1.19-0.004-2.381-0.009-3.572-0.004c-2.633,0.012-5.297,0.06-7.925,0.313
				c0.003-0.237-0.039-0.479-0.043-0.717c-0.003-0.156-0.08-0.228-0.229-0.272c-0.491-0.147-1.141-0.145-1.615,0.064
				c-0.408,0.181-0.524,0.809-0.466,1.266c-0.945,0.247-1.873,0.717-2.234,1.626c-0.237,0.598-0.264,1.311-0.32,1.941
				c-0.026,0.291-0.047,0.584-0.063,0.876c-0.75-0.048-1.825-0.296-2.411,0.237c-0.247,0.225-0.257,0.797-0.298,1.106
				c-0.032,0.245-0.044,0.493-0.038,0.743c-0.073,0.041-0.127,0.09-0.146,0.145c-0.331,0.926-0.303,1.957-0.21,2.922
				c0.048,0.49,0.017,0.771,0.512,0.916c0.403,0.119,0.888,0.052,1.29-0.029c0.183-0.037,0.649-0.124,0.67-0.37
				c0.092-1.104,0.191-2.206,0.283-3.31c-0.021-0.042-0.055-0.066-0.102-0.072c-0.379-0.115-0.746-0.18-1.14-0.202
				c-0.002,0-0.005,0.001-0.006,0c-0.045-0.505,0.018-1.017,0.132-1.511c0.391-0.008,0.804,0.083,1.182,0.09
				c0.079,0.002,0.166-0.006,0.253-0.024c-0.025,0.692-0.034,1.388-0.032,2.08c0.019,4.486,0.221,8.972,0.246,13.458
				c-0.046,0.055-0.079,0.117-0.09,0.186c-0.057,0.324-0.016,0.631,0.007,0.96c0.012,0.167,0.244,0.235,0.37,0.259
				c0.413,0.077,0.827,0.139,1.241,0.188c0,0.012-0.004,0.021-0.002,0.033c0.069,0.768,0.105,1.65,0.556,2.311
				c0.449,0.658,1.276,0.909,2.042,0.728c1.394-0.329,1.376-1.702,1.453-2.872c1.249,0.005,2.5-0.015,3.748,0.023
				c2.322,0.07,4.643,0.229,6.961,0.145c0.074,0.809,0.159,1.678,0.753,2.287c0.501,0.514,1.375,0.708,2.051,0.469
				c1.292-0.459,1.173-1.98,1.264-3.098c0.003-0.044-0.002-0.082-0.011-0.117c0.407-0.095,0.805-0.213,1.18-0.367
				c0.584-0.24,0.893-0.603,0.959-1.233c0.292-2.747,0.145-5.563,0.043-8.317c-0.054-1.49-0.134-2.976-0.083-4.469
				c0.03-0.905,0.078-1.809,0.092-2.713c0.17-0.012,0.341-0.027,0.512-0.043c0.269-0.024,0.639-0.115,0.719,0.209
				c0.112,0.455,0.178,0.945,0.158,1.42c-0.25,0.043-0.497,0.1-0.745,0.174c-0.12,0.038-0.536,0.137-0.52,0.325
				c0.093,1.104,0.191,2.207,0.283,3.31c0.021,0.041,0.055,0.062,0.101,0.066c0.552,0.111,2.145,0.182,2.286-0.577
				C78.555,64.148,78.616,62.858,78.23,61.779z M51.234,63.844c-0.042,0.489-0.083,0.979-0.125,1.468
				c-0.298-0.24-0.264-0.81-0.291-1.297c-0.028-0.512-0.018-1.035,0.076-1.541c0.053-0.021,0.103-0.047,0.149-0.074
				c0.17,0.043,0.304,0.135,0.286,0.344C51.299,63.111,51.266,63.478,51.234,63.844z M54.044,67.239
				c-0.045-2.009-0.165-4.036-0.128-6.053c3.374-0.005,6.751-0.046,10.123-0.178c0.114-0.005,0.228-0.006,0.341-0.011
				c0.005,3.204,0.09,6.407,0.004,9.61c-3.425,0.038-6.848,0.019-10.273,0.015C54.092,69.495,54.07,68.367,54.044,67.239z
				 M65.517,60.966c1.245-0.023,2.491-0.021,3.736-0.021c1.728,0,3.441-0.436,5.17-0.295c-0.017,0.48-0.043,0.957-0.063,1.426
				c-0.072,1.612-0.059,3.203,0.006,4.816c0.043,1.1,0.076,2.195,0.092,3.291c-2.95,0.459-5.96,0.389-8.941,0.414
				C65.607,67.388,65.523,64.177,65.517,60.966z M56.602,55.146c-0.025-0.162-0.012-0.33,0.023-0.495c0.003,0,0.007,0,0.011,0.001
				c0.014,0.161,0.031,0.326,0.028,0.486C56.644,55.142,56.624,55.143,56.602,55.146z M55.599,56.163
				c1.382-0.491,3.164-0.396,4.612-0.485c3.219-0.197,6.449-0.154,9.673-0.145c1.064,0.004,2.288-0.122,3.265,0.398
				c0.769,0.41,1.017,1.279,1.153,2.076c0.099,0.578,0.132,1.172,0.135,1.768c-1.475-0.064-2.939,0.189-4.411,0.285
				c-1.831,0.119-3.688,0.018-5.522,0.07c-3.521,0.104-7.04,0.184-10.561,0.191c0.029-0.701,0.081-1.4,0.167-2.098
				C54.253,57.048,54.434,56.576,55.599,56.163z M57.073,80.064C57.1,80.064,57.115,80.069,57.073,80.064L57.073,80.064z
				 M57.039,80.061c-0.02-0.003-0.044-0.005-0.075-0.01c-0.165-0.022-0.32-0.089-0.457-0.184c-0.241-0.167-0.387-0.437-0.498-0.7
				c-0.195-0.463-0.253-0.982-0.297-1.488c0.586,0.041,1.174,0.064,1.763,0.076C57.428,78.44,57.55,79.537,57.039,80.061z
				 M71.821,79.942c-0.2,0.237-0.838-0.317-0.992-0.546c-0.279-0.417-0.332-1.004-0.372-1.523c0.226-0.018,0.451-0.035,0.676-0.059
				c0.356-0.036,0.723-0.078,1.091-0.13C72.168,78.373,72.299,79.378,71.821,79.942z M74.373,75.595
				c-0.01,0.217,0.045,0.668-0.183,0.786c-0.496,0.259-1.152,0.323-1.693,0.427c-1.595,0.309-3.248,0.34-4.867,0.331
				c-2.266-0.012-4.527-0.195-6.793-0.205c-2.232-0.011-4.457,0.058-6.665-0.294c-0.002-1.81-0.022-3.619-0.05-5.428
				c3.577,0.006,7.151,0.021,10.73-0.025c3.202-0.042,6.44,0.053,9.611-0.465C74.477,72.344,74.454,73.966,74.373,75.595z
				 M77.299,64.951c-0.01,0.109-0.104,0.493-0.043,0.496c-0.275-0.01-0.241-0.926-0.256-1.09c-0.058-0.665-0.115-1.332-0.171-1.998
				c0.028-0.002,0.058-0.004,0.086-0.006c0.021,0.09,0.142,0.129,0.298,0.13C77.409,63.284,77.376,64.138,77.299,64.951z"/>
			<path fill="#F40C5A" d="M60.988,58.626c1.789,0.051,3.57-0.012,5.357-0.07c0.614-0.02,0.899-0.771,0.123-0.746
				c-1.691,0.055-3.376,0.114-5.068,0.066C60.902,57.861,60.219,58.603,60.988,58.626z"/>
			<path fill="#F40C5A" d="M67.176,64.685c0.288,0.105,0.593-0.011,0.801-0.215c0.688-0.675,1.511-1.207,2.268-1.797
				c0.607-0.476-0.304-0.891-0.757-0.537c-0.833,0.65-1.708,1.242-2.463,1.984C66.829,64.314,66.943,64.6,67.176,64.685z"/>
			<path fill="#F40C5A" d="M67.568,67.568c2.137-1.748,4.305-3.471,6.223-5.463c0.291-0.303-0.824-0.195-1.041,0.03
				c-1.87,1.942-3.987,3.618-6.072,5.321C66.199,67.848,67.333,67.758,67.568,67.568z"/>
		</g>
	</g>
</g>
</svg>
