<?xml version="1.0" encoding="utf-8"?>
<!-- Generator: Adobe Illustrator 15.0.0, SVG Export Plug-In . SVG Version: 6.00 Build 0)  -->
<!DOCTYPE svg PUBLIC "-//W3C//DTD SVG 1.1//EN" "http://www.w3.org/Graphics/SVG/1.1/DTD/svg11.dtd">
<svg version="1.1" id="Layer_1" xmlns="http://www.w3.org/2000/svg" xmlns:xlink="http://www.w3.org/1999/xlink" x="0px" y="0px"
	 width="1179.075px" height="631.354px" viewBox="0 0 1179.075 631.354" enable-background="new 0 0 1179.075 631.354"
	 xml:space="preserve">
<g>
	<g>
		<g>
			<path fill="#F40C5A" d="M313.141,148.602c19.289-0.025,38.578-0.101,57.866-0.229c18.513-0.124,37.679-1.832,56.109,0.046
				c6.888,0.702,13.807,2.427,19.226,6.933c5.312,4.416,7.741,11.427,9.316,17.911c2.748,11.312,3.127,23.204,3.441,34.775
				c0.443,16.333,0.229,32.68-0.015,49.015c-0.978,65.337,0.608,130.673,0.181,196.014c-0.099,15.091-0.45,30.173-0.714,45.261
				c-0.175,9.996,0.55,19.993,0.746,29.984c0.305,15.625,0.621,41.375-19.677,44.123c-13.367,1.81-27.577,1.142-41.057,1.21
				c-11.757,0.06-23.514-0.167-35.27-0.322c-29.83-0.394-59.695-0.38-89.524,0.01c-23.99,0.313-47.879,1.071-71.875,0.714
				c-19.565-0.291-39.625-0.13-58.943-3.65c-1.985-0.362-5.086-0.787-5.869-2.989c-0.81-2.278,0.068-5.473,0.283-7.793
				c1.13-12.213-0.41-24.789-0.829-37.018c-1.05-30.605-1.515-61.228-1.769-91.848c-0.246-29.595-0.213-59.189-0.247-88.785
				c-0.037-33.251-1.889-66.479-1.118-99.734c0.305-13.171,1.368-26.275,1.308-39.455c-0.043-9.407-0.243-18.855,0.893-28.214
				c0.957-7.879,3.224-16.324,9.502-21.66c7.099-6.035,16.217-4.916,24.805-4.916c25.628,0,51.255,0,76.883,0
				c4.246,0,8.492,0,12.738,0c2.146,0,3.017-2.661,0.388-2.661c-24.927,0-49.854,0-74.782,0c-10.53,0-22.457-1.566-32.62,1.029
				c-16.163,4.127-20.41,20.177-21.406,34.886c-0.654,9.661-0.247,19.378-0.303,29.053c-0.084,14.752-1.37,29.48-1.497,44.247
				c-0.282,32.726,1.306,65.442,1.308,98.17c0.004,60.323,0.1,120.672,2.401,180.96c0.393,10.294,0.932,20.33,0.026,30.594
				c-0.411,4.66,1.207,6.953,5.745,8.193c7.712,2.108,16.125,2.508,24.07,3.012c10.729,0.679,21.487,0.938,32.233,1.146
				c22.16,0.429,44.204,0.079,66.355-0.412c31.618-0.7,63.292-0.596,94.916-0.284c24.343,0.24,48.637,0.638,72.973-0.307
				c8.921-0.346,17.308-0.563,24.222-6.847c5.54-5.035,7.618-13.021,8.705-20.134c1.47-9.616,1.028-19.515,0.689-29.197
				c-0.371-10.591-0.465-21.09-0.248-31.685c0.669-32.594,0.606-65.2,0.414-97.799c-0.194-32.914-0.567-65.827-0.537-98.742
				c0.03-31.809,2.238-63.936-0.021-95.702c-1.017-14.308-1.769-32.775-13.754-42.738c-11.697-9.724-30.765-7.704-44.78-7.413
				c-30.157,0.628-60.34,0.549-90.503,0.588C311.383,145.944,310.511,148.605,313.141,148.602L313.141,148.602z"/>
		</g>
	</g>
	<g>
		<g>
			<path fill="#F40C5A" d="M257.807,170.185c-5.547,0.192-11.128,0.457-16.677,0.173c-1.896-0.097-3.944,2.707-1.329,2.841
				c5.884,0.301,11.79,0.055,17.673-0.148C259.682,172.974,260.437,170.094,257.807,170.185L257.807,170.185z"/>
		</g>
	</g>
	<g>
		<g>
			<path fill="#F40C5A" d="M245.484,171.364c-10.635-1.344-19.56,1.685-21.479,13.208c0.072,0.127,0.184,0.196,0.337,0.204
				c18.594,4.783,38.257,1.611,57.179,1.524c9.126-0.042,18.235-0.004,27.351-0.583c6.598-0.419,18.047-0.272,23.159-5.414
				c1.993-2.004-0.334-4.2-1.955-5.455c-5.509-4.264-13.74-4.388-20.354-4.753c-0.771-0.042-4.408,1.397-2.526,1.501
				c6.675,0.368,14.242,0.677,19.754,4.943c2.454,1.899,2.625,4.19-0.444,5.364c-8.865,3.39-20.21,2.706-29.54,2.86
				c-11.427,0.189-22.813,0.276-34.241,0.737c-9.271,0.375-18.586,0.55-27.804-0.672c-2.008-0.266-3.99-0.679-5.964-1.129
				c-1.888-0.431,0.127-4.935,0.494-5.8c2.291-5.396,7.664-5.748,12.845-5.093C243.18,172.918,246.441,171.485,245.484,171.364
				L245.484,171.364z"/>
		</g>
	</g>
	<g>
		<g>
			<path fill="#F40C5A" d="M242.891,0.138c6.347,46.393,12.801,92.896,15.903,139.642c0.102,1.538,3.976,0.662,3.863-1.035
				c-3.102-46.747-9.557-93.249-15.903-139.642C246.54-2.47,242.662-1.538,242.891,0.138L242.891,0.138z"/>
		</g>
	</g>
	<g>
		<g>
			<path fill="#F40C5A" d="M315.496,2.819c-2.385,32.678-4.067,65.37-5.345,98.108c-1.106,28.357-2.44,56.946-6.795,85.021
				c-0.268,1.73,3.653,1.107,3.887-0.397c4.355-28.081,5.662-56.661,6.795-85.021c1.308-32.738,2.959-65.429,5.345-98.108
				C319.513,0.636,315.605,1.32,315.496,2.819L315.496,2.819z"/>
		</g>
	</g>
	<g>
		<g>
			<path fill="#F40C5A" d="M259.621,186.455c2.801-62.203,4.756-124.44,7.712-186.636c0.043-0.905-3.799-0.313-3.863,1.035
				c-2.956,62.196-4.912,124.433-7.712,186.636C255.716,188.398,259.56,187.803,259.621,186.455L259.621,186.455z"/>
		</g>
	</g>
	<g>
		<g>
			<path fill="#F40C5A" d="M312.565,137.21c19.574-0.027,39.147-0.104,58.721-0.232c18.998-0.125,38.312-1.445,57.278-0.313
				c15.111,0.902,27.748,5.828,33.219,20.833c3.069,8.418,3.959,17.64,4.722,26.503c1.346,15.641,1.092,31.506,0.998,47.191
				c-0.195,32.415-0.748,64.803-0.559,97.222c0.191,33.028,0.548,66.054,0.586,99.083c0.019,16.368-0.055,32.735-0.26,49.102
				c-0.163,13.003-0.822,26.026-0.522,39.029c0.421,18.317,3.867,39.439-3.726,56.763c-4.65,10.611-13.898,12.402-24.494,12.849
				c-13.642,0.575-27.293,0.839-40.947,0.837c-25.465-0.004-50.93-0.477-76.396-0.525c-52.121-0.1-104.216,2.271-156.321,0.226
				c-9.441-0.371-18.875-0.901-28.24-2.193c-4.911-0.677-13.161-0.497-12.928-7.122c0.306-8.697,0.751-17.013,0.373-25.767
				c-0.649-15.02-1.124-30.047-1.508-45.076c-1.55-60.729-0.585-121.462-1.57-182.19c-0.544-33.532-2.099-67.063-0.538-100.592
				c0.519-11.155,0.954-22.179,0.894-33.348c-0.05-9.375-0.074-18.822,1.512-28.09c1.312-7.672,4.199-15.257,10.452-20.216
				c7.402-5.869,16.77-4.625,25.504-4.625c9.657,0,19.314,0,28.972,0c23.933,0,47.865,0,71.798,0c1.355,0,4.146-2.058,1.539-2.058
				c-24.536,0-49.072,0-73.608,0c-9.105,0-18.21,0-27.315,0c-8.602,0-16.483-0.604-24.59,2.961
				c-6.198,2.726-10.65,7.696-13.466,13.761c-7.243,15.598-4.514,35.629-4.636,52.282c-0.107,14.616-1.411,29.212-1.581,43.842
				c-0.192,16.479,0.195,32.961,0.591,49.435c1.472,61.347,0.549,122.722,1.628,184.079c0.269,15.281,0.639,30.56,1.125,45.835
				c0.436,13.676,1.964,27.62,1.335,41.29c-0.176,3.842-2.369,10.494,0.407,13.836c1.237,1.49,3.596,1.973,5.364,2.414
				c4.24,1.057,8.697,1.511,13.031,2.009c20.395,2.347,41.184,2.227,61.684,2.436c25.151,0.256,50.246-0.752,75.395-0.985
				c55.423-0.514,110.979,1.873,166.361-0.655c6.942-0.317,14.12-2.466,19.015-7.64c5.377-5.683,7.485-13.337,8.579-20.901
				c2.814-19.472-0.166-39.666,0.279-59.266c1.482-65.232,0.166-130.486-0.019-195.725c-0.092-32.273,1.066-64.547,0.579-96.817
				c-0.192-12.731-0.564-25.488-2.633-38.074c-1.159-7.053-3.037-14.106-6.904-20.186c-4.947-7.777-13.544-11.221-22.268-12.784
				c-12.8-2.294-26.052-1.16-38.973-0.982c-28.796,0.396-57.6,0.45-86.399,0.49C312.749,135.156,309.958,137.214,312.565,137.21
				L312.565,137.21z"/>
		</g>
	</g>
	<g>
		<g>
			<path fill="#F40C5A" d="M205.433,560.688c56.775,0,113.556,0.004,170.32,1.28c2.267,0.051,2.909-2.919,0.303-2.978
				c-56.764-1.277-113.545-1.28-170.32-1.28C203.474,557.711,202.818,560.688,205.433,560.688L205.433,560.688z"/>
		</g>
	</g>
	<g>
		<g>
			<path fill="#F40C5A" d="M151.181,208.35c0,25.612,0,51.225,0,76.836c0,1.708,3.873,0.91,3.873-0.446c0-25.612,0-51.224,0-76.836
				C155.054,206.197,151.181,206.994,151.181,208.35L151.181,208.35z"/>
		</g>
	</g>
	<g>
		<g>
			<path fill="#F40C5A" d="M151.186,297.007c0,8.964,0,17.928,0,26.893c0,0.678,3.863,0.106,3.863-1.035c0-8.964,0-17.928,0-26.893
				C155.049,295.294,151.186,295.865,151.186,297.007L151.186,297.007z"/>
		</g>
	</g>
	<g>
		<g>
			<path fill="#F40C5A" d="M428.49,563.488c16.58-1.915,18.769-18.3,18.813-32.155c0.005-1.807-3.881-1.065-3.886,0.402
				c-0.035,10.904-0.529,27.704-14.48,29.314C426.94,561.28,425.831,563.794,428.49,563.488L428.49,563.488z"/>
		</g>
	</g>
	<g>
		<g>
			<path fill="#F40C5A" d="M425.077,162.197c8.116-2.139,12.744,3.131,15.791,10.005c0.498,1.124,4.265-0.13,3.863-1.035
				c-1.679-3.789-3.893-7.954-7.731-9.947c-3.905-2.028-8.201-1.627-12.329-0.539C422.387,161.283,422.796,162.798,425.077,162.197
				L425.077,162.197z"/>
		</g>
	</g>
	<g>
		<g>
			<path fill="#F40C5A" d="M473.414,508.568c132.676,0.059,265.352,0.176,398.027,0.414c103.468,0.185,206.936,0.445,310.402,0.811
				c2.243,0.008,2.935-2.912,0.318-2.921c-131.962-0.467-263.925-0.761-395.888-0.949c-104.18-0.149-208.361-0.23-312.542-0.276
				C471.49,505.646,470.796,508.567,473.414,508.568L473.414,508.568z"/>
		</g>
	</g>
	<g>
		<g>
			<path fill="#F40C5A" d="M-3.238,507.868c39.771,0,79.542,0,119.313,0c0.842,0,4.414-1.633,2.49-1.633
				c-39.771,0-79.542,0-119.313,0C-1.59,506.235-5.162,507.868-3.238,507.868L-3.238,507.868z"/>
		</g>
	</g>
	<g>
		<g>
			<path fill="#F40C5A" d="M795.391,562.604c74.32-0.046,148.974-6.093,223.187-0.019c1.013,0.083,4.499-1.681,2.433-1.85
				c-74.502-6.098-149.427-0.065-224.036-0.019C795.731,560.717,792.795,562.605,795.391,562.604L795.391,562.604z"/>
		</g>
	</g>
	<g>
		<g>
			<path fill="#F40C5A" d="M931.825,583.417c35.654,0.096,71.057,5.115,106.601-0.048c1.684-0.245,3.34-2.12,0.638-1.728
				c-35.189,5.111-70.335,0.047-105.637-0.048C932.222,581.59,929.234,583.41,931.825,583.417L931.825,583.417z"/>
		</g>
	</g>
</g>
</svg>
