<?xml version="1.0" encoding="utf-8"?>
<!-- Generator: Adobe Illustrator 15.0.0, SVG Export Plug-In . SVG Version: 6.00 Build 0)  -->
<!DOCTYPE svg PUBLIC "-//W3C//DTD SVG 1.1//EN" "http://www.w3.org/Graphics/SVG/1.1/DTD/svg11.dtd">
<svg version="1.1" id="Layer_1" xmlns="http://www.w3.org/2000/svg" xmlns:xlink="http://www.w3.org/1999/xlink" x="0px" y="0px"
	 width="170.697px" height="142.248px" viewBox="0 0 170.697 142.248" enable-background="new 0 0 170.697 142.248"
	 xml:space="preserve">
<g>
	<g>
		
			<linearGradient id="SVGID_1_" gradientUnits="userSpaceOnUse" x1="441.2271" y1="88.751" x2="527.2515" y2="88.751" gradientTransform="matrix(0.9913 -0.1313 0.1313 0.9913 -410.7881 38.6537)">
			<stop  offset="0" style="stop-color:#5AFF45"/>
			<stop  offset="0.9997" style="stop-color:#00FFD7"/>
			<stop  offset="1" style="stop-color:#00FFD7"/>
		</linearGradient>
		<path fill="url(#SVGID_1_)" d="M120.755,42.649c-0.456-6.855-0.429-14.308-2.547-20.909c-0.535-1.67-3.843-1.693-5.155-1.786
			c-8.163-0.577-16.681,1.007-24.729,2.188c-6.946,1.02-13.85,2.211-20.833,2.954c-7.925,0.845-16.082,1.616-23.676,4.168
			c-3.515,1.182-9.611,3.635-8.657,8.361c0.811,11.355,1.841,22.701,3.52,33.964c0.989,6.646,2.31,13.232,3.502,19.843
			c0.572,3.18,1.082,6.37,1.51,9.573c0.341,2.545,3.021,3.607,5.199,4.146c3.684,0.909,7.697,0.704,11.444,0.46
			c4.552-0.295,9.079-0.939,13.578-1.66c6.835-1.099,13.618-2.392,20.47-3.387c7.915-1.146,16.072-2.281,23.613-5.05
			c2.649-0.975,5.483-2.183,7.449-4.282c0.656-0.702,1.146-1.535,1.33-2.483c0.123-0.644-0.028-1.377-0.104-2.003
			c-0.249-2.093-0.504-4.183-0.763-6.272c-0.814-6.579-1.685-13.154-2.718-19.7C122.232,54.715,121.164,48.781,120.755,42.649z
			 M41.971,31.117c3.602-1.568,7.598-2.277,11.448-2.93c7.058-1.193,14.214-1.596,21.284-2.682
			c8.489-1.304,16.965-2.74,25.515-3.607c3.744-0.379,7.544-0.697,11.311-0.48c1.094,0.061,2.29,0.192,3.298,0.652
			c1.642,0.752,1.513,3.797,1.781,5.273c0.163,0.896,0.304,1.793,0.429,2.689c-26.227,4.477-52.623,7.59-78.938,11.463
			c-0.129-1.648-0.252-3.294-0.368-4.939C37.156,33.708,39.701,32.106,41.971,31.117z M123.987,86.902
			c0.191,1.589,0.462,2.812-0.487,4.158c-0.774,1.099-2.126,1.819-3.308,2.382c-7.168,3.425-15.71,4.36-23.481,5.516
			c-6.778,1.009-13.502,2.184-20.26,3.323c-8.054,1.36-17.044,3.142-25.179,1.523c-2.812-0.56-4.724-1.777-5.12-4.697
			c-0.431-3.167-0.959-6.32-1.529-9.465c-1.186-6.532-2.467-13.041-3.445-19.609c-1.322-8.881-2.221-17.82-2.938-26.77
			c26.342-3.871,52.768-6.99,79.021-11.478c0.66,5.586,0.791,11.237,1.298,16.837c0.532,5.87,1.847,11.671,2.711,17.501
			C122.292,73.033,123.152,79.969,123.987,86.902z"/>
		
			<linearGradient id="SVGID_2_" gradientUnits="userSpaceOnUse" x1="463.7881" y1="93.5947" x2="474.8237" y2="93.5947" gradientTransform="matrix(0.9913 -0.1313 0.1313 0.9913 -410.7881 38.6537)">
			<stop  offset="0" style="stop-color:#5AFF45"/>
			<stop  offset="0.9997" style="stop-color:#00FFD7"/>
			<stop  offset="1" style="stop-color:#00FFD7"/>
		</linearGradient>
		<path fill="url(#SVGID_2_)" d="M63.977,70.212c-0.464-1.425,0.45-3.086,1.112-4.276c1.189-2.146,2.689-4.133,4.1-6.135
			c0.977-1.389-1.643-1.457-2.332-0.479c-2.111,2.997-6.194,7.349-5.578,11.397c0.645,4.226,6.822,7.157,9.934,9.21
			c0.985,0.652,3.15-0.945,1.855-1.802C70.143,76.197,65.158,73.84,63.977,70.212z"/>
		
			<linearGradient id="SVGID_3_" gradientUnits="userSpaceOnUse" x1="483.2593" y1="94.8535" x2="493.1118" y2="94.8535" gradientTransform="matrix(0.9913 -0.1313 0.1313 0.9913 -410.7881 38.6537)">
			<stop  offset="0" style="stop-color:#5AFF45"/>
			<stop  offset="0.9997" style="stop-color:#00FFD7"/>
			<stop  offset="1" style="stop-color:#00FFD7"/>
		</linearGradient>
		<path fill="url(#SVGID_3_)" d="M85.81,52.834c-1.117,10.765-1.951,21.556-2.975,32.329c-0.052,0.547,2.5-0.182,2.563-0.836
			c1.022-10.772,1.856-21.563,2.974-32.328C88.429,51.457,85.878,52.178,85.81,52.834z"/>
		
			<linearGradient id="SVGID_4_" gradientUnits="userSpaceOnUse" x1="500.3638" y1="92.6846" x2="511.415" y2="92.6846" gradientTransform="matrix(0.9913 -0.1313 0.1313 0.9913 -410.7881 38.6537)">
			<stop  offset="0" style="stop-color:#5AFF45"/>
			<stop  offset="0.9997" style="stop-color:#00FFD7"/>
			<stop  offset="1" style="stop-color:#00FFD7"/>
		</linearGradient>
		<path fill="url(#SVGID_4_)" d="M98.613,54.25c-0.693-0.427-2.97,0.925-2.372,1.294c2.902,1.79,9.368,4.806,9.495,8.927
			c0.047,1.556-1.01,3.023-1.839,4.247c-1.378,2.029-2.91,3.955-4.323,5.962c-0.559,0.791,2.015,0.162,2.429-0.426
			c1.498-2.127,3.11-4.173,4.569-6.324c0.854-1.259,1.682-2.676,1.754-4.229C108.526,59.356,101.533,56.055,98.613,54.25z"/>
		
			<linearGradient id="SVGID_5_" gradientUnits="userSpaceOnUse" x1="449.1265" y1="56.1084" x2="455.6377" y2="56.1084" gradientTransform="matrix(0.9913 -0.1313 0.1313 0.9913 -410.7881 38.6537)">
			<stop  offset="0" style="stop-color:#5AFF45"/>
			<stop  offset="0.9997" style="stop-color:#00FFD7"/>
			<stop  offset="1" style="stop-color:#00FFD7"/>
		</linearGradient>
		<path fill="url(#SVGID_5_)" d="M41.923,35.456c-0.025,0.635,0.486,1.183,0.962,1.526c0.728,0.524,1.663,0.414,2.47,0.174
			c1.039-0.311,2.05-0.887,2.629-1.826c0.705-1.141-0.16-2.533-1.335-2.861c-0.956-0.269-2.001,0.136-2.853,0.542
			c-0.973,0.468-1.638,1.235-1.981,2.249C41.777,35.372,41.828,35.431,41.923,35.456z M45.33,36.326
			C45.166,36.546,45.08,36.462,45.33,36.326L45.33,36.326z M45.625,35.664c-0.016,0.09-0.043,0.174-0.078,0.259
			c-0.13-0.071-0.252-0.151-0.346-0.221c-0.31-0.224-0.529-0.58-0.647-0.938c-0.06-0.179-0.069-0.36-0.03-0.545
			c0.063-0.292,0.375-0.437,0.018-0.233c0,0,0.001,0,0.001-0.002c0.05-0.03,0.11-0.065,0.177-0.108
			C45.337,34.205,45.75,34.965,45.625,35.664z"/>
		
			<linearGradient id="SVGID_6_" gradientUnits="userSpaceOnUse" x1="457.2573" y1="56.1094" x2="463.7695" y2="56.1094" gradientTransform="matrix(0.9913 -0.1313 0.1313 0.9913 -410.7881 38.6537)">
			<stop  offset="0" style="stop-color:#5AFF45"/>
			<stop  offset="0.9997" style="stop-color:#00FFD7"/>
			<stop  offset="1" style="stop-color:#00FFD7"/>
		</linearGradient>
		<path fill="url(#SVGID_6_)" d="M49.984,34.389c-0.024,0.636,0.486,1.182,0.963,1.525c0.728,0.525,1.664,0.416,2.471,0.176
			c1.037-0.311,2.049-0.889,2.628-1.827c0.704-1.141-0.161-2.534-1.335-2.862c-0.957-0.268-2.002,0.135-2.852,0.542
			c-0.974,0.469-1.639,1.234-1.983,2.25C49.837,34.304,49.888,34.361,49.984,34.389z M53.391,35.261
			C53.228,35.478,53.142,35.394,53.391,35.261L53.391,35.261z M53.686,34.596c-0.016,0.089-0.044,0.176-0.077,0.26
			c-0.131-0.071-0.252-0.151-0.346-0.221c-0.311-0.223-0.529-0.58-0.648-0.938c-0.059-0.18-0.069-0.363-0.029-0.547
			c0.062-0.291,0.374-0.437,0.016-0.232c0.001-0.002,0.002-0.002,0.002-0.002c0.051-0.029,0.111-0.067,0.176-0.109
			C53.4,33.139,53.813,33.898,53.686,34.596z"/>
		
			<linearGradient id="SVGID_7_" gradientUnits="userSpaceOnUse" x1="465.8364" y1="56.1094" x2="472.3481" y2="56.1094" gradientTransform="matrix(0.9913 -0.1313 0.1313 0.9913 -410.7881 38.6537)">
			<stop  offset="0" style="stop-color:#5AFF45"/>
			<stop  offset="0.9997" style="stop-color:#00FFD7"/>
			<stop  offset="1" style="stop-color:#00FFD7"/>
		</linearGradient>
		<path fill="url(#SVGID_7_)" d="M58.487,33.262c-0.024,0.635,0.487,1.182,0.964,1.526c0.727,0.526,1.662,0.416,2.47,0.176
			c1.038-0.312,2.049-0.888,2.629-1.827c0.704-1.141-0.161-2.534-1.336-2.862c-0.956-0.267-2.001,0.136-2.852,0.543
			c-0.974,0.468-1.639,1.233-1.982,2.248C58.342,33.177,58.392,33.237,58.487,33.262z M61.894,34.134
			C61.731,34.353,61.644,34.27,61.894,34.134L61.894,34.134z M62.189,33.471c-0.016,0.089-0.043,0.174-0.077,0.26
			c-0.13-0.072-0.252-0.153-0.347-0.222c-0.309-0.223-0.528-0.579-0.646-0.938c-0.061-0.178-0.07-0.362-0.03-0.544
			c0.063-0.292,0.374-0.438,0.017-0.234c0.001-0.002,0.001-0.002,0.001-0.002c0.051-0.029,0.111-0.067,0.177-0.109
			C61.904,32.012,62.316,32.771,62.189,33.471z"/>
		<g>
			<linearGradient id="SVGID_8_" gradientUnits="userSpaceOnUse" x1="32.7227" y1="106.6914" x2="140.6636" y2="106.6914">
				<stop  offset="0" style="stop-color:#5AFF45"/>
				<stop  offset="0.9997" style="stop-color:#00FFD7"/>
				<stop  offset="1" style="stop-color:#00FFD7"/>
			</linearGradient>
			<path fill="url(#SVGID_8_)" d="M33.902,107.072c17.618,0.01,35.231,0.432,52.85,0.475c17.131,0.042,31.056,1.69,51.422-0.511
				c0.785-0.083,2.185-0.385,2.461-1.151c0.267-0.74-1.365-0.72-1.812-0.645c-16.921,2.826-34.326,0.479-51.412,0.438
				c-17.263-0.043-34.521-0.464-51.784-0.472C34.164,105.204,31.01,107.07,33.902,107.072L33.902,107.072z"/>
		</g>
	</g>
	<g>
		<linearGradient id="SVGID_9_" gradientUnits="userSpaceOnUse" x1="123.7798" y1="30.8867" x2="137.1787" y2="30.8867">
			<stop  offset="0" style="stop-color:#5AFF45"/>
			<stop  offset="0.9997" style="stop-color:#00FFD7"/>
			<stop  offset="1" style="stop-color:#00FFD7"/>
		</linearGradient>
		<path fill="url(#SVGID_9_)" d="M132.24,29.481c-1.186,0.936-4.035,2.507-3.898,4.379c0.187,2.579,1.498,5.251,2.851,7.412
			c0.577,0.923,3.504-0.199,3.107-0.833c-1.001-1.601-1.748-3.328-2.364-5.109c-0.882-2.549,0.244-3.665,2.247-5.143
			c2.581-1.902,4.142-4.586,1.966-7.633c-3.791-5.31-11.357-0.895-12.359,4.274c-0.195,1.007,2.91,0.468,3.089-0.458
			c0.514-2.643,2.417-5.912,5.38-3.777C134.728,24.374,134.398,27.776,132.24,29.481z"/>
		<linearGradient id="SVGID_10_" gradientUnits="userSpaceOnUse" x1="128.8774" y1="48.8926" x2="138.3667" y2="48.8926">
			<stop  offset="0" style="stop-color:#5AFF45"/>
			<stop  offset="0.9997" style="stop-color:#00FFD7"/>
			<stop  offset="1" style="stop-color:#00FFD7"/>
		</linearGradient>
		<path fill="url(#SVGID_10_)" d="M136.792,45.727c-2.052-1.327-5.037-0.495-6.991,0.576c-0.478,0.262-1.261,0.867-0.766,1.486
			c0.453,0.564,1.528,0.477,2.094,0.166c0.126-0.068,0.255-0.137,0.388-0.203c-0.833,0.777-1.539,1.748-0.912,2.86
			c0.296,0.524,1.053,0.837,1.574,1.057c0.994,0.421,2.038,0.706,3.074,1.003c0.744,0.214,2.047-0.046,2.387-0.85
			C138.515,49.753,138.972,47.138,136.792,45.727z M134.325,48.328c0.253-0.209,0.397-0.401,0.47-0.583
			c0.575,0.583,0.559,1.534,0.361,2.408c-0.499-0.165-0.986-0.354-1.428-0.614C133.111,49.176,133.951,48.637,134.325,48.328z"/>
	</g>
	<g>
		
			<linearGradient id="SVGID_11_" gradientUnits="userSpaceOnUse" x1="255.6763" y1="6038.7852" x2="267.5469" y2="6038.7852" gradientTransform="matrix(-1 0 0 -1 289.5332 6125.8633)">
			<stop  offset="0" style="stop-color:#5AFF45"/>
			<stop  offset="0.9997" style="stop-color:#00FFD7"/>
			<stop  offset="1" style="stop-color:#00FFD7"/>
		</linearGradient>
		<path fill="url(#SVGID_11_)" d="M26.361,88.324c1.051-0.83,3.576-2.222,3.455-3.879c-0.166-2.285-1.328-4.651-2.526-6.568
			c-0.511-0.817-3.104,0.176-2.753,0.737c0.888,1.418,1.549,2.951,2.096,4.529c0.781,2.255-0.217,3.245-1.992,4.554
			c-2.286,1.686-3.668,4.062-1.74,6.763c3.357,4.705,10.061,0.792,10.949-3.786c0.174-0.893-2.578-0.416-2.736,0.404
			c-0.455,2.342-2.141,5.238-4.766,3.348C24.156,92.849,24.449,89.834,26.361,88.324z"/>
		
			<linearGradient id="SVGID_12_" gradientUnits="userSpaceOnUse" x1="260.1924" y1="6054.7383" x2="268.6001" y2="6054.7383" gradientTransform="matrix(-1 0 0 -1 289.5332 6125.8633)">
			<stop  offset="0" style="stop-color:#5AFF45"/>
			<stop  offset="0.9997" style="stop-color:#00FFD7"/>
			<stop  offset="1" style="stop-color:#00FFD7"/>
		</linearGradient>
		<path fill="url(#SVGID_12_)" d="M22.328,73.93c1.818,1.178,4.464,0.44,6.195-0.508c0.422-0.232,1.117-0.77,0.678-1.318
			c-0.402-0.501-1.354-0.422-1.855-0.148c-0.111,0.062-0.226,0.123-0.342,0.184c0.736-0.691,1.362-1.551,0.807-2.538
			c-0.262-0.465-0.934-0.741-1.395-0.936c-0.881-0.372-1.806-0.626-2.724-0.888c-0.659-0.189-1.813,0.039-2.115,0.754
			C20.801,70.364,20.396,72.68,22.328,73.93z M24.514,71.626c-0.225,0.184-0.352,0.356-0.416,0.515
			c-0.51-0.515-0.494-1.356-0.319-2.132c0.441,0.146,0.873,0.312,1.265,0.544C25.589,70.875,24.845,71.353,24.514,71.626z"/>
	</g>
</g>
</svg>
