<?xml version="1.0" encoding="utf-8"?>
<!-- Generator: Adobe Illustrator 15.0.0, SVG Export Plug-In . SVG Version: 6.00 Build 0)  -->
<!DOCTYPE svg PUBLIC "-//W3C//DTD SVG 1.1//EN" "http://www.w3.org/Graphics/SVG/1.1/DTD/svg11.dtd">
<svg version="1.1" id="Layer_1" xmlns="http://www.w3.org/2000/svg" xmlns:xlink="http://www.w3.org/1999/xlink" x="0px" y="0px"
	 width="170.697px" height="142.248px" viewBox="0 0 170.697 142.248" enable-background="new 0 0 170.697 142.248"
	 xml:space="preserve">
<linearGradient id="SVGID_1_" gradientUnits="userSpaceOnUse" x1="19.4692" y1="71.123" x2="151.228" y2="71.123">
	<stop  offset="0" style="stop-color:#5AFF45"/>
	<stop  offset="0.9997" style="stop-color:#00FFD7"/>
	<stop  offset="1" style="stop-color:#00FFD7"/>
</linearGradient>
<path fill="url(#SVGID_1_)" d="M150.064,114.563c-18.99-0.007-37.976-0.353-56.965-0.475c0.736-0.303,1.458-0.63,2.162-0.99
	c5.654-2.89,11.197-6.663,15.016-11.797c3.964-5.33,5.542-12.091,6.214-18.578c1.089-10.505-1.709-20.263-8.665-27.883
	c0.652-0.642,1.304-1.284,1.958-1.924c0.124,0.021,0.248,0.028,0.356,0.028c2.986-0.02,5.58,1.068,8.558,0.249
	c2.29-0.631,4.358-2.161,6.233-3.557c4.37-3.253,7.982-7.342,10.737-12.032c0.361-0.613-0.479-0.929-0.934-0.903
	c-2.823,0.161-5.64,0.387-8.464,0.483c0.479-0.549,0.952-1.102,1.414-1.666c0.541-0.662-1.6-0.432-1.988,0.043
	c-0.127,0.155-0.259,0.307-0.388,0.461c0.02-3.33,0.028-6.65-0.377-9.966c-0.095-0.776-1.419-0.478-1.793-0.198
	c-1.868,1.396-3.215,3.256-4.715,5.018c-1.987,2.334-4.427,4.262-6.535,6.484c-3.768,3.972-3.936,9.535-2.842,14.572
	c-0.708,0.646-1.412,1.295-2.109,1.947c-0.522-0.531-1.064-1.053-1.628-1.561c-4.531-4.078-10.109-6.879-16.003-8.35
	c-4.817-1.203-9.379-0.74-14.058-0.119c-0.108-0.109-0.345-0.157-0.758-0.079c-0.729,0.138-1.45,0.296-2.163,0.47
	c-0.631,0.083-1.265,0.164-1.903,0.238c-0.46,0.053-0.858,0.323-1.037,0.597C59.001,48.453,50.884,55.83,47.429,66.656
	c-4.546,14.243-2.695,30.732,8.758,41.195c2.757,2.52,6.059,4.512,9.646,5.952c-14.438-0.313-28.861-0.712-43.31,0.244
	c-0.967,0.064-2.21,0.321-2.869,1.11c-0.641,0.768,0.544,1.048,1.101,1.012c17.874-1.184,35.72-0.331,53.595-0.069
	c3.601,0.54,7.279,0.579,10.83,0.089c21.039,0.113,42.076,0.488,63.116,0.496C149.695,116.687,152.967,114.565,150.064,114.563z
	 M132.985,38.367c-2.366,3.752-5.304,6.959-8.779,9.752c-1.79,1.439-3.729,2.819-5.9,3.609c-2.172,0.788-4.67-0.084-6.986-0.304
	c1.919-1.852,3.869-3.669,5.892-5.402c2.66-2.278,5.224-4.674,7.61-7.237C127.549,38.738,130.266,38.542,132.985,38.367z
	 M114.333,37.314c1.702-1.795,3.567-3.475,5.338-5.202c1.204-1.175,2.149-2.547,3.271-3.771c0.262,3.247,0.182,6.499,0.171,9.76
	c0,0.137,0.032,0.251,0.088,0.346c-3.785,4.155-8.027,7.938-12.223,11.733C110.174,45.462,110.806,41.033,114.333,37.314z
	 M64.705,111.507c-15.46-7.559-19.691-25.929-16.114-41.481c1.454-6.326,3.996-12.009,8.682-16.583
	c4.123-4.024,9.493-6.695,15.077-8.048c2.958-0.449,5.91-1.024,8.897-1.054c4.286-0.044,8.524,1.073,12.448,2.724
	c4.427,1.861,8.454,4.705,11.792,8.188c-0.365,0.35-0.729,0.699-1.089,1.052c-1.66,1.624-3.315,3.253-4.974,4.88
	c-4.15-4.178-9.807-6.931-16.103-7.449c-2.076-0.171-4.124,0.119-6.167,0.444c-0.105-0.048-0.321-0.051-0.686,0.021
	c-0.466,0.09-0.929,0.193-1.388,0.304c-0.404,0.06-0.808,0.114-1.213,0.161c-0.27,0.031-0.806,0.271-1.148,0.5
	c-4.314,1.39-8.241,3.709-11.366,7.117c-4.555,4.968-6.056,12.571-6.052,19.115c0.003,7.561,3.414,14.622,9.318,19.285
	c5.38,4.249,12.995,5.268,19.631,4.564c5.794-0.613,11.823-4.434,15.878-8.449c4.54-4.494,6.007-11.119,6.335-17.279
	c0.355-6.66-2.017-12.744-6.109-17.342c1.751-1.716,3.499-3.437,5.251-5.152c0.265-0.26,0.531-0.521,0.795-0.781
	c1.331,1.494,2.542,3.091,3.602,4.771c7.11,11.271,5.891,28.669-1.296,39.594c-2.021,3.075-4.808,5.59-7.866,7.6
	c-3.436,2.26-6.878,4.541-10.806,5.862c-0.002,0.001-0.005,0.001-0.007,0.002c-2.335-0.012-4.672-0.022-7.008-0.024
	c-3.957-0.006-7.912-0.061-11.866-0.135C68.857,113.279,66.667,112.466,64.705,111.507z M77.02,64.254
	c3.931-0.43,7.191-0.459,10.921,1.563c1.414,0.767,2.675,1.777,3.752,2.955c-1.772,1.746-3.532,3.503-5.3,5.255
	c-1.602-1.291-3.926-1.777-6.083-1.729c-0.189-0.06-0.45-0.068-0.772,0.009c-0.058,0.013-0.111,0.031-0.169,0.047
	c-0.097,0.009-0.197,0.014-0.294,0.025c-0.285,0.035-0.547,0.154-0.749,0.303c-3.522,1.321-5.238,4.388-4.874,8.398
	c0.424,4.66,5.826,6.482,9.72,5.166c3.674-1.243,5.349-4.326,5.223-8.062c-0.043-1.297-0.437-2.338-1.055-3.17
	c1.744-1.729,3.484-3.463,5.233-5.188c1.085,1.425,1.925,3.036,2.461,4.741c1.017,3.231,0.666,6.847-0.102,10.087
	c-0.995,4.199-3.675,6.723-7.213,8.934c-4.131,2.584-9.496,2.169-13.789,0.137c-3.983-1.884-6.388-5.89-7.391-10.02
	C64.516,75.377,68.782,66.539,77.02,64.254z M85.972,77.387c0.813,2.123,0.148,5.072-1.427,6.659
	c-3.138,3.159-7.497,0.768-8.746-2.688c-1.121-3.101,0.521-6.836,3.587-7.856c2.245-0.146,4.191,0.439,5.505,2.013
	c-1.547,1.535-3.103,3.062-4.644,4.603c-0.572,0.572,1.558,0.387,1.987-0.042c1.136-1.135,2.282-2.259,3.422-3.392
	C85.769,76.907,85.876,77.139,85.972,77.387z M93.085,67.402c-0.829-0.795-1.731-1.521-2.68-2.168
	c-3.813-2.601-7.7-2.69-11.889-2.287c-0.188-0.059-0.438-0.072-0.745-0.01c-0.25,0.051-0.496,0.108-0.739,0.167
	c-0.273,0.031-0.545,0.063-0.82,0.097c-0.34,0.041-0.648,0.201-0.859,0.392C67.371,66.318,63.39,73.815,64.094,82.5
	c0.849,10.467,11.828,16.251,21.394,13.412c9.075-2.692,13.449-11.495,12.042-20.479c-0.425-2.712-1.722-5.075-3.495-7.054
	c1.646-1.622,3.299-3.238,4.949-4.857c1.712,2.059,3.09,4.391,4.02,6.899c1.992,5.373,1.572,11.587,0.234,17.048
	c-1.591,6.487-5.688,10.559-11.185,14.025c-6.644,4.19-15.385,3.826-22.341,0.399c-6.161-3.037-10.069-9.099-11.626-15.618
	c-1.536-6.428-0.328-13.617,2.271-19.608c2.551-5.879,8.4-9.841,14.489-11.357c2.354-0.351,4.707-0.762,7.083-0.665
	c3.444,0.143,6.798,1.361,9.811,2.963c2.371,1.26,4.517,2.928,6.345,4.891C96.417,64.133,94.748,65.765,93.085,67.402z"/>
</svg>
