<?xml version="1.0" encoding="utf-8"?>
<!-- Generator: Adobe Illustrator 15.0.0, SVG Export Plug-In . SVG Version: 6.00 Build 0)  -->
<!DOCTYPE svg PUBLIC "-//W3C//DTD SVG 1.1//EN" "http://www.w3.org/Graphics/SVG/1.1/DTD/svg11.dtd">
<svg version="1.1" id="Layer_1" xmlns="http://www.w3.org/2000/svg" xmlns:xlink="http://www.w3.org/1999/xlink" x="0px" y="0px"
	 width="170.697px" height="142.248px" viewBox="0 0 170.697 142.248" enable-background="new 0 0 170.697 142.248"
	 xml:space="preserve">
<g>
	<linearGradient id="SVGID_1_" gradientUnits="userSpaceOnUse" x1="55.5098" y1="50.8672" x2="109.0728" y2="50.8672">
		<stop  offset="0" style="stop-color:#5AFF45"/>
		<stop  offset="0.9997" style="stop-color:#00FFD7"/>
		<stop  offset="1" style="stop-color:#00FFD7"/>
	</linearGradient>
	<path fill="url(#SVGID_1_)" d="M81.512,52.328c8.702,0.03,17.366-0.671,26.062-0.73c1.68-0.012,2.2-2.205,0.236-2.191
		c-8.376,0.057-16.724,0.748-25.105,0.732c-8.428-0.016-16.854-0.156-25.275-0.476c-1.44-0.056-2.94,2.095-0.984,2.169
		C64.797,52.148,73.154,52.297,81.512,52.328z"/>
	<linearGradient id="SVGID_2_" gradientUnits="userSpaceOnUse" x1="55.7554" y1="57.2422" x2="109.3184" y2="57.2422">
		<stop  offset="0" style="stop-color:#5AFF45"/>
		<stop  offset="0.9997" style="stop-color:#00FFD7"/>
		<stop  offset="1" style="stop-color:#00FFD7"/>
	</linearGradient>
	<path fill="url(#SVGID_2_)" d="M82.95,56.514c-8.428-0.016-16.854-0.155-25.275-0.475c-1.44-0.056-2.939,2.094-0.984,2.168
		c8.353,0.316,16.709,0.465,25.067,0.496c8.701,0.031,17.366-0.672,26.062-0.73c1.68-0.012,2.2-2.204,0.237-2.191
		C99.68,55.839,91.333,56.529,82.95,56.514z"/>
	<linearGradient id="SVGID_3_" gradientUnits="userSpaceOnUse" x1="55.7554" y1="65.335" x2="109.3184" y2="65.335">
		<stop  offset="0" style="stop-color:#5AFF45"/>
		<stop  offset="0.9997" style="stop-color:#00FFD7"/>
		<stop  offset="1" style="stop-color:#00FFD7"/>
	</linearGradient>
	<path fill="url(#SVGID_3_)" d="M107.819,66.064c1.68-0.011,2.2-2.204,0.237-2.19c-8.376,0.056-16.724,0.747-25.106,0.731
		c-8.428-0.016-16.854-0.156-25.275-0.476c-1.44-0.054-2.939,2.095-0.984,2.169c8.353,0.317,16.709,0.465,25.067,0.496
		C90.458,66.825,99.124,66.124,107.819,66.064z"/>
	<linearGradient id="SVGID_4_" gradientUnits="userSpaceOnUse" x1="12.6724" y1="71.124" x2="158.0249" y2="71.124">
		<stop  offset="0" style="stop-color:#5AFF45"/>
		<stop  offset="0.9997" style="stop-color:#00FFD7"/>
		<stop  offset="1" style="stop-color:#00FFD7"/>
	</linearGradient>
	<path fill="url(#SVGID_4_)" d="M156.957,107.2c-9.704,0.03-19.406,0.604-29.076,1.374c-9.521,0.756-18.977,0.262-28.473,0.146
		c-4.233-3.776-8.094-7.928-12.363-11.67c-0.035-2.132-0.123-4.261-0.329-6.382c3.683-0.069,7.365-0.151,11.049-0.249
		c5.616-0.147,12.865,1.371,18.159-0.903c3.6-1.548,3.35-7.001,3.336-10.196c-0.02-4.685-0.94-9.271-1.136-13.938
		c-0.317-7.6,0.495-15.117-0.14-22.721c2.241-0.154,4.483-0.306,6.735-0.406c0.408-0.018,2.134-0.324,2.074-0.969
		c-0.366-3.893,0.214-12.383-5.595-12.018c-8.693,0.545-17.393,0.687-26.094,1.105c-9.995,0.481-20.011-0.383-30.01-0.27
		c-7.443,0.085-15.057,0.199-22.489,0.689c-0.12,0.008-0.284,0.048-0.463,0.105c-0.744,0.118-1.546,0.402-1.61,0.863
		c-0.5,3.581-0.7,7.179-0.49,10.789c0.052,0.103,0.138,0.16,0.257,0.172c2.768,0.52,5.557,0.611,8.353,0.541
		c-0.004,0.022-0.015,0.043-0.017,0.064c-0.646,7.703-0.447,15.495,0.105,23.199c0.335,4.683,0.418,9.381,0.648,14.068
		c0.107,2.172-0.386,6.418,1.061,8.32c1.053,1.387,2.864,1.471,4.474,1.613c4.566,0.402,9.227,0.281,13.809,0.299
		c5.006,0.019,10.012-0.025,15.016-0.105c0.225,2.007,0.331,4.02,0.379,6.037c-4.036,3.609-7.012,8.335-10.489,12.453
		c-0.124,0.148-0.195,0.281-0.238,0.404c-6.682,0.412-13.363,0.839-20.056,1.01c-12.748,0.324-25.504,0.182-38.24-0.441
		c-1.504-0.074-3.808,2.129-1.355,2.248c24.676,1.207,49.291,0.297,73.921-1.329c11.989-0.792,24.001,0.854,36,0.032
		c10.646-0.729,21.248-1.656,31.932-1.69C157.081,109.443,159.404,107.192,156.957,107.2z M43.757,41.807
		c-1.839-0.246-0.863-7.268-0.459-9.963c15.277-0.862,30.604-0.088,45.895-0.187c7.754-0.05,15.543-0.425,23.294-0.711
		c2.846-0.105,8.016-1.665,9.778,1.152c1.494,2.39,1.392,6.179,1.57,9.099c-2.021,0.101-4.034,0.209-6.043,0.314
		c-0.354-0.377-1.382-0.274-2.083,0.106c-4.912,0.244-9.817,0.423-14.792,0.287c-8.154-0.223-16.307-0.33-24.464-0.33
		c-7.064,0-14.146-0.181-21.2,0.256C51.417,42.068,47.583,42.319,43.757,41.807z M61.341,89.021
		c-2.257-0.048-7.606,0.811-8.467-2.005c-0.798-2.611-0.527-5.887-0.66-8.583c-0.207-4.226-0.317-8.454-0.58-12.679
		c-0.469-7.529-0.729-15.078-0.109-22.604c2.009-0.11,4.017-0.258,6.018-0.354c7.53-0.356,15.152-0.05,22.69-0.038
		c7.71,0.012,15.42,0.229,23.127,0.447c3.918,0.11,7.804-0.091,11.689-0.346c0.633,6.711,0.289,13.361,0.159,20.084
		c-0.079,4.107,0.545,8.095,0.908,12.168c0.312,3.512,1.316,10.077-1.255,13.043c-0.636,0.731-3.973,0.566-4.921,0.639
		c-1.498,0.113-3.012,0.06-4.51,0c-3.163-0.127-6.285-0.089-9.453-0.007c-3.206,0.083-6.413,0.151-9.618,0.207
		c-0.363-0.257-1.095-0.212-1.705,0.03c-4.004,0.063-8.009,0.101-12.014,0.1C68.873,89.123,65.107,89.102,61.341,89.021z
		 M84.173,99.868c0.023,3.05,0.02,6.101,0.235,9.139c-2.643,0.124-5.286,0.267-7.929,0.425
		C79.065,106.297,81.416,102.873,84.173,99.868z M91.319,108.75c-1.366,0.033-2.731,0.082-4.097,0.135
		c0.071-0.127,0.106-0.266,0.095-0.412c-0.195-2.596-0.222-5.201-0.237-7.806c2.816,2.649,5.524,5.409,8.365,8.031
		C94.07,108.702,92.696,108.717,91.319,108.75z"/>
</g>
</svg>
