<?xml version="1.0" encoding="utf-8"?>
<!-- Generator: Adobe Illustrator 15.0.0, SVG Export Plug-In . SVG Version: 6.00 Build 0)  -->
<!DOCTYPE svg PUBLIC "-//W3C//DTD SVG 1.1//EN" "http://www.w3.org/Graphics/SVG/1.1/DTD/svg11.dtd">
<svg version="1.1" id="Layer_1" xmlns="http://www.w3.org/2000/svg" xmlns:xlink="http://www.w3.org/1999/xlink" x="0px" y="0px"
	 width="170.697px" height="142.248px" viewBox="0 0 170.697 142.248" enable-background="new 0 0 170.697 142.248"
	 xml:space="preserve">
<g>
	<linearGradient id="SVGID_1_" gradientUnits="userSpaceOnUse" x1="64.3784" y1="40.1045" x2="104.9155" y2="40.1045">
		<stop  offset="0" style="stop-color:#5AFF45"/>
		<stop  offset="0.9997" style="stop-color:#00FFD7"/>
		<stop  offset="1" style="stop-color:#00FFD7"/>
	</linearGradient>
	<path fill="url(#SVGID_1_)" d="M68.139,43.971c5.701,0.827,12.129,0.447,17.867,0.108c5.217-0.306,10.861-0.364,15.97-1.536
		c3.548-0.815,3.17-3.396,2.497-6.423c-0.062-0.107-0.157-0.165-0.287-0.17c-6.855-0.663-13.577,0.48-20.409,0.273
		c-5.718-0.173-11.164-0.326-16.812,0.66c-0.993,0.027-2.678,0.559-2.582,1.103C64.871,40.795,64.884,43.498,68.139,43.971z
		 M83.376,37.509c3.804-0.222,7.604-0.501,11.414-0.584c3.133-0.068,8.465-0.024,6.719,4.559c-0.404,1.057-8.925,0.933-10.116,1.03
		c-4.215,0.351-8.376,0.487-12.605,0.395c-2.779-0.061-6.489,0.547-9.154-0.432c-1.469-0.542-1.686-3.086-1.874-4.684
		C73.028,37.156,78.068,37.815,83.376,37.509z"/>
	<linearGradient id="SVGID_2_" gradientUnits="userSpaceOnUse" x1="54.6704" y1="94.2422" x2="66.0703" y2="94.2422">
		<stop  offset="0" style="stop-color:#5AFF45"/>
		<stop  offset="0.9997" style="stop-color:#00FFD7"/>
		<stop  offset="1" style="stop-color:#00FFD7"/>
	</linearGradient>
	<path fill="url(#SVGID_2_)" d="M62.337,99.029c2.201-0.992,3.9-3.446,3.72-5.888c-0.253-3.466-4.331-4.183-7.095-4.216
		c-0.875-0.011-1.475,0.505-1.646,1.06c-2.055,1.076-3.25,3.508-2.333,6.157C56.06,99.251,59.503,100.308,62.337,99.029z
		 M61.477,96.698c-0.345,0.296-0.271,0.235-0.593,0.397c-0.202,0.1-0.11,0.09-0.492,0.114c0.091-0.005-0.253-0.046-0.461-0.121
		c-0.3-0.111-0.594-0.358-0.822-0.591c-0.833-0.85-1.191-1.921-1.081-3.098c0.089-0.954,0.469-1.837,1.484-1.511
		c0.523,0.168,1.132,0.115,1.645-0.123c0.716,0.307,1.303,0.81,1.528,1.64C63.018,94.622,62.216,96.061,61.477,96.698z"/>
	<linearGradient id="SVGID_3_" gradientUnits="userSpaceOnUse" x1="107.1494" y1="94.2422" x2="118.5503" y2="94.2422">
		<stop  offset="0" style="stop-color:#5AFF45"/>
		<stop  offset="0.9997" style="stop-color:#00FFD7"/>
		<stop  offset="1" style="stop-color:#00FFD7"/>
	</linearGradient>
	<path fill="url(#SVGID_3_)" d="M114.818,99.029c2.2-0.992,3.898-3.446,3.72-5.888c-0.255-3.466-4.332-4.183-7.097-4.216
		c-0.874-0.011-1.474,0.505-1.646,1.06c-2.054,1.076-3.25,3.508-2.332,6.157C108.542,99.251,111.984,100.308,114.818,99.029z
		 M113.958,96.698c-0.345,0.296-0.272,0.235-0.595,0.397c-0.2,0.1-0.108,0.09-0.491,0.114c0.093-0.005-0.254-0.046-0.461-0.121
		c-0.298-0.111-0.594-0.358-0.822-0.591c-0.832-0.85-1.19-1.921-1.082-3.098c0.089-0.954,0.469-1.837,1.485-1.511
		c0.523,0.168,1.133,0.115,1.646-0.123c0.714,0.307,1.301,0.81,1.527,1.64C115.498,94.622,114.697,96.061,113.958,96.698z"/>
	<linearGradient id="SVGID_4_" gradientUnits="userSpaceOnUse" x1="74.0967" y1="39.7891" x2="95.3252" y2="39.7891">
		<stop  offset="0" style="stop-color:#5AFF45"/>
		<stop  offset="0.9997" style="stop-color:#00FFD7"/>
		<stop  offset="1" style="stop-color:#00FFD7"/>
	</linearGradient>
	<path fill="url(#SVGID_4_)" d="M74.994,40.708c6.047,0.173,12.065-0.041,18.111-0.235c1.083-0.034,3.534-1.734,1.33-1.664
		c-6.045,0.194-12.063,0.409-18.112,0.235C75.217,39.012,72.783,40.645,74.994,40.708z"/>
	<linearGradient id="SVGID_5_" gradientUnits="userSpaceOnUse" x1="95.917" y1="57.5898" x2="107.3887" y2="57.5898">
		<stop  offset="0" style="stop-color:#5AFF45"/>
		<stop  offset="0.9997" style="stop-color:#00FFD7"/>
		<stop  offset="1" style="stop-color:#00FFD7"/>
	</linearGradient>
	<path fill="url(#SVGID_5_)" d="M96.877,61.599c0.734-0.044,1.648-0.275,2.188-0.808c2.436-2.396,5.31-4.292,7.993-6.388
		c0.483-0.378,0.455-0.764-0.22-0.815c-0.736-0.056-1.729,0.159-2.321,0.623c-2.837,2.216-5.869,4.226-8.442,6.757
		C95.526,61.508,96.552,61.618,96.877,61.599z"/>
	<linearGradient id="SVGID_6_" gradientUnits="userSpaceOnUse" x1="94.6118" y1="62.7432" x2="119.3457" y2="62.7432">
		<stop  offset="0" style="stop-color:#5AFF45"/>
		<stop  offset="0.9997" style="stop-color:#00FFD7"/>
		<stop  offset="1" style="stop-color:#00FFD7"/>
	</linearGradient>
	<path fill="url(#SVGID_6_)" d="M97.336,72.766c7.435-6.074,14.978-12.062,21.647-18.989c1.425-1.479-1.751-1.929-2.73-0.909
		c-6.494,6.742-13.838,12.561-21.074,18.474C93.452,72.753,96.106,73.771,97.336,72.766z"/>
	<linearGradient id="SVGID_7_" gradientUnits="userSpaceOnUse" x1="31.0381" y1="71.124" x2="139.6587" y2="71.124">
		<stop  offset="0" style="stop-color:#5AFF45"/>
		<stop  offset="0.9997" style="stop-color:#00FFD7"/>
		<stop  offset="1" style="stop-color:#00FFD7"/>
	</linearGradient>
	<path fill="url(#SVGID_7_)" d="M138.501,114.655c-7.551-0.14-14.997,1.188-22.54,1.121c1.756-2.596,1.466-6.994,1.685-9.672
		c0.011-0.149-0.009-0.277-0.043-0.396c1.026-0.241,2.044-0.511,3.049-0.811c1.661-0.498,3.663-1.127,4.195-2.962
		c0.865-2.978,0.556-6.804,0.628-9.865c0.129-5.405-0.012-10.823-0.176-16.227c-0.158-5.203-0.519-10.41-0.519-15.616
		c0-4.402,0.331-8.794,0.421-13.193c0.574-0.035,1.145-0.077,1.718-0.133c1.14-0.111,2.892-0.549,3.237,0.848
		c0.37,1.508,0.585,3.104,0.556,4.679c-1.017,0.124-1.998,0.34-3.005,0.646c-0.617,0.187-1.463,0.576-1.397,1.345
		c0.322,3.833,0.665,7.668,0.985,11.501c0.025,0.278,0.432,0.467,0.653,0.513c2.668,0.533,6.591,0.603,7.114-2.649
		c0.594-3.702,0.735-7.987-0.54-11.56c-0.087-0.245-0.284-0.403-0.54-0.495c0.057-1.937-0.27-3.892-0.774-5.749
		c-0.166-0.606-2.527-0.521-2.979-0.519c-1.396,0.011-2.778,0.26-4.172,0.287c-0.275,0.007-0.555,0.039-0.832,0.086
		c0.008-0.73,0.008-1.461-0.004-2.192c-0.091-5.61-0.689-11.987-6.627-14.256c-2.315-0.884-4.888-0.989-7.371-1.003
		c0.298-0.225,0.492-0.508,0.478-0.828c-0.046-1.248-0.589-2.447-0.984-3.616c-0.134-0.396-0.64-0.509-1.008-0.509
		c-1.452,0.001-3.093-0.052-4.452,0.53c-1.006,0.43-1.25,1.064-1.244,2.091c0.004,0.787,0.122,1.59,0.438,2.315
		c-4.046-0.013-8.09-0.028-12.135-0.012c-9.646,0.041-19.296,0.395-28.906,1.253c0.298-1.206,0.008-2.475-0.017-3.697
		c-0.058-0.147-0.164-0.243-0.317-0.29c-1.736-0.521-3.861-0.498-5.556,0.176c-1.015,0.403-1.16,1.139-1.351,2.11
		c-0.158,0.808-0.227,1.701-0.003,2.5c0.02,0.073,0.061,0.133,0.111,0.187c-2.796,0.675-5.553,1.837-7.275,3.871
		c-1.282,1.512-1.37,4.056-1.601,5.913c-0.208,1.688-0.338,3.386-0.434,5.087c-1.542-0.036-3.072-0.276-4.615-0.289
		c-1.191-0.007-2.928,0.112-3.857,0.956c-0.81,0.738-0.835,2.729-0.97,3.747c-0.112,0.858-0.155,1.733-0.132,2.603
		c-0.257,0.132-0.449,0.288-0.512,0.466c-1.148,3.211-1.047,6.776-0.724,10.123c0.158,1.662,0.036,2.646,1.718,3.141
		c1.337,0.394,2.937,0.169,4.271-0.098c0.531-0.107,1.881-0.36,1.94-1.071c0.322-3.835,0.664-7.668,0.985-11.502
		c-0.059-0.121-0.157-0.19-0.294-0.208c-1.299-0.394-2.553-0.618-3.903-0.698c-0.037-0.002-0.085,0.002-0.134,0.008
		c-0.175-1.855,0.066-3.747,0.499-5.56c1.488-0.091,3.063,0.263,4.519,0.293c0.348,0.006,0.75-0.05,1.124-0.179
		c-0.072,1.756-0.109,3.515-0.13,5.268c-0.188,16.492,0.753,33.02,0.852,49.523c-0.166,0.118-0.285,0.253-0.312,0.412
		c-0.176,1.016-0.07,1.933,0,2.959c0.062,0.104,0.157,0.157,0.284,0.16c1.818,0.342,3.642,0.596,5.469,0.787
		c-0.12,0.215-0.189,0.455-0.165,0.718c0.253,2.8,0.5,5.616,1.936,8.1c0.303,0.52,0.702,0.979,1.166,1.374
		c-7.65,0.229-15.294-1.197-22.887-0.078c-1.96,0.289-3.204,2.76-0.49,2.359c8.602-1.268,17.274,0.285,25.943-0.023
		c9.05-0.324,18.067-1,27.123-1.161c8.598-0.152,17.151,0.091,25.738,0.481c8.603,0.392,17.028-1.183,25.604-1.023
		C138.6,117.079,141.17,114.705,138.501,114.655z M130.168,60.234c-0.164-1.906-0.33-3.81-0.49-5.717
		c0.55-0.103,1.105-0.173,1.688-0.207c0.08-0.005,0.156-0.019,0.234-0.029c0.883,3.334,0.657,7.022,0.078,10.399
		C129.909,64.883,130.296,61.724,130.168,60.234z M41.709,55.397c-0.108,1.275-0.219,2.551-0.328,3.826
		c-0.164,1.867-0.324,3.734-0.482,5.6c-1.635-0.549-1.511-2.783-1.625-4.829c-0.1-1.833-0.059-3.714,0.291-5.526
		c0.275-0.094,0.531-0.221,0.741-0.373C41.079,54.211,41.783,54.521,41.709,55.397z M112.907,114.925
		c-1.097,1.58-3.399-0.445-4.079-1.46c-1.156-1.724-1.211-4.238-1.388-6.252c0.322-0.023,0.641-0.044,0.961-0.071
		c1.968-0.169,3.943-0.42,5.902-0.763C114.096,109.073,114.517,112.601,112.907,114.925z M50.46,70.815
		c-0.158-7.006-0.576-14.082-0.446-21.121c11.402-0.011,22.835-0.063,34.224-0.573c0.938-0.042,1.877-0.061,2.814-0.088
		c0.012,11.24,0.315,22.483,0.015,33.723c-12.126,0.141-24.242,0.07-36.371,0.053C50.627,78.812,50.55,74.812,50.46,70.815z
		 M90.349,48.958c4.432-0.065,8.865-0.038,13.301-0.107c6.106-0.096,12.199-1.545,18.309-0.984c0.007,0,0.016-0.002,0.021,0
		c-0.047,1.87-0.141,3.739-0.222,5.586c-0.248,5.604-0.205,11.132,0.021,16.736c0.147,3.673,0.255,7.335,0.311,10.995
		c-10.451,1.734-21.166,1.45-31.735,1.541C90.667,71.472,90.366,60.212,90.349,48.958z M106.382,25.431c0,0,0,0.001-0.002,0.001
		c-0.006,0-0.006,0-0.015,0C106.371,25.432,106.376,25.432,106.382,25.431z M107.759,27.554c-0.307-0.669-0.481-1.452-0.452-2.208
		c0.104-0.006,0.206-0.007,0.308-0.011c0.355,0.988,0.746,1.998,0.8,3.041c-0.337,0-0.676-0.002-1.011-0.003
		C107.719,28.133,107.89,27.844,107.759,27.554z M59.449,29.526c-0.235-0.842-0.131-1.738,0.082-2.592
		c0.201,0.013,0.396,0.038,0.589,0.079c0.047,0.96,0.241,1.95,0.063,2.898c-0.292,0.035-0.589,0.071-0.888,0.114
		C59.431,29.867,59.498,29.699,59.449,29.526z M57.636,31.298c1.067-0.229,2.165-0.399,3.274-0.547
		c0.349,0.012,0.765-0.043,1.158-0.152c4.41-0.487,9.02-0.49,13.305-0.685c11.193-0.505,22.409-0.298,33.609-0.29
		c3.188,0.002,6.486,0.312,9.131,2.242c2.433,1.773,3.139,5.071,3.523,7.859c0.267,1.925,0.358,3.877,0.366,5.837
		c-4.832-0.268-9.638,0.513-14.45,0.907c-6.313,0.521-12.762,0.131-19.096,0.286c-12.796,0.314-25.58,0.687-38.383,0.703
		c0.098-2.663,0.286-5.319,0.611-7.964C51.279,34.678,52.445,32.411,57.636,31.298z M50.833,103.696
		c0.042-0.064,0.072-0.133,0.072-0.205c-0.005-6.179-0.072-12.354-0.171-18.53c12.612,0.018,25.212,0.081,37.825-0.085
		c11.195-0.147,22.474,0.16,33.554-1.63c0.055,5.723-0.026,11.441-0.31,17.183c-0.055,1.096,0.041,2.458-0.811,3.288
		c-0.775,0.753-2.259,1.164-3.837,1.417c-0.624-0.361-1.695-0.221-2.332,0.288c-0.963,0.092-1.846,0.158-2.49,0.245
		c-5.687,0.77-11.466,0.729-17.188,0.584c-7.468-0.189-14.916-0.666-22.392-0.635c-3.829,0.017-7.652,0.038-11.48-0.092
		c-2.432-0.083-4.85-0.298-7.264-0.597C52.54,104.747,51.378,104.513,50.833,103.696z M63.208,106.839
		c-0.09,0.152-0.152,0.318-0.167,0.503c-0.187,2.273,0.357,6.46-1.649,8.055c-0.494,0.392-1.788-0.132-2.215-0.367
		c-0.91-0.5-1.473-1.465-1.863-2.387c-0.796-1.884-0.94-4.041-1.113-6.072C58.533,106.729,60.87,106.807,63.208,106.839z
		 M87.163,115.198c-7.576,0.113-15.124,0.596-22.685,0.96c1.827-2.302,1.667-6.17,1.899-9.022c0.009-0.098,0.002-0.186-0.01-0.272
		c3.885,0.01,7.775-0.035,11.659,0.061c8.748,0.222,17.468,0.866,26.206,0.481c-0.07,0.175-0.105,0.363-0.086,0.566
		c0.235,2.573,0.465,5.359,2.051,7.463C99.856,115.226,93.525,115.102,87.163,115.198z"/>
</g>
</svg>
