<?xml version="1.0" encoding="utf-8"?>
<!-- Generator: Adobe Illustrator 15.0.0, SVG Export Plug-In . SVG Version: 6.00 Build 0)  -->
<!DOCTYPE svg PUBLIC "-//W3C//DTD SVG 1.1//EN" "http://www.w3.org/Graphics/SVG/1.1/DTD/svg11.dtd">
<svg version="1.1" id="Layer_1" xmlns="http://www.w3.org/2000/svg" xmlns:xlink="http://www.w3.org/1999/xlink" x="0px" y="0px"
	 width="170.697px" height="142.248px" viewBox="0 0 170.697 142.248" enable-background="new 0 0 170.697 142.248"
	 xml:space="preserve">
<g>
	<g>
		<g>
			<linearGradient id="SVGID_1_" gradientUnits="userSpaceOnUse" x1="70.2607" y1="24.3486" x2="96.8838" y2="24.3486">
				<stop  offset="0" style="stop-color:#5AFF45"/>
				<stop  offset="0.9997" style="stop-color:#00FFD7"/>
				<stop  offset="1" style="stop-color:#00FFD7"/>
			</linearGradient>
			<path fill="url(#SVGID_1_)" d="M73.196,27.572c-0.55-2.775-0.215-5,2.787-5.678c2.41-0.542,5.063-0.264,7.514-0.309
				c2.746-0.053,5.5-0.53,8.246-0.324c2.892,0.217,2.368,5.324,2.371,7.431c0.002,1.389,2.737,0.95,2.737-0.224
				c-0.003-2.309,0.485-7.506-2.146-8.635c-3.25-1.396-7.53-0.271-10.952-0.172c-3.425,0.101-6.931-0.233-10.185,1.049
				c-3.242,1.276-3.681,4.541-3.076,7.587C70.732,29.514,73.442,28.818,73.196,27.572L73.196,27.572z"/>
		</g>
		<g>
			<linearGradient id="SVGID_2_" gradientUnits="userSpaceOnUse" x1="45.8574" y1="74.7031" x2="122.2744" y2="74.7031">
				<stop  offset="0" style="stop-color:#5AFF45"/>
				<stop  offset="0.9997" style="stop-color:#00FFD7"/>
				<stop  offset="1" style="stop-color:#00FFD7"/>
			</linearGradient>
			<path fill="url(#SVGID_2_)" d="M49.557,76.309c1.163-11.238-1.084-22.589,0.923-33.782c0.776-4.331,2.118-8.672,6.311-10.702
				c4.061-1.968,8.922-2.34,13.355-2.588c9.72-0.549,19.565,0.154,29.284,0.506c5.764,0.209,11.976,1.136,15.666,6.047
				c3.292,4.38,3.338,10.855,3.488,16.076c0.413,14.4-0.244,28.801,0.135,43.2c0.146,5.613,1.022,11.353,0.698,16.964
				c-0.115,1.975-0.562,3.949-1.791,5.536c-1.942,2.504-6.95,2.039-9.754,2.267c-7.288,0.594-14.507,0.221-21.801,0.229
				c-6.617,0.008-13.212,0.108-19.829,0.011c-4.553-0.065-9.619,0.266-13.878-1.606c-4.19-1.84-3.777-8.462-3.712-12.218
				c0.09-5.142,0.899-10.238,0.96-15.377c0.086-7.084-0.9-14.268,0.584-21.271c0.208-0.973-2.512-0.523-2.699,0.36
				c-1.293,6.095-0.765,12.419-0.619,18.597c0.124,5.205-0.537,10.325-0.828,15.511c-0.242,4.282-0.609,9.425,1.444,13.351
				c1.672,3.197,6.77,3.624,9.89,3.871c12.292,0.969,24.748,0.264,37.063,0.445c6.705,0.098,13.952,0.03,20.544-1.293
				c3.89-0.781,6.274-3.406,6.956-7.258c0.817-4.603-0.114-9.637-0.349-14.261c-0.385-7.598-0.306-15.211-0.215-22.813
				c0.088-7.284,0.207-14.567-0.014-21.848c-0.167-5.408-0.077-10.944-1.95-16.103c-3.849-10.596-16.656-9.759-25.853-10.074
				c-9.644-0.332-19.397-1.058-28.998,0.303c-3.788,0.537-7.707,1.479-10.962,3.564c-3.58,2.292-4.841,6.319-5.698,10.292
				c-2.44,11.322,0.13,23.007-1.051,34.424C46.75,77.706,49.465,77.178,49.557,76.309L49.557,76.309z"/>
		</g>
		<g>
			<linearGradient id="SVGID_3_" gradientUnits="userSpaceOnUse" x1="38.4912" y1="92.623" x2="49.4478" y2="92.623">
				<stop  offset="0" style="stop-color:#5AFF45"/>
				<stop  offset="0.9997" style="stop-color:#00FFD7"/>
				<stop  offset="1" style="stop-color:#00FFD7"/>
			</linearGradient>
			<path fill="url(#SVGID_3_)" d="M48.4,71.306c-2.582,0.255-5.621,0.549-7.511,2.544c-2.13,2.248-1.982,6.192-2.081,9.047
				c-0.275,7.93-0.132,15.88-0.269,23.813c-0.032,1.872-0.387,4.898,1.438,6.126c1.86,1.252,4.939,0.934,7.054,1.117
				c0.988,0.087,2.894-1.307,1.071-1.465c-1.705-0.147-4.844,0.238-6.14-1.143c-1.566-1.667-0.696-6.331-0.665-8.238
				c0.113-6.582,0.03-13.17,0.186-19.752c0.064-2.723-0.115-6.262,1.315-8.716c1.03-1.768,3.399-1.734,5.212-1.913
				C49.301,72.599,50.282,71.119,48.4,71.306L48.4,71.306z"/>
		</g>
		<g>
			<linearGradient id="SVGID_4_" gradientUnits="userSpaceOnUse" x1="58.3301" y1="85.5547" x2="108.4585" y2="85.5547">
				<stop  offset="0" style="stop-color:#5AFF45"/>
				<stop  offset="0.9997" style="stop-color:#00FFD7"/>
				<stop  offset="1" style="stop-color:#00FFD7"/>
			</linearGradient>
			<path fill="url(#SVGID_4_)" d="M59.913,74.629c15.418-0.995,30.879-0.307,46.316-0.639c-0.413-0.218-0.826-0.437-1.24-0.654
				c1.031,7.16,2.009,14.253-4.147,19.389c-5.687,4.743-13.295,4.891-20.256,3.865c-5.588-0.825-13.102-2.567-16.72-7.328
				c-1.61-2.117-2.058-5.22-2.408-7.775c-0.361-2.619-0.424-5.347-0.06-7.97c0.197-1.408-2.57-1.061-2.744,0.193
				c-0.74,5.331-0.438,13.334,3.39,17.534c4.515,4.951,12.425,6.662,18.776,7.522c7.717,1.044,15.52,0.124,21.829-4.76
				c7.04-5.451,6.182-13.498,5.046-21.396c-0.079-0.544-0.819-0.663-1.24-0.653c-15.437,0.331-30.898-0.354-46.316,0.64
				C58.593,72.696,58.068,74.748,59.913,74.629L59.913,74.629z"/>
		</g>
		<g>
			<linearGradient id="SVGID_5_" gradientUnits="userSpaceOnUse" x1="46.2783" y1="107.9258" x2="121.6328" y2="107.9258">
				<stop  offset="0" style="stop-color:#5AFF45"/>
				<stop  offset="0.9997" style="stop-color:#00FFD7"/>
				<stop  offset="1" style="stop-color:#00FFD7"/>
			</linearGradient>
			<path fill="url(#SVGID_5_)" d="M47.026,109.165c11.317,0.018,22.602,0.467,33.924,0.095c6.574-0.217,13.104-0.695,19.687-0.687
				c6.534,0.008,13.055,0.016,19.557-0.735c1.259-0.146,2.289-1.588,0.405-1.37c-6.274,0.726-12.573,0.7-18.878,0.687
				c-6.583-0.014-13.113,0.446-19.687,0.687c-11.32,0.413-22.608-0.077-33.926-0.094C47.173,107.745,45.202,109.162,47.026,109.165
				L47.026,109.165z"/>
		</g>
		<g>
			<linearGradient id="SVGID_6_" gradientUnits="userSpaceOnUse" x1="119.0806" y1="92.6123" x2="130.0933" y2="92.6123">
				<stop  offset="0" style="stop-color:#5AFF45"/>
				<stop  offset="0.9997" style="stop-color:#00FFD7"/>
				<stop  offset="1" style="stop-color:#00FFD7"/>
			</linearGradient>
			<path fill="url(#SVGID_6_)" d="M119.851,72.777c1.958,0.193,4.321,0.321,5.651,1.971c1.618,2.008,1.466,5.536,1.56,7.937
				c0.24,6.165,0.11,12.35,0.187,18.518c0.04,3.169,0.632,6.825-0.242,9.925c-0.49,1.735-4.441,1.232-5.802,1.352
				c-1.323,0.113-2.25,1.649-0.374,1.486c2.298-0.199,5.042-0.013,7.14-1.136c1.996-1.066,2.049-3.263,2.082-5.288
				c0.127-7.959-0.073-15.981-0.239-23.942c-0.064-3.123,0.179-7.247-1.799-9.906c-1.547-2.08-4.779-2.209-7.108-2.439
				C119.877,71.152,118.029,72.598,119.851,72.777L119.851,72.777z"/>
		</g>
		<g>
			<linearGradient id="SVGID_7_" gradientUnits="userSpaceOnUse" x1="70.6758" y1="52.4609" x2="77.6704" y2="52.4609">
				<stop  offset="0" style="stop-color:#5AFF45"/>
				<stop  offset="0.9997" style="stop-color:#00FFD7"/>
				<stop  offset="1" style="stop-color:#00FFD7"/>
			</linearGradient>
			<path fill="url(#SVGID_7_)" d="M74.393,46.911c-1.373,1.491-3.695,3.429-3.717,5.659c-0.023,2.342,3.054,4.342,4.585,5.676
				c0.896,0.779,3.265-0.529,2.088-1.552c-1.321-1.148-3.423-2.519-3.915-4.315c-0.415-1.515,2.37-3.763,3.219-4.684
				C77.81,46.441,75.208,46.027,74.393,46.911L74.393,46.911z"/>
		</g>
		<g>
			<linearGradient id="SVGID_8_" gradientUnits="userSpaceOnUse" x1="80.6675" y1="53.0684" x2="87.0249" y2="53.0684">
				<stop  offset="0" style="stop-color:#5AFF45"/>
				<stop  offset="0.9997" style="stop-color:#00FFD7"/>
				<stop  offset="1" style="stop-color:#00FFD7"/>
			</linearGradient>
			<path fill="url(#SVGID_8_)" d="M84.356,45.204c-1.287,5.395-2.443,10.817-3.684,16.22c-0.124,0.541,2.515,0.15,2.665-0.492
				c1.239-5.403,2.396-10.828,3.684-16.222C87.147,44.178,84.511,44.56,84.356,45.204L84.356,45.204z"/>
		</g>
		<g>
			<linearGradient id="SVGID_9_" gradientUnits="userSpaceOnUse" x1="89.4248" y1="51.9209" x2="96.415" y2="51.9209">
				<stop  offset="0" style="stop-color:#5AFF45"/>
				<stop  offset="0.9997" style="stop-color:#00FFD7"/>
				<stop  offset="1" style="stop-color:#00FFD7"/>
			</linearGradient>
			<path fill="url(#SVGID_9_)" d="M89.504,47.4c1.445,1.186,4.067,2.853,4.193,4.945c0.099,1.645-2.805,3.74-3.772,4.785
				c-0.662,0.713,1.984,0.428,2.476-0.104c1.304-1.404,3.562-3.021,3.972-5.014c0.462-2.242-2.958-4.461-4.333-5.588
				C91.407,45.908,88.957,46.951,89.504,47.4L89.504,47.4z"/>
		</g>
	</g>
	<g>
		<linearGradient id="SVGID_10_" gradientUnits="userSpaceOnUse" x1="31.3779" y1="121.6211" x2="139.3198" y2="121.6211">
			<stop  offset="0" style="stop-color:#5AFF45"/>
			<stop  offset="0.9997" style="stop-color:#00FFD7"/>
			<stop  offset="1" style="stop-color:#00FFD7"/>
		</linearGradient>
		<path fill="url(#SVGID_10_)" d="M32.557,122c17.619,0.01,35.233,0.433,52.85,0.475c17.132,0.043,31.057,1.69,51.422-0.509
			c0.785-0.085,2.185-0.387,2.461-1.151c0.267-0.742-1.365-0.721-1.812-0.646c-16.921,2.826-34.326,0.479-51.413,0.438
			c-17.263-0.044-34.52-0.464-51.783-0.473C32.819,120.133,29.666,121.999,32.557,122L32.557,122z"/>
	</g>
</g>
</svg>
