<?xml version="1.0" encoding="utf-8"?>
<!-- Generator: Adobe Illustrator 15.0.0, SVG Export Plug-In . SVG Version: 6.00 Build 0)  -->
<!DOCTYPE svg PUBLIC "-//W3C//DTD SVG 1.1//EN" "http://www.w3.org/Graphics/SVG/1.1/DTD/svg11.dtd">
<svg version="1.1" id="Layer_1" xmlns="http://www.w3.org/2000/svg" xmlns:xlink="http://www.w3.org/1999/xlink" x="0px" y="0px"
	 width="170.697px" height="142.248px" viewBox="0 0 170.697 142.248" enable-background="new 0 0 170.697 142.248"
	 xml:space="preserve">
<g>
	<linearGradient id="SVGID_1_" gradientUnits="userSpaceOnUse" x1="77.959" y1="60.7402" x2="104.1826" y2="60.7402">
		<stop  offset="0" style="stop-color:#5AFF45"/>
		<stop  offset="0.9997" style="stop-color:#00FFD7"/>
		<stop  offset="1" style="stop-color:#00FFD7"/>
	</linearGradient>
	<path fill="url(#SVGID_1_)" d="M81.147,45.026c0.331-1.812,0.984-3.497,2.542-4.592c1.583-1.115,4.199-0.387,5.878,0.088
		c3.869,1.096,7.759,3.684,9.903,7.13c2.307,3.709,1.495,8.602-0.054,12.415c-0.889,2.185-2.261,4.139-3.995,5.729
		c-2.358,2.163-5.05,1.821-7.668,0.33c-0.634-0.36-2.89-0.013-3.105,0.832c-1.304,5.139-1.353,10.49-1.354,15.761
		c-0.001,0.608,3.221,0.119,3.221-0.862c0.001-4.498,0.031-9.051,0.883-13.477c10.597,2.984,20.337-11.464,15.52-21.185
		c-3.989-8.05-22.705-13.947-24.952-1.629C77.809,46.412,80.996,45.857,81.147,45.026z"/>
	<linearGradient id="SVGID_2_" gradientUnits="userSpaceOnUse" x1="79.1357" y1="90.2539" x2="89.5327" y2="90.2539">
		<stop  offset="0" style="stop-color:#5AFF45"/>
		<stop  offset="0.9997" style="stop-color:#00FFD7"/>
		<stop  offset="1" style="stop-color:#00FFD7"/>
	</linearGradient>
	<path fill="url(#SVGID_2_)" d="M86.315,86.071c-0.978,0.03-1.969,0.268-2.9,0.557c-0.024,0.008-0.062,0.02-0.101,0.03
		c-1.248,0.3-2.431,0.876-3.309,1.745c-1.278,1.267-0.996,3.068-0.125,4.463c1.421,2.28,4.328,1.739,6.344,0.561
		c1.562-0.913,2.867-2.637,3.229-4.42c0.158-0.779,0.103-1.496-0.382-2.139C88.474,86.075,87.199,86.046,86.315,86.071z
		 M84.958,92.188c-0.118,0.14-0.244,0.272-0.374,0.403c-0.04,0.042-0.273,0.25-0.285,0.266c-0.045,0.037-0.095,0.067-0.143,0.103
		c-0.031-0.009-0.06-0.017-0.074-0.022c0.006,0.003-0.231-0.146-0.307-0.202c-0.759-0.553-1.206-1.569-1.4-2.456
		c-0.161-0.739,0.07-1.493,0.562-2.053c0.136-0.153,0.3-0.27,0.481-0.357c0.06-0.012,0.169-0.036,0.252-0.04
		c0.213-0.014,0.438,0.034,0.646,0.063c0.434,0.062,0.945-0.024,1.415-0.188c0.269,0.194,0.476,0.546,0.55,0.942
		C86.516,89.88,85.717,91.282,84.958,92.188z"/>
	<linearGradient id="SVGID_3_" gradientUnits="userSpaceOnUse" x1="10.6147" y1="71.124" x2="160.0825" y2="71.124">
		<stop  offset="0" style="stop-color:#5AFF45"/>
		<stop  offset="0.9997" style="stop-color:#00FFD7"/>
		<stop  offset="1" style="stop-color:#00FFD7"/>
	</linearGradient>
	<path fill="url(#SVGID_3_)" d="M158.666,109.118c-35.175,0-70.349,0-105.524,0c1.98-1.572,3.88-3.23,5.618-5.055
		c20.307,8.742,47.126,6.014,59.425-14.275c6.435-10.614,8.228-23.633,4.676-35.521c-3.223-10.783-10.994-19.921-20.842-25.247
		c-17.697-9.571-41.563-4.417-54.134,11.107c-12.73,15.721-12.521,39.197-4.256,56.852c-0.46,4.182-1.082,8.177-1.977,12.139
		c-9.127,0-18.256,0-27.384,0c-1.646,0-5.83,2.494-2.235,2.494c9.656,0,19.312,0,28.969,0c0.015,0,0.032-0.002,0.047-0.003
		c-0.529,2.057-1.132,4.114-1.849,6.19c-0.237,0.688,2.7-0.203,3.029-0.465c2.475-1.969,5.087-3.819,7.656-5.725
		c0.011,0,0.021,0.002,0.032,0.002c35.504,0,71.009,0,106.514,0C158.077,111.612,162.26,109.118,158.666,109.118z M55.701,34.632
		c9.534-8.521,22.968-11.051,35.175-7.797c11.42,3.044,20.927,11.466,26.212,21.902c7.907,15.612,4.825,36.004-7.373,48.588
		c-12.975,13.385-33.829,12.343-49.583,4.935c-0.788-0.369-2.565,0.197-3.104,0.833c-2.235,2.632-4.854,4.895-7.599,7.021
		c-0.243,0.156-0.456,0.316-0.616,0.473c-1.862,1.422-3.772,2.789-5.654,4.171c0.494-1.592,0.926-3.176,1.316-4.761
		c0.163-0.199,0.222-0.384,0.136-0.532c1.033-4.321,1.718-8.662,2.225-13.237c0.02-0.039,0.028-0.077,0.013-0.11
		C37.637,76.444,38.664,49.859,55.701,34.632z"/>
	<linearGradient id="SVGID_4_" gradientUnits="userSpaceOnUse" x1="58.2559" y1="70.1895" x2="76.6338" y2="70.1895">
		<stop  offset="0" style="stop-color:#5AFF45"/>
		<stop  offset="0.9997" style="stop-color:#00FFD7"/>
		<stop  offset="1" style="stop-color:#00FFD7"/>
	</linearGradient>
	<path fill="url(#SVGID_4_)" d="M76.615,80.12c0.3-1.515-2.984-1.064-3.251,0.285c-1.153,5.828-8.875,0.922-10.8-1.932
		c-2.733-4.052,1.196-14.318,6.827-11.232c0.94,0.517,2.6,0.106,2.877-1.033c0.81-3.324,0.867-6.738,0.869-10.145
		c0.001-1.61-3.25-1.059-3.251,0.286c-0.002,2.758-0.046,5.521-0.491,8.236c-7.136-1.214-13.86,8.231-10.022,14.863
		C62.616,85.053,74.879,88.886,76.615,80.12z"/>
	<linearGradient id="SVGID_5_" gradientUnits="userSpaceOnUse" x1="67.9395" y1="51.0176" x2="75.8154" y2="51.0176">
		<stop  offset="0" style="stop-color:#5AFF45"/>
		<stop  offset="0.9997" style="stop-color:#00FFD7"/>
		<stop  offset="1" style="stop-color:#00FFD7"/>
	</linearGradient>
	<path fill="url(#SVGID_5_)" d="M69.984,53.909c1.011-0.03,1.979-0.276,2.94-0.575c0.012-0.003,0.039-0.013,0.071-0.026
		c1.975-0.596,3.631-1.942,2.393-4.056c-1.072-1.831-3.572-1.06-5.091-0.271c-1.088,0.564-2.009,1.721-2.279,2.919
		c-0.106,0.467-0.146,0.987,0.156,1.392C68.589,53.843,69.34,53.929,69.984,53.909z M71.911,49.778
		c0.354,0.371,0.579,0.91,0.682,1.383c0.101,0.457-0.033,0.871-0.291,1.24c-0.276-0.013-0.562,0.016-0.844,0.074
		c-0.148-0.129-0.231-0.3-0.279-0.555C71.039,51.184,71.455,50.388,71.911,49.778z"/>
</g>
</svg>
