<?xml version="1.0" encoding="utf-8"?>
<!-- Generator: Adobe Illustrator 15.0.0, SVG Export Plug-In . SVG Version: 6.00 Build 0)  -->
<!DOCTYPE svg PUBLIC "-//W3C//DTD SVG 1.1//EN" "http://www.w3.org/Graphics/SVG/1.1/DTD/svg11.dtd">
<svg version="1.1" id="Layer_1" xmlns="http://www.w3.org/2000/svg" xmlns:xlink="http://www.w3.org/1999/xlink" x="0px" y="0px"
	 width="170.697px" height="142.248px" viewBox="0 0 170.697 142.248" enable-background="new 0 0 170.697 142.248"
	 xml:space="preserve">
<g>
	<linearGradient id="SVGID_1_" gradientUnits="userSpaceOnUse" x1="75.2163" y1="49.0352" x2="94.3164" y2="49.0352">
		<stop  offset="0" style="stop-color:#5AFF45"/>
		<stop  offset="0.9997" style="stop-color:#00FFD7"/>
		<stop  offset="1" style="stop-color:#00FFD7"/>
	</linearGradient>
	<path fill="url(#SVGID_1_)" d="M78.361,58.273c1.065-2.518,2.101-5.046,3.127-7.578c1.923-0.076,3.844,0.012,5.77,0.034
		c1.282,2.893,2.329,5.831,3.899,8.611c0.581,1.029,3.572-0.02,3.112-0.834c-1.602-2.836-2.714-5.809-3.98-8.795
		c-1.511-3.562-2.183-7.542-4.084-10.92c-0.568-1.011-2.745-0.28-3.109,0.619c-2.606,6.426-5.14,12.881-7.843,19.267
		C74.852,59.628,77.939,59.269,78.361,58.273z M86.384,48.702c-1.359-0.029-2.719-0.056-4.08-0.014
		c0.756-1.874,1.508-3.749,2.263-5.625C85.196,44.932,85.676,46.858,86.384,48.702z"/>
	<linearGradient id="SVGID_2_" gradientUnits="userSpaceOnUse" x1="52.6235" y1="92.3711" x2="65.2485" y2="92.3711">
		<stop  offset="0" style="stop-color:#5AFF45"/>
		<stop  offset="0.9997" style="stop-color:#00FFD7"/>
		<stop  offset="1" style="stop-color:#00FFD7"/>
	</linearGradient>
	<path fill="url(#SVGID_2_)" d="M52.893,103.495c4.462,0.676,10.477-0.588,12.039-5.443c1.34-4.167-1.791-6.555-5.285-7.328
		c1.776-0.879,3.094-2.4,3.198-4.702c0.206-4.581-4.349-5.61-7.881-4.577c-0.462,0.135-0.787,0.29-0.989,0.438
		c-0.394,0.163-0.679,0.374-0.679,0.622c0,6.952-0.034,13.907-0.671,20.834C52.682,103.439,52.772,103.491,52.893,103.495z
		 M61.037,100.4c-0.709,1.114-1.883,1.942-3.195,2.099c-1.724,0.206-2.079-0.203-1.939-1.902c0.107-1.293,0.179-2.588,0.246-3.882
		c0.088-1.66,0.139-3.321,0.177-4.983C60.559,92.374,63.861,95.968,61.037,100.4z M57.144,90.444c-0.202,0-0.404,0.003-0.6,0.013
		c-0.045,0.002-0.114,0.015-0.194,0.031c0.05-2.776,0.057-5.555,0.056-8.331C60.166,82.501,61.132,90.048,57.144,90.444z"/>
	<linearGradient id="SVGID_3_" gradientUnits="userSpaceOnUse" x1="102.9595" y1="92.5449" x2="120.0342" y2="92.5449">
		<stop  offset="0" style="stop-color:#5AFF45"/>
		<stop  offset="0.9997" style="stop-color:#00FFD7"/>
		<stop  offset="1" style="stop-color:#00FFD7"/>
	</linearGradient>
	<path fill="url(#SVGID_3_)" d="M110.99,104.646c3.746,0.725,7.436-1.293,9.026-4.67c0.274-0.584-2.688-0.312-3.079,0.518
		c-3.229,6.858-9.484-0.554-10.58-4.914c-0.758-3.013-0.183-5.98,1.213-8.69c0.727-1.413,1.713-2.669,2.823-3.799
		c1.906-1.941,3.655-1.556,5.182,0.535c0.591,0.809,3.41-0.428,3.112-0.834c-2.614-3.579-6.773-2.912-10.032-0.478
		c-3.964,2.964-6.109,7.971-5.63,12.836C103.455,99.495,106.572,103.791,110.99,104.646z"/>
	<linearGradient id="SVGID_4_" gradientUnits="userSpaceOnUse" x1="15.5825" y1="71.123" x2="155.1143" y2="71.123">
		<stop  offset="0" style="stop-color:#5AFF45"/>
		<stop  offset="0.9997" style="stop-color:#00FFD7"/>
		<stop  offset="1" style="stop-color:#00FFD7"/>
	</linearGradient>
	<path fill="url(#SVGID_4_)" d="M152.994,111.364c-4.779,0.744-9.616,0.756-14.439,0.802c-3.271,0.031-6.541,0.073-9.812,0.109
		c2.545-1.154,3.307-3.946,3.643-6.963c0.526-4.71,0.156-9.534,0.249-14.267c0.079-4.053-0.25-8.11-0.458-12.156
		c-0.146-2.903,0.935-6.071-1.71-8.102c-1.735-1.332-4.942-0.573-6.926-0.583c-1.349-0.006-2.697-0.077-4.044-0.126
		c-4.542-0.162-9.086-0.261-13.63-0.133c-0.413,0.012-1.015,0.022-1.747,0.044c2.047-1.23,2.745-3.707,3.093-6.396
		c0.572-4.398,0.164-8.842,0.261-13.258c0.084-3.845-0.014-7.654-0.226-11.494c-0.101-1.849-0.259-3.692-0.146-5.543
		c0.097-1.612,0.236-3.078-0.595-4.525c-1.776-3.09-8.218-1.658-11.312-1.77c-4.619-0.167-9.241-0.285-13.863-0.177
		c-3.393,0.079-19.676,0.028-18.402,6.524c-0.469,6.775,0.073,13.569-0.281,20.348c-0.235,4.501-0.47,9.2,0.533,13.627
		c0.285,1.256,0.74,2.084,1.33,2.64c-3.315-0.085-6.631-0.114-9.948-0.021c-3.361,0.095-19.096,0.131-17.846,6.51
		c-0.47,6.775,0.072,13.568-0.282,20.346c-0.234,4.501-0.469,9.202,0.534,13.628c0.337,1.485,0.903,2.379,1.651,2.918
		c-6.275,0.036-12.55,0.061-18.826,0.062c-1.24,0-2.603,0.33-3.668,0.982c-0.818,0.503-0.709,1.088,0.292,1.087
		c22.429-0.003,44.856-0.261,67.283-0.581c11.469-0.164,22.938-0.332,34.407-0.474c11.235-0.139,22.764,0.528,33.903-1.207
		c0.862-0.136,2.583-0.516,3.046-1.393C155.492,111.006,153.209,111.331,152.994,111.364z M111.336,71.271
		c3.335,0.049,6.667,0.23,10,0.293c2.541,0.046,5.944-0.952,7.467,1.699c0.64,1.114,0.363,2.764,0.278,3.974
		c-0.153,2.178,0.082,4.378,0.202,6.554c0.328,5.969,0.257,11.981,0.216,17.961c-0.018,2.437-0.138,4.9-0.752,7.269
		c-0.229,0.88-0.597,1.741-1.204,2.425c-0.467,0.524-3.57,0.444-4.344,0.537c-4.61,0.556-9.301,0.359-13.938,0.458
		c-2.293,0.049-4.586,0.111-6.879,0.169c-3.063,0.043-6.129,0.088-9.193,0.132c-3.331-0.648-2.509-12.386-2.442-14.435
		c0.248-7.496-0.129-15.039,0.375-22.521c0.016-0.054,0.02-0.107,0.009-0.162C90.037,70.037,108.369,71.228,111.336,71.271z
		 M86.244,28.169c3.335,0.048,6.667,0.229,10.001,0.291c2.541,0.047,5.943-0.951,7.466,1.699c0.642,1.115,0.364,2.766,0.279,3.975
		c-0.153,2.178,0.083,4.379,0.203,6.554c0.322,5.862,0.221,11.749,0.22,17.62c0,2.48-0.09,4.971-0.524,7.416
		c-0.165,0.927-0.436,1.823-0.814,2.684c-0.622,1.408-1.681,1.159-3.075,1.322c-10.104,1.177-20.317,0.128-30.459-0.049
		c-2.541-0.045-3.009-1.896-3.454-4.174c-0.587-3.012-0.53-6.176-0.462-9.229c0.175-7.844-0.124-15.771,0.408-23.596
		c0.015-0.054,0.02-0.108,0.009-0.163C64.946,26.935,83.278,28.126,86.244,28.169z M60.033,71.271
		c3.334,0.049,6.666,0.23,10.001,0.293c2.541,0.046,5.943-0.952,7.465,1.699c0.641,1.114,0.364,2.764,0.279,3.974
		c-0.153,2.178,0.083,4.378,0.203,6.554c0.327,5.969,0.256,11.981,0.215,17.961c-0.017,2.437-0.138,4.9-0.752,7.269
		c-0.229,0.88-0.596,1.741-1.203,2.425c-0.467,0.524-3.57,0.444-4.344,0.537c-4.61,0.556-9.301,0.359-13.938,0.458
		c-5.255,0.112-10.511,0.296-15.767,0.331c-3.686,0.025-2.816-12.355-2.747-14.465c0.247-7.496-0.13-15.039,0.376-22.521
		c0.014-0.054,0.019-0.107,0.008-0.162C38.733,70.037,57.066,71.228,60.033,71.271z M73.157,113.015
		c0.771-0.073,1.54-0.145,2.318-0.227c4.155-0.438,5.197-3.791,5.607-7.476c0.526-4.71,0.157-9.534,0.249-14.267
		c0.078-4.053-0.251-8.11-0.457-12.156c-0.133-2.624,0.728-5.461-1.055-7.482c2.649,0.086,5.3,0.168,7.951,0.221
		c1.578,0.03,3.132-0.006,4.678-0.08c-2.874,0.941-4.909,2.454-4.428,4.908c-0.47,6.775,0.072,13.568-0.282,20.346
		c-0.234,4.501-0.47,9.202,0.535,13.628c0.24,1.062,0.597,1.82,1.053,2.366c-1.036,0.015-2.073,0.029-3.11,0.044
		C81.863,112.902,77.51,112.959,73.157,113.015z"/>
</g>
</svg>
