<?xml version="1.0" encoding="utf-8"?>
<!-- Generator: Adobe Illustrator 15.0.0, SVG Export Plug-In . SVG Version: 6.00 Build 0)  -->
<!DOCTYPE svg PUBLIC "-//W3C//DTD SVG 1.1//EN" "http://www.w3.org/Graphics/SVG/1.1/DTD/svg11.dtd">
<svg version="1.1" id="Layer_1" xmlns="http://www.w3.org/2000/svg" xmlns:xlink="http://www.w3.org/1999/xlink" x="0px" y="0px"
	 width="170.697px" height="142.248px" viewBox="0 0 170.697 142.248" enable-background="new 0 0 170.697 142.248"
	 xml:space="preserve">
<linearGradient id="SVGID_1_" gradientUnits="userSpaceOnUse" x1="14.7246" y1="71.125" x2="155.9727" y2="71.125">
	<stop  offset="0" style="stop-color:#5AFF45"/>
	<stop  offset="0.9997" style="stop-color:#00FFD7"/>
	<stop  offset="1" style="stop-color:#00FFD7"/>
</linearGradient>
<path fill="url(#SVGID_1_)" d="M154.532,116.338c-22.085,0-44.171,0-66.256,0c0.191-0.057,0.385-0.113,0.578-0.187
	c2.886-1.106,5.366-3.594,7.78-5.488c5.591-4.389,11.406-9.019,15.587-14.832c1.705-2.373,3.187-4.994,3.476-7.952
	c0.311-3.159-1.525-5.395-3.549-7.572c-0.395-0.424-0.806-0.834-1.207-1.252c1.457-2.187,3.657-3.853,5.528-5.665
	c2.009-1.945,4.084-3.823,6.112-5.747c4.184-3.968,9.395-7.045,12.58-11.967c3.616-5.594-0.666-10.918-4.609-14.943
	c-2.525-2.58-5.463-4.656-8.238-6.945c-3.379-2.786-6.547-5.812-10.005-8.506c-5.576-4.347-10.626-2.245-15.266,2.305
	c-5.865,5.753-11.94,11.369-17.676,17.254c-6.704-5.269-11.928-11.916-18.263-17.573c-4.26-3.804-9.875-5.457-14.553-2.225
	c-0.404,0.004-0.814,0.103-1.144,0.332c-2.981,2.061-5.036,5.083-7.861,7.322c-3.254,2.58-6.364,5.184-9.314,8.108
	c-4.292,4.255-10.068,9.541-7.436,16.15c2.65,6.652,7.914,11.843,13.123,16.558c2.773,2.512,5.637,4.92,8.378,7.466
	c0.815,0.757,1.533,1.421,2.463,2.021c0.417,0.271,1.481,0.815,2.045,1.194c-1.451,1.752-2.596,3.677-3.175,5.397
	c-0.097,0.286-0.089,0.522-0.021,0.722c-1.505,4.784,3.263,8.866,6.536,11.617c2.178,1.829,4.532,3.408,6.649,5.316
	c1.731,1.558,3.175,3.39,4.925,4.928c1.279,1.125,2.927,2.818,4.741,4.163c-16.238,0-32.473,0-48.71,0
	c-1.058,0-2.346,0.279-2.891,1.312c-0.482,0.912,0.413,1.699,1.305,1.699c45.594,0,91.187,0,136.78,0
	c1.059,0,2.348-0.28,2.893-1.312C156.319,117.124,155.424,116.338,154.532,116.338z M103.332,24.922
	c3.592-2.271,9.667,4.696,12.076,6.818c2.879,2.534,5.898,4.86,8.842,7.308c4.94,4.105,11.806,10.524,7.479,17.217
	c-2.246,3.471-5.781,6.166-9.147,8.854c-9.876-10.178-21.317-18.708-29.935-30.097c0.42-0.402,0.844-0.799,1.258-1.205
	C96.943,30.854,99.723,27.205,103.332,24.922z M84.7,42.624c1.874-1.812,3.767-3.606,5.655-5.403
	c8.777,11.112,20.149,19.604,29.884,29.817c-0.552,0.472-1.091,0.948-1.606,1.434c-1.727,1.633-3.485,3.232-5.191,4.887
	c-1.354,1.311-2.876,2.553-4.174,3.965c-6.571-6.579-13.87-12.5-20.444-19.073c0.286-0.348,0.569-0.698,0.863-1.039
	c0.883-1.026-2.426-0.725-3.066,0.019c-1.975,2.295-3.775,4.746-5.816,6.982c-2.066,2.267-4.578,4.121-6.689,6.38
	c-1.312,1.403-2.729,2.585-4.246,3.751c-0.115,0.09-2.622-2.78-2.88-3.058c-1.228-1.318-2.413-2.664-3.064-4.369
	c-0.982-2.573,0.599-4.222,2.25-5.991C72.083,54.595,78.474,48.646,84.7,42.624z M33.338,68.616
	c0.104-0.062,0.195-0.126,0.256-0.195c5.493-6.293,11.774-11.811,17.691-17.69c4.828-4.799,8.83-10.419,13.975-14.89
	c0.313,0.327,0.629,0.653,0.945,0.979c-5.676,4.555-10.027,10.508-15.038,15.738C45.64,58.33,39.559,63.519,34.174,69.429
	C33.894,69.159,33.615,68.888,33.338,68.616z M25.904,59.579c-1.863-3.014-3.217-5.989-1.779-9.438
	c1.276-3.062,4.054-5.533,6.374-7.812c2.952-2.898,6.008-5.518,9.261-8.074c2.833-2.229,4.889-5.268,7.859-7.323
	c0.574-0.397,0.71-0.788,0.585-1.11c4.537-4.052,11.14,3.646,14.037,6.799c0.548,0.597,1.1,1.19,1.654,1.782
	c-5.705,4.561-10.07,10.538-15.097,15.786c-5.528,5.772-11.608,10.961-16.995,16.871C29.612,64.765,27.594,62.313,25.904,59.579z
	 M39.733,74.459c-1.326-1.162-2.648-2.328-3.947-3.521c0.07-0.048,0.131-0.096,0.177-0.148c5.493-6.293,11.774-11.811,17.69-17.69
	c4.818-4.789,8.814-10.396,13.943-14.862c3.051,3.051,6.247,5.947,9.711,8.527c0.029,0.021,0.066,0.036,0.103,0.051
	c-2.703,2.705-5.505,5.311-8.264,7.961c-2.828,2.713-6.021,5.518-8.2,8.79c-1.594,2.396-0.215,5.032,1.286,7.056
	c1.383,1.865,3.72,5.23,6.163,5.627c1.5,0.243,2.947-0.655,4.1-1.486c2.471-1.783,4.461-3.987,6.556-6.179
	c1.645-1.719,3.604-3.061,5.213-4.825c0.895-0.981,1.737-2.014,2.571-3.055c5.959,5.876,12.207,11.391,18.321,17.105
	c2.394,2.235,5.762,4.822,6.904,8.001c0.821,2.289-0.069,4.78-1.118,6.823c-2.781,5.42-7.962,9.74-12.564,13.569
	c-2.124,1.767-4.31,3.46-6.488,5.159c-0.816,0.639-1.633,1.279-2.438,1.934c-2.868,2.332-5.82,0.145-7.948-1.958
	c0.545-0.778,1.034-1.566,1.457-2.339c2.521-4.605-1.511-8.613-4.693-11.66c-2.295-2.196-4.792-4.207-6.935-6.555
	c-1.788-1.957-3.48-3.992-5.313-5.906c-2.939-3.075-7.029-7.165-11.697-6.047c-1.807,0.433-3.664,1.589-5.331,3.084
	c-0.843-0.531-1.88-0.98-2.474-1.377C44.081,78.911,41.946,76.397,39.733,74.459z M63.093,109.136
	c-2.772-2.908-5.638-5.457-8.833-7.9c-2.715-2.075-8.797-6.477-7.451-10.589c0.091-0.278,0.086-0.509,0.022-0.704
	c0.647-1.878,1.893-3.447,3.18-4.932c1.146-1.324,3.534-4.024,5.511-3.916c1.883,0.104,3.722,1.827,5.077,2.977
	c1.901,1.612,3.57,3.506,5.216,5.372c2.556,2.895,5.223,5.524,8.079,8.127c2.947,2.685,8.033,6.627,5.887,11.021
	c-0.874,1.789-2.293,3.339-3.687,4.734c-0.789,0.79-2.881,2.929-4.159,2.584C68.812,115.069,65.297,111.448,63.093,109.136z
	 M79.57,113.759c1.364,1.156,2.903,2.114,4.557,2.579c-2.468,0-4.937,0-7.405,0C77.746,115.596,78.699,114.714,79.57,113.759z"/>
</svg>
