<?xml version="1.0" encoding="utf-8"?>
<!-- Generator: Adobe Illustrator 15.0.0, SVG Export Plug-In . SVG Version: 6.00 Build 0)  -->
<!DOCTYPE svg PUBLIC "-//W3C//DTD SVG 1.1//EN" "http://www.w3.org/Graphics/SVG/1.1/DTD/svg11.dtd">
<svg version="1.1" id="Layer_1" xmlns="http://www.w3.org/2000/svg" xmlns:xlink="http://www.w3.org/1999/xlink" x="0px" y="0px"
	 width="170.697px" height="142.248px" viewBox="0 0 170.697 142.248" enable-background="new 0 0 170.697 142.248"
	 xml:space="preserve">
<g>
	<linearGradient id="SVGID_1_" gradientUnits="userSpaceOnUse" x1="114.7676" y1="33.9746" x2="120.8594" y2="33.9746">
		<stop  offset="0" style="stop-color:#5AFF45"/>
		<stop  offset="0.9997" style="stop-color:#00FFD7"/>
		<stop  offset="1" style="stop-color:#00FFD7"/>
	</linearGradient>
	<path fill="url(#SVGID_1_)" d="M115.778,37.735c1.833-0.079,3.685-0.755,4.527-2.497c0.666-1.377,0.657-3.033,0.365-4.507
		c-0.217-1.099-3.527-0.283-3.295,0.884c0.177,0.897,0.215,1.78,0.078,2.686c-0.061,0.4-0.186,0.784-0.339,1.157
		c-0.062,0.153-0.181,0.341-0.294,0.46c-0.007,0.008-0.009,0.01-0.016,0.018c-0.697,0.066-1.494,0.288-1.909,0.87
		C114.452,37.428,115.268,37.757,115.778,37.735z"/>
	<linearGradient id="SVGID_2_" gradientUnits="userSpaceOnUse" x1="117.1523" y1="43.6143" x2="125.874" y2="43.6143">
		<stop  offset="0" style="stop-color:#5AFF45"/>
		<stop  offset="0.9997" style="stop-color:#00FFD7"/>
		<stop  offset="1" style="stop-color:#00FFD7"/>
	</linearGradient>
	<path fill="url(#SVGID_2_)" d="M117.592,44.47c2.685,1.676,5.815,1.157,7.992-1.087c0.533-0.55,0.292-1.289-0.406-1.518
		c-0.798-0.26-1.756,0.033-2.33,0.625c-0.888,0.915-1.658,0.786-2.701,0.135C118.978,41.895,116.048,43.505,117.592,44.47z"/>
	<linearGradient id="SVGID_3_" gradientUnits="userSpaceOnUse" x1="47.7876" y1="28.25" x2="54.9321" y2="28.25">
		<stop  offset="0" style="stop-color:#5AFF45"/>
		<stop  offset="0.9997" style="stop-color:#00FFD7"/>
		<stop  offset="1" style="stop-color:#00FFD7"/>
	</linearGradient>
	<path fill="url(#SVGID_3_)" d="M51.78,32.791c0.686,0.537,3.522-0.774,3.112-1.096c-2.486-1.95-4.21-4.748-3.728-7.99
		c0.045-0.301-3.153-0.077-3.296,0.884C47.372,27.926,49.239,30.799,51.78,32.791z"/>
	<linearGradient id="SVGID_4_" gradientUnits="userSpaceOnUse" x1="45.1035" y1="34.1426" x2="51.9277" y2="34.1426">
		<stop  offset="0" style="stop-color:#5AFF45"/>
		<stop  offset="0.9997" style="stop-color:#00FFD7"/>
		<stop  offset="1" style="stop-color:#00FFD7"/>
	</linearGradient>
	<path fill="url(#SVGID_4_)" d="M49.314,37.27c0.793,0.217,1.765-0.007,2.33-0.625c0.492-0.535,0.334-1.283-0.397-1.484
		c-1.487-0.406-2.767-1.59-2.816-3.217c-0.05-1.652-3.368-1.071-3.327,0.293C45.18,34.762,46.917,36.613,49.314,37.27z"/>
	<linearGradient id="SVGID_5_" gradientUnits="userSpaceOnUse" x1="61.564" y1="58.2051" x2="106.7847" y2="58.2051">
		<stop  offset="0" style="stop-color:#5AFF45"/>
		<stop  offset="0.9997" style="stop-color:#00FFD7"/>
		<stop  offset="1" style="stop-color:#00FFD7"/>
	</linearGradient>
	<path fill="url(#SVGID_5_)" d="M77.001,75.122c1.094,0.339,2.108,0.72,3.19,0.98c-0.078,1.079-0.203,2.151-0.257,3.232
		c-0.031,0.608,0.511,0.926,1.067,0.955c3.699,0.195,9.609,0.673,9.646-4.054c1.58-0.522,3.115-1.146,4.396-2.139
		c0.262,0.281,0.513,0.575,0.771,0.894c0.578,0.712,1.957,0.448,2.585-0.036c1.507-1.16,3.116-2.242,4.188-3.846
		c1.008-1.504-1.161-2.836-2.514-3.678c1.072-1.512,2.118-3.138,2.671-4.89c-0.196-0.017-0.391-0.032-0.586-0.048
		c0.324,0.031,0.65,0.042,0.975,0.031c0.564-0.053,1.214-0.227,1.682-0.554c2.382-1.669,1.845-5.19,1.969-7.689
		c0.029-0.587-0.51-0.955-1.067-0.955c-1.903,0.002-4.082,0.333-4.295-2.083c-0.062-0.719-0.214-1.406-0.362-2.112
		c-0.294-1.407,0.833-2.325,1.756-3.144c0.32-0.286,0.406-0.76,0.156-1.111c-1.392-1.956-3.826-5.556-6.674-4.792
		c-0.606,0.163-1.123,0.469-1.596,0.871c-0.582,0.496-1.767,0.048-2.537-0.118c-0.986-0.216-1.99-0.441-2.731-1.184
		c-0.446-0.447-0.281-2.305-0.383-2.923c-0.104-0.621-1.009-0.687-1.475-0.664c-2.306,0.114-4.966-0.562-7.015,0.872
		c-1.308,0.916-1.316,1.872-1.172,3.151c-1.047,0.448-2.078,0.936-3.133,1.362c-2.438-1.693-4.153-2.371-6.871-0.004
		c-0.964,0.839-3.421,2.388-3.372,3.932c0.061,1.853,1.493,2.528,2.687,3.696c-0.961,1.388-1.921,3.312-3.453,3.569
		c-1.314,0.221-2.377,0.718-3.151,1.812c-1.366,1.932,0.326,5.801,0.44,7.902c0.031,0.589,1.069,0.73,1.474,0.665
		c0.495-0.081,2.636-0.722,2.95-0.377c0.462,0.508,0.674,1.414,0.903,2.042c0.682,1.861,0.789,2.727-0.809,4.02
		c-3.009,2.435,3.478,5.916,4.779,7.197c0.75,0.737,2.213,0.447,2.875-0.286C75.875,74.332,75.263,74.584,77.001,75.122z
		 M73.493,73.311c-0.502-0.4-1.023-0.777-1.561-1.154c-0.575-0.403-2.745-2.158-2.197-2.514c1.31-0.848,2.222-2.137,2.012-3.74
		c-0.208-1.574-0.921-3.307-1.757-4.648c-0.803-1.29-2.758-1.023-4.299-0.711c-0.361-1.949-1.223-5.613-0.084-5.805
		c3.39-0.567,4.259-3.176,6.351-5.543c0.264-0.299,0.462-0.758,0.157-1.11c-1.138-1.317-3.75-2.296-1.972-4.111
		c0.4-0.349,0.801-0.696,1.205-1.042c0.575-0.31,0.933-0.535,1.094-0.684c0.666,0.429,1.287,1.023,1.915,1.476
		c0.038,0.026,0.082,0.044,0.124,0.065c0.298,0.218,0.785,0.287,1.435,0.061c2.026-0.709,3.922-1.693,5.928-2.445
		c0.549-0.205,1.009-0.711,0.945-1.312c-0.137-1.271-0.725-1.862,0.951-1.863c0.707-0.001,1.408,0.036,2.111,0.055
		c0.192,1.621,0.13,2.688,1.797,3.759c1.531,0.982,3.506,0.898,5.201,1.322c0.739,0.186,1.433,0.022,2.163-0.126
		c0.353-0.118,0.698-0.255,1.034-0.412c0.42-0.179,0.623-0.253,0.659-0.316c1.059,0.761,2.044,2.085,2.82,3.174
		c-0.814,0.763-1.848,1.872-1.867,2.793c-0.029,1.468,0.406,2.897,0.534,4.36c0.209,2.37,3.15,2.668,5.239,2.701
		c-0.025,1.044-0.026,2.086-0.118,3.129c-0.063,0.713-0.881,1.555,0.04,1.609c-0.49-0.029-0.941-0.07-1.423,0.05
		c-0.948,0.237-1.682,0.645-2.167,1.548c-1.076,1.998-1.874,3.995-3.225,5.866c-0.27,0.374-0.037,0.804,0.277,1.034
		c0.851,0.626,3.218,1.469,2.232,2.588c-0.357,0.404-0.774,0.759-1.208,1.096c-0.42-0.426-0.862-0.824-1.357-1.202
		c-0.85-0.647-2.329-0.003-2.846,0.762c-1.085,1.604-3.241,2.093-4.977,2.626c-0.656,0.201-1.488,0.658-1.374,1.466
		c0.368,2.581-1.973,2.3-3.965,2.071c0.081-1.042,0.199-2.079,0.248-3.124c0.029-0.644-0.514-0.877-1.067-0.955
		c-2.233-0.315-4.23-1.608-6.508-1.691C74.979,72.375,74.191,72.757,73.493,73.311z"/>
	<linearGradient id="SVGID_6_" gradientUnits="userSpaceOnUse" x1="72.6357" y1="58.1182" x2="97.0156" y2="58.1182">
		<stop  offset="0" style="stop-color:#5AFF45"/>
		<stop  offset="0.9997" style="stop-color:#00FFD7"/>
		<stop  offset="1" style="stop-color:#00FFD7"/>
	</linearGradient>
	<path fill="url(#SVGID_6_)" d="M96.899,58.978c0.557-4.177-0.909-7.585-3.953-10.347c-2.521-2.288-5.368-2.745-8.606-2.323
		c-5.907,0.22-10.919,5.458-11.604,11.269c-0.879,7.457,4.105,12.412,11.3,12.492C90.958,70.146,96.004,65.702,96.899,58.978z
		 M76.171,60.574c-0.438-2.206-0.223-4.512,0.575-6.603c0.902-2.366,3.313-5.796,6.127-6.097c0.066-0.003,0.142-0.012,0.216-0.02
		c0.171-0.008,0.343-0.01,0.517,0.006c0.178,0.018,0.461-0.039,0.775-0.136c10.935-0.427,13.131,19.7,1.681,20.776
		C80.82,68.996,77.14,65.467,76.171,60.574z"/>
	<linearGradient id="SVGID_7_" gradientUnits="userSpaceOnUse" x1="78.7017" y1="58.2246" x2="90.7251" y2="58.2246">
		<stop  offset="0" style="stop-color:#5AFF45"/>
		<stop  offset="0.9997" style="stop-color:#00FFD7"/>
		<stop  offset="1" style="stop-color:#00FFD7"/>
	</linearGradient>
	<path fill="url(#SVGID_7_)" d="M86.403,63.936c6.927-1.345,4.959-12.438-1.877-11.498c-0.11,0.015-0.232,0.039-0.356,0.068
		c-0.031,0.007-0.06,0.007-0.091,0.013c-3.306,0.654-5.617,3.265-5.357,6.678C79.006,62.928,83.158,64.565,86.403,63.936z
		 M84.337,54.588c2.853-0.123,4.662,6.492,1.861,7.286C82.109,63.031,80.293,55.725,84.337,54.588z"/>
	<linearGradient id="SVGID_8_" gradientUnits="userSpaceOnUse" x1="18.0581" y1="71.3135" x2="152.6392" y2="71.3135">
		<stop  offset="0" style="stop-color:#5AFF45"/>
		<stop  offset="0.9997" style="stop-color:#00FFD7"/>
		<stop  offset="1" style="stop-color:#00FFD7"/>
	</linearGradient>
	<path fill="url(#SVGID_8_)" d="M151.285,112.479c-20.251,1.408-40.608,0.445-60.826,2.417c-0.415,0.041-0.83,0.072-1.245,0.11
		c0.611-0.855,0.942-1.915,0.908-3.095c0.978-0.403,1.854-0.86,2.569-1.345c5.221-3.526,3.004-12.241,2.39-17.346
		c-0.024-0.207-0.093-0.381-0.181-0.537c0.071-1.758,0.082-3.324,1.762-4.482c1.221-0.841,2.612-1.411,3.849-2.233
		c3.017-2.006,5.744-4.772,7.98-7.603c4.877-6.174,7.753-13.41,8.097-21.295c0.28-6.433-1.319-13.133-3.968-18.963
		c-2.641-5.813-6.975-9.539-12.938-11.732c-12.426-4.57-27.964-2.608-38.555,5.502c-9.677,7.411-12.279,20.212-9.814,31.652
		c1.358,6.3,4.266,11.709,8.99,16.092c4.342,4.029,13.665,9.307,12.766,16.201c-0.032,0.248,0.047,0.433,0.193,0.566
		c0.046,5.126-1.122,10.838,2.6,14.782c1.139,1.208,2.749,1.876,4.551,2.153c0.071,0.902,0.355,1.673,0.809,2.283
		c-19.543,1.154-39.129,0.225-58.703,0.878c-1.331,0.044-2.733,0.339-3.884,1.04c-0.845,0.516-0.772,1.177,0.305,1.141
		c22.667-0.756,45.4,0.707,68.011-1.52c20.589-2.027,41.31-1.098,61.937-2.533C150.277,114.516,154.904,112.226,151.285,112.479z
		 M86.335,114.461c-0.294,0.373-0.543,0.474-0.832,0.507c-0.876,0.101-1.455-0.716-1.681-1.542c1.006-0.078,2.018-0.239,3-0.467
		C86.802,113.494,86.666,114.042,86.335,114.461z M91.964,94.537c0.256,1.161,0.326,2.866,0.368,4.012
		c-5.298,0.018-10.584,0.406-15.882,0.461c0.078-1.759,0.172-3.518,0.031-5.231c1.787-0.049,3.571-0.129,5.356-0.238
		c1.471-0.089,2.94-0.196,4.41-0.294c1.553-0.104,3.693-0.632,5.125,0.076c0.073,0.037,0.139,0.105,0.202,0.188
		c-0.008,0.107-0.015,0.215-0.023,0.326C91.527,94.179,91.696,94.404,91.964,94.537z M76.383,101.095
		c5.372-0.103,10.736-0.491,16.11-0.438c0.052,0.539,0.09,1.082,0.115,1.626c-5.405,0.029-10.81,0.152-16.214,0.282
		C76.376,102.077,76.375,101.587,76.383,101.095z M65.257,79.957c-5.603-4.744-8.961-10.16-10.649-17.312
		c-3.139-13.299,1.78-27.158,14.468-33.178c12.745-6.046,32.757-5.054,39.904,8.81c7.247,14.06,5.065,31.043-5.867,42.475
		c-2.551,2.668-5.422,4.436-8.536,6.32c-2.07,1.252-2.619,2.73-2.851,4.65c-0.895,0.035-1.747,0.156-2.238,0.182
		c-4.42,0.232-8.817,0.605-13.245,0.65C75.081,87.26,69.083,83.196,65.257,79.957z M77.094,106.814
		c-0.285-0.843-0.464-1.703-0.572-2.577c5.369-0.128,10.738-0.245,16.108-0.257c-0.047,1.494-0.274,2.971-0.832,4.372
		c-0.491,1.235-1.363,2.087-2.421,2.658c-0.717-0.124-1.759,0.196-2.263,0.782c-1.312,0.256-2.702,0.261-3.953,0.123
		c-0.261-0.123-0.589-0.167-0.927-0.147C79.643,111.196,77.943,109.329,77.094,106.814z"/>
</g>
</svg>
