<?xml version="1.0" encoding="utf-8"?>
<!-- Generator: Adobe Illustrator 15.0.0, SVG Export Plug-In . SVG Version: 6.00 Build 0)  -->
<!DOCTYPE svg PUBLIC "-//W3C//DTD SVG 1.1//EN" "http://www.w3.org/Graphics/SVG/1.1/DTD/svg11.dtd">
<svg version="1.1" id="Layer_1" xmlns="http://www.w3.org/2000/svg" xmlns:xlink="http://www.w3.org/1999/xlink" x="0px" y="0px"
	 width="170.697px" height="142.248px" viewBox="0 0 170.697 142.248" enable-background="new 0 0 170.697 142.248"
	 xml:space="preserve">
<g>
	<linearGradient id="SVGID_1_" gradientUnits="userSpaceOnUse" x1="63.564" y1="83.167" x2="84.1475" y2="83.167">
		<stop  offset="0" style="stop-color:#5AFF45"/>
		<stop  offset="0.9997" style="stop-color:#00FFD7"/>
		<stop  offset="1" style="stop-color:#00FFD7"/>
	</linearGradient>
	<path fill="url(#SVGID_1_)" d="M67.886,85.895c0.863,0.569-1.068,5.014-1.254,5.964c-0.235,1.211,3.417-0.16,3.846-0.507
		c1.29-1.04,2.325-3.411,3.953-2.481c1.756,1.004,2.997,2.094,5.096,2.108c0.448,0.003,4.022-0.656,3.231-1.527
		c-1.404-1.548-2.511-3.323-3.746-5.001c1.754-0.6,3.438-1.219,4.935-2.445c0.551-0.45-0.166-0.643-0.523-0.683
		c-2.127-0.242-3.747-0.483-5.722-1.386c-1.728-0.788-2.641-3.968-3.302-5.594c-0.361-0.895-3.854,0.076-4.037,0.901
		c-0.402,1.804-0.776,3.583-1.282,5.349c-0.864,0.091-1.729,0.199-2.614,0.254c-0.41,0.025-3.514,0.708-2.794,1.516
		C64.924,83.769,66.317,84.859,67.886,85.895z M79.417,82.851c-1.075,0.562-2.36,0.838-3.463,1.234
		c-0.139,0.051-1.613,0.638-1.327,1.012c0.363,0.479,0.715,0.969,1.062,1.46c-0.633-0.034-1.288,0.052-1.88,0.157
		c-0.793,0.141-1.473,0.394-2.082,0.719c0.275-0.691,0.579-1.375,0.95-2.052c0.067-0.139,0.037-0.251-0.091-0.338
		c-1.428-0.88-2.752-1.801-3.952-2.915c0.272-0.01,0.545-0.022,0.823-0.01c0.129,0.006,0.328-0.029,0.559-0.086
		c1.104-0.072,2.565-0.49,2.765-1.104c0.05-0.157,0.092-0.316,0.14-0.474c0.288,0.324,0.597,0.626,0.951,0.871
		C75.479,82.431,77.494,82.665,79.417,82.851z"/>
	<linearGradient id="SVGID_2_" gradientUnits="userSpaceOnUse" x1="84.2329" y1="42.6953" x2="104.7949" y2="42.6953">
		<stop  offset="0" style="stop-color:#5AFF45"/>
		<stop  offset="0.9997" style="stop-color:#00FFD7"/>
		<stop  offset="1" style="stop-color:#00FFD7"/>
	</linearGradient>
	<path fill="url(#SVGID_2_)" d="M84.387,41.876c2.232,0.971,5.451,0.974,6.335,3.623c0.711,2.134-0.765,4.277,0.341,6.459
		c0.465,0.923,3.731-0.087,4.037-0.9c0.395-1.055,0.889-2.064,1.405-3.062c0.703,0.618,1.457,1.172,2.355,1.578
		c0.6,0.27,4.335-0.216,3.947-1.238c-0.681-1.796-1.341-3.331-1.487-5.26c-0.19-2.554,1.735-4.509,3.301-6.33
		c0.851-0.99-1.675-0.573-2.011-0.485c-1.497,0.392-2.964,0.804-4.466,1.122c-0.722-1.394-1.658-2.604-2.465-3.957
		c-0.532-0.894-3.712,0.055-4.038,0.901c-0.677,1.757-1.01,3.529-1.205,5.364c-1.442,0.168-2.867,0.448-4.305,0.857
		C86.018,40.58,83.611,41.538,84.387,41.876z M90.557,41.183c0.162,0.003,0.322-0.005,0.485,0.004
		c0.784,0.016,3.265-0.293,3.349-1.378c0.018-0.236,0.039-0.47,0.061-0.703c0.387,0.331,1.39,0.206,2.292-0.085
		c1.021-0.191,2.03-0.414,3.031-0.665c-1.124,1.27-2.313,2.753-2.5,4.225c-0.073,0.563-0.073,1.103-0.033,1.628
		c-0.757-0.001-1.777,0.307-2.446,0.698c-0.033-0.385-0.1-0.77-0.228-1.152C94.053,42.212,92.248,41.628,90.557,41.183z"/>
	<linearGradient id="SVGID_3_" gradientUnits="userSpaceOnUse" x1="65.1401" y1="55.9219" x2="88.2954" y2="55.9219">
		<stop  offset="0" style="stop-color:#5AFF45"/>
		<stop  offset="0.9997" style="stop-color:#00FFD7"/>
		<stop  offset="1" style="stop-color:#00FFD7"/>
	</linearGradient>
	<path fill="url(#SVGID_3_)" d="M68.486,64.129c5.675,5.238,17.016,3.719,19.785-3.847c0.147-0.404-0.427-0.437-0.68-0.447
		c-7.384-0.29-14.816-7.439-10.509-14.811c0.06-0.102-0.071-0.171-0.311-0.209c-0.223-0.209-0.856-0.279-1.854-0.028
		C66.536,46.894,61.397,57.586,68.486,64.129z M72.158,47.784c-2.345,7.082,4.975,12.924,11.956,13.615
		c-1.183,2.93-3.155,4.544-6.512,3.961c-2.425-0.42-4.582-1.805-6.256-3.561C68.095,58.387,68.675,51.256,72.158,47.784z"/>
	<linearGradient id="SVGID_4_" gradientUnits="userSpaceOnUse" x1="47.603" y1="89.6992" x2="54.5786" y2="89.6992">
		<stop  offset="0" style="stop-color:#5AFF45"/>
		<stop  offset="0.9997" style="stop-color:#00FFD7"/>
		<stop  offset="1" style="stop-color:#00FFD7"/>
	</linearGradient>
	<path fill="url(#SVGID_4_)" d="M47.769,90.597c-0.097,0.367-0.14,0.727-0.15,1.109c-0.008,0.307,0.577,0.428,0.761,0.459
		c1.762,0.302,3.948,0.113,5.369-1.088c0.692-0.588,1.028-1.422,0.709-2.303c-0.316-0.871-1-1.373-1.872-1.588
		c-0.836-0.205-1.932,0.015-2.695,0.365c-0.692,0.318-1.359,0.719-1.754,1.393c-0.219,0.37-0.388,0.741-0.508,1.153
		C47.562,90.327,47.629,90.485,47.769,90.597z"/>
	<linearGradient id="SVGID_5_" gradientUnits="userSpaceOnUse" x1="89.4399" y1="70.7432" x2="96.4155" y2="70.7432">
		<stop  offset="0" style="stop-color:#5AFF45"/>
		<stop  offset="0.9997" style="stop-color:#00FFD7"/>
		<stop  offset="1" style="stop-color:#00FFD7"/>
	</linearGradient>
	<path fill="url(#SVGID_5_)" d="M94.422,68.229c-0.836-0.205-1.932,0.014-2.694,0.366c-0.692,0.317-1.359,0.718-1.755,1.392
		c-0.216,0.37-0.386,0.742-0.507,1.154c-0.066,0.229,0.001,0.387,0.141,0.498c-0.098,0.367-0.141,0.727-0.151,1.109
		c-0.008,0.307,0.577,0.429,0.762,0.46c1.762,0.302,3.948,0.112,5.368-1.089c0.692-0.588,1.029-1.422,0.709-2.303
		C95.978,68.946,95.295,68.444,94.422,68.229z"/>
	<linearGradient id="SVGID_6_" gradientUnits="userSpaceOnUse" x1="71.1357" y1="37.623" x2="78.1118" y2="37.623">
		<stop  offset="0" style="stop-color:#5AFF45"/>
		<stop  offset="0.9997" style="stop-color:#00FFD7"/>
		<stop  offset="1" style="stop-color:#00FFD7"/>
	</linearGradient>
	<path fill="url(#SVGID_6_)" d="M71.303,38.519c-0.099,0.368-0.141,0.727-0.151,1.109c-0.009,0.308,0.578,0.429,0.762,0.461
		c1.762,0.301,3.948,0.111,5.366-1.09c0.693-0.587,1.031-1.422,0.711-2.303c-0.315-0.871-1.001-1.372-1.871-1.587
		c-0.838-0.206-1.933,0.015-2.696,0.366c-0.69,0.316-1.358,0.717-1.754,1.391c-0.218,0.371-0.387,0.742-0.507,1.154
		C71.095,38.249,71.162,38.408,71.303,38.519z"/>
	<linearGradient id="SVGID_7_" gradientUnits="userSpaceOnUse" x1="85.9531" y1="93.1865" x2="92.9292" y2="93.1865">
		<stop  offset="0" style="stop-color:#5AFF45"/>
		<stop  offset="0.9997" style="stop-color:#00FFD7"/>
		<stop  offset="1" style="stop-color:#00FFD7"/>
	</linearGradient>
	<path fill="url(#SVGID_7_)" d="M90.935,90.673c-0.835-0.205-1.932,0.015-2.694,0.365c-0.691,0.318-1.357,0.719-1.755,1.393
		c-0.216,0.371-0.386,0.741-0.507,1.154c-0.066,0.229,0.002,0.388,0.141,0.498c-0.098,0.368-0.141,0.727-0.15,1.109
		c-0.009,0.308,0.576,0.429,0.761,0.46c1.763,0.302,3.948,0.112,5.369-1.089c0.692-0.588,1.028-1.422,0.709-2.303
		C92.491,91.39,91.809,90.888,90.935,90.673z"/>
	<linearGradient id="SVGID_8_" gradientUnits="userSpaceOnUse" x1="10.981" y1="71.124" x2="159.7163" y2="71.124">
		<stop  offset="0" style="stop-color:#5AFF45"/>
		<stop  offset="0.9997" style="stop-color:#00FFD7"/>
		<stop  offset="1" style="stop-color:#00FFD7"/>
	</linearGradient>
	<path fill="url(#SVGID_8_)" d="M157.993,108.282c-12.048,1.666-23.739-0.475-35.545,0.421c-5.786,0.438-11.571-0.561-17.359-0.104
		c0.955-0.389,1.899-0.798,2.824-1.25c3.895-1.902,11.824-7.102,8.74-12.411c-1.225-2.109-5.312-2.104-7.263-1.542
		c-1.683,0.485-3.205,1.268-4.686,2.129c0.169-2.107-0.175-4.596-0.199-5.982c-0.091-5.262-0.375-10.52-0.369-15.784
		c0.016-12.814,8.82-31.549,24.288-24.749c-2.543,4.361-2.126,10.199,3.703,13.08c5.813,2.873,11.618-0.405,13.839-5.998
		c1.131-2.847,1.229-6.294-0.356-8.961c-1.062-1.791-3.304-2.486-5.184-3.133c-0.105-0.05-0.231-0.095-0.382-0.132
		c-0.1-0.036-0.209-0.056-0.325-0.067c-2.773-0.612-5.337-0.041-7.432,1.24c-7.566-8.718-18.987-13.049-30.148-14.961
		c-11.535-1.976-23.7-0.858-34.386,4.035C45.035,44.519,31.103,69.256,34.152,94.033c-2.656,0.294-5.131,1.383-6.299,3.617
		c-2.279,4.358,1.655,7.72,5.261,9.317c2.33,1.033,4.773,1.852,7.281,2.521c-2.974,0.083-5.949,0.135-8.937,0.049
		c-6.124-0.178-12.24-0.517-18.367-0.542c-2.324-0.011-3.118,2.961-0.361,2.974c6.234,0.026,12.458,0.381,18.687,0.561
		c5.989,0.174,11.931-0.179,17.914-0.311c3.297-0.072,6.593-0.034,9.889,0.045c2.712,0.193,5.397,0.344,8.006,0.5
		c6.463,0.385,13.285,0.529,19.997-0.09c11.203-0.394,22.378-0.045,33.549-0.897c12.241-0.934,24.379,1.206,36.861-0.521
		C159.869,110.947,160.756,107.9,157.993,108.282z M137.6,46.236c2.864,1.014,4.691,2.1,5.08,5.377
		c0.271,2.281-0.576,4.784-1.676,6.735c-1.619,2.873-4.402,2.469-6.892,0.995c-3.351-1.981-3.815-7.519-1.897-10.785
		c0.354-0.234,0.553-0.483,0.466-0.697c0.109-0.139,0.222-0.271,0.341-0.396c0.21-0.137,0.375-0.282,0.472-0.43
		C134.543,46.185,135.918,45.81,137.6,46.236z M52.234,62.312c-0.891-0.097-1.78-0.203-2.675-0.316
		c-0.916-0.114-2.232,0.127-2.945,0.848c-0.728-0.834-1.766-1.262-3.246-1.151c0.876-1.855,1.851-3.663,2.917-5.415
		c0.668,0.312,2.202,0.236,2.905-0.209c0.512-0.326,1.019-0.662,1.521-1.002C50.459,57.874,50.648,60.081,52.234,62.312z
		 M42.393,63.872c1.692,0.252,1.7,4.16,1.834,5.457c0.128,1.244,3.85,0.217,4.058-0.83c0.291-1.461,0.745-2.813,1.308-4.151
		c1.887,0.21,3.775,0.373,5.683,0.407c0.467,0.008,3.78-0.865,2.711-1.822c-3.839-3.441-3.553-6.266-2.923-11.047
		c0.186-1.399-2.72-0.562-3.259-0.221c-0.797,0.506-1.576,1.036-2.354,1.566c-0.076-0.306-0.134-0.615-0.143-0.928
		c-0.003-0.115-0.084-0.189-0.21-0.235c4.645-6.305,10.59-11.665,17.6-15.521c10.57-5.814,22.71-6.546,34.393-4.372
		c10.096,1.878,20.25,6.258,27.149,14.033c-5.809-1.218-12.178,0.259-17.106,3.457c-6.496,4.217-8.905,12.341-10.68,19.401
		c-1.21,4.819-0.335,10.601-0.181,15.498c0.091,2.922,0.188,5.842,0.197,8.766c0.003,1.025,0.311,3.42-0.128,4.754
		c-0.963,0.511-1.953,0.967-3.006,1.307c-10.481,3.398-22.298,3.271-33.122,1.938c-5.043-0.622-9.866-1.668-14.605-3.51
		c-2.851-1.107-5.765-1.572-8.604-2.883c-0.049-0.022-0.101-0.033-0.151-0.049c-0.743-0.301-1.585-0.537-2.484-0.698
		C36.861,83.855,38.39,73.331,42.393,63.872z M32.516,102.378c-2.736-2.719-0.474-5.405,2.74-5.6c0.987-0.06,2.096,0.176,2.983,0.6
		c0.057,0.028,0.122,0.044,0.186,0.063c0.066,0.039,0.124,0.081,0.203,0.117c2.528,1.167,4.954,1.911,7.629,2.575
		c3.992,0.99,7.728,2.578,11.829,3.322c9.519,1.726,19.457,1.949,29.057,0.82c4.438-0.521,8.825-1.506,13.039-2.989
		c3.061-1.077,9.756-7.771,12.739-4.603c2.503,2.659-4.348,7.096-5.979,8.016c-3.641,2.054-7.753,3.146-11.819,3.976
		c-1.964,0.401-3.95,0.707-5.946,0.949c-0.987,0.044-1.974,0.093-2.96,0.126c-8.489,0.299-16.97-0.136-25.453-0.379
		c-1.227-0.118-2.449-0.242-3.665-0.371c-6.313-0.673-12.702-1.568-18.755-3.543C36.296,104.79,34.071,103.925,32.516,102.378z"/>
</g>
</svg>
