<?xml version="1.0" encoding="utf-8"?>
<!-- Generator: Adobe Illustrator 15.0.0, SVG Export Plug-In . SVG Version: 6.00 Build 0)  -->
<!DOCTYPE svg PUBLIC "-//W3C//DTD SVG 1.1//EN" "http://www.w3.org/Graphics/SVG/1.1/DTD/svg11.dtd">
<svg version="1.1" id="Layer_1" xmlns="http://www.w3.org/2000/svg" xmlns:xlink="http://www.w3.org/1999/xlink" x="0px" y="0px"
	 width="170.697px" height="142.248px" viewBox="0 0 170.697 142.248" enable-background="new 0 0 170.697 142.248"
	 xml:space="preserve">
<g>
	<linearGradient id="SVGID_1_" gradientUnits="userSpaceOnUse" x1="123.1333" y1="96.7578" x2="127.2871" y2="96.7578">
		<stop  offset="0" style="stop-color:#5AFF45"/>
		<stop  offset="0.9997" style="stop-color:#00FFD7"/>
		<stop  offset="1" style="stop-color:#00FFD7"/>
	</linearGradient>
	<path fill="url(#SVGID_1_)" d="M125.656,93.643c-0.054-1.35-2.568-0.999-2.522,0.167c0.088,2.189,1.143,4.189,1.647,6.296
		c0.288,1.204,2.773,0.546,2.482-0.665C126.807,97.532,125.734,95.618,125.656,93.643z"/>
	<linearGradient id="SVGID_2_" gradientUnits="userSpaceOnUse" x1="130.1104" y1="97.332" x2="132.8813" y2="97.332">
		<stop  offset="0" style="stop-color:#5AFF45"/>
		<stop  offset="0.9997" style="stop-color:#00FFD7"/>
		<stop  offset="1" style="stop-color:#00FFD7"/>
	</linearGradient>
	<path fill="url(#SVGID_2_)" d="M132.631,96.2c0-0.631-0.593-0.899-1.16-0.861c-0.508,0.034-1.361,0.403-1.361,1.029
		c0,0.788,0.017,1.584,0.252,2.342c0.369,1.186,2.849,0.508,2.482-0.666C132.655,97.433,132.631,96.835,132.631,96.2z"/>
	<linearGradient id="SVGID_3_" gradientUnits="userSpaceOnUse" x1="136.6499" y1="97.6758" x2="140.0532" y2="97.6758">
		<stop  offset="0" style="stop-color:#5AFF45"/>
		<stop  offset="0.9997" style="stop-color:#00FFD7"/>
		<stop  offset="1" style="stop-color:#00FFD7"/>
	</linearGradient>
	<path fill="url(#SVGID_3_)" d="M137.57,94.292c-0.031,2.475-0.435,4.896-0.916,7.316c-0.128,0.643,2.327,0.228,2.454-0.417
		c0.497-2.503,0.913-5.009,0.945-7.565C140.059,93.167,137.58,93.53,137.57,94.292z"/>
	<linearGradient id="SVGID_4_" gradientUnits="userSpaceOnUse" x1="141.9785" y1="98.0283" x2="144.7114" y2="98.0283">
		<stop  offset="0" style="stop-color:#5AFF45"/>
		<stop  offset="0.9997" style="stop-color:#00FFD7"/>
		<stop  offset="1" style="stop-color:#00FFD7"/>
	</linearGradient>
	<path fill="url(#SVGID_4_)" d="M143.907,96.366c-0.552-0.051-1.37,0.184-1.623,0.738c-0.27,0.591-0.306,1.21-0.306,1.849
		c-0.001,0.604,0.608,0.783,1.126,0.737c0.452-0.041,1.379-0.367,1.38-0.961c0-0.254,0.004-0.508,0.024-0.761
		c0.01-0.138,0.031-0.272,0.057-0.407c0.014-0.065,0.029-0.13,0.048-0.193c-0.021,0.07-0.012,0.056,0.028-0.044
		C144.893,96.774,144.422,96.415,143.907,96.366z"/>
	<linearGradient id="SVGID_5_" gradientUnits="userSpaceOnUse" x1="3.1704" y1="71.124" x2="167.5269" y2="71.124">
		<stop  offset="0" style="stop-color:#5AFF45"/>
		<stop  offset="0.9997" style="stop-color:#00FFD7"/>
		<stop  offset="1" style="stop-color:#00FFD7"/>
	</linearGradient>
	<path fill="url(#SVGID_5_)" d="M166.002,103.871c-5.444,0.269-10.89,0.506-16.335,0.726c0.15-0.146,0.297-0.3,0.435-0.464
		c3.219-3.866,3.433-9.964,5.056-14.56c0.224-0.635-1.75-0.207-2.267,0.17c-0.207-2.297-0.849-4.376-2.499-5.926
		c3.668-4.032,0.418-9.032-3.457-11.842c-3.12-2.262-9.802-2.498-7.836-8.088c0.284-0.808-1.472-0.461-1.733-0.358
		c-4.568,1.804-7.004,5.837-5.257,10.304c-1.803-0.178-3.591-0.129-5.32,0.67c-1.605,0.741-2.033,1.873-1.778,2.979
		c-3.471,1.479-3.332,3.964-1.601,6.477c-2.239,1.094-3.51,3.671-3.181,6.14c-0.252-0.165-0.492-0.348-0.715-0.535
		c-0.041-0.033-0.093-0.058-0.15-0.077c-0.001-0.017-0.005-0.03-0.007-0.046c-0.069-0.59-2.57-0.075-2.482,0.664
		c0.409,3.472,2.095,6.537,3.377,9.741c0.85,2.124,1.774,4.149,3.989,5.153c0.349,0.158,0.712,0.3,1.081,0.434
		c-6.094,0.171-12.189,0.317-18.284,0.436c0.464-0.317,0.873-0.684,1.188-1.111c1.934-2.627,1.991-5.996,2.14-9.139
		c0.371-7.8,1.399-15.578,1.959-23.369c0.231-3.196,0.431-6.396,0.562-9.6c0.061-1.484,0.776-5.166-0.29-6.449
		c-2.49-2.998-9.578-1.363-12.797-1.004c0.681-6.878,1.114-13.792,1.896-20.641c0.013-0.109-0.028-0.191-0.103-0.254
		c-0.005-0.003-0.011-0.007-0.015-0.011c-0.095-0.07-0.234-0.112-0.406-0.128c-1.185-0.207-2.37-0.414-3.555-0.623
		c-0.437-0.076-1.936,0.168-2.02,0.766c-0.982,7.092-1.572,14.225-2.227,21.352c-3.368,0.131-6.724,0.124-10.159,0.162
		c-2.31,0.025-4.61,0.27-6.901,0.557c-0.698-0.005-1.482,0.391-1.456,1.007c0.125,2.958,0.275,5.915,0.433,8.872
		c-0.018,0.073-0.04,0.139-0.057,0.215c-0.044,0.192-0.001,0.34,0.092,0.45c0.331,6.184,0.689,12.366,0.947,18.551
		c0.048,1.134,0.09,2.267,0.133,3.399c-0.103-0.238-0.237-0.48-0.414-0.731c-0.976-1.381-1.707-1.798-3.324-1.379
		c-0.722,0.187-1.903,1.495-2.308,0.282c-0.183-0.552-0.339-1.508-0.959-1.797c-0.102-0.047-0.209-0.081-0.314-0.119
		c0.333-0.11,0.666-0.218,0.997-0.343c0.181-0.068,0.866-0.272,0.823-0.571c-0.659-4.623-1.283-9.469-4.657-12.977
		c-3.516-3.658-10.108-3.583-14.909-3.682c-0.884-1.154-2.367-1.986-3.792-2.136c0.044-1.651,0.091-3.302,0.099-4.955
		c0.004-1.112-2.488-0.611-2.492,0.28c-0.008,1.779-0.061,3.56-0.108,5.338c-0.334,0.275-0.623,0.637-0.844,1.1
		c-0.264,0.117-0.504,0.255-0.714,0.415c-5.362,0.112-11.158,0.156-16.063,2.38c-5.784,2.621-5.996,9.317-5.584,14.834
		c0.007,0.094,0.161,0.139,0.388,0.146c0.778,0.094,1.559,0.181,2.338,0.266c-0.727,0.055-1.454,0.132-2.186,0.298
		c-2.366,0.535-4.065,1.89-5.709,3.635c-2.719,2.889,1.468,3.188,3.88,3.477c0.181,2.002,1.072,3.457,2.43,4.514
		c-0.351,0.043-0.702,0.094-1.059,0.16c-0.401,0.076-1.347,0.288-1.414,0.828c-0.515,4.043,1.789,6.483,5.26,7.959
		c-5.848-0.072-11.696-0.157-17.546-0.259c-1.465-0.026-3.13,0.425-4.39,1.176c-1.007,0.602-0.833,1.224,0.335,1.244
		c53.062,0.929,106.097,0.591,159.111-2.022C164.828,106.153,170.092,103.67,166.002,103.871z M131.309,75.438
		c1.896,0.144,3.751,0.646,5.653,0.725c1.079,0.045,2.594-1.547,0.91-1.616c-0.925-0.038-1.856-0.163-2.79-0.304
		c-1.711-3.189-1.316-6.487,1.214-8.517c-0.193,2.876,2.19,4.805,5.042,5.759c4.064,1.36,10.538,6.701,7.568,11.246
		c-2.687-1.514-6.277-1.454-9.237-1.657c-3.489-0.239-7.397-0.638-10.587-2.177c-0.907-0.438-1.674-1.132-1.689-2.198
		C127.369,74.95,130.452,75.373,131.309,75.438z M125.431,78.492c0.541,0.891,1.464,1.673,2.494,2.093
		c3.842,1.564,8.176,1.928,12.272,2.203c2.376,0.16,4.832,0.301,6.994,1.393c2.361,1.192,3.058,3.814,3.234,6.266
		c-0.397-0.104-0.779-0.316-1.147-0.65c-0.554-0.357-1.91-0.008-2.298,0.5c-0.895,1.17-2.992-0.243-3.748-0.732
		c-0.626-0.404-1.808,0.058-2.298,0.5c-1.097,0.643-2.113,0.554-3.05-0.268c-0.566-0.338-2.124-0.018-2.394,0.642
		c-0.006,0.015-0.013,0.024-0.019,0.038C131.09,88.396,121.484,81.248,125.431,78.492z M124.621,85.461
		c2.284,2.483,5.733,4.787,8.316,5.929c-0.79-0.25-1.607-0.625-2.283-0.516c-1.884,0.307-3.318,0.442-4.862-1.078
		c-0.437-0.43-1.747,0.049-2.129,0.356c-0.227,0.183-0.456,0.312-0.683,0.407C122.392,88.786,122.774,86.222,124.621,85.461z
		 M125.818,103.698c-2.3-1.321-2.924-4.205-3.885-6.457c-0.78-1.829-1.587-3.607-2.108-5.49c0.364,0.08,0.734,0.129,1.105,0.145
		c0.523,0.34,1.411,0.199,1.885-0.196c0.443-0.11,0.878-0.259,1.297-0.455c1.792,1.397,3.926,1.69,5.971,0.905
		c2.259,0.73,5.277,0.881,6.972-0.785c1.608,0.521,3.245,0.377,4.727-0.414c1.96,0.999,4.426,1.436,6.268,0.309
		c0.838,0.359,1.735,0.561,2.622,0.574c0.299,0.279,0.878,0.303,1.384,0.154c-0.909,3.075-1.545,6.23-2.668,9.246
		c-0.526,1.415-1.129,2.623-2.115,3.463c-5.476,0.215-10.952,0.402-16.429,0.57C129.025,104.993,127.279,104.536,125.818,103.698z
		 M97.332,106.036c-2.556-0.104-5.152-0.469-7.539-0.543c-1.587-0.048-4.755,0.621-6.94,0.199c-0.604-0.264-1.119-0.639-1.568-1.17
		c-1.029-1.221,2.163-2.234,2.74-2.439c1.199-0.43,2.404-0.744,3.622-0.984c-0.042,0.744-0.077,1.488-0.103,2.234
		c0.044,0.104,0.122,0.168,0.233,0.194c1.317,0.296,2.377,0.529,3.721,0.361c0.347-0.044,1.361-0.285,1.438-0.742
		c0.176-1.043,0.338-2.088,0.5-3.133c2.424-0.079,4.886,0.105,7.262,0.587c1.099,0.223,2.168,0.561,3.127,1.145
		c0.365,0.224,1.67,2.684,1.348,2.684c-0.59,0-1.297,0.486-1.554,0.932c-0.158,0.056-0.311,0.115-0.483,0.164
		c-0.851,0.237-1.732,0.378-2.634,0.457C99.445,105.999,98.388,106.021,97.332,106.036z M95.918,66.498
		c-0.283,0.29-0.278,0.542-0.113,0.73c-0.075,0.463-0.139,0.927-0.218,1.39c-1.73,10.086-2.84,20.259-4.386,30.37
		c-0.332,0.028-0.666,0.062-1.002,0.097c0.09-1.431,0.206-2.858,0.343-4.285c0.289-3.043,0.717-6.074,1.167-9.098
		c0.892-5.992,2.04-11.946,2.82-17.955c0.442-3.402,0.794-6.814,1.118-10.229c0.482-0.04,0.965-0.086,1.447-0.137
		C96.771,60.43,96.389,63.47,95.918,66.498z M90.612,102.675c-0.589-0.309-0.561-1.053-0.512-1.955
		c0.279-0.032,0.56-0.062,0.84-0.089C90.833,101.312,90.724,101.993,90.612,102.675z M87.76,99.407
		c-2.58,0.432-5.146,1.172-7.278,2.516c-0.213,0.135-0.4,0.271-0.57,0.412c-0.566-2.257-0.512-5.078-0.663-6.882
		c-0.381-4.521-0.379-9.072-0.63-13.601c-0.29-5.265-0.576-10.523-0.837-15.787c1.536-5.982,10.854,0.578,14.218,2.05
		c0.021,0.009,0.047,0.014,0.069,0.021C90.764,78.603,88.527,88.892,87.76,99.407z M108.723,85.275
		c-0.282,3.51-0.702,7.021-0.872,10.538c-0.101,2.091-0.128,4.287-0.78,6.096c-0.289-0.539-0.719-1.06-1.308-1.505
		c-3.026-2.287-8.469-2.158-12.071-2.034c1.506-10.041,2.538-20.148,4.358-30.141c0.081-0.449,0.156-0.899,0.233-1.349
		c1.416-1.209,2.472-2.75,3.93-3.921c2.022-1.627,3.534,0.525,4.718,1.775c1.007,1.062,2.126,1.389,3.296,1.191
		c-0.018,0.31-0.036,0.62-0.053,0.93C109.83,73.01,109.216,79.134,108.723,85.275z M106.601,56.479
		c2.117-0.026,3.792-0.031,3.845,2.338c0.04,1.817-0.033,3.64-0.128,5.46c-0.877,0.164-2.137-1.721-2.647-2.205
		c-0.719-0.677-1.731-1.275-2.747-1.322c-2.893-0.133-4.497,1.423-6.164,3.137c0.329-2.26,0.604-4.525,0.845-6.797
		C101.928,56.801,104.254,56.508,106.601,56.479z M97.92,35.013c0.428,0.075,0.854,0.15,1.282,0.227
		c-0.759,6.712-1.232,13.463-1.902,20.189c-0.489,0.039-0.978,0.074-1.466,0.104C96.462,48.687,97.015,41.831,97.92,35.013z
		 M93.048,57.667c0.045-0.002,0.09-0.005,0.135-0.006c-0.262,2.788-0.546,5.574-0.868,8.357c-4.114-1.98-10.935-5.773-14.702-3.412
		c-0.072-1.522-0.141-3.045-0.206-4.568C82.624,57.526,87.805,57.766,93.048,57.667z M76.482,90.808
		c0.108,2.535,0.243,5.07,0.492,7.6c0.247,2.493,0.346,5.84,2.139,7.83c-4.59,0.034-9.179,0.055-13.768,0.063
		c0.518-0.23,1.023-0.508,1.513-0.855c2.569-1.83,7.278-7.937,2.899-8.646c0.733-0.702,1.171-1.562,1.234-2.596
		C72.948,93.853,75.786,92.65,76.482,90.808z M23.31,93.411c1.563,0.742,2.88,1.741,4.896,1.786c1.772,0.039,3.49-0.657,5.309-0.547
		c2.141,0.13,4.272,0.517,6.39,0.845c0.821,0.127,1.748,0.288,2.734,0.445c0.4,0.137,0.806,0.262,1.218,0.369
		c1.141,0.295,2.229,0.338,3.273,0.195c3.468,0.262,6.991,0,9.271-1.924c2.009-1.695,4.623,0.01,6.996,0.003
		c1.701-0.005,3.405-0.043,5.104-0.149c-0.016,6.546-18.346,4.22-22.449,3.941C40.218,97.98,25.623,101.009,23.31,93.411z
		 M57.996,87.402c-3.523,2.81-7.011,7.233-11.443,7.423c-0.887-0.105-1.724-0.229-2.464-0.332c-0.197-0.062-0.396-0.132-0.599-0.213
		c-4.582-1.828-8.441-5.43-12.288-8.443c5.101,0.392,10.22,0.601,15.324,0.649c3.725,0.036,7.502,0.289,11.248,0.25
		C57.528,87.032,57.516,87.317,57.996,87.402z M70.331,89.277c1.617-0.191,2.578-1.875,3.555,0.347
		c0.947,2.152-1.123,2.902-3.084,3.194c-0.267-0.151-1.016-0.05-1.606,0.161c-0.296,0.02-0.558,0.033-0.769,0.045
		c-1.68,0.099-3.368,0.096-5.051,0.096c-1.817,0.002-3.453-1.381-5.311-1.161c-1.207,0.143-2.182,0.915-3.075,1.667
		c-0.968,0.817-2.289,1.203-3.729,1.348c3.149-1.865,5.92-4.938,8.596-6.99c0.466,0.277,0.927,0.557,1.503,0.557
		c1.152,0.001,2.351-0.145,3.358-0.764c0.454-0.279,0.826-0.549,1.25-0.871c1.796-1.365,1.776,0.849,2.172,1.491
		C68.65,89.227,69.386,89.39,70.331,89.277z M61.741,86.635c-0.038-0.023-0.073-0.042-0.11-0.065c0.854-0.069,1.703-0.164,2.55-0.29
		C63.425,86.802,62.619,87.198,61.741,86.635z M47.901,67.594c0.31,0.192,0.61,0.456,0.873,0.759
		c-0.016,0.047,0.012,0.084,0.095,0.108c0.525,0.65,0.844,1.475,0.578,2.271c-0.494,1.485-2.42,2.253-3.658,1.281
		c-0.568-0.445-1.45-2.111-1.006-2.918c0.065-0.001,0.132-0.006,0.198-0.014c-0.006,0.367-0.014,0.733-0.016,1.101
		c-0.004,1.112,2.488,0.611,2.492-0.28c0.004-0.842,0.018-1.684,0.037-2.526C47.634,67.438,47.769,67.512,47.901,67.594z
		 M24.313,84.04c-0.328-4.441-0.459-9.841,3.232-12.994c3.508-2.997,10.602-2.477,15.129-2.523
		c-0.799,1.389-0.485,3.318,0.883,4.647c2.435,2.362,6.429,0.927,8.061-1.688c0.624-0.997,0.648-2.009,0.298-2.913
		c4.725,0.171,9.8,0.755,12.912,4.527c2.554,3.098,3.015,7.653,3.553,11.5c-0.305,0.101-0.612,0.196-0.922,0.284
		c-0.64,0.021-1.278,0.165-1.847,0.441c-2.014,0.404-4.103,0.592-6.222,0.646c-0.04-0.001-0.077-0.002-0.118-0.002
		c-0.037,0-0.076,0.006-0.115,0.01c-4.633,0.099-9.389-0.391-13.747-0.482c-4.948-0.103-9.907-0.373-14.845-0.811
		c-0.179-0.217-0.584-0.316-1.185-0.119c-0.02,0.006-0.038,0.01-0.059,0.016C27.649,84.422,25.979,84.24,24.313,84.04z M20.1,88.2
		c1.458-1.352,2.879-1.415,4.717-1.461c1.305-0.034,2.537-0.214,3.769-0.533c-0.098,0.152-0.094,0.306,0.074,0.438
		c2.818,2.188,5.677,4.727,8.791,6.723c-2.336-0.357-4.684-0.525-6.827-0.002c-3.615,0.884-4.649-1.146-7.537-1.973
		c-1.386-0.396-2.86-0.369-4.272-0.615C17.289,90.511,19.906,88.382,20.1,88.2z M22.937,98.446c0.615-0.059,1.232-0.086,1.873-0.088
		c0.073,0,0.152-0.012,0.233-0.027c6.16,2.592,16.953,0.873,21.669,1.186c3.125,0.209,15.184,1.257,21.054-1.425
		c3.26-0.213,0.257,3.979-0.574,4.964c-2.404,2.851-5.384,2.764-8.812,3.15c-0.354,0.04-0.704,0.064-1.058,0.101
		c-8.271-0.01-16.54-0.062-24.812-0.144C27.397,105.278,22.732,103.239,22.937,98.446z"/>
</g>
</svg>
